G04 #@! TF.FileFunction,Legend,Bot*
%FSLAX46Y46*%
G04 Gerber Fmt 4.6, Leading zero omitted, Abs format (unit mm)*
G04 Created by KiCad (PCBNEW 4.0.5+dfsg1-4) date Sun Nov 25 11:48:41 2018*
%MOMM*%
%LPD*%
G01*
G04 APERTURE LIST*
%ADD10C,0.100000*%
%ADD11C,0.152400*%
%ADD12C,0.150000*%
%ADD13C,0.137160*%
%ADD14C,0.121920*%
%ADD15C,0.097536*%
G04 APERTURE END LIST*
D10*
D11*
X141485898Y-94983905D02*
X142692398Y-95386071D01*
X141485898Y-95788238D01*
X141485898Y-96420214D02*
X141485898Y-96650024D01*
X141543350Y-96764929D01*
X141658255Y-96879833D01*
X141888064Y-96937286D01*
X142290231Y-96937286D01*
X142520040Y-96879833D01*
X142634945Y-96764929D01*
X142692398Y-96650024D01*
X142692398Y-96420214D01*
X142634945Y-96305310D01*
X142520040Y-96190405D01*
X142290231Y-96132953D01*
X141888064Y-96132953D01*
X141658255Y-96190405D01*
X141543350Y-96305310D01*
X141485898Y-96420214D01*
X141485898Y-97454357D02*
X142462588Y-97454357D01*
X142577493Y-97511809D01*
X142634945Y-97569262D01*
X142692398Y-97684166D01*
X142692398Y-97913976D01*
X142634945Y-98028881D01*
X142577493Y-98086333D01*
X142462588Y-98143785D01*
X141485898Y-98143785D01*
X141485898Y-98545952D02*
X141485898Y-99235380D01*
X142692398Y-98890666D02*
X141485898Y-98890666D01*
X144083350Y-95788238D02*
X144025898Y-95673333D01*
X144025898Y-95500976D01*
X144083350Y-95328619D01*
X144198255Y-95213714D01*
X144313160Y-95156262D01*
X144542969Y-95098810D01*
X144715326Y-95098810D01*
X144945136Y-95156262D01*
X145060040Y-95213714D01*
X145174945Y-95328619D01*
X145232398Y-95500976D01*
X145232398Y-95615881D01*
X145174945Y-95788238D01*
X145117493Y-95845690D01*
X144715326Y-95845690D01*
X144715326Y-95615881D01*
X145232398Y-96362762D02*
X144025898Y-96362762D01*
X145232398Y-97052190D01*
X144025898Y-97052190D01*
X145232398Y-97626714D02*
X144025898Y-97626714D01*
X144025898Y-97913976D01*
X144083350Y-98086333D01*
X144198255Y-98201238D01*
X144313160Y-98258690D01*
X144542969Y-98316142D01*
X144715326Y-98316142D01*
X144945136Y-98258690D01*
X145060040Y-98201238D01*
X145174945Y-98086333D01*
X145232398Y-97913976D01*
X145232398Y-97626714D01*
X160472398Y-95156262D02*
X159265898Y-95156262D01*
X160127683Y-95558429D01*
X159265898Y-95960595D01*
X160472398Y-95960595D01*
X160472398Y-96535119D02*
X159265898Y-96535119D01*
X160414945Y-97052191D02*
X160472398Y-97224548D01*
X160472398Y-97511810D01*
X160414945Y-97626714D01*
X160357493Y-97684167D01*
X160242588Y-97741619D01*
X160127683Y-97741619D01*
X160012779Y-97684167D01*
X159955326Y-97626714D01*
X159897874Y-97511810D01*
X159840421Y-97282000D01*
X159782969Y-97167095D01*
X159725517Y-97109643D01*
X159610612Y-97052191D01*
X159495707Y-97052191D01*
X159380802Y-97109643D01*
X159323350Y-97167095D01*
X159265898Y-97282000D01*
X159265898Y-97569262D01*
X159323350Y-97741619D01*
X159265898Y-98488500D02*
X159265898Y-98718310D01*
X159323350Y-98833215D01*
X159438255Y-98948119D01*
X159668064Y-99005572D01*
X160070231Y-99005572D01*
X160300040Y-98948119D01*
X160414945Y-98833215D01*
X160472398Y-98718310D01*
X160472398Y-98488500D01*
X160414945Y-98373596D01*
X160300040Y-98258691D01*
X160070231Y-98201239D01*
X159668064Y-98201239D01*
X159438255Y-98258691D01*
X159323350Y-98373596D01*
X159265898Y-98488500D01*
D12*
X156129300Y-92303000D02*
X156129300Y-99669000D01*
D13*
X154924161Y-94949136D02*
X154924161Y-95776450D01*
X155337818Y-95362793D02*
X154510504Y-95362793D01*
X154251968Y-96190107D02*
X154251968Y-96862300D01*
X154665625Y-96500350D01*
X154665625Y-96655472D01*
X154717332Y-96758886D01*
X154769039Y-96810593D01*
X154872454Y-96862300D01*
X155130989Y-96862300D01*
X155234404Y-96810593D01*
X155286111Y-96758886D01*
X155337818Y-96655472D01*
X155337818Y-96345229D01*
X155286111Y-96241815D01*
X155234404Y-96190107D01*
X155234404Y-97327665D02*
X155286111Y-97379372D01*
X155337818Y-97327665D01*
X155286111Y-97275958D01*
X155234404Y-97327665D01*
X155337818Y-97327665D01*
X154251968Y-97741321D02*
X154251968Y-98413514D01*
X154665625Y-98051564D01*
X154665625Y-98206686D01*
X154717332Y-98310100D01*
X154769039Y-98361807D01*
X154872454Y-98413514D01*
X155130989Y-98413514D01*
X155234404Y-98361807D01*
X155286111Y-98310100D01*
X155337818Y-98206686D01*
X155337818Y-97896443D01*
X155286111Y-97793029D01*
X155234404Y-97741321D01*
X154251968Y-98723757D02*
X155337818Y-99085707D01*
X154251968Y-99447657D01*
D11*
X165437493Y-95845690D02*
X165494945Y-95788238D01*
X165552398Y-95615881D01*
X165552398Y-95500976D01*
X165494945Y-95328619D01*
X165380040Y-95213714D01*
X165265136Y-95156262D01*
X165035326Y-95098810D01*
X164862969Y-95098810D01*
X164633160Y-95156262D01*
X164518255Y-95213714D01*
X164403350Y-95328619D01*
X164345898Y-95500976D01*
X164345898Y-95615881D01*
X164403350Y-95788238D01*
X164460802Y-95845690D01*
X165494945Y-96305310D02*
X165552398Y-96477667D01*
X165552398Y-96764929D01*
X165494945Y-96879833D01*
X165437493Y-96937286D01*
X165322588Y-96994738D01*
X165207683Y-96994738D01*
X165092779Y-96937286D01*
X165035326Y-96879833D01*
X164977874Y-96764929D01*
X164920421Y-96535119D01*
X164862969Y-96420214D01*
X164805517Y-96362762D01*
X164690612Y-96305310D01*
X164575707Y-96305310D01*
X164460802Y-96362762D01*
X164403350Y-96420214D01*
X164345898Y-96535119D01*
X164345898Y-96822381D01*
X164403350Y-96994738D01*
X165552398Y-98143786D02*
X165552398Y-97454358D01*
X165552398Y-97799072D02*
X164345898Y-97799072D01*
X164518255Y-97684167D01*
X164633160Y-97569262D01*
X164690612Y-97454358D01*
D13*
X162854404Y-95569621D02*
X162906111Y-95517914D01*
X162957818Y-95362793D01*
X162957818Y-95259379D01*
X162906111Y-95104257D01*
X162802696Y-95000843D01*
X162699282Y-94949136D01*
X162492454Y-94897429D01*
X162337332Y-94897429D01*
X162130504Y-94949136D01*
X162027089Y-95000843D01*
X161923675Y-95104257D01*
X161871968Y-95259379D01*
X161871968Y-95362793D01*
X161923675Y-95517914D01*
X161975382Y-95569621D01*
X162957818Y-96552057D02*
X162957818Y-96034986D01*
X161871968Y-96034986D01*
X162957818Y-96914007D02*
X161871968Y-96914007D01*
X162957818Y-97534492D02*
X162337332Y-97069128D01*
X161871968Y-97534492D02*
X162492454Y-96914007D01*
D11*
X133865898Y-94983905D02*
X133865898Y-95673333D01*
X135072398Y-95328619D02*
X133865898Y-95328619D01*
X133865898Y-95960595D02*
X135072398Y-96764928D01*
X133865898Y-96764928D02*
X135072398Y-95960595D01*
D12*
X145969300Y-117703000D02*
X143429300Y-117703000D01*
X143429300Y-117703000D02*
X140889300Y-117703000D01*
X140889300Y-117703000D02*
X130729300Y-117703000D01*
X130729300Y-117703000D02*
X128189300Y-117703000D01*
X148509300Y-117703000D02*
X148509300Y-110337000D01*
X148509300Y-117703000D02*
X151049300Y-117703000D01*
X151049300Y-117703000D02*
X153589300Y-117703000D01*
X153589300Y-117703000D02*
X156129300Y-117703000D01*
X156129300Y-117703000D02*
X161209300Y-117703000D01*
X161209300Y-117703000D02*
X166289300Y-117703000D01*
X166289300Y-117703000D02*
X168829300Y-117703000D01*
X145969300Y-92303000D02*
X143429300Y-92303000D01*
X143429300Y-92303000D02*
X140889300Y-92303000D01*
X140889300Y-92303000D02*
X135809300Y-92303000D01*
X135809300Y-92303000D02*
X130729300Y-92303000D01*
X145969300Y-92303000D02*
X148509300Y-92303000D01*
X148509300Y-92303000D02*
X151049300Y-92303000D01*
X151049300Y-92303000D02*
X153589300Y-92303000D01*
X153589300Y-92303000D02*
X156129300Y-92303000D01*
X156129300Y-92303000D02*
X158669300Y-92303000D01*
X158669300Y-92303000D02*
X166289300Y-92303000D01*
X166289300Y-92303000D02*
X168829300Y-92303000D01*
X128189300Y-117703000D02*
X128189300Y-121995600D01*
X145969300Y-117703000D02*
X145969300Y-122376600D01*
X161209300Y-117703000D02*
X161209300Y-122376600D01*
X168829300Y-117703000D02*
X168829300Y-121995600D01*
X166289300Y-117703000D02*
X166289300Y-110337000D01*
X161209300Y-117703000D02*
X161209300Y-110337000D01*
X156129300Y-117703000D02*
X156129300Y-110337000D01*
X145969300Y-117703000D02*
X145969300Y-110337000D01*
X130729300Y-117703000D02*
X130729300Y-110337000D01*
X130729300Y-92303000D02*
X130729300Y-99669000D01*
X135809300Y-92303000D02*
X135809300Y-99669000D01*
X140889300Y-92303000D02*
X140889300Y-99669000D01*
X145969300Y-92303000D02*
X145969300Y-99669000D01*
X140889300Y-92303000D02*
X140889300Y-87604000D01*
X145969300Y-92303000D02*
X145969300Y-87604000D01*
X168829300Y-92303000D02*
X168829300Y-88112000D01*
X158669300Y-92303000D02*
X158669300Y-87604000D01*
X166289300Y-92303000D02*
X166289300Y-99669000D01*
X151049300Y-117703000D02*
X151049300Y-110337000D01*
X151049300Y-92303000D02*
X151049300Y-99669000D01*
D14*
X156988666Y-121927867D02*
X156529047Y-121927867D01*
X157080590Y-122203638D02*
X156758857Y-121238438D01*
X156437124Y-122203638D01*
X156115390Y-122203638D02*
X156115390Y-121238438D01*
X155655771Y-122203638D02*
X155655771Y-121238438D01*
X155104229Y-122203638D01*
X155104229Y-121238438D01*
X153633448Y-122571333D02*
X153679410Y-122525371D01*
X153771334Y-122387486D01*
X153817296Y-122295562D01*
X153863258Y-122157676D01*
X153909219Y-121927867D01*
X153909219Y-121744019D01*
X153863258Y-121514210D01*
X153817296Y-121376324D01*
X153771334Y-121284400D01*
X153679410Y-121146514D01*
X153633448Y-121100552D01*
X152760172Y-122203638D02*
X153311714Y-122203638D01*
X153035943Y-122203638D02*
X153035943Y-121238438D01*
X153127867Y-121376324D01*
X153219791Y-121468248D01*
X153311714Y-121514210D01*
X152346514Y-122111714D02*
X152300553Y-122157676D01*
X152346514Y-122203638D01*
X152392476Y-122157676D01*
X152346514Y-122111714D01*
X152346514Y-122203638D01*
X151749010Y-121652095D02*
X151840934Y-121606133D01*
X151886895Y-121560171D01*
X151932857Y-121468248D01*
X151932857Y-121422286D01*
X151886895Y-121330362D01*
X151840934Y-121284400D01*
X151749010Y-121238438D01*
X151565162Y-121238438D01*
X151473238Y-121284400D01*
X151427276Y-121330362D01*
X151381315Y-121422286D01*
X151381315Y-121468248D01*
X151427276Y-121560171D01*
X151473238Y-121606133D01*
X151565162Y-121652095D01*
X151749010Y-121652095D01*
X151840934Y-121698057D01*
X151886895Y-121744019D01*
X151932857Y-121835943D01*
X151932857Y-122019790D01*
X151886895Y-122111714D01*
X151840934Y-122157676D01*
X151749010Y-122203638D01*
X151565162Y-122203638D01*
X151473238Y-122157676D01*
X151427276Y-122111714D01*
X151381315Y-122019790D01*
X151381315Y-121835943D01*
X151427276Y-121744019D01*
X151473238Y-121698057D01*
X151565162Y-121652095D01*
X151105543Y-121238438D02*
X150783810Y-122203638D01*
X150462077Y-121238438D01*
X150232267Y-122571333D02*
X150186305Y-122525371D01*
X150094382Y-122387486D01*
X150048420Y-122295562D01*
X150002458Y-122157676D01*
X149956496Y-121927867D01*
X149956496Y-121744019D01*
X150002458Y-121514210D01*
X150048420Y-121376324D01*
X150094382Y-121284400D01*
X150186305Y-121146514D01*
X150232267Y-121100552D01*
D15*
X157735910Y-88711320D02*
X157368215Y-88453933D01*
X157735910Y-88270086D02*
X156963750Y-88270086D01*
X156963750Y-88564242D01*
X157000520Y-88637781D01*
X157037290Y-88674550D01*
X157110829Y-88711320D01*
X157221137Y-88711320D01*
X157294676Y-88674550D01*
X157331446Y-88637781D01*
X157368215Y-88564242D01*
X157368215Y-88270086D01*
X157699141Y-89005476D02*
X157735910Y-89115785D01*
X157735910Y-89299632D01*
X157699141Y-89373171D01*
X157662371Y-89409941D01*
X157588832Y-89446710D01*
X157515293Y-89446710D01*
X157441754Y-89409941D01*
X157404985Y-89373171D01*
X157368215Y-89299632D01*
X157331446Y-89152554D01*
X157294676Y-89079015D01*
X157257907Y-89042246D01*
X157184368Y-89005476D01*
X157110829Y-89005476D01*
X157037290Y-89042246D01*
X157000520Y-89079015D01*
X156963750Y-89152554D01*
X156963750Y-89336402D01*
X157000520Y-89446710D01*
X156963750Y-89667327D02*
X156963750Y-90108561D01*
X157735910Y-89887944D02*
X156963750Y-89887944D01*
D11*
X147394083Y-112890905D02*
X147394083Y-113465428D01*
X147738798Y-112776000D02*
X146532298Y-113178166D01*
X147738798Y-113580333D01*
X147279179Y-113982500D02*
X147279179Y-114901738D01*
X147738798Y-114442119D02*
X146819560Y-114442119D01*
X149220802Y-113120714D02*
X149163350Y-113178166D01*
X149105898Y-113293071D01*
X149105898Y-113580333D01*
X149163350Y-113695237D01*
X149220802Y-113752690D01*
X149335707Y-113810142D01*
X149450612Y-113810142D01*
X149622969Y-113752690D01*
X150312398Y-113063261D01*
X150312398Y-113810142D01*
X149105898Y-114557023D02*
X149105898Y-114671928D01*
X149163350Y-114786833D01*
X149220802Y-114844285D01*
X149335707Y-114901738D01*
X149565517Y-114959190D01*
X149852779Y-114959190D01*
X150082588Y-114901738D01*
X150197493Y-114844285D01*
X150254945Y-114786833D01*
X150312398Y-114671928D01*
X150312398Y-114557023D01*
X150254945Y-114442119D01*
X150197493Y-114384666D01*
X150082588Y-114327214D01*
X149852779Y-114269762D01*
X149565517Y-114269762D01*
X149335707Y-114327214D01*
X149220802Y-114384666D01*
X149163350Y-114442119D01*
X149105898Y-114557023D01*
X151703350Y-112431286D02*
X151645898Y-112316381D01*
X151645898Y-112144024D01*
X151703350Y-111971667D01*
X151818255Y-111856762D01*
X151933160Y-111799310D01*
X152162969Y-111741858D01*
X152335326Y-111741858D01*
X152565136Y-111799310D01*
X152680040Y-111856762D01*
X152794945Y-111971667D01*
X152852398Y-112144024D01*
X152852398Y-112258929D01*
X152794945Y-112431286D01*
X152737493Y-112488738D01*
X152335326Y-112488738D01*
X152335326Y-112258929D01*
X152852398Y-113005810D02*
X151645898Y-113005810D01*
X152852398Y-113695238D01*
X151645898Y-113695238D01*
X152852398Y-114269762D02*
X151645898Y-114269762D01*
X151645898Y-114557024D01*
X151703350Y-114729381D01*
X151818255Y-114844286D01*
X151933160Y-114901738D01*
X152162969Y-114959190D01*
X152335326Y-114959190D01*
X152565136Y-114901738D01*
X152680040Y-114844286D01*
X152794945Y-114729381D01*
X152852398Y-114557024D01*
X152852398Y-114269762D01*
D13*
X154251968Y-111259257D02*
X155337818Y-111621207D01*
X154251968Y-111983157D01*
X154251968Y-112551936D02*
X154251968Y-112758765D01*
X154303675Y-112862179D01*
X154407089Y-112965593D01*
X154613918Y-113017301D01*
X154975868Y-113017301D01*
X155182696Y-112965593D01*
X155286111Y-112862179D01*
X155337818Y-112758765D01*
X155337818Y-112551936D01*
X155286111Y-112448522D01*
X155182696Y-112345108D01*
X154975868Y-112293401D01*
X154613918Y-112293401D01*
X154407089Y-112345108D01*
X154303675Y-112448522D01*
X154251968Y-112551936D01*
X154251968Y-113482665D02*
X155130989Y-113482665D01*
X155234404Y-113534372D01*
X155286111Y-113586079D01*
X155337818Y-113689493D01*
X155337818Y-113896322D01*
X155286111Y-113999736D01*
X155234404Y-114051443D01*
X155130989Y-114103150D01*
X154251968Y-114103150D01*
X154251968Y-114465100D02*
X154251968Y-115085586D01*
X155337818Y-114775343D02*
X154251968Y-114775343D01*
X157826111Y-112345107D02*
X157877818Y-112500228D01*
X157877818Y-112758764D01*
X157826111Y-112862178D01*
X157774404Y-112913885D01*
X157670989Y-112965592D01*
X157567575Y-112965592D01*
X157464161Y-112913885D01*
X157412454Y-112862178D01*
X157360746Y-112758764D01*
X157309039Y-112551935D01*
X157257332Y-112448521D01*
X157205625Y-112396814D01*
X157102211Y-112345107D01*
X156998796Y-112345107D01*
X156895382Y-112396814D01*
X156843675Y-112448521D01*
X156791968Y-112551935D01*
X156791968Y-112810471D01*
X156843675Y-112965592D01*
X157877818Y-113430957D02*
X156791968Y-113430957D01*
X156791968Y-113689492D01*
X156843675Y-113844614D01*
X156947089Y-113948028D01*
X157050504Y-113999735D01*
X157257332Y-114051442D01*
X157412454Y-114051442D01*
X157619282Y-113999735D01*
X157722696Y-113948028D01*
X157826111Y-113844614D01*
X157877818Y-113689492D01*
X157877818Y-113430957D01*
X157567575Y-114465100D02*
X157567575Y-114982171D01*
X157877818Y-114361685D02*
X156791968Y-114723635D01*
X157877818Y-115085585D01*
X160366111Y-112396815D02*
X160417818Y-112551936D01*
X160417818Y-112810472D01*
X160366111Y-112913886D01*
X160314404Y-112965593D01*
X160210989Y-113017300D01*
X160107575Y-113017300D01*
X160004161Y-112965593D01*
X159952454Y-112913886D01*
X159900746Y-112810472D01*
X159849039Y-112603643D01*
X159797332Y-112500229D01*
X159745625Y-112448522D01*
X159642211Y-112396815D01*
X159538796Y-112396815D01*
X159435382Y-112448522D01*
X159383675Y-112500229D01*
X159331968Y-112603643D01*
X159331968Y-112862179D01*
X159383675Y-113017300D01*
X160314404Y-114103150D02*
X160366111Y-114051443D01*
X160417818Y-113896322D01*
X160417818Y-113792908D01*
X160366111Y-113637786D01*
X160262696Y-113534372D01*
X160159282Y-113482665D01*
X159952454Y-113430958D01*
X159797332Y-113430958D01*
X159590504Y-113482665D01*
X159487089Y-113534372D01*
X159383675Y-113637786D01*
X159331968Y-113792908D01*
X159331968Y-113896322D01*
X159383675Y-114051443D01*
X159435382Y-114103150D01*
X160417818Y-115085586D02*
X160417818Y-114568515D01*
X159331968Y-114568515D01*
D11*
X161805898Y-113235619D02*
X161805898Y-113925047D01*
X163012398Y-113580333D02*
X161805898Y-113580333D01*
X161805898Y-114212309D02*
X163012398Y-115016642D01*
X161805898Y-115016642D02*
X163012398Y-114212309D01*
X165552398Y-113810142D02*
X164977874Y-113407976D01*
X165552398Y-113120714D02*
X164345898Y-113120714D01*
X164345898Y-113580333D01*
X164403350Y-113695238D01*
X164460802Y-113752690D01*
X164575707Y-113810142D01*
X164748064Y-113810142D01*
X164862969Y-113752690D01*
X164920421Y-113695238D01*
X164977874Y-113580333D01*
X164977874Y-113120714D01*
X164345898Y-114212309D02*
X165552398Y-115016642D01*
X164345898Y-115016642D02*
X165552398Y-114212309D01*
X167000802Y-113120714D02*
X166943350Y-113178166D01*
X166885898Y-113293071D01*
X166885898Y-113580333D01*
X166943350Y-113695237D01*
X167000802Y-113752690D01*
X167115707Y-113810142D01*
X167230612Y-113810142D01*
X167402969Y-113752690D01*
X168092398Y-113063261D01*
X168092398Y-113810142D01*
X166885898Y-114844285D02*
X166885898Y-114614476D01*
X166943350Y-114499571D01*
X167000802Y-114442119D01*
X167173160Y-114327214D01*
X167402969Y-114269762D01*
X167862588Y-114269762D01*
X167977493Y-114327214D01*
X168034945Y-114384666D01*
X168092398Y-114499571D01*
X168092398Y-114729381D01*
X168034945Y-114844285D01*
X167977493Y-114901738D01*
X167862588Y-114959190D01*
X167575326Y-114959190D01*
X167460421Y-114901738D01*
X167402969Y-114844285D01*
X167345517Y-114729381D01*
X167345517Y-114499571D01*
X167402969Y-114384666D01*
X167460421Y-114327214D01*
X167575326Y-114269762D01*
X144083350Y-112431286D02*
X144025898Y-112316381D01*
X144025898Y-112144024D01*
X144083350Y-111971667D01*
X144198255Y-111856762D01*
X144313160Y-111799310D01*
X144542969Y-111741858D01*
X144715326Y-111741858D01*
X144945136Y-111799310D01*
X145060040Y-111856762D01*
X145174945Y-111971667D01*
X145232398Y-112144024D01*
X145232398Y-112258929D01*
X145174945Y-112431286D01*
X145117493Y-112488738D01*
X144715326Y-112488738D01*
X144715326Y-112258929D01*
X145232398Y-113005810D02*
X144025898Y-113005810D01*
X145232398Y-113695238D01*
X144025898Y-113695238D01*
X145232398Y-114269762D02*
X144025898Y-114269762D01*
X144025898Y-114557024D01*
X144083350Y-114729381D01*
X144198255Y-114844286D01*
X144313160Y-114901738D01*
X144542969Y-114959190D01*
X144715326Y-114959190D01*
X144945136Y-114901738D01*
X145060040Y-114844286D01*
X145174945Y-114729381D01*
X145232398Y-114557024D01*
X145232398Y-114269762D01*
D13*
X142224161Y-110587064D02*
X142224161Y-111414378D01*
X142637818Y-111000721D02*
X141810504Y-111000721D01*
X141551968Y-111828035D02*
X141551968Y-112500228D01*
X141965625Y-112138278D01*
X141965625Y-112293400D01*
X142017332Y-112396814D01*
X142069039Y-112448521D01*
X142172454Y-112500228D01*
X142430989Y-112500228D01*
X142534404Y-112448521D01*
X142586111Y-112396814D01*
X142637818Y-112293400D01*
X142637818Y-111983157D01*
X142586111Y-111879743D01*
X142534404Y-111828035D01*
X142534404Y-112965593D02*
X142586111Y-113017300D01*
X142637818Y-112965593D01*
X142586111Y-112913886D01*
X142534404Y-112965593D01*
X142637818Y-112965593D01*
X141551968Y-113379249D02*
X141551968Y-114051442D01*
X141965625Y-113689492D01*
X141965625Y-113844614D01*
X142017332Y-113948028D01*
X142069039Y-113999735D01*
X142172454Y-114051442D01*
X142430989Y-114051442D01*
X142534404Y-113999735D01*
X142586111Y-113948028D01*
X142637818Y-113844614D01*
X142637818Y-113534371D01*
X142586111Y-113430957D01*
X142534404Y-113379249D01*
X141551968Y-114361685D02*
X142637818Y-114723635D01*
X141551968Y-115085585D01*
D11*
X140152398Y-111109881D02*
X138945898Y-111109881D01*
X139807683Y-111512048D01*
X138945898Y-111914214D01*
X140152398Y-111914214D01*
X138945898Y-112718547D02*
X138945898Y-112948357D01*
X139003350Y-113063262D01*
X139118255Y-113178166D01*
X139348064Y-113235619D01*
X139750231Y-113235619D01*
X139980040Y-113178166D01*
X140094945Y-113063262D01*
X140152398Y-112948357D01*
X140152398Y-112718547D01*
X140094945Y-112603643D01*
X139980040Y-112488738D01*
X139750231Y-112431286D01*
X139348064Y-112431286D01*
X139118255Y-112488738D01*
X139003350Y-112603643D01*
X138945898Y-112718547D01*
X140094945Y-113695238D02*
X140152398Y-113867595D01*
X140152398Y-114154857D01*
X140094945Y-114269761D01*
X140037493Y-114327214D01*
X139922588Y-114384666D01*
X139807683Y-114384666D01*
X139692779Y-114327214D01*
X139635326Y-114269761D01*
X139577874Y-114154857D01*
X139520421Y-113925047D01*
X139462969Y-113810142D01*
X139405517Y-113752690D01*
X139290612Y-113695238D01*
X139175707Y-113695238D01*
X139060802Y-113752690D01*
X139003350Y-113810142D01*
X138945898Y-113925047D01*
X138945898Y-114212309D01*
X139003350Y-114384666D01*
X140152398Y-114901738D02*
X138945898Y-114901738D01*
X137612398Y-111109881D02*
X136405898Y-111109881D01*
X137267683Y-111512048D01*
X136405898Y-111914214D01*
X137612398Y-111914214D01*
X137612398Y-112488738D02*
X136405898Y-112488738D01*
X137554945Y-113005810D02*
X137612398Y-113178167D01*
X137612398Y-113465429D01*
X137554945Y-113580333D01*
X137497493Y-113637786D01*
X137382588Y-113695238D01*
X137267683Y-113695238D01*
X137152779Y-113637786D01*
X137095326Y-113580333D01*
X137037874Y-113465429D01*
X136980421Y-113235619D01*
X136922969Y-113120714D01*
X136865517Y-113063262D01*
X136750612Y-113005810D01*
X136635707Y-113005810D01*
X136520802Y-113063262D01*
X136463350Y-113120714D01*
X136405898Y-113235619D01*
X136405898Y-113522881D01*
X136463350Y-113695238D01*
X136405898Y-114442119D02*
X136405898Y-114671929D01*
X136463350Y-114786834D01*
X136578255Y-114901738D01*
X136808064Y-114959191D01*
X137210231Y-114959191D01*
X137440040Y-114901738D01*
X137554945Y-114786834D01*
X137612398Y-114671929D01*
X137612398Y-114442119D01*
X137554945Y-114327215D01*
X137440040Y-114212310D01*
X137210231Y-114154858D01*
X136808064Y-114154858D01*
X136578255Y-114212310D01*
X136463350Y-114327215D01*
X136405898Y-114442119D01*
D13*
X134914404Y-113017300D02*
X134966111Y-112965593D01*
X135017818Y-112810472D01*
X135017818Y-112707058D01*
X134966111Y-112551936D01*
X134862696Y-112448522D01*
X134759282Y-112396815D01*
X134552454Y-112345108D01*
X134397332Y-112345108D01*
X134190504Y-112396815D01*
X134087089Y-112448522D01*
X133983675Y-112551936D01*
X133931968Y-112707058D01*
X133931968Y-112810472D01*
X133983675Y-112965593D01*
X134035382Y-113017300D01*
X135017818Y-113999736D02*
X135017818Y-113482665D01*
X133931968Y-113482665D01*
X135017818Y-114361686D02*
X133931968Y-114361686D01*
X135017818Y-114982171D02*
X134397332Y-114516807D01*
X133931968Y-114982171D02*
X134552454Y-114361686D01*
D11*
X132417493Y-112661094D02*
X132474945Y-112603642D01*
X132532398Y-112431285D01*
X132532398Y-112316380D01*
X132474945Y-112144023D01*
X132360040Y-112029118D01*
X132245136Y-111971666D01*
X132015326Y-111914214D01*
X131842969Y-111914214D01*
X131613160Y-111971666D01*
X131498255Y-112029118D01*
X131383350Y-112144023D01*
X131325898Y-112316380D01*
X131325898Y-112431285D01*
X131383350Y-112603642D01*
X131440802Y-112661094D01*
X132474945Y-113120714D02*
X132532398Y-113293071D01*
X132532398Y-113580333D01*
X132474945Y-113695237D01*
X132417493Y-113752690D01*
X132302588Y-113810142D01*
X132187683Y-113810142D01*
X132072779Y-113752690D01*
X132015326Y-113695237D01*
X131957874Y-113580333D01*
X131900421Y-113350523D01*
X131842969Y-113235618D01*
X131785517Y-113178166D01*
X131670612Y-113120714D01*
X131555707Y-113120714D01*
X131440802Y-113178166D01*
X131383350Y-113235618D01*
X131325898Y-113350523D01*
X131325898Y-113637785D01*
X131383350Y-113810142D01*
X131325898Y-114557023D02*
X131325898Y-114671928D01*
X131383350Y-114786833D01*
X131440802Y-114844285D01*
X131555707Y-114901738D01*
X131785517Y-114959190D01*
X132072779Y-114959190D01*
X132302588Y-114901738D01*
X132417493Y-114844285D01*
X132474945Y-114786833D01*
X132532398Y-114671928D01*
X132532398Y-114557023D01*
X132474945Y-114442119D01*
X132417493Y-114384666D01*
X132302588Y-114327214D01*
X132072779Y-114269762D01*
X131785517Y-114269762D01*
X131555707Y-114327214D01*
X131440802Y-114384666D01*
X131383350Y-114442119D01*
X131325898Y-114557023D01*
X129302969Y-113350523D02*
X129245517Y-113235618D01*
X129188064Y-113178166D01*
X129073160Y-113120714D01*
X129015707Y-113120714D01*
X128900802Y-113178166D01*
X128843350Y-113235618D01*
X128785898Y-113350523D01*
X128785898Y-113580333D01*
X128843350Y-113695237D01*
X128900802Y-113752690D01*
X129015707Y-113810142D01*
X129073160Y-113810142D01*
X129188064Y-113752690D01*
X129245517Y-113695237D01*
X129302969Y-113580333D01*
X129302969Y-113350523D01*
X129360421Y-113235618D01*
X129417874Y-113178166D01*
X129532779Y-113120714D01*
X129762588Y-113120714D01*
X129877493Y-113178166D01*
X129934945Y-113235618D01*
X129992398Y-113350523D01*
X129992398Y-113580333D01*
X129934945Y-113695237D01*
X129877493Y-113752690D01*
X129762588Y-113810142D01*
X129532779Y-113810142D01*
X129417874Y-113752690D01*
X129360421Y-113695237D01*
X129302969Y-113580333D01*
X129992398Y-114384666D02*
X129992398Y-114614476D01*
X129934945Y-114729381D01*
X129877493Y-114786833D01*
X129705136Y-114901738D01*
X129475326Y-114959190D01*
X129015707Y-114959190D01*
X128900802Y-114901738D01*
X128843350Y-114844285D01*
X128785898Y-114729381D01*
X128785898Y-114499571D01*
X128843350Y-114384666D01*
X128900802Y-114327214D01*
X129015707Y-114269762D01*
X129302969Y-114269762D01*
X129417874Y-114327214D01*
X129475326Y-114384666D01*
X129532779Y-114499571D01*
X129532779Y-114729381D01*
X129475326Y-114844285D01*
X129417874Y-114901738D01*
X129302969Y-114959190D01*
D14*
X127067467Y-110776658D02*
X127067467Y-111236277D01*
X127343238Y-110684734D02*
X126378038Y-111006467D01*
X127343238Y-111328200D01*
X126378038Y-112063591D02*
X126378038Y-111879743D01*
X126424000Y-111787819D01*
X126469962Y-111741857D01*
X126607848Y-111649934D01*
X126791695Y-111603972D01*
X127159390Y-111603972D01*
X127251314Y-111649934D01*
X127297276Y-111695895D01*
X127343238Y-111787819D01*
X127343238Y-111971667D01*
X127297276Y-112063591D01*
X127251314Y-112109553D01*
X127159390Y-112155514D01*
X126929581Y-112155514D01*
X126837657Y-112109553D01*
X126791695Y-112063591D01*
X126745733Y-111971667D01*
X126745733Y-111787819D01*
X126791695Y-111695895D01*
X126837657Y-111649934D01*
X126929581Y-111603972D01*
X126332076Y-113258600D02*
X127573048Y-112431286D01*
X126791695Y-113718219D02*
X126745733Y-113626295D01*
X126699771Y-113580334D01*
X126607848Y-113534372D01*
X126561886Y-113534372D01*
X126469962Y-113580334D01*
X126424000Y-113626295D01*
X126378038Y-113718219D01*
X126378038Y-113902067D01*
X126424000Y-113993991D01*
X126469962Y-114039953D01*
X126561886Y-114085914D01*
X126607848Y-114085914D01*
X126699771Y-114039953D01*
X126745733Y-113993991D01*
X126791695Y-113902067D01*
X126791695Y-113718219D01*
X126837657Y-113626295D01*
X126883619Y-113580334D01*
X126975543Y-113534372D01*
X127159390Y-113534372D01*
X127251314Y-113580334D01*
X127297276Y-113626295D01*
X127343238Y-113718219D01*
X127343238Y-113902067D01*
X127297276Y-113993991D01*
X127251314Y-114039953D01*
X127159390Y-114085914D01*
X126975543Y-114085914D01*
X126883619Y-114039953D01*
X126837657Y-113993991D01*
X126791695Y-113902067D01*
X126378038Y-114407648D02*
X126378038Y-115051114D01*
X127343238Y-114637457D01*
D11*
X154588064Y-88688337D02*
X155392398Y-88688337D01*
X154128445Y-88401075D02*
X154990231Y-88113814D01*
X154990231Y-88860694D01*
X154588064Y-89837385D02*
X155392398Y-89837385D01*
X154128445Y-89550123D02*
X154990231Y-89262862D01*
X154990231Y-90009742D01*
X152048064Y-88688337D02*
X152852398Y-88688337D01*
X151588445Y-88401075D02*
X152450231Y-88113814D01*
X152450231Y-88860694D01*
X151645898Y-89837385D02*
X151645898Y-89607576D01*
X151703350Y-89492671D01*
X151760802Y-89435219D01*
X151933160Y-89320314D01*
X152162969Y-89262862D01*
X152622588Y-89262862D01*
X152737493Y-89320314D01*
X152794945Y-89377766D01*
X152852398Y-89492671D01*
X152852398Y-89722481D01*
X152794945Y-89837385D01*
X152737493Y-89894838D01*
X152622588Y-89952290D01*
X152335326Y-89952290D01*
X152220421Y-89894838D01*
X152162969Y-89837385D01*
X152105517Y-89722481D01*
X152105517Y-89492671D01*
X152162969Y-89377766D01*
X152220421Y-89320314D01*
X152335326Y-89262862D01*
X149105898Y-88688337D02*
X149105898Y-88458528D01*
X149163350Y-88343623D01*
X149220802Y-88286171D01*
X149393160Y-88171266D01*
X149622969Y-88113814D01*
X150082588Y-88113814D01*
X150197493Y-88171266D01*
X150254945Y-88228718D01*
X150312398Y-88343623D01*
X150312398Y-88573433D01*
X150254945Y-88688337D01*
X150197493Y-88745790D01*
X150082588Y-88803242D01*
X149795326Y-88803242D01*
X149680421Y-88745790D01*
X149622969Y-88688337D01*
X149565517Y-88573433D01*
X149565517Y-88343623D01*
X149622969Y-88228718D01*
X149680421Y-88171266D01*
X149795326Y-88113814D01*
X149508064Y-89837385D02*
X150312398Y-89837385D01*
X149048445Y-89550123D02*
X149910231Y-89262862D01*
X149910231Y-90009742D01*
X146968064Y-88688337D02*
X147772398Y-88688337D01*
X146508445Y-88401075D02*
X147370231Y-88113814D01*
X147370231Y-88860694D01*
X146565898Y-89205409D02*
X146565898Y-90009742D01*
X147772398Y-89492671D01*
X143992298Y-89111667D02*
X143992298Y-89801095D01*
X145198798Y-89456381D02*
X143992298Y-89456381D01*
X142232779Y-88975600D02*
X142232779Y-89894838D01*
X142692398Y-89435219D02*
X141773160Y-89435219D01*
X140152398Y-88056362D02*
X138945898Y-88056362D01*
X138945898Y-88515981D01*
X139003350Y-88630886D01*
X139060802Y-88688338D01*
X139175707Y-88745790D01*
X139348064Y-88745790D01*
X139462969Y-88688338D01*
X139520421Y-88630886D01*
X139577874Y-88515981D01*
X139577874Y-88056362D01*
X139520421Y-89665029D02*
X139577874Y-89837386D01*
X139635326Y-89894838D01*
X139750231Y-89952290D01*
X139922588Y-89952290D01*
X140037493Y-89894838D01*
X140094945Y-89837386D01*
X140152398Y-89722481D01*
X140152398Y-89262862D01*
X138945898Y-89262862D01*
X138945898Y-89665029D01*
X139003350Y-89779933D01*
X139060802Y-89837386D01*
X139175707Y-89894838D01*
X139290612Y-89894838D01*
X139405517Y-89837386D01*
X139462969Y-89779933D01*
X139520421Y-89665029D01*
X139520421Y-89262862D01*
X136405898Y-88745790D02*
X136405898Y-88171266D01*
X136980421Y-88113814D01*
X136922969Y-88171266D01*
X136865517Y-88286171D01*
X136865517Y-88573433D01*
X136922969Y-88688337D01*
X136980421Y-88745790D01*
X137095326Y-88803242D01*
X137382588Y-88803242D01*
X137497493Y-88745790D01*
X137554945Y-88688337D01*
X137612398Y-88573433D01*
X137612398Y-88286171D01*
X137554945Y-88171266D01*
X137497493Y-88113814D01*
X136520802Y-89262862D02*
X136463350Y-89320314D01*
X136405898Y-89435219D01*
X136405898Y-89722481D01*
X136463350Y-89837385D01*
X136520802Y-89894838D01*
X136635707Y-89952290D01*
X136750612Y-89952290D01*
X136922969Y-89894838D01*
X137612398Y-89205409D01*
X137612398Y-89952290D01*
X133865898Y-88688337D02*
X133865898Y-88458528D01*
X133923350Y-88343623D01*
X133980802Y-88286171D01*
X134153160Y-88171266D01*
X134382969Y-88113814D01*
X134842588Y-88113814D01*
X134957493Y-88171266D01*
X135014945Y-88228718D01*
X135072398Y-88343623D01*
X135072398Y-88573433D01*
X135014945Y-88688337D01*
X134957493Y-88745790D01*
X134842588Y-88803242D01*
X134555326Y-88803242D01*
X134440421Y-88745790D01*
X134382969Y-88688337D01*
X134325517Y-88573433D01*
X134325517Y-88343623D01*
X134382969Y-88228718D01*
X134440421Y-88171266D01*
X134555326Y-88113814D01*
X133865898Y-89550123D02*
X133865898Y-89665028D01*
X133923350Y-89779933D01*
X133980802Y-89837385D01*
X134095707Y-89894838D01*
X134325517Y-89952290D01*
X134612779Y-89952290D01*
X134842588Y-89894838D01*
X134957493Y-89837385D01*
X135014945Y-89779933D01*
X135072398Y-89665028D01*
X135072398Y-89550123D01*
X135014945Y-89435219D01*
X134957493Y-89377766D01*
X134842588Y-89320314D01*
X134612779Y-89262862D01*
X134325517Y-89262862D01*
X134095707Y-89320314D01*
X133980802Y-89377766D01*
X133923350Y-89435219D01*
X133865898Y-89550123D01*
X131325898Y-88745790D02*
X131325898Y-88171266D01*
X131900421Y-88113814D01*
X131842969Y-88171266D01*
X131785517Y-88286171D01*
X131785517Y-88573433D01*
X131842969Y-88688337D01*
X131900421Y-88745790D01*
X132015326Y-88803242D01*
X132302588Y-88803242D01*
X132417493Y-88745790D01*
X132474945Y-88688337D01*
X132532398Y-88573433D01*
X132532398Y-88286171D01*
X132474945Y-88171266D01*
X132417493Y-88113814D01*
X131325898Y-89205409D02*
X131325898Y-90009742D01*
X132532398Y-89492671D01*
D13*
X128851968Y-88889421D02*
X128851968Y-88372350D01*
X129369039Y-88320643D01*
X129317332Y-88372350D01*
X129265625Y-88475764D01*
X129265625Y-88734300D01*
X129317332Y-88837714D01*
X129369039Y-88889421D01*
X129472454Y-88941128D01*
X129730989Y-88941128D01*
X129834404Y-88889421D01*
X129886111Y-88837714D01*
X129937818Y-88734300D01*
X129937818Y-88475764D01*
X129886111Y-88372350D01*
X129834404Y-88320643D01*
X129317332Y-89561614D02*
X129265625Y-89458200D01*
X129213918Y-89406493D01*
X129110504Y-89354786D01*
X129058796Y-89354786D01*
X128955382Y-89406493D01*
X128903675Y-89458200D01*
X128851968Y-89561614D01*
X128851968Y-89768443D01*
X128903675Y-89871857D01*
X128955382Y-89923564D01*
X129058796Y-89975271D01*
X129110504Y-89975271D01*
X129213918Y-89923564D01*
X129265625Y-89871857D01*
X129317332Y-89768443D01*
X129317332Y-89561614D01*
X129369039Y-89458200D01*
X129420746Y-89406493D01*
X129524161Y-89354786D01*
X129730989Y-89354786D01*
X129834404Y-89406493D01*
X129886111Y-89458200D01*
X129937818Y-89561614D01*
X129937818Y-89768443D01*
X129886111Y-89871857D01*
X129834404Y-89923564D01*
X129730989Y-89975271D01*
X129524161Y-89975271D01*
X129420746Y-89923564D01*
X129369039Y-89871857D01*
X129317332Y-89768443D01*
D11*
X123705898Y-92377386D02*
X123705898Y-91802862D01*
X124280421Y-91745410D01*
X124222969Y-91802862D01*
X124165517Y-91917767D01*
X124165517Y-92205029D01*
X124222969Y-92319933D01*
X124280421Y-92377386D01*
X124395326Y-92434838D01*
X124682588Y-92434838D01*
X124797493Y-92377386D01*
X124854945Y-92319933D01*
X124912398Y-92205029D01*
X124912398Y-91917767D01*
X124854945Y-91802862D01*
X124797493Y-91745410D01*
X124912398Y-93009362D02*
X124912398Y-93239172D01*
X124854945Y-93354077D01*
X124797493Y-93411529D01*
X124625136Y-93526434D01*
X124395326Y-93583886D01*
X123935707Y-93583886D01*
X123820802Y-93526434D01*
X123763350Y-93468981D01*
X123705898Y-93354077D01*
X123705898Y-93124267D01*
X123763350Y-93009362D01*
X123820802Y-92951910D01*
X123935707Y-92894458D01*
X124222969Y-92894458D01*
X124337874Y-92951910D01*
X124395326Y-93009362D01*
X124452779Y-93124267D01*
X124452779Y-93354077D01*
X124395326Y-93468981D01*
X124337874Y-93526434D01*
X124222969Y-93583886D01*
X159265898Y-89837385D02*
X159265898Y-89607576D01*
X159323350Y-89492671D01*
X159380802Y-89435219D01*
X159553160Y-89320314D01*
X159782969Y-89262862D01*
X160242588Y-89262862D01*
X160357493Y-89320314D01*
X160414945Y-89377766D01*
X160472398Y-89492671D01*
X160472398Y-89722481D01*
X160414945Y-89837385D01*
X160357493Y-89894838D01*
X160242588Y-89952290D01*
X159955326Y-89952290D01*
X159840421Y-89894838D01*
X159782969Y-89837385D01*
X159725517Y-89722481D01*
X159725517Y-89492671D01*
X159782969Y-89377766D01*
X159840421Y-89320314D01*
X159955326Y-89262862D01*
X161805898Y-89205409D02*
X161805898Y-89952290D01*
X162265517Y-89550123D01*
X162265517Y-89722481D01*
X162322969Y-89837385D01*
X162380421Y-89894838D01*
X162495326Y-89952290D01*
X162782588Y-89952290D01*
X162897493Y-89894838D01*
X162954945Y-89837385D01*
X163012398Y-89722481D01*
X163012398Y-89377766D01*
X162954945Y-89262862D01*
X162897493Y-89205409D01*
X164460802Y-89262862D02*
X164403350Y-89320314D01*
X164345898Y-89435219D01*
X164345898Y-89722481D01*
X164403350Y-89837385D01*
X164460802Y-89894838D01*
X164575707Y-89952290D01*
X164690612Y-89952290D01*
X164862969Y-89894838D01*
X165552398Y-89205409D01*
X165552398Y-89952290D01*
X166885898Y-89894838D02*
X166885898Y-89320314D01*
X167460421Y-89262862D01*
X167402969Y-89320314D01*
X167345517Y-89435219D01*
X167345517Y-89722481D01*
X167402969Y-89837385D01*
X167460421Y-89894838D01*
X167575326Y-89952290D01*
X167862588Y-89952290D01*
X167977493Y-89894838D01*
X168034945Y-89837385D01*
X168092398Y-89722481D01*
X168092398Y-89435219D01*
X168034945Y-89320314D01*
X167977493Y-89262862D01*
D12*
X168829300Y-92303000D02*
X171369300Y-92303000D01*
D14*
X127343238Y-94920410D02*
X126378038Y-94920410D01*
X126378038Y-95288105D01*
X126424000Y-95380029D01*
X126469962Y-95425990D01*
X126561886Y-95471952D01*
X126699771Y-95471952D01*
X126791695Y-95425990D01*
X126837657Y-95380029D01*
X126883619Y-95288105D01*
X126883619Y-94920410D01*
X126378038Y-95793686D02*
X127343238Y-96023495D01*
X126653810Y-96207343D01*
X127343238Y-96391190D01*
X126378038Y-96621000D01*
X127343238Y-96988696D02*
X126378038Y-96988696D01*
X127067467Y-97310429D01*
X126378038Y-97632162D01*
X127343238Y-97632162D01*
X127343238Y-98597362D02*
X127343238Y-98045820D01*
X127343238Y-98321591D02*
X126378038Y-98321591D01*
X126515924Y-98229667D01*
X126607848Y-98137743D01*
X126653810Y-98045820D01*
X127067467Y-98965058D02*
X127067467Y-99424677D01*
X127343238Y-98873134D02*
X126378038Y-99194867D01*
X127343238Y-99516600D01*
D11*
X128867202Y-95098810D02*
X128809750Y-95156262D01*
X128752298Y-95271167D01*
X128752298Y-95558429D01*
X128809750Y-95673333D01*
X128867202Y-95730786D01*
X128982107Y-95788238D01*
X129097012Y-95788238D01*
X129269369Y-95730786D01*
X129958798Y-95041357D01*
X129958798Y-95788238D01*
X128752298Y-96190405D02*
X128752298Y-96937286D01*
X129211917Y-96535119D01*
X129211917Y-96707477D01*
X129269369Y-96822381D01*
X129326821Y-96879834D01*
X129441726Y-96937286D01*
X129728988Y-96937286D01*
X129843893Y-96879834D01*
X129901345Y-96822381D01*
X129958798Y-96707477D01*
X129958798Y-96362762D01*
X129901345Y-96247858D01*
X129843893Y-96190405D01*
X132532398Y-95845690D02*
X131957874Y-95443524D01*
X132532398Y-95156262D02*
X131325898Y-95156262D01*
X131325898Y-95615881D01*
X131383350Y-95730786D01*
X131440802Y-95788238D01*
X131555707Y-95845690D01*
X131728064Y-95845690D01*
X131842969Y-95788238D01*
X131900421Y-95730786D01*
X131957874Y-95615881D01*
X131957874Y-95156262D01*
X131325898Y-96247857D02*
X132532398Y-97052190D01*
X131325898Y-97052190D02*
X132532398Y-96247857D01*
D13*
X137506111Y-95075829D02*
X137557818Y-95230950D01*
X137557818Y-95489486D01*
X137506111Y-95592900D01*
X137454404Y-95644607D01*
X137350989Y-95696314D01*
X137247575Y-95696314D01*
X137144161Y-95644607D01*
X137092454Y-95592900D01*
X137040746Y-95489486D01*
X136989039Y-95282657D01*
X136937332Y-95179243D01*
X136885625Y-95127536D01*
X136782211Y-95075829D01*
X136678796Y-95075829D01*
X136575382Y-95127536D01*
X136523675Y-95179243D01*
X136471968Y-95282657D01*
X136471968Y-95541193D01*
X136523675Y-95696314D01*
X137454404Y-96782164D02*
X137506111Y-96730457D01*
X137557818Y-96575336D01*
X137557818Y-96471922D01*
X137506111Y-96316800D01*
X137402696Y-96213386D01*
X137299282Y-96161679D01*
X137092454Y-96109972D01*
X136937332Y-96109972D01*
X136730504Y-96161679D01*
X136627089Y-96213386D01*
X136523675Y-96316800D01*
X136471968Y-96471922D01*
X136471968Y-96575336D01*
X136523675Y-96730457D01*
X136575382Y-96782164D01*
X137557818Y-97764600D02*
X137557818Y-97247529D01*
X136471968Y-97247529D01*
X140046111Y-95075829D02*
X140097818Y-95230950D01*
X140097818Y-95489486D01*
X140046111Y-95592900D01*
X139994404Y-95644607D01*
X139890989Y-95696314D01*
X139787575Y-95696314D01*
X139684161Y-95644607D01*
X139632454Y-95592900D01*
X139580746Y-95489486D01*
X139529039Y-95282657D01*
X139477332Y-95179243D01*
X139425625Y-95127536D01*
X139322211Y-95075829D01*
X139218796Y-95075829D01*
X139115382Y-95127536D01*
X139063675Y-95179243D01*
X139011968Y-95282657D01*
X139011968Y-95541193D01*
X139063675Y-95696314D01*
X140097818Y-96161679D02*
X139011968Y-96161679D01*
X139011968Y-96420214D01*
X139063675Y-96575336D01*
X139167089Y-96678750D01*
X139270504Y-96730457D01*
X139477332Y-96782164D01*
X139632454Y-96782164D01*
X139839282Y-96730457D01*
X139942696Y-96678750D01*
X140046111Y-96575336D01*
X140097818Y-96420214D01*
X140097818Y-96161679D01*
X139787575Y-97195822D02*
X139787575Y-97712893D01*
X140097818Y-97092407D02*
X139011968Y-97454357D01*
X140097818Y-97816307D01*
D11*
X146565898Y-95673333D02*
X146565898Y-95443524D01*
X146623350Y-95328619D01*
X146680802Y-95271167D01*
X146853160Y-95156262D01*
X147082969Y-95098810D01*
X147542588Y-95098810D01*
X147657493Y-95156262D01*
X147714945Y-95213714D01*
X147772398Y-95328619D01*
X147772398Y-95558429D01*
X147714945Y-95673333D01*
X147657493Y-95730786D01*
X147542588Y-95788238D01*
X147255326Y-95788238D01*
X147140421Y-95730786D01*
X147082969Y-95673333D01*
X147025517Y-95558429D01*
X147025517Y-95328619D01*
X147082969Y-95213714D01*
X147140421Y-95156262D01*
X147255326Y-95098810D01*
X146565898Y-96879834D02*
X146565898Y-96305310D01*
X147140421Y-96247858D01*
X147082969Y-96305310D01*
X147025517Y-96420215D01*
X147025517Y-96707477D01*
X147082969Y-96822381D01*
X147140421Y-96879834D01*
X147255326Y-96937286D01*
X147542588Y-96937286D01*
X147657493Y-96879834D01*
X147714945Y-96822381D01*
X147772398Y-96707477D01*
X147772398Y-96420215D01*
X147714945Y-96305310D01*
X147657493Y-96247858D01*
X149220802Y-95098810D02*
X149163350Y-95156262D01*
X149105898Y-95271167D01*
X149105898Y-95558429D01*
X149163350Y-95673333D01*
X149220802Y-95730786D01*
X149335707Y-95788238D01*
X149450612Y-95788238D01*
X149622969Y-95730786D01*
X150312398Y-95041357D01*
X150312398Y-95788238D01*
X149105898Y-96190405D02*
X149105898Y-96994738D01*
X150312398Y-96477667D01*
X151703350Y-95788238D02*
X151645898Y-95673333D01*
X151645898Y-95500976D01*
X151703350Y-95328619D01*
X151818255Y-95213714D01*
X151933160Y-95156262D01*
X152162969Y-95098810D01*
X152335326Y-95098810D01*
X152565136Y-95156262D01*
X152680040Y-95213714D01*
X152794945Y-95328619D01*
X152852398Y-95500976D01*
X152852398Y-95615881D01*
X152794945Y-95788238D01*
X152737493Y-95845690D01*
X152335326Y-95845690D01*
X152335326Y-95615881D01*
X152852398Y-96362762D02*
X151645898Y-96362762D01*
X152852398Y-97052190D01*
X151645898Y-97052190D01*
X152852398Y-97626714D02*
X151645898Y-97626714D01*
X151645898Y-97913976D01*
X151703350Y-98086333D01*
X151818255Y-98201238D01*
X151933160Y-98258690D01*
X152162969Y-98316142D01*
X152335326Y-98316142D01*
X152565136Y-98258690D01*
X152680040Y-98201238D01*
X152794945Y-98086333D01*
X152852398Y-97913976D01*
X152852398Y-97626714D01*
X157932398Y-95156262D02*
X156725898Y-95156262D01*
X157587683Y-95558429D01*
X156725898Y-95960595D01*
X157932398Y-95960595D01*
X156725898Y-96764928D02*
X156725898Y-96994738D01*
X156783350Y-97109643D01*
X156898255Y-97224547D01*
X157128064Y-97282000D01*
X157530231Y-97282000D01*
X157760040Y-97224547D01*
X157874945Y-97109643D01*
X157932398Y-96994738D01*
X157932398Y-96764928D01*
X157874945Y-96650024D01*
X157760040Y-96535119D01*
X157530231Y-96477667D01*
X157128064Y-96477667D01*
X156898255Y-96535119D01*
X156783350Y-96650024D01*
X156725898Y-96764928D01*
X157874945Y-97741619D02*
X157932398Y-97913976D01*
X157932398Y-98201238D01*
X157874945Y-98316142D01*
X157817493Y-98373595D01*
X157702588Y-98431047D01*
X157587683Y-98431047D01*
X157472779Y-98373595D01*
X157415326Y-98316142D01*
X157357874Y-98201238D01*
X157300421Y-97971428D01*
X157242969Y-97856523D01*
X157185517Y-97799071D01*
X157070612Y-97741619D01*
X156955707Y-97741619D01*
X156840802Y-97799071D01*
X156783350Y-97856523D01*
X156725898Y-97971428D01*
X156725898Y-98258690D01*
X156783350Y-98431047D01*
X157932398Y-98948119D02*
X156725898Y-98948119D01*
X167288064Y-95673333D02*
X168092398Y-95673333D01*
X166828445Y-95386071D02*
X167690231Y-95098810D01*
X167690231Y-95845690D01*
X166885898Y-96879834D02*
X166885898Y-96305310D01*
X167460421Y-96247858D01*
X167402969Y-96305310D01*
X167345517Y-96420215D01*
X167345517Y-96707477D01*
X167402969Y-96822381D01*
X167460421Y-96879834D01*
X167575326Y-96937286D01*
X167862588Y-96937286D01*
X167977493Y-96879834D01*
X168034945Y-96822381D01*
X168092398Y-96707477D01*
X168092398Y-96420215D01*
X168034945Y-96305310D01*
X167977493Y-96247858D01*
D13*
X129267439Y-120069736D02*
X129267439Y-120431686D01*
X129836218Y-120586807D02*
X129836218Y-120069736D01*
X128750368Y-120069736D01*
X128750368Y-120586807D01*
X129836218Y-121052172D02*
X128750368Y-121052172D01*
X129836218Y-121672657D01*
X128750368Y-121672657D01*
D11*
X131224298Y-119926105D02*
X132430798Y-120328271D01*
X131224298Y-120730438D01*
X131798821Y-121534772D02*
X131856274Y-121707129D01*
X131913726Y-121764581D01*
X132028631Y-121822033D01*
X132200988Y-121822033D01*
X132315893Y-121764581D01*
X132373345Y-121707129D01*
X132430798Y-121592224D01*
X132430798Y-121132605D01*
X131224298Y-121132605D01*
X131224298Y-121534772D01*
X131281750Y-121649676D01*
X131339202Y-121707129D01*
X131454107Y-121764581D01*
X131569012Y-121764581D01*
X131683917Y-121707129D01*
X131741369Y-121649676D01*
X131798821Y-121534772D01*
X131798821Y-121132605D01*
X133764298Y-119926105D02*
X134970798Y-120328271D01*
X133764298Y-120730438D01*
X134970798Y-121132605D02*
X133764298Y-121132605D01*
X137051179Y-120098462D02*
X137051179Y-121017700D01*
X139591179Y-120098462D02*
X139591179Y-121017700D01*
X140050798Y-120558081D02*
X139131560Y-120558081D01*
X142590798Y-120098462D02*
X141384298Y-120098462D01*
X142590798Y-120672986D02*
X141384298Y-120672986D01*
X141384298Y-120960248D01*
X141441750Y-121132605D01*
X141556655Y-121247510D01*
X141671560Y-121304962D01*
X141901369Y-121362414D01*
X142073726Y-121362414D01*
X142303536Y-121304962D01*
X142418440Y-121247510D01*
X142533345Y-121132605D01*
X142590798Y-120960248D01*
X142590798Y-120672986D01*
D15*
X144190720Y-120450912D02*
X144153950Y-120377373D01*
X144153950Y-120267065D01*
X144190720Y-120156756D01*
X144264259Y-120083217D01*
X144337798Y-120046448D01*
X144484876Y-120009678D01*
X144595185Y-120009678D01*
X144742263Y-120046448D01*
X144815802Y-120083217D01*
X144889341Y-120156756D01*
X144926110Y-120267065D01*
X144926110Y-120340604D01*
X144889341Y-120450912D01*
X144852571Y-120487682D01*
X144595185Y-120487682D01*
X144595185Y-120340604D01*
X144926110Y-120818608D02*
X144153950Y-120818608D01*
X144926110Y-121259842D01*
X144153950Y-121259842D01*
X144926110Y-121627538D02*
X144153950Y-121627538D01*
X144153950Y-121811385D01*
X144190720Y-121921694D01*
X144264259Y-121995233D01*
X144337798Y-122032002D01*
X144484876Y-122068772D01*
X144595185Y-122068772D01*
X144742263Y-122032002D01*
X144815802Y-121995233D01*
X144889341Y-121921694D01*
X144926110Y-121811385D01*
X144926110Y-121627538D01*
D11*
X147226419Y-120207682D02*
X147226419Y-121126920D01*
X149019538Y-120437491D02*
X149019538Y-120552396D01*
X149076990Y-120667301D01*
X149134442Y-120724753D01*
X149249347Y-120782206D01*
X149479157Y-120839658D01*
X149766419Y-120839658D01*
X149996228Y-120782206D01*
X150111133Y-120724753D01*
X150168585Y-120667301D01*
X150226038Y-120552396D01*
X150226038Y-120437491D01*
X150168585Y-120322587D01*
X150111133Y-120265134D01*
X149996228Y-120207682D01*
X149766419Y-120150230D01*
X149479157Y-120150230D01*
X149249347Y-120207682D01*
X149134442Y-120265134D01*
X149076990Y-120322587D01*
X149019538Y-120437491D01*
X152766038Y-120839658D02*
X152766038Y-120150230D01*
X152766038Y-120494944D02*
X151559538Y-120494944D01*
X151731895Y-120380039D01*
X151846800Y-120265134D01*
X151904252Y-120150230D01*
X154214442Y-120150230D02*
X154156990Y-120207682D01*
X154099538Y-120322587D01*
X154099538Y-120609849D01*
X154156990Y-120724753D01*
X154214442Y-120782206D01*
X154329347Y-120839658D01*
X154444252Y-120839658D01*
X154616609Y-120782206D01*
X155306038Y-120092777D01*
X155306038Y-120839658D01*
X156639538Y-120092777D02*
X156639538Y-120839658D01*
X157099157Y-120437491D01*
X157099157Y-120609849D01*
X157156609Y-120724753D01*
X157214061Y-120782206D01*
X157328966Y-120839658D01*
X157616228Y-120839658D01*
X157731133Y-120782206D01*
X157788585Y-120724753D01*
X157846038Y-120609849D01*
X157846038Y-120265134D01*
X157788585Y-120150230D01*
X157731133Y-120092777D01*
X159581704Y-120724753D02*
X160386038Y-120724753D01*
X159122085Y-120437491D02*
X159983871Y-120150230D01*
X159983871Y-120897110D01*
X161805898Y-120082617D02*
X161805898Y-120886950D01*
X163012398Y-120369879D01*
X164748064Y-120714593D02*
X165552398Y-120714593D01*
X164288445Y-120427331D02*
X165150231Y-120140070D01*
X165150231Y-120886950D01*
X168092398Y-120829498D02*
X168092398Y-120140070D01*
X168092398Y-120484784D02*
X166885898Y-120484784D01*
X167058255Y-120369879D01*
X167173160Y-120254974D01*
X167230612Y-120140070D01*
X173235898Y-114387694D02*
X172029398Y-114387694D01*
X172029398Y-114847313D01*
X172086850Y-114962218D01*
X172144302Y-115019670D01*
X172259207Y-115077122D01*
X172431564Y-115077122D01*
X172546469Y-115019670D01*
X172603921Y-114962218D01*
X172661374Y-114847313D01*
X172661374Y-114387694D01*
X173235898Y-116226170D02*
X173235898Y-115536742D01*
X173235898Y-115881456D02*
X172029398Y-115881456D01*
X172201755Y-115766551D01*
X172316660Y-115651646D01*
X172374112Y-115536742D01*
X173120993Y-116743242D02*
X173178445Y-116800694D01*
X173235898Y-116743242D01*
X173178445Y-116685790D01*
X173120993Y-116743242D01*
X173235898Y-116743242D01*
X173235898Y-117949742D02*
X173235898Y-117260314D01*
X173235898Y-117605028D02*
X172029398Y-117605028D01*
X172201755Y-117490123D01*
X172316660Y-117375218D01*
X172374112Y-117260314D01*
X172029398Y-118696623D02*
X172029398Y-118811528D01*
X172086850Y-118926433D01*
X172144302Y-118983885D01*
X172259207Y-119041338D01*
X172489017Y-119098790D01*
X172776279Y-119098790D01*
X173006088Y-119041338D01*
X173120993Y-118983885D01*
X173178445Y-118926433D01*
X173235898Y-118811528D01*
X173235898Y-118696623D01*
X173178445Y-118581719D01*
X173120993Y-118524266D01*
X173006088Y-118466814D01*
X172776279Y-118409362D01*
X172489017Y-118409362D01*
X172259207Y-118466814D01*
X172144302Y-118524266D01*
X172086850Y-118581719D01*
X172029398Y-118696623D01*
D14*
X170523238Y-110611886D02*
X169558038Y-110611886D01*
X169558038Y-110979581D01*
X169604000Y-111071505D01*
X169649962Y-111117466D01*
X169741886Y-111163428D01*
X169879771Y-111163428D01*
X169971695Y-111117466D01*
X170017657Y-111071505D01*
X170063619Y-110979581D01*
X170063619Y-110611886D01*
X169558038Y-111485162D02*
X170523238Y-111714971D01*
X169833810Y-111898819D01*
X170523238Y-112082666D01*
X169558038Y-112312476D01*
X170523238Y-112680172D02*
X169558038Y-112680172D01*
X170247467Y-113001905D01*
X169558038Y-113323638D01*
X170523238Y-113323638D01*
X169558038Y-113967105D02*
X169558038Y-114059029D01*
X169604000Y-114150953D01*
X169649962Y-114196915D01*
X169741886Y-114242877D01*
X169925733Y-114288838D01*
X170155543Y-114288838D01*
X170339390Y-114242877D01*
X170431314Y-114196915D01*
X170477276Y-114150953D01*
X170523238Y-114059029D01*
X170523238Y-113967105D01*
X170477276Y-113875181D01*
X170431314Y-113829219D01*
X170339390Y-113783258D01*
X170155543Y-113737296D01*
X169925733Y-113737296D01*
X169741886Y-113783258D01*
X169649962Y-113829219D01*
X169604000Y-113875181D01*
X169558038Y-113967105D01*
X170247467Y-114656534D02*
X170247467Y-115116153D01*
X170523238Y-114564610D02*
X169558038Y-114886343D01*
X170523238Y-115208076D01*
D11*
X123769398Y-115808886D02*
X124975898Y-116211052D01*
X123769398Y-116613219D01*
X124975898Y-117015386D02*
X123769398Y-117015386D01*
X124975898Y-117589910D02*
X123769398Y-117589910D01*
X124975898Y-118279338D01*
X123769398Y-118279338D01*
D14*
X166580190Y-122203638D02*
X166580190Y-121238438D01*
X166212495Y-121238438D01*
X166120571Y-121284400D01*
X166074610Y-121330362D01*
X166028648Y-121422286D01*
X166028648Y-121560171D01*
X166074610Y-121652095D01*
X166120571Y-121698057D01*
X166212495Y-121744019D01*
X166580190Y-121744019D01*
X165063448Y-122203638D02*
X165385181Y-121744019D01*
X165614990Y-122203638D02*
X165614990Y-121238438D01*
X165247295Y-121238438D01*
X165155371Y-121284400D01*
X165109410Y-121330362D01*
X165063448Y-121422286D01*
X165063448Y-121560171D01*
X165109410Y-121652095D01*
X165155371Y-121698057D01*
X165247295Y-121744019D01*
X165614990Y-121744019D01*
X164649790Y-121238438D02*
X164649790Y-122019790D01*
X164603829Y-122111714D01*
X164557867Y-122157676D01*
X164465943Y-122203638D01*
X164282095Y-122203638D01*
X164190171Y-122157676D01*
X164144210Y-122111714D01*
X164098248Y-122019790D01*
X164098248Y-121238438D01*
X163454781Y-121238438D02*
X163362857Y-121238438D01*
X163270933Y-121284400D01*
X163224971Y-121330362D01*
X163179009Y-121422286D01*
X163133048Y-121606133D01*
X163133048Y-121835943D01*
X163179009Y-122019790D01*
X163224971Y-122111714D01*
X163270933Y-122157676D01*
X163362857Y-122203638D01*
X163454781Y-122203638D01*
X163546705Y-122157676D01*
X163592667Y-122111714D01*
X163638628Y-122019790D01*
X163684590Y-121835943D01*
X163684590Y-121606133D01*
X163638628Y-121422286D01*
X163592667Y-121330362D01*
X163546705Y-121284400D01*
X163454781Y-121238438D01*
X165500690Y-88739138D02*
X165500690Y-87773938D01*
X165132995Y-87773938D01*
X165041071Y-87819900D01*
X164995110Y-87865862D01*
X164949148Y-87957786D01*
X164949148Y-88095671D01*
X164995110Y-88187595D01*
X165041071Y-88233557D01*
X165132995Y-88279519D01*
X165500690Y-88279519D01*
X163983948Y-88739138D02*
X164305681Y-88279519D01*
X164535490Y-88739138D02*
X164535490Y-87773938D01*
X164167795Y-87773938D01*
X164075871Y-87819900D01*
X164029910Y-87865862D01*
X163983948Y-87957786D01*
X163983948Y-88095671D01*
X164029910Y-88187595D01*
X164075871Y-88233557D01*
X164167795Y-88279519D01*
X164535490Y-88279519D01*
X163570290Y-87773938D02*
X163570290Y-88555290D01*
X163524329Y-88647214D01*
X163478367Y-88693176D01*
X163386443Y-88739138D01*
X163202595Y-88739138D01*
X163110671Y-88693176D01*
X163064710Y-88647214D01*
X163018748Y-88555290D01*
X163018748Y-87773938D01*
X162375281Y-87773938D02*
X162283357Y-87773938D01*
X162191433Y-87819900D01*
X162145471Y-87865862D01*
X162099509Y-87957786D01*
X162053548Y-88141633D01*
X162053548Y-88371443D01*
X162099509Y-88555290D01*
X162145471Y-88647214D01*
X162191433Y-88693176D01*
X162283357Y-88739138D01*
X162375281Y-88739138D01*
X162467205Y-88693176D01*
X162513167Y-88647214D01*
X162559128Y-88555290D01*
X162605090Y-88371443D01*
X162605090Y-88141633D01*
X162559128Y-87957786D01*
X162513167Y-87865862D01*
X162467205Y-87819900D01*
X162375281Y-87773938D01*
X144065509Y-88233557D02*
X143927623Y-88279519D01*
X143881662Y-88325481D01*
X143835700Y-88417405D01*
X143835700Y-88555290D01*
X143881662Y-88647214D01*
X143927623Y-88693176D01*
X144019547Y-88739138D01*
X144387242Y-88739138D01*
X144387242Y-87773938D01*
X144065509Y-87773938D01*
X143973585Y-87819900D01*
X143927623Y-87865862D01*
X143881662Y-87957786D01*
X143881662Y-88049710D01*
X143927623Y-88141633D01*
X143973585Y-88187595D01*
X144065509Y-88233557D01*
X144387242Y-88233557D01*
X143468004Y-88463367D02*
X143008385Y-88463367D01*
X143559928Y-88739138D02*
X143238195Y-87773938D01*
X142916462Y-88739138D01*
X142732614Y-87773938D02*
X142181071Y-87773938D01*
X142456843Y-88739138D02*
X142456843Y-87773938D01*
D12*
X171369300Y-92303000D02*
X171369300Y-96621000D01*
X171369300Y-96621000D02*
X171369300Y-99669000D01*
X130729300Y-92303000D02*
X128189300Y-92303000D01*
X128189300Y-92303000D02*
X125649300Y-92303000D01*
X128189300Y-117703000D02*
X125649300Y-117703000D01*
X125649300Y-117703000D02*
X125649300Y-113385000D01*
X140889300Y-117703000D02*
X140889300Y-110337000D01*
D14*
X140268209Y-121238438D02*
X140268209Y-122019790D01*
X140222248Y-122111714D01*
X140176286Y-122157676D01*
X140084362Y-122203638D01*
X139900514Y-122203638D01*
X139808590Y-122157676D01*
X139762629Y-122111714D01*
X139716667Y-122019790D01*
X139716667Y-121238438D01*
X139303009Y-122157676D02*
X139165124Y-122203638D01*
X138935314Y-122203638D01*
X138843390Y-122157676D01*
X138797428Y-122111714D01*
X138751467Y-122019790D01*
X138751467Y-121927867D01*
X138797428Y-121835943D01*
X138843390Y-121789981D01*
X138935314Y-121744019D01*
X139119162Y-121698057D01*
X139211086Y-121652095D01*
X139257047Y-121606133D01*
X139303009Y-121514210D01*
X139303009Y-121422286D01*
X139257047Y-121330362D01*
X139211086Y-121284400D01*
X139119162Y-121238438D01*
X138889352Y-121238438D01*
X138751467Y-121284400D01*
X138016076Y-121698057D02*
X137878190Y-121744019D01*
X137832229Y-121789981D01*
X137786267Y-121881905D01*
X137786267Y-122019790D01*
X137832229Y-122111714D01*
X137878190Y-122157676D01*
X137970114Y-122203638D01*
X138337809Y-122203638D01*
X138337809Y-121238438D01*
X138016076Y-121238438D01*
X137924152Y-121284400D01*
X137878190Y-121330362D01*
X137832229Y-121422286D01*
X137832229Y-121514210D01*
X137878190Y-121606133D01*
X137924152Y-121652095D01*
X138016076Y-121698057D01*
X138337809Y-121698057D01*
X136867029Y-122203638D02*
X137418571Y-122203638D01*
X137142800Y-122203638D02*
X137142800Y-121238438D01*
X137234724Y-121376324D01*
X137326648Y-121468248D01*
X137418571Y-121514210D01*
D12*
X171369300Y-117703000D02*
X171369300Y-113385000D01*
X168829300Y-117703000D02*
X171369300Y-117703000D01*
X168829300Y-117703000D02*
X168829300Y-110337000D01*
X173909300Y-118592000D02*
X173909300Y-113385000D01*
X123109300Y-118592000D02*
X123109300Y-113385000D01*
X125649300Y-92303000D02*
X125649300Y-96621000D01*
X125649300Y-96621000D02*
X125649300Y-99669000D01*
X123109300Y-96621000D02*
X125649300Y-96621000D01*
X123109300Y-91414000D02*
X123109300Y-96621000D01*
X156129300Y-92303000D02*
X156129300Y-87604000D01*
X128189300Y-117703000D02*
X128189300Y-110337000D01*
X148509300Y-92303000D02*
X148509300Y-99669000D01*
X143429300Y-92303000D02*
X143429300Y-99669000D01*
X128189300Y-92303000D02*
X128189300Y-99669000D01*
X171369300Y-96621000D02*
X173909300Y-96621000D01*
X173909300Y-91414000D02*
X173909300Y-96621000D01*
X153589300Y-117703000D02*
X153589300Y-110337000D01*
X143429300Y-117703000D02*
X143429300Y-110337000D01*
X128189300Y-90271000D02*
X128189300Y-92303000D01*
X141228000Y-99297000D02*
X141728000Y-99297000D01*
X141728000Y-100347000D02*
X141228000Y-100347000D01*
X170692000Y-99297000D02*
X171192000Y-99297000D01*
X171192000Y-100347000D02*
X170692000Y-100347000D01*
X139188000Y-100347000D02*
X138688000Y-100347000D01*
X138688000Y-99297000D02*
X139188000Y-99297000D01*
X168398000Y-100347000D02*
X167898000Y-100347000D01*
X167898000Y-99297000D02*
X168398000Y-99297000D01*
X139442000Y-105427000D02*
X138942000Y-105427000D01*
X138942000Y-104377000D02*
X139442000Y-104377000D01*
X170692000Y-104377000D02*
X171192000Y-104377000D01*
X171192000Y-105427000D02*
X170692000Y-105427000D01*
X139188000Y-110507000D02*
X138688000Y-110507000D01*
X138688000Y-109457000D02*
X139188000Y-109457000D01*
X170692000Y-109457000D02*
X171192000Y-109457000D01*
X171192000Y-110507000D02*
X170692000Y-110507000D01*
X127750000Y-105300000D02*
X127750000Y-104300000D01*
X129450000Y-104300000D02*
X129450000Y-105300000D01*
X123676000Y-102006000D02*
X126724000Y-102006000D01*
X126724000Y-105689000D02*
X126724000Y-107594000D01*
X126724000Y-107594000D02*
X123676000Y-107594000D01*
X123676000Y-107594000D02*
X123676000Y-105689000D01*
X123676000Y-104038000D02*
X123676000Y-102006000D01*
X123676000Y-102206000D02*
X126724000Y-102206000D01*
X126724000Y-102006000D02*
X126724000Y-104038000D01*
X141644666Y-98474381D02*
X141978000Y-97998190D01*
X142216095Y-98474381D02*
X142216095Y-97474381D01*
X141835142Y-97474381D01*
X141739904Y-97522000D01*
X141692285Y-97569619D01*
X141644666Y-97664857D01*
X141644666Y-97807714D01*
X141692285Y-97902952D01*
X141739904Y-97950571D01*
X141835142Y-97998190D01*
X142216095Y-97998190D01*
X140692285Y-98474381D02*
X141263714Y-98474381D01*
X140978000Y-98474381D02*
X140978000Y-97474381D01*
X141073238Y-97617238D01*
X141168476Y-97712476D01*
X141263714Y-97760095D01*
X171108666Y-98474381D02*
X171442000Y-97998190D01*
X171680095Y-98474381D02*
X171680095Y-97474381D01*
X171299142Y-97474381D01*
X171203904Y-97522000D01*
X171156285Y-97569619D01*
X171108666Y-97664857D01*
X171108666Y-97807714D01*
X171156285Y-97902952D01*
X171203904Y-97950571D01*
X171299142Y-97998190D01*
X171680095Y-97998190D01*
X170727714Y-97569619D02*
X170680095Y-97522000D01*
X170584857Y-97474381D01*
X170346761Y-97474381D01*
X170251523Y-97522000D01*
X170203904Y-97569619D01*
X170156285Y-97664857D01*
X170156285Y-97760095D01*
X170203904Y-97902952D01*
X170775333Y-98474381D01*
X170156285Y-98474381D01*
X139104666Y-102074381D02*
X139438000Y-101598190D01*
X139676095Y-102074381D02*
X139676095Y-101074381D01*
X139295142Y-101074381D01*
X139199904Y-101122000D01*
X139152285Y-101169619D01*
X139104666Y-101264857D01*
X139104666Y-101407714D01*
X139152285Y-101502952D01*
X139199904Y-101550571D01*
X139295142Y-101598190D01*
X139676095Y-101598190D01*
X138771333Y-101074381D02*
X138152285Y-101074381D01*
X138485619Y-101455333D01*
X138342761Y-101455333D01*
X138247523Y-101502952D01*
X138199904Y-101550571D01*
X138152285Y-101645810D01*
X138152285Y-101883905D01*
X138199904Y-101979143D01*
X138247523Y-102026762D01*
X138342761Y-102074381D01*
X138628476Y-102074381D01*
X138723714Y-102026762D01*
X138771333Y-101979143D01*
X168314666Y-102074381D02*
X168648000Y-101598190D01*
X168886095Y-102074381D02*
X168886095Y-101074381D01*
X168505142Y-101074381D01*
X168409904Y-101122000D01*
X168362285Y-101169619D01*
X168314666Y-101264857D01*
X168314666Y-101407714D01*
X168362285Y-101502952D01*
X168409904Y-101550571D01*
X168505142Y-101598190D01*
X168886095Y-101598190D01*
X167457523Y-101407714D02*
X167457523Y-102074381D01*
X167695619Y-101026762D02*
X167933714Y-101741048D01*
X167314666Y-101741048D01*
X139358666Y-107154381D02*
X139692000Y-106678190D01*
X139930095Y-107154381D02*
X139930095Y-106154381D01*
X139549142Y-106154381D01*
X139453904Y-106202000D01*
X139406285Y-106249619D01*
X139358666Y-106344857D01*
X139358666Y-106487714D01*
X139406285Y-106582952D01*
X139453904Y-106630571D01*
X139549142Y-106678190D01*
X139930095Y-106678190D01*
X138453904Y-106154381D02*
X138930095Y-106154381D01*
X138977714Y-106630571D01*
X138930095Y-106582952D01*
X138834857Y-106535333D01*
X138596761Y-106535333D01*
X138501523Y-106582952D01*
X138453904Y-106630571D01*
X138406285Y-106725810D01*
X138406285Y-106963905D01*
X138453904Y-107059143D01*
X138501523Y-107106762D01*
X138596761Y-107154381D01*
X138834857Y-107154381D01*
X138930095Y-107106762D01*
X138977714Y-107059143D01*
X171108666Y-103554381D02*
X171442000Y-103078190D01*
X171680095Y-103554381D02*
X171680095Y-102554381D01*
X171299142Y-102554381D01*
X171203904Y-102602000D01*
X171156285Y-102649619D01*
X171108666Y-102744857D01*
X171108666Y-102887714D01*
X171156285Y-102982952D01*
X171203904Y-103030571D01*
X171299142Y-103078190D01*
X171680095Y-103078190D01*
X170251523Y-102554381D02*
X170442000Y-102554381D01*
X170537238Y-102602000D01*
X170584857Y-102649619D01*
X170680095Y-102792476D01*
X170727714Y-102982952D01*
X170727714Y-103363905D01*
X170680095Y-103459143D01*
X170632476Y-103506762D01*
X170537238Y-103554381D01*
X170346761Y-103554381D01*
X170251523Y-103506762D01*
X170203904Y-103459143D01*
X170156285Y-103363905D01*
X170156285Y-103125810D01*
X170203904Y-103030571D01*
X170251523Y-102982952D01*
X170346761Y-102935333D01*
X170537238Y-102935333D01*
X170632476Y-102982952D01*
X170680095Y-103030571D01*
X170727714Y-103125810D01*
X139104666Y-112234381D02*
X139438000Y-111758190D01*
X139676095Y-112234381D02*
X139676095Y-111234381D01*
X139295142Y-111234381D01*
X139199904Y-111282000D01*
X139152285Y-111329619D01*
X139104666Y-111424857D01*
X139104666Y-111567714D01*
X139152285Y-111662952D01*
X139199904Y-111710571D01*
X139295142Y-111758190D01*
X139676095Y-111758190D01*
X138771333Y-111234381D02*
X138104666Y-111234381D01*
X138533238Y-112234381D01*
X171108666Y-108634381D02*
X171442000Y-108158190D01*
X171680095Y-108634381D02*
X171680095Y-107634381D01*
X171299142Y-107634381D01*
X171203904Y-107682000D01*
X171156285Y-107729619D01*
X171108666Y-107824857D01*
X171108666Y-107967714D01*
X171156285Y-108062952D01*
X171203904Y-108110571D01*
X171299142Y-108158190D01*
X171680095Y-108158190D01*
X170537238Y-108062952D02*
X170632476Y-108015333D01*
X170680095Y-107967714D01*
X170727714Y-107872476D01*
X170727714Y-107824857D01*
X170680095Y-107729619D01*
X170632476Y-107682000D01*
X170537238Y-107634381D01*
X170346761Y-107634381D01*
X170251523Y-107682000D01*
X170203904Y-107729619D01*
X170156285Y-107824857D01*
X170156285Y-107872476D01*
X170203904Y-107967714D01*
X170251523Y-108015333D01*
X170346761Y-108062952D01*
X170537238Y-108062952D01*
X170632476Y-108110571D01*
X170680095Y-108158190D01*
X170727714Y-108253429D01*
X170727714Y-108443905D01*
X170680095Y-108539143D01*
X170632476Y-108586762D01*
X170537238Y-108634381D01*
X170346761Y-108634381D01*
X170251523Y-108586762D01*
X170203904Y-108539143D01*
X170156285Y-108443905D01*
X170156285Y-108253429D01*
X170203904Y-108158190D01*
X170251523Y-108110571D01*
X170346761Y-108062952D01*
X126857143Y-104633334D02*
X126904762Y-104585715D01*
X126952381Y-104442858D01*
X126952381Y-104347620D01*
X126904762Y-104204762D01*
X126809524Y-104109524D01*
X126714286Y-104061905D01*
X126523810Y-104014286D01*
X126380952Y-104014286D01*
X126190476Y-104061905D01*
X126095238Y-104109524D01*
X126000000Y-104204762D01*
X125952381Y-104347620D01*
X125952381Y-104442858D01*
X126000000Y-104585715D01*
X126047619Y-104633334D01*
X126952381Y-105585715D02*
X126952381Y-105014286D01*
X126952381Y-105300000D02*
X125952381Y-105300000D01*
X126095238Y-105204762D01*
X126190476Y-105109524D01*
X126238095Y-105014286D01*
X124795143Y-104760334D02*
X124842762Y-104712715D01*
X124890381Y-104569858D01*
X124890381Y-104474620D01*
X124842762Y-104331762D01*
X124747524Y-104236524D01*
X124652286Y-104188905D01*
X124461810Y-104141286D01*
X124318952Y-104141286D01*
X124128476Y-104188905D01*
X124033238Y-104236524D01*
X123938000Y-104331762D01*
X123890381Y-104474620D01*
X123890381Y-104569858D01*
X123938000Y-104712715D01*
X123985619Y-104760334D01*
X123985619Y-105141286D02*
X123938000Y-105188905D01*
X123890381Y-105284143D01*
X123890381Y-105522239D01*
X123938000Y-105617477D01*
X123985619Y-105665096D01*
X124080857Y-105712715D01*
X124176095Y-105712715D01*
X124318952Y-105665096D01*
X124890381Y-105093667D01*
X124890381Y-105712715D01*
M02*
