G04 #@! TF.FileFunction,Copper,L1,Top,Signal*
%FSLAX46Y46*%
G04 Gerber Fmt 4.6, Leading zero omitted, Abs format (unit mm)*
G04 Created by KiCad (PCBNEW 4.0.5+dfsg1-4) date Sun Nov 25 11:48:41 2018*
%MOMM*%
%LPD*%
G01*
G04 APERTURE LIST*
%ADD10C,0.100000*%
%ADD11R,2.400000X2.400000*%
%ADD12R,5.000000X2.600000*%
%ADD13C,1.524000*%
%ADD14O,4.000000X3.000000*%
%ADD15R,1.524000X1.524000*%
%ADD16R,1.727200X2.032000*%
%ADD17O,1.727200X2.032000*%
%ADD18R,0.650000X1.560000*%
%ADD19C,0.800000*%
%ADD20C,0.500000*%
%ADD21C,0.200000*%
%ADD22C,0.254000*%
G04 APERTURE END LIST*
D10*
D11*
X127600000Y-113000000D03*
D12*
X127200000Y-113000000D03*
X127200000Y-97000000D03*
D13*
X133000000Y-101500000D03*
X133000000Y-104000000D03*
X133000000Y-106000000D03*
X133000000Y-108500000D03*
D14*
X132400000Y-97150000D03*
X132400000Y-112850000D03*
D11*
X127600000Y-97000000D03*
D13*
X170091100Y-116433600D03*
X170091100Y-118973600D03*
X167551100Y-116433600D03*
X167551100Y-118973600D03*
X165011100Y-116433600D03*
X165011100Y-118973600D03*
X162471100Y-116433600D03*
X162471100Y-118973600D03*
X159931100Y-116433600D03*
X159931100Y-118973600D03*
X157391100Y-116433600D03*
X157391100Y-118973600D03*
X154851100Y-116433600D03*
X154851100Y-118973600D03*
X152311100Y-116433600D03*
X152311100Y-118973600D03*
X149771100Y-116433600D03*
X149771100Y-118973600D03*
X147231100Y-116433600D03*
X147231100Y-118973600D03*
X144691100Y-116433600D03*
X144691100Y-118973600D03*
X142151100Y-116433600D03*
X142151100Y-118973600D03*
X139611100Y-116433600D03*
X139611100Y-118973600D03*
X137071100Y-116433600D03*
X137071100Y-118973600D03*
X134531100Y-116433600D03*
X134531100Y-118973600D03*
X131991100Y-116433600D03*
X131991100Y-118973600D03*
X129451100Y-116433600D03*
X129451100Y-118973600D03*
X126911100Y-116433600D03*
D15*
X126911100Y-118973600D03*
D13*
X170091100Y-91033600D03*
X170091100Y-93573600D03*
X167551100Y-91033600D03*
X167551100Y-93573600D03*
X165011100Y-91033600D03*
X165011100Y-93573600D03*
X162471100Y-91033600D03*
X162471100Y-93573600D03*
X159931100Y-91033600D03*
X159931100Y-93573600D03*
X157391100Y-91033600D03*
X157391100Y-93573600D03*
X154851100Y-91033600D03*
X154851100Y-93573600D03*
X152311100Y-91033600D03*
X152311100Y-93573600D03*
X149771100Y-91033600D03*
X149771100Y-93573600D03*
X147231100Y-91033600D03*
X147231100Y-93573600D03*
X144691100Y-91033600D03*
X144691100Y-93573600D03*
X142151100Y-91033600D03*
X142151100Y-93573600D03*
X139611100Y-91033600D03*
X139611100Y-93573600D03*
X137071100Y-91033600D03*
X137071100Y-93573600D03*
X134531100Y-91033600D03*
X134531100Y-93573600D03*
X131991100Y-91033600D03*
X131991100Y-93573600D03*
X129451100Y-91033600D03*
X129451100Y-93573600D03*
X126911100Y-91033600D03*
D15*
X126911100Y-93573600D03*
D16*
X150368000Y-97282000D03*
D17*
X147828000Y-97282000D03*
X145288000Y-97282000D03*
X142748000Y-97282000D03*
X140208000Y-97282000D03*
X137668000Y-97282000D03*
D16*
X159258000Y-97282000D03*
D17*
X161798000Y-97282000D03*
X164338000Y-97282000D03*
X166878000Y-97282000D03*
X169418000Y-97282000D03*
X171958000Y-97282000D03*
D16*
X150368000Y-102362000D03*
D17*
X147828000Y-102362000D03*
X145288000Y-102362000D03*
X142748000Y-102362000D03*
X140208000Y-102362000D03*
X137668000Y-102362000D03*
D16*
X159258000Y-102362000D03*
D17*
X161798000Y-102362000D03*
X164338000Y-102362000D03*
X166878000Y-102362000D03*
X169418000Y-102362000D03*
X171958000Y-102362000D03*
D16*
X150368000Y-107442000D03*
D17*
X147828000Y-107442000D03*
X145288000Y-107442000D03*
X142748000Y-107442000D03*
X140208000Y-107442000D03*
X137668000Y-107442000D03*
D16*
X159258000Y-107442000D03*
D17*
X161798000Y-107442000D03*
X164338000Y-107442000D03*
X166878000Y-107442000D03*
X169418000Y-107442000D03*
X171958000Y-107442000D03*
D16*
X150368000Y-112522000D03*
D17*
X147828000Y-112522000D03*
X145288000Y-112522000D03*
X142748000Y-112522000D03*
X140208000Y-112522000D03*
X137668000Y-112522000D03*
D16*
X159258000Y-112522000D03*
D17*
X161798000Y-112522000D03*
X164338000Y-112522000D03*
X166878000Y-112522000D03*
X169418000Y-112522000D03*
X171958000Y-112522000D03*
D18*
X153990000Y-104220000D03*
X154940000Y-104220000D03*
X155890000Y-104220000D03*
X155890000Y-101520000D03*
X153990000Y-101520000D03*
X154940000Y-101520000D03*
X155890000Y-107616000D03*
X154940000Y-107616000D03*
X153990000Y-107616000D03*
X153990000Y-110316000D03*
X155890000Y-110316000D03*
X154940000Y-110316000D03*
D19*
X129000000Y-107700000D03*
X131318000Y-94996000D03*
X139192000Y-95250000D03*
X146304000Y-120650000D03*
D20*
X137668000Y-112522000D02*
X137922000Y-112522000D01*
X137922000Y-112522000D02*
X140208000Y-110236000D01*
X140462000Y-110236000D02*
X142748000Y-112522000D01*
X140208000Y-110236000D02*
X140462000Y-110236000D01*
X154940000Y-107616000D02*
X154940000Y-108442180D01*
X149352000Y-108966000D02*
X147828000Y-107442000D01*
X154416180Y-108966000D02*
X149352000Y-108966000D01*
X154940000Y-108442180D02*
X154416180Y-108966000D01*
D21*
X154940000Y-107616000D02*
X154940000Y-104220000D01*
D20*
X129800000Y-108500000D02*
X133000000Y-108500000D01*
X129000000Y-107700000D02*
X129800000Y-108500000D01*
X142151100Y-116433600D02*
X142151100Y-116166900D01*
X142151100Y-116166900D02*
X143764000Y-114554000D01*
X148336000Y-114554000D02*
X150368000Y-112522000D01*
X143764000Y-114554000D02*
X148336000Y-114554000D01*
D21*
X154940000Y-101520000D02*
X154940000Y-102469998D01*
X154793998Y-102616000D02*
X150622000Y-102616000D01*
X154940000Y-102469998D02*
X154793998Y-102616000D01*
X150622000Y-102616000D02*
X150368000Y-102362000D01*
X154940000Y-110316000D02*
X154940000Y-109220000D01*
X157734000Y-108966000D02*
X159258000Y-107442000D01*
X155194000Y-108966000D02*
X157734000Y-108966000D01*
X154940000Y-109220000D02*
X155194000Y-108966000D01*
X159004000Y-102616000D02*
X159258000Y-102362000D01*
D20*
X142151100Y-116433600D02*
X142151100Y-116048900D01*
D21*
X154851100Y-116433600D02*
X154851100Y-116674900D01*
X154851100Y-116674900D02*
X153670000Y-117856000D01*
X153670000Y-117856000D02*
X153670000Y-119380000D01*
X153670000Y-119380000D02*
X151384000Y-121666000D01*
X151384000Y-121666000D02*
X131572000Y-121666000D01*
X131572000Y-121666000D02*
X130302000Y-120396000D01*
X130302000Y-120396000D02*
X126238000Y-120396000D01*
X126238000Y-120396000D02*
X123190000Y-117348000D01*
X123190000Y-117348000D02*
X123190000Y-95504000D01*
X123190000Y-95504000D02*
X123698000Y-94996000D01*
X123698000Y-94996000D02*
X131318000Y-94996000D01*
X139192000Y-95250000D02*
X141478000Y-95250000D01*
X141478000Y-95250000D02*
X142151100Y-94576900D01*
X142151100Y-94576900D02*
X142151100Y-93573600D01*
D20*
X134531100Y-118973600D02*
X134473600Y-118973600D01*
X134473600Y-118973600D02*
X133300000Y-117800000D01*
X134900000Y-103400000D02*
X133000000Y-101500000D01*
X134900000Y-114100000D02*
X134900000Y-103400000D01*
X133300000Y-115700000D02*
X134900000Y-114100000D01*
X133300000Y-117800000D02*
X133300000Y-115700000D01*
D21*
X145288000Y-102362000D02*
X145288000Y-101600000D01*
X145288000Y-101600000D02*
X146558000Y-100330000D01*
X146558000Y-100330000D02*
X152800000Y-100330000D01*
X152800000Y-100330000D02*
X153990000Y-101520000D01*
X155890000Y-110316000D02*
X159178000Y-110316000D01*
X160528000Y-106426000D02*
X164338000Y-102616000D01*
X160528000Y-108966000D02*
X160528000Y-106426000D01*
X159178000Y-110316000D02*
X160528000Y-108966000D01*
X164338000Y-102616000D02*
X164338000Y-102362000D01*
D20*
X145288000Y-107442000D02*
X145288000Y-112522000D01*
D21*
X155890000Y-101520000D02*
X155890000Y-100518000D01*
X144018000Y-106172000D02*
X145288000Y-107442000D01*
X144018000Y-100838000D02*
X144018000Y-106172000D01*
X145034000Y-99822000D02*
X144018000Y-100838000D01*
X155194000Y-99822000D02*
X145034000Y-99822000D01*
X155890000Y-100518000D02*
X155194000Y-99822000D01*
X153990000Y-110316000D02*
X153990000Y-111318000D01*
X162560000Y-114300000D02*
X164338000Y-112522000D01*
X156972000Y-114300000D02*
X162560000Y-114300000D01*
X153990000Y-111318000D02*
X156972000Y-114300000D01*
X164084000Y-107442000D02*
X164084000Y-108458000D01*
X140208000Y-97282000D02*
X140208000Y-97790000D01*
X165011100Y-118973600D02*
X165201600Y-118973600D01*
X165201600Y-118973600D02*
X166624000Y-120396000D01*
X166624000Y-120396000D02*
X170688000Y-120396000D01*
X170688000Y-120396000D02*
X174498000Y-116586000D01*
X174498000Y-116586000D02*
X174498000Y-100330000D01*
X174498000Y-100330000D02*
X173736000Y-99568000D01*
X173736000Y-99568000D02*
X171704000Y-99568000D01*
X171704000Y-99568000D02*
X169418000Y-97282000D01*
X162471100Y-118973600D02*
X162471100Y-118960900D01*
X162471100Y-118960900D02*
X163830000Y-117602000D01*
X172466000Y-115570000D02*
X169418000Y-112522000D01*
X172466000Y-117094000D02*
X172466000Y-115570000D01*
X171958000Y-117602000D02*
X172466000Y-117094000D01*
X163830000Y-117602000D02*
X171958000Y-117602000D01*
X162471100Y-118973600D02*
X162471100Y-118452900D01*
X167551100Y-91033600D02*
X167551100Y-91605100D01*
X167551100Y-91605100D02*
X168910000Y-92964000D01*
X168910000Y-92964000D02*
X168910000Y-94742000D01*
X168910000Y-94742000D02*
X168148000Y-95504000D01*
X168148000Y-95504000D02*
X168148000Y-101092000D01*
X168148000Y-101092000D02*
X169418000Y-102362000D01*
X140970000Y-114046000D02*
X140208000Y-113284000D01*
X140970000Y-120650000D02*
X140970000Y-114046000D01*
X146304000Y-120650000D02*
X140970000Y-120650000D01*
X140208000Y-113284000D02*
X140208000Y-112522000D01*
X162471100Y-91033600D02*
X162153600Y-91033600D01*
X140208000Y-112522000D02*
X140208000Y-112268000D01*
X140462000Y-112522000D02*
X140462000Y-112268000D01*
X159931100Y-91033600D02*
X159931100Y-91351100D01*
X159931100Y-91351100D02*
X161290000Y-92710000D01*
X161290000Y-92710000D02*
X161290000Y-94234000D01*
X161290000Y-94234000D02*
X162560000Y-95504000D01*
X162560000Y-95504000D02*
X165100000Y-95504000D01*
X165100000Y-95504000D02*
X165608000Y-96012000D01*
X165608000Y-96012000D02*
X165608000Y-103378000D01*
X165608000Y-103378000D02*
X169418000Y-107188000D01*
X169418000Y-107188000D02*
X169418000Y-107442000D01*
X155890000Y-104220000D02*
X155890000Y-103698000D01*
X155890000Y-103698000D02*
X156718000Y-102870000D01*
X156210000Y-92392500D02*
X154851100Y-91033600D01*
X156210000Y-98044000D02*
X156210000Y-92392500D01*
X156718000Y-98552000D02*
X156210000Y-98044000D01*
X156718000Y-102870000D02*
X156718000Y-98552000D01*
X153990000Y-104220000D02*
X153990000Y-103566000D01*
X153990000Y-103566000D02*
X154432000Y-103124000D01*
X155890000Y-103312000D02*
X155890000Y-104220000D01*
X155702000Y-103124000D02*
X155890000Y-103312000D01*
X154432000Y-103124000D02*
X155702000Y-103124000D01*
X155890000Y-107616000D02*
X155890000Y-104220000D01*
X153990000Y-104220000D02*
X153990000Y-107616000D01*
X140208000Y-107442000D02*
X140208000Y-106426000D01*
X140208000Y-106426000D02*
X138176000Y-104394000D01*
X162877500Y-88900000D02*
X165011100Y-91033600D01*
X134620000Y-88900000D02*
X162877500Y-88900000D01*
X133350000Y-90170000D02*
X134620000Y-88900000D01*
X133350000Y-94996000D02*
X133350000Y-90170000D01*
X135636000Y-97282000D02*
X133350000Y-94996000D01*
X135636000Y-102616000D02*
X135636000Y-97282000D01*
X137414000Y-104394000D02*
X135636000Y-102616000D01*
X138176000Y-104394000D02*
X137414000Y-104394000D01*
D22*
G36*
X144884848Y-116419458D02*
X144870705Y-116433600D01*
X145671313Y-117234208D01*
X145913497Y-117164743D01*
X145963609Y-117024282D01*
X146046090Y-117223903D01*
X146438730Y-117617229D01*
X146646612Y-117703549D01*
X146440797Y-117788590D01*
X146047471Y-118181230D01*
X145967705Y-118373327D01*
X145913497Y-118242457D01*
X145671313Y-118172992D01*
X144870705Y-118973600D01*
X144884848Y-118987743D01*
X144705243Y-119167348D01*
X144691100Y-119153205D01*
X144676958Y-119167348D01*
X144497353Y-118987743D01*
X144511495Y-118973600D01*
X143710887Y-118172992D01*
X143468703Y-118242457D01*
X143424647Y-118365944D01*
X143373497Y-118242457D01*
X143131313Y-118172992D01*
X142330705Y-118973600D01*
X142344848Y-118987743D01*
X142165243Y-119167348D01*
X142151100Y-119153205D01*
X142136958Y-119167348D01*
X141957353Y-118987743D01*
X141971495Y-118973600D01*
X141957353Y-118959458D01*
X142136958Y-118779853D01*
X142151100Y-118793995D01*
X142951708Y-117993387D01*
X142882243Y-117751203D01*
X142741782Y-117701091D01*
X142941403Y-117618610D01*
X143146557Y-117413813D01*
X143890492Y-117413813D01*
X143959957Y-117655997D01*
X144083444Y-117700053D01*
X143959957Y-117751203D01*
X143890492Y-117993387D01*
X144691100Y-118793995D01*
X145491708Y-117993387D01*
X145422243Y-117751203D01*
X145298756Y-117707147D01*
X145422243Y-117655997D01*
X145491708Y-117413813D01*
X144691100Y-116613205D01*
X143890492Y-117413813D01*
X143146557Y-117413813D01*
X143334729Y-117225970D01*
X143414495Y-117033873D01*
X143468703Y-117164743D01*
X143710887Y-117234208D01*
X144511495Y-116433600D01*
X144497353Y-116419458D01*
X144676958Y-116239853D01*
X144691100Y-116253995D01*
X144705243Y-116239853D01*
X144884848Y-116419458D01*
X144884848Y-116419458D01*
G37*
X144884848Y-116419458D02*
X144870705Y-116433600D01*
X145671313Y-117234208D01*
X145913497Y-117164743D01*
X145963609Y-117024282D01*
X146046090Y-117223903D01*
X146438730Y-117617229D01*
X146646612Y-117703549D01*
X146440797Y-117788590D01*
X146047471Y-118181230D01*
X145967705Y-118373327D01*
X145913497Y-118242457D01*
X145671313Y-118172992D01*
X144870705Y-118973600D01*
X144884848Y-118987743D01*
X144705243Y-119167348D01*
X144691100Y-119153205D01*
X144676958Y-119167348D01*
X144497353Y-118987743D01*
X144511495Y-118973600D01*
X143710887Y-118172992D01*
X143468703Y-118242457D01*
X143424647Y-118365944D01*
X143373497Y-118242457D01*
X143131313Y-118172992D01*
X142330705Y-118973600D01*
X142344848Y-118987743D01*
X142165243Y-119167348D01*
X142151100Y-119153205D01*
X142136958Y-119167348D01*
X141957353Y-118987743D01*
X141971495Y-118973600D01*
X141957353Y-118959458D01*
X142136958Y-118779853D01*
X142151100Y-118793995D01*
X142951708Y-117993387D01*
X142882243Y-117751203D01*
X142741782Y-117701091D01*
X142941403Y-117618610D01*
X143146557Y-117413813D01*
X143890492Y-117413813D01*
X143959957Y-117655997D01*
X144083444Y-117700053D01*
X143959957Y-117751203D01*
X143890492Y-117993387D01*
X144691100Y-118793995D01*
X145491708Y-117993387D01*
X145422243Y-117751203D01*
X145298756Y-117707147D01*
X145422243Y-117655997D01*
X145491708Y-117413813D01*
X144691100Y-116613205D01*
X143890492Y-117413813D01*
X143146557Y-117413813D01*
X143334729Y-117225970D01*
X143414495Y-117033873D01*
X143468703Y-117164743D01*
X143710887Y-117234208D01*
X144511495Y-116433600D01*
X144497353Y-116419458D01*
X144676958Y-116239853D01*
X144691100Y-116253995D01*
X144705243Y-116239853D01*
X144884848Y-116419458D01*
G36*
X124052560Y-98300000D02*
X124096838Y-98535317D01*
X124235910Y-98751441D01*
X124448110Y-98896431D01*
X124700000Y-98947440D01*
X129700000Y-98947440D01*
X129935317Y-98903162D01*
X130151441Y-98764090D01*
X130281392Y-98573900D01*
X130338704Y-98659673D01*
X131031348Y-99122483D01*
X131848377Y-99285000D01*
X132951623Y-99285000D01*
X133768652Y-99122483D01*
X134461296Y-98659673D01*
X134901000Y-98001610D01*
X134901000Y-102149421D01*
X134396874Y-101645294D01*
X134397242Y-101223339D01*
X134185010Y-100709697D01*
X133792370Y-100316371D01*
X133279100Y-100103243D01*
X132723339Y-100102758D01*
X132209697Y-100314990D01*
X131816371Y-100707630D01*
X131603243Y-101220900D01*
X131602758Y-101776661D01*
X131814990Y-102290303D01*
X132207630Y-102683629D01*
X132367228Y-102749900D01*
X132209697Y-102814990D01*
X131816371Y-103207630D01*
X131603243Y-103720900D01*
X131602758Y-104276661D01*
X131814990Y-104790303D01*
X132024342Y-105000021D01*
X131816371Y-105207630D01*
X131603243Y-105720900D01*
X131602758Y-106276661D01*
X131814990Y-106790303D01*
X132207630Y-107183629D01*
X132351503Y-107243370D01*
X132268857Y-107277603D01*
X132199392Y-107519787D01*
X133000000Y-108320395D01*
X133800608Y-107519787D01*
X133731143Y-107277603D01*
X133642633Y-107246026D01*
X133790303Y-107185010D01*
X134015000Y-106960705D01*
X134015000Y-107709370D01*
X133980213Y-107699392D01*
X133179605Y-108500000D01*
X133980213Y-109300608D01*
X134015000Y-109290630D01*
X134015000Y-111042121D01*
X133768652Y-110877517D01*
X132951623Y-110715000D01*
X131848377Y-110715000D01*
X131031348Y-110877517D01*
X130338704Y-111340327D01*
X130279835Y-111428431D01*
X130164090Y-111248559D01*
X129951890Y-111103569D01*
X129700000Y-111052560D01*
X124700000Y-111052560D01*
X124464683Y-111096838D01*
X124248559Y-111235910D01*
X124103569Y-111448110D01*
X124052560Y-111700000D01*
X124052560Y-114300000D01*
X124096838Y-114535317D01*
X124235910Y-114751441D01*
X124448110Y-114896431D01*
X124700000Y-114947440D01*
X129700000Y-114947440D01*
X129935317Y-114903162D01*
X130151441Y-114764090D01*
X130296431Y-114551890D01*
X130336135Y-114355828D01*
X130338704Y-114359673D01*
X131031348Y-114822483D01*
X131848377Y-114985000D01*
X132763420Y-114985000D01*
X132674210Y-115074210D01*
X132606008Y-115176282D01*
X132270200Y-115036843D01*
X131714439Y-115036358D01*
X131200797Y-115248590D01*
X130807471Y-115641230D01*
X130721151Y-115849112D01*
X130636110Y-115643297D01*
X130243470Y-115249971D01*
X129730200Y-115036843D01*
X129174439Y-115036358D01*
X128660797Y-115248590D01*
X128267471Y-115641230D01*
X128181151Y-115849112D01*
X128096110Y-115643297D01*
X127703470Y-115249971D01*
X127190200Y-115036843D01*
X126634439Y-115036358D01*
X126120797Y-115248590D01*
X125727471Y-115641230D01*
X125514343Y-116154500D01*
X125513858Y-116710261D01*
X125726090Y-117223903D01*
X126078933Y-117577363D01*
X125913783Y-117608438D01*
X125697659Y-117747510D01*
X125552669Y-117959710D01*
X125501660Y-118211600D01*
X125501660Y-118620213D01*
X123925000Y-117043554D01*
X123925000Y-109480213D01*
X132199392Y-109480213D01*
X132268857Y-109722397D01*
X132792302Y-109909144D01*
X133347368Y-109881362D01*
X133731143Y-109722397D01*
X133800608Y-109480213D01*
X133000000Y-108679605D01*
X132199392Y-109480213D01*
X123925000Y-109480213D01*
X123925000Y-108292302D01*
X131590856Y-108292302D01*
X131618638Y-108847368D01*
X131777603Y-109231143D01*
X132019787Y-109300608D01*
X132820395Y-108500000D01*
X132019787Y-107699392D01*
X131777603Y-107768857D01*
X131590856Y-108292302D01*
X123925000Y-108292302D01*
X123925000Y-95808446D01*
X124002447Y-95731000D01*
X124052560Y-95731000D01*
X124052560Y-98300000D01*
X124052560Y-98300000D01*
G37*
X124052560Y-98300000D02*
X124096838Y-98535317D01*
X124235910Y-98751441D01*
X124448110Y-98896431D01*
X124700000Y-98947440D01*
X129700000Y-98947440D01*
X129935317Y-98903162D01*
X130151441Y-98764090D01*
X130281392Y-98573900D01*
X130338704Y-98659673D01*
X131031348Y-99122483D01*
X131848377Y-99285000D01*
X132951623Y-99285000D01*
X133768652Y-99122483D01*
X134461296Y-98659673D01*
X134901000Y-98001610D01*
X134901000Y-102149421D01*
X134396874Y-101645294D01*
X134397242Y-101223339D01*
X134185010Y-100709697D01*
X133792370Y-100316371D01*
X133279100Y-100103243D01*
X132723339Y-100102758D01*
X132209697Y-100314990D01*
X131816371Y-100707630D01*
X131603243Y-101220900D01*
X131602758Y-101776661D01*
X131814990Y-102290303D01*
X132207630Y-102683629D01*
X132367228Y-102749900D01*
X132209697Y-102814990D01*
X131816371Y-103207630D01*
X131603243Y-103720900D01*
X131602758Y-104276661D01*
X131814990Y-104790303D01*
X132024342Y-105000021D01*
X131816371Y-105207630D01*
X131603243Y-105720900D01*
X131602758Y-106276661D01*
X131814990Y-106790303D01*
X132207630Y-107183629D01*
X132351503Y-107243370D01*
X132268857Y-107277603D01*
X132199392Y-107519787D01*
X133000000Y-108320395D01*
X133800608Y-107519787D01*
X133731143Y-107277603D01*
X133642633Y-107246026D01*
X133790303Y-107185010D01*
X134015000Y-106960705D01*
X134015000Y-107709370D01*
X133980213Y-107699392D01*
X133179605Y-108500000D01*
X133980213Y-109300608D01*
X134015000Y-109290630D01*
X134015000Y-111042121D01*
X133768652Y-110877517D01*
X132951623Y-110715000D01*
X131848377Y-110715000D01*
X131031348Y-110877517D01*
X130338704Y-111340327D01*
X130279835Y-111428431D01*
X130164090Y-111248559D01*
X129951890Y-111103569D01*
X129700000Y-111052560D01*
X124700000Y-111052560D01*
X124464683Y-111096838D01*
X124248559Y-111235910D01*
X124103569Y-111448110D01*
X124052560Y-111700000D01*
X124052560Y-114300000D01*
X124096838Y-114535317D01*
X124235910Y-114751441D01*
X124448110Y-114896431D01*
X124700000Y-114947440D01*
X129700000Y-114947440D01*
X129935317Y-114903162D01*
X130151441Y-114764090D01*
X130296431Y-114551890D01*
X130336135Y-114355828D01*
X130338704Y-114359673D01*
X131031348Y-114822483D01*
X131848377Y-114985000D01*
X132763420Y-114985000D01*
X132674210Y-115074210D01*
X132606008Y-115176282D01*
X132270200Y-115036843D01*
X131714439Y-115036358D01*
X131200797Y-115248590D01*
X130807471Y-115641230D01*
X130721151Y-115849112D01*
X130636110Y-115643297D01*
X130243470Y-115249971D01*
X129730200Y-115036843D01*
X129174439Y-115036358D01*
X128660797Y-115248590D01*
X128267471Y-115641230D01*
X128181151Y-115849112D01*
X128096110Y-115643297D01*
X127703470Y-115249971D01*
X127190200Y-115036843D01*
X126634439Y-115036358D01*
X126120797Y-115248590D01*
X125727471Y-115641230D01*
X125514343Y-116154500D01*
X125513858Y-116710261D01*
X125726090Y-117223903D01*
X126078933Y-117577363D01*
X125913783Y-117608438D01*
X125697659Y-117747510D01*
X125552669Y-117959710D01*
X125501660Y-118211600D01*
X125501660Y-118620213D01*
X123925000Y-117043554D01*
X123925000Y-109480213D01*
X132199392Y-109480213D01*
X132268857Y-109722397D01*
X132792302Y-109909144D01*
X133347368Y-109881362D01*
X133731143Y-109722397D01*
X133800608Y-109480213D01*
X133000000Y-108679605D01*
X132199392Y-109480213D01*
X123925000Y-109480213D01*
X123925000Y-108292302D01*
X131590856Y-108292302D01*
X131618638Y-108847368D01*
X131777603Y-109231143D01*
X132019787Y-109300608D01*
X132820395Y-108500000D01*
X132019787Y-107699392D01*
X131777603Y-107768857D01*
X131590856Y-108292302D01*
X123925000Y-108292302D01*
X123925000Y-95808446D01*
X124002447Y-95731000D01*
X124052560Y-95731000D01*
X124052560Y-98300000D01*
G36*
X171184276Y-100087723D02*
X171422728Y-100247051D01*
X171704000Y-100303000D01*
X173431554Y-100303000D01*
X173763000Y-100634447D01*
X173763000Y-116281553D01*
X173201000Y-116843553D01*
X173201000Y-115570000D01*
X173145051Y-115288728D01*
X173140489Y-115281900D01*
X172985724Y-115050277D01*
X172085002Y-114149555D01*
X172085002Y-114008218D01*
X172317026Y-114129358D01*
X172332791Y-114126709D01*
X172860036Y-113872732D01*
X173249954Y-113436320D01*
X173443184Y-112883913D01*
X173298924Y-112649000D01*
X172085000Y-112649000D01*
X172085000Y-112669000D01*
X171831000Y-112669000D01*
X171831000Y-112649000D01*
X171811000Y-112649000D01*
X171811000Y-112395000D01*
X171831000Y-112395000D01*
X171831000Y-111035783D01*
X172085000Y-111035783D01*
X172085000Y-112395000D01*
X173298924Y-112395000D01*
X173443184Y-112160087D01*
X173249954Y-111607680D01*
X172860036Y-111171268D01*
X172332791Y-110917291D01*
X172317026Y-110914642D01*
X172085000Y-111035783D01*
X171831000Y-111035783D01*
X171598974Y-110914642D01*
X171583209Y-110917291D01*
X171055964Y-111171268D01*
X170684461Y-111587069D01*
X170477670Y-111277585D01*
X169991489Y-110952729D01*
X169418000Y-110838655D01*
X168844511Y-110952729D01*
X168358330Y-111277585D01*
X168151539Y-111587069D01*
X167780036Y-111171268D01*
X167252791Y-110917291D01*
X167237026Y-110914642D01*
X167005000Y-111035783D01*
X167005000Y-112395000D01*
X167025000Y-112395000D01*
X167025000Y-112649000D01*
X167005000Y-112649000D01*
X167005000Y-114008217D01*
X167237026Y-114129358D01*
X167252791Y-114126709D01*
X167780036Y-113872732D01*
X168151539Y-113456931D01*
X168358330Y-113766415D01*
X168844511Y-114091271D01*
X169418000Y-114205345D01*
X169955069Y-114098515D01*
X171731000Y-115874447D01*
X171731000Y-116789553D01*
X171653554Y-116867000D01*
X171423786Y-116867000D01*
X171487857Y-116712700D01*
X171488342Y-116156939D01*
X171276110Y-115643297D01*
X170883470Y-115249971D01*
X170370200Y-115036843D01*
X169814439Y-115036358D01*
X169300797Y-115248590D01*
X168907471Y-115641230D01*
X168821151Y-115849112D01*
X168736110Y-115643297D01*
X168343470Y-115249971D01*
X167830200Y-115036843D01*
X167274439Y-115036358D01*
X166760797Y-115248590D01*
X166367471Y-115641230D01*
X166281151Y-115849112D01*
X166196110Y-115643297D01*
X165803470Y-115249971D01*
X165290200Y-115036843D01*
X164734439Y-115036358D01*
X164220797Y-115248590D01*
X163827471Y-115641230D01*
X163741151Y-115849112D01*
X163656110Y-115643297D01*
X163263470Y-115249971D01*
X162750200Y-115036843D01*
X162194439Y-115036358D01*
X161680797Y-115248590D01*
X161287471Y-115641230D01*
X161201151Y-115849112D01*
X161116110Y-115643297D01*
X160723470Y-115249971D01*
X160210200Y-115036843D01*
X159654439Y-115036358D01*
X159140797Y-115248590D01*
X158747471Y-115641230D01*
X158661151Y-115849112D01*
X158576110Y-115643297D01*
X158183470Y-115249971D01*
X157670200Y-115036843D01*
X157114439Y-115036358D01*
X156600797Y-115248590D01*
X156207471Y-115641230D01*
X156121151Y-115849112D01*
X156036110Y-115643297D01*
X155643470Y-115249971D01*
X155130200Y-115036843D01*
X154574439Y-115036358D01*
X154060797Y-115248590D01*
X153667471Y-115641230D01*
X153587705Y-115833327D01*
X153533497Y-115702457D01*
X153291313Y-115632992D01*
X152490705Y-116433600D01*
X152504848Y-116447743D01*
X152325243Y-116627348D01*
X152311100Y-116613205D01*
X151510492Y-117413813D01*
X151579957Y-117655997D01*
X151720418Y-117706109D01*
X151520797Y-117788590D01*
X151127471Y-118181230D01*
X151041151Y-118389112D01*
X150956110Y-118183297D01*
X150563470Y-117789971D01*
X150355588Y-117703651D01*
X150561403Y-117618610D01*
X150954729Y-117225970D01*
X151034495Y-117033873D01*
X151088703Y-117164743D01*
X151330887Y-117234208D01*
X152131495Y-116433600D01*
X151330887Y-115632992D01*
X151088703Y-115702457D01*
X151038591Y-115842918D01*
X150956110Y-115643297D01*
X150766532Y-115453387D01*
X151510492Y-115453387D01*
X152311100Y-116253995D01*
X153111708Y-115453387D01*
X153042243Y-115211203D01*
X152518798Y-115024456D01*
X151963732Y-115052238D01*
X151579957Y-115211203D01*
X151510492Y-115453387D01*
X150766532Y-115453387D01*
X150563470Y-115249971D01*
X150050200Y-115036843D01*
X149494439Y-115036358D01*
X148980797Y-115248590D01*
X148587471Y-115641230D01*
X148501151Y-115849112D01*
X148416110Y-115643297D01*
X148212169Y-115439000D01*
X148335995Y-115439000D01*
X148336000Y-115439001D01*
X148618484Y-115382810D01*
X148674675Y-115371633D01*
X148961790Y-115179790D01*
X149956140Y-114185440D01*
X151231600Y-114185440D01*
X151466917Y-114141162D01*
X151683041Y-114002090D01*
X151828031Y-113789890D01*
X151879040Y-113538000D01*
X151879040Y-111506000D01*
X151834762Y-111270683D01*
X151695690Y-111054559D01*
X151483490Y-110909569D01*
X151231600Y-110858560D01*
X149504400Y-110858560D01*
X149269083Y-110902838D01*
X149052959Y-111041910D01*
X148907969Y-111254110D01*
X148888768Y-111348927D01*
X148730036Y-111171268D01*
X148202791Y-110917291D01*
X148187026Y-110914642D01*
X147955000Y-111035783D01*
X147955000Y-112395000D01*
X147975000Y-112395000D01*
X147975000Y-112649000D01*
X147955000Y-112649000D01*
X147955000Y-112669000D01*
X147701000Y-112669000D01*
X147701000Y-112649000D01*
X147681000Y-112649000D01*
X147681000Y-112395000D01*
X147701000Y-112395000D01*
X147701000Y-111035783D01*
X147468974Y-110914642D01*
X147453209Y-110917291D01*
X146925964Y-111171268D01*
X146554461Y-111587069D01*
X146347670Y-111277585D01*
X146173000Y-111160874D01*
X146173000Y-108803126D01*
X146347670Y-108686415D01*
X146554461Y-108376931D01*
X146925964Y-108792732D01*
X147453209Y-109046709D01*
X147468974Y-109049358D01*
X147701000Y-108928217D01*
X147701000Y-107569000D01*
X147681000Y-107569000D01*
X147681000Y-107315000D01*
X147701000Y-107315000D01*
X147701000Y-105955783D01*
X147955000Y-105955783D01*
X147955000Y-107315000D01*
X147975000Y-107315000D01*
X147975000Y-107569000D01*
X147955000Y-107569000D01*
X147955000Y-108928217D01*
X148187026Y-109049358D01*
X148202791Y-109046709D01*
X148730036Y-108792732D01*
X148886907Y-108617155D01*
X148901238Y-108693317D01*
X149040310Y-108909441D01*
X149252510Y-109054431D01*
X149504400Y-109105440D01*
X151231600Y-109105440D01*
X151466917Y-109061162D01*
X151683041Y-108922090D01*
X151828031Y-108709890D01*
X151879040Y-108458000D01*
X151879040Y-106426000D01*
X151834762Y-106190683D01*
X151695690Y-105974559D01*
X151483490Y-105829569D01*
X151231600Y-105778560D01*
X149504400Y-105778560D01*
X149269083Y-105822838D01*
X149052959Y-105961910D01*
X148907969Y-106174110D01*
X148888768Y-106268927D01*
X148730036Y-106091268D01*
X148202791Y-105837291D01*
X148187026Y-105834642D01*
X147955000Y-105955783D01*
X147701000Y-105955783D01*
X147468974Y-105834642D01*
X147453209Y-105837291D01*
X146925964Y-106091268D01*
X146554461Y-106507069D01*
X146347670Y-106197585D01*
X145861489Y-105872729D01*
X145288000Y-105758655D01*
X144753000Y-105865073D01*
X144753000Y-103938927D01*
X145288000Y-104045345D01*
X145861489Y-103931271D01*
X146347670Y-103606415D01*
X146554461Y-103296931D01*
X146925964Y-103712732D01*
X147453209Y-103966709D01*
X147468974Y-103969358D01*
X147701000Y-103848217D01*
X147701000Y-102489000D01*
X147681000Y-102489000D01*
X147681000Y-102235000D01*
X147701000Y-102235000D01*
X147701000Y-102215000D01*
X147955000Y-102215000D01*
X147955000Y-102235000D01*
X147975000Y-102235000D01*
X147975000Y-102489000D01*
X147955000Y-102489000D01*
X147955000Y-103848217D01*
X148187026Y-103969358D01*
X148202791Y-103966709D01*
X148730036Y-103712732D01*
X148886907Y-103537155D01*
X148901238Y-103613317D01*
X149040310Y-103829441D01*
X149252510Y-103974431D01*
X149504400Y-104025440D01*
X151231600Y-104025440D01*
X151466917Y-103981162D01*
X151683041Y-103842090D01*
X151828031Y-103629890D01*
X151879040Y-103378000D01*
X151879040Y-103351000D01*
X153035583Y-103351000D01*
X153017560Y-103440000D01*
X153017560Y-105000000D01*
X153061838Y-105235317D01*
X153200910Y-105451441D01*
X153255000Y-105488399D01*
X153255000Y-106345243D01*
X153213559Y-106371910D01*
X153068569Y-106584110D01*
X153017560Y-106836000D01*
X153017560Y-108396000D01*
X153061838Y-108631317D01*
X153200910Y-108847441D01*
X153376232Y-108967233D01*
X153213559Y-109071910D01*
X153068569Y-109284110D01*
X153017560Y-109536000D01*
X153017560Y-111096000D01*
X153061838Y-111331317D01*
X153200910Y-111547441D01*
X153339665Y-111642248D01*
X153470277Y-111837723D01*
X156452277Y-114819724D01*
X156643419Y-114947440D01*
X156690728Y-114979051D01*
X156972000Y-115035000D01*
X162560000Y-115035000D01*
X162841272Y-114979051D01*
X163079723Y-114819723D01*
X163800931Y-114098515D01*
X164338000Y-114205345D01*
X164911489Y-114091271D01*
X165397670Y-113766415D01*
X165604461Y-113456931D01*
X165975964Y-113872732D01*
X166503209Y-114126709D01*
X166518974Y-114129358D01*
X166751000Y-114008217D01*
X166751000Y-112649000D01*
X166731000Y-112649000D01*
X166731000Y-112395000D01*
X166751000Y-112395000D01*
X166751000Y-111035783D01*
X166518974Y-110914642D01*
X166503209Y-110917291D01*
X165975964Y-111171268D01*
X165604461Y-111587069D01*
X165397670Y-111277585D01*
X164911489Y-110952729D01*
X164338000Y-110838655D01*
X163764511Y-110952729D01*
X163278330Y-111277585D01*
X163071539Y-111587069D01*
X162700036Y-111171268D01*
X162172791Y-110917291D01*
X162157026Y-110914642D01*
X161925000Y-111035783D01*
X161925000Y-112395000D01*
X161945000Y-112395000D01*
X161945000Y-112649000D01*
X161925000Y-112649000D01*
X161925000Y-112669000D01*
X161671000Y-112669000D01*
X161671000Y-112649000D01*
X161651000Y-112649000D01*
X161651000Y-112395000D01*
X161671000Y-112395000D01*
X161671000Y-111035783D01*
X161438974Y-110914642D01*
X161423209Y-110917291D01*
X160895964Y-111171268D01*
X160739093Y-111346845D01*
X160724762Y-111270683D01*
X160585690Y-111054559D01*
X160373490Y-110909569D01*
X160121600Y-110858560D01*
X159663545Y-110858560D01*
X159697723Y-110835723D01*
X161047723Y-109485724D01*
X161207051Y-109247272D01*
X161217846Y-109193000D01*
X161262358Y-108969226D01*
X161423209Y-109046709D01*
X161438974Y-109049358D01*
X161671000Y-108928217D01*
X161671000Y-107569000D01*
X161651000Y-107569000D01*
X161651000Y-107315000D01*
X161671000Y-107315000D01*
X161671000Y-107295000D01*
X161925000Y-107295000D01*
X161925000Y-107315000D01*
X161945000Y-107315000D01*
X161945000Y-107569000D01*
X161925000Y-107569000D01*
X161925000Y-108928217D01*
X162157026Y-109049358D01*
X162172791Y-109046709D01*
X162700036Y-108792732D01*
X163071539Y-108376931D01*
X163278330Y-108686415D01*
X163443271Y-108796625D01*
X163564277Y-108977723D01*
X163802728Y-109137051D01*
X164084000Y-109193000D01*
X164365272Y-109137051D01*
X164401777Y-109112659D01*
X164911489Y-109011271D01*
X165397670Y-108686415D01*
X165604461Y-108376931D01*
X165975964Y-108792732D01*
X166503209Y-109046709D01*
X166518974Y-109049358D01*
X166751000Y-108928217D01*
X166751000Y-107569000D01*
X166731000Y-107569000D01*
X166731000Y-107315000D01*
X166751000Y-107315000D01*
X166751000Y-105955783D01*
X166518974Y-105834642D01*
X166503209Y-105837291D01*
X165975964Y-106091268D01*
X165604461Y-106507069D01*
X165397670Y-106197585D01*
X164911489Y-105872729D01*
X164338000Y-105758655D01*
X163764511Y-105872729D01*
X163278330Y-106197585D01*
X163071539Y-106507069D01*
X162700036Y-106091268D01*
X162172791Y-105837291D01*
X162158548Y-105834898D01*
X164012790Y-103980657D01*
X164338000Y-104045345D01*
X164911489Y-103931271D01*
X165049207Y-103839251D01*
X165088277Y-103897723D01*
X167097856Y-105907303D01*
X167005000Y-105955783D01*
X167005000Y-107315000D01*
X167025000Y-107315000D01*
X167025000Y-107569000D01*
X167005000Y-107569000D01*
X167005000Y-108928217D01*
X167237026Y-109049358D01*
X167252791Y-109046709D01*
X167780036Y-108792732D01*
X168151539Y-108376931D01*
X168358330Y-108686415D01*
X168844511Y-109011271D01*
X169418000Y-109125345D01*
X169991489Y-109011271D01*
X170477670Y-108686415D01*
X170684461Y-108376931D01*
X171055964Y-108792732D01*
X171583209Y-109046709D01*
X171598974Y-109049358D01*
X171831000Y-108928217D01*
X171831000Y-107569000D01*
X172085000Y-107569000D01*
X172085000Y-108928217D01*
X172317026Y-109049358D01*
X172332791Y-109046709D01*
X172860036Y-108792732D01*
X173249954Y-108356320D01*
X173443184Y-107803913D01*
X173298924Y-107569000D01*
X172085000Y-107569000D01*
X171831000Y-107569000D01*
X171811000Y-107569000D01*
X171811000Y-107315000D01*
X171831000Y-107315000D01*
X171831000Y-105955783D01*
X172085000Y-105955783D01*
X172085000Y-107315000D01*
X173298924Y-107315000D01*
X173443184Y-107080087D01*
X173249954Y-106527680D01*
X172860036Y-106091268D01*
X172332791Y-105837291D01*
X172317026Y-105834642D01*
X172085000Y-105955783D01*
X171831000Y-105955783D01*
X171598974Y-105834642D01*
X171583209Y-105837291D01*
X171055964Y-106091268D01*
X170684461Y-106507069D01*
X170477670Y-106197585D01*
X169991489Y-105872729D01*
X169418000Y-105758655D01*
X169092790Y-105823343D01*
X167238548Y-103969102D01*
X167252791Y-103966709D01*
X167780036Y-103712732D01*
X168151539Y-103296931D01*
X168358330Y-103606415D01*
X168844511Y-103931271D01*
X169418000Y-104045345D01*
X169991489Y-103931271D01*
X170477670Y-103606415D01*
X170684461Y-103296931D01*
X171055964Y-103712732D01*
X171583209Y-103966709D01*
X171598974Y-103969358D01*
X171831000Y-103848217D01*
X171831000Y-102489000D01*
X172085000Y-102489000D01*
X172085000Y-103848217D01*
X172317026Y-103969358D01*
X172332791Y-103966709D01*
X172860036Y-103712732D01*
X173249954Y-103276320D01*
X173443184Y-102723913D01*
X173298924Y-102489000D01*
X172085000Y-102489000D01*
X171831000Y-102489000D01*
X171811000Y-102489000D01*
X171811000Y-102235000D01*
X171831000Y-102235000D01*
X171831000Y-100875783D01*
X172085000Y-100875783D01*
X172085000Y-102235000D01*
X173298924Y-102235000D01*
X173443184Y-102000087D01*
X173249954Y-101447680D01*
X172860036Y-101011268D01*
X172332791Y-100757291D01*
X172317026Y-100754642D01*
X172085000Y-100875783D01*
X171831000Y-100875783D01*
X171598974Y-100754642D01*
X171583209Y-100757291D01*
X171055964Y-101011268D01*
X170684461Y-101427069D01*
X170477670Y-101117585D01*
X169991489Y-100792729D01*
X169418000Y-100678655D01*
X168883000Y-100785073D01*
X168883000Y-98858927D01*
X169418000Y-98965345D01*
X169955069Y-98858515D01*
X171184276Y-100087723D01*
X171184276Y-100087723D01*
G37*
X171184276Y-100087723D02*
X171422728Y-100247051D01*
X171704000Y-100303000D01*
X173431554Y-100303000D01*
X173763000Y-100634447D01*
X173763000Y-116281553D01*
X173201000Y-116843553D01*
X173201000Y-115570000D01*
X173145051Y-115288728D01*
X173140489Y-115281900D01*
X172985724Y-115050277D01*
X172085002Y-114149555D01*
X172085002Y-114008218D01*
X172317026Y-114129358D01*
X172332791Y-114126709D01*
X172860036Y-113872732D01*
X173249954Y-113436320D01*
X173443184Y-112883913D01*
X173298924Y-112649000D01*
X172085000Y-112649000D01*
X172085000Y-112669000D01*
X171831000Y-112669000D01*
X171831000Y-112649000D01*
X171811000Y-112649000D01*
X171811000Y-112395000D01*
X171831000Y-112395000D01*
X171831000Y-111035783D01*
X172085000Y-111035783D01*
X172085000Y-112395000D01*
X173298924Y-112395000D01*
X173443184Y-112160087D01*
X173249954Y-111607680D01*
X172860036Y-111171268D01*
X172332791Y-110917291D01*
X172317026Y-110914642D01*
X172085000Y-111035783D01*
X171831000Y-111035783D01*
X171598974Y-110914642D01*
X171583209Y-110917291D01*
X171055964Y-111171268D01*
X170684461Y-111587069D01*
X170477670Y-111277585D01*
X169991489Y-110952729D01*
X169418000Y-110838655D01*
X168844511Y-110952729D01*
X168358330Y-111277585D01*
X168151539Y-111587069D01*
X167780036Y-111171268D01*
X167252791Y-110917291D01*
X167237026Y-110914642D01*
X167005000Y-111035783D01*
X167005000Y-112395000D01*
X167025000Y-112395000D01*
X167025000Y-112649000D01*
X167005000Y-112649000D01*
X167005000Y-114008217D01*
X167237026Y-114129358D01*
X167252791Y-114126709D01*
X167780036Y-113872732D01*
X168151539Y-113456931D01*
X168358330Y-113766415D01*
X168844511Y-114091271D01*
X169418000Y-114205345D01*
X169955069Y-114098515D01*
X171731000Y-115874447D01*
X171731000Y-116789553D01*
X171653554Y-116867000D01*
X171423786Y-116867000D01*
X171487857Y-116712700D01*
X171488342Y-116156939D01*
X171276110Y-115643297D01*
X170883470Y-115249971D01*
X170370200Y-115036843D01*
X169814439Y-115036358D01*
X169300797Y-115248590D01*
X168907471Y-115641230D01*
X168821151Y-115849112D01*
X168736110Y-115643297D01*
X168343470Y-115249971D01*
X167830200Y-115036843D01*
X167274439Y-115036358D01*
X166760797Y-115248590D01*
X166367471Y-115641230D01*
X166281151Y-115849112D01*
X166196110Y-115643297D01*
X165803470Y-115249971D01*
X165290200Y-115036843D01*
X164734439Y-115036358D01*
X164220797Y-115248590D01*
X163827471Y-115641230D01*
X163741151Y-115849112D01*
X163656110Y-115643297D01*
X163263470Y-115249971D01*
X162750200Y-115036843D01*
X162194439Y-115036358D01*
X161680797Y-115248590D01*
X161287471Y-115641230D01*
X161201151Y-115849112D01*
X161116110Y-115643297D01*
X160723470Y-115249971D01*
X160210200Y-115036843D01*
X159654439Y-115036358D01*
X159140797Y-115248590D01*
X158747471Y-115641230D01*
X158661151Y-115849112D01*
X158576110Y-115643297D01*
X158183470Y-115249971D01*
X157670200Y-115036843D01*
X157114439Y-115036358D01*
X156600797Y-115248590D01*
X156207471Y-115641230D01*
X156121151Y-115849112D01*
X156036110Y-115643297D01*
X155643470Y-115249971D01*
X155130200Y-115036843D01*
X154574439Y-115036358D01*
X154060797Y-115248590D01*
X153667471Y-115641230D01*
X153587705Y-115833327D01*
X153533497Y-115702457D01*
X153291313Y-115632992D01*
X152490705Y-116433600D01*
X152504848Y-116447743D01*
X152325243Y-116627348D01*
X152311100Y-116613205D01*
X151510492Y-117413813D01*
X151579957Y-117655997D01*
X151720418Y-117706109D01*
X151520797Y-117788590D01*
X151127471Y-118181230D01*
X151041151Y-118389112D01*
X150956110Y-118183297D01*
X150563470Y-117789971D01*
X150355588Y-117703651D01*
X150561403Y-117618610D01*
X150954729Y-117225970D01*
X151034495Y-117033873D01*
X151088703Y-117164743D01*
X151330887Y-117234208D01*
X152131495Y-116433600D01*
X151330887Y-115632992D01*
X151088703Y-115702457D01*
X151038591Y-115842918D01*
X150956110Y-115643297D01*
X150766532Y-115453387D01*
X151510492Y-115453387D01*
X152311100Y-116253995D01*
X153111708Y-115453387D01*
X153042243Y-115211203D01*
X152518798Y-115024456D01*
X151963732Y-115052238D01*
X151579957Y-115211203D01*
X151510492Y-115453387D01*
X150766532Y-115453387D01*
X150563470Y-115249971D01*
X150050200Y-115036843D01*
X149494439Y-115036358D01*
X148980797Y-115248590D01*
X148587471Y-115641230D01*
X148501151Y-115849112D01*
X148416110Y-115643297D01*
X148212169Y-115439000D01*
X148335995Y-115439000D01*
X148336000Y-115439001D01*
X148618484Y-115382810D01*
X148674675Y-115371633D01*
X148961790Y-115179790D01*
X149956140Y-114185440D01*
X151231600Y-114185440D01*
X151466917Y-114141162D01*
X151683041Y-114002090D01*
X151828031Y-113789890D01*
X151879040Y-113538000D01*
X151879040Y-111506000D01*
X151834762Y-111270683D01*
X151695690Y-111054559D01*
X151483490Y-110909569D01*
X151231600Y-110858560D01*
X149504400Y-110858560D01*
X149269083Y-110902838D01*
X149052959Y-111041910D01*
X148907969Y-111254110D01*
X148888768Y-111348927D01*
X148730036Y-111171268D01*
X148202791Y-110917291D01*
X148187026Y-110914642D01*
X147955000Y-111035783D01*
X147955000Y-112395000D01*
X147975000Y-112395000D01*
X147975000Y-112649000D01*
X147955000Y-112649000D01*
X147955000Y-112669000D01*
X147701000Y-112669000D01*
X147701000Y-112649000D01*
X147681000Y-112649000D01*
X147681000Y-112395000D01*
X147701000Y-112395000D01*
X147701000Y-111035783D01*
X147468974Y-110914642D01*
X147453209Y-110917291D01*
X146925964Y-111171268D01*
X146554461Y-111587069D01*
X146347670Y-111277585D01*
X146173000Y-111160874D01*
X146173000Y-108803126D01*
X146347670Y-108686415D01*
X146554461Y-108376931D01*
X146925964Y-108792732D01*
X147453209Y-109046709D01*
X147468974Y-109049358D01*
X147701000Y-108928217D01*
X147701000Y-107569000D01*
X147681000Y-107569000D01*
X147681000Y-107315000D01*
X147701000Y-107315000D01*
X147701000Y-105955783D01*
X147955000Y-105955783D01*
X147955000Y-107315000D01*
X147975000Y-107315000D01*
X147975000Y-107569000D01*
X147955000Y-107569000D01*
X147955000Y-108928217D01*
X148187026Y-109049358D01*
X148202791Y-109046709D01*
X148730036Y-108792732D01*
X148886907Y-108617155D01*
X148901238Y-108693317D01*
X149040310Y-108909441D01*
X149252510Y-109054431D01*
X149504400Y-109105440D01*
X151231600Y-109105440D01*
X151466917Y-109061162D01*
X151683041Y-108922090D01*
X151828031Y-108709890D01*
X151879040Y-108458000D01*
X151879040Y-106426000D01*
X151834762Y-106190683D01*
X151695690Y-105974559D01*
X151483490Y-105829569D01*
X151231600Y-105778560D01*
X149504400Y-105778560D01*
X149269083Y-105822838D01*
X149052959Y-105961910D01*
X148907969Y-106174110D01*
X148888768Y-106268927D01*
X148730036Y-106091268D01*
X148202791Y-105837291D01*
X148187026Y-105834642D01*
X147955000Y-105955783D01*
X147701000Y-105955783D01*
X147468974Y-105834642D01*
X147453209Y-105837291D01*
X146925964Y-106091268D01*
X146554461Y-106507069D01*
X146347670Y-106197585D01*
X145861489Y-105872729D01*
X145288000Y-105758655D01*
X144753000Y-105865073D01*
X144753000Y-103938927D01*
X145288000Y-104045345D01*
X145861489Y-103931271D01*
X146347670Y-103606415D01*
X146554461Y-103296931D01*
X146925964Y-103712732D01*
X147453209Y-103966709D01*
X147468974Y-103969358D01*
X147701000Y-103848217D01*
X147701000Y-102489000D01*
X147681000Y-102489000D01*
X147681000Y-102235000D01*
X147701000Y-102235000D01*
X147701000Y-102215000D01*
X147955000Y-102215000D01*
X147955000Y-102235000D01*
X147975000Y-102235000D01*
X147975000Y-102489000D01*
X147955000Y-102489000D01*
X147955000Y-103848217D01*
X148187026Y-103969358D01*
X148202791Y-103966709D01*
X148730036Y-103712732D01*
X148886907Y-103537155D01*
X148901238Y-103613317D01*
X149040310Y-103829441D01*
X149252510Y-103974431D01*
X149504400Y-104025440D01*
X151231600Y-104025440D01*
X151466917Y-103981162D01*
X151683041Y-103842090D01*
X151828031Y-103629890D01*
X151879040Y-103378000D01*
X151879040Y-103351000D01*
X153035583Y-103351000D01*
X153017560Y-103440000D01*
X153017560Y-105000000D01*
X153061838Y-105235317D01*
X153200910Y-105451441D01*
X153255000Y-105488399D01*
X153255000Y-106345243D01*
X153213559Y-106371910D01*
X153068569Y-106584110D01*
X153017560Y-106836000D01*
X153017560Y-108396000D01*
X153061838Y-108631317D01*
X153200910Y-108847441D01*
X153376232Y-108967233D01*
X153213559Y-109071910D01*
X153068569Y-109284110D01*
X153017560Y-109536000D01*
X153017560Y-111096000D01*
X153061838Y-111331317D01*
X153200910Y-111547441D01*
X153339665Y-111642248D01*
X153470277Y-111837723D01*
X156452277Y-114819724D01*
X156643419Y-114947440D01*
X156690728Y-114979051D01*
X156972000Y-115035000D01*
X162560000Y-115035000D01*
X162841272Y-114979051D01*
X163079723Y-114819723D01*
X163800931Y-114098515D01*
X164338000Y-114205345D01*
X164911489Y-114091271D01*
X165397670Y-113766415D01*
X165604461Y-113456931D01*
X165975964Y-113872732D01*
X166503209Y-114126709D01*
X166518974Y-114129358D01*
X166751000Y-114008217D01*
X166751000Y-112649000D01*
X166731000Y-112649000D01*
X166731000Y-112395000D01*
X166751000Y-112395000D01*
X166751000Y-111035783D01*
X166518974Y-110914642D01*
X166503209Y-110917291D01*
X165975964Y-111171268D01*
X165604461Y-111587069D01*
X165397670Y-111277585D01*
X164911489Y-110952729D01*
X164338000Y-110838655D01*
X163764511Y-110952729D01*
X163278330Y-111277585D01*
X163071539Y-111587069D01*
X162700036Y-111171268D01*
X162172791Y-110917291D01*
X162157026Y-110914642D01*
X161925000Y-111035783D01*
X161925000Y-112395000D01*
X161945000Y-112395000D01*
X161945000Y-112649000D01*
X161925000Y-112649000D01*
X161925000Y-112669000D01*
X161671000Y-112669000D01*
X161671000Y-112649000D01*
X161651000Y-112649000D01*
X161651000Y-112395000D01*
X161671000Y-112395000D01*
X161671000Y-111035783D01*
X161438974Y-110914642D01*
X161423209Y-110917291D01*
X160895964Y-111171268D01*
X160739093Y-111346845D01*
X160724762Y-111270683D01*
X160585690Y-111054559D01*
X160373490Y-110909569D01*
X160121600Y-110858560D01*
X159663545Y-110858560D01*
X159697723Y-110835723D01*
X161047723Y-109485724D01*
X161207051Y-109247272D01*
X161217846Y-109193000D01*
X161262358Y-108969226D01*
X161423209Y-109046709D01*
X161438974Y-109049358D01*
X161671000Y-108928217D01*
X161671000Y-107569000D01*
X161651000Y-107569000D01*
X161651000Y-107315000D01*
X161671000Y-107315000D01*
X161671000Y-107295000D01*
X161925000Y-107295000D01*
X161925000Y-107315000D01*
X161945000Y-107315000D01*
X161945000Y-107569000D01*
X161925000Y-107569000D01*
X161925000Y-108928217D01*
X162157026Y-109049358D01*
X162172791Y-109046709D01*
X162700036Y-108792732D01*
X163071539Y-108376931D01*
X163278330Y-108686415D01*
X163443271Y-108796625D01*
X163564277Y-108977723D01*
X163802728Y-109137051D01*
X164084000Y-109193000D01*
X164365272Y-109137051D01*
X164401777Y-109112659D01*
X164911489Y-109011271D01*
X165397670Y-108686415D01*
X165604461Y-108376931D01*
X165975964Y-108792732D01*
X166503209Y-109046709D01*
X166518974Y-109049358D01*
X166751000Y-108928217D01*
X166751000Y-107569000D01*
X166731000Y-107569000D01*
X166731000Y-107315000D01*
X166751000Y-107315000D01*
X166751000Y-105955783D01*
X166518974Y-105834642D01*
X166503209Y-105837291D01*
X165975964Y-106091268D01*
X165604461Y-106507069D01*
X165397670Y-106197585D01*
X164911489Y-105872729D01*
X164338000Y-105758655D01*
X163764511Y-105872729D01*
X163278330Y-106197585D01*
X163071539Y-106507069D01*
X162700036Y-106091268D01*
X162172791Y-105837291D01*
X162158548Y-105834898D01*
X164012790Y-103980657D01*
X164338000Y-104045345D01*
X164911489Y-103931271D01*
X165049207Y-103839251D01*
X165088277Y-103897723D01*
X167097856Y-105907303D01*
X167005000Y-105955783D01*
X167005000Y-107315000D01*
X167025000Y-107315000D01*
X167025000Y-107569000D01*
X167005000Y-107569000D01*
X167005000Y-108928217D01*
X167237026Y-109049358D01*
X167252791Y-109046709D01*
X167780036Y-108792732D01*
X168151539Y-108376931D01*
X168358330Y-108686415D01*
X168844511Y-109011271D01*
X169418000Y-109125345D01*
X169991489Y-109011271D01*
X170477670Y-108686415D01*
X170684461Y-108376931D01*
X171055964Y-108792732D01*
X171583209Y-109046709D01*
X171598974Y-109049358D01*
X171831000Y-108928217D01*
X171831000Y-107569000D01*
X172085000Y-107569000D01*
X172085000Y-108928217D01*
X172317026Y-109049358D01*
X172332791Y-109046709D01*
X172860036Y-108792732D01*
X173249954Y-108356320D01*
X173443184Y-107803913D01*
X173298924Y-107569000D01*
X172085000Y-107569000D01*
X171831000Y-107569000D01*
X171811000Y-107569000D01*
X171811000Y-107315000D01*
X171831000Y-107315000D01*
X171831000Y-105955783D01*
X172085000Y-105955783D01*
X172085000Y-107315000D01*
X173298924Y-107315000D01*
X173443184Y-107080087D01*
X173249954Y-106527680D01*
X172860036Y-106091268D01*
X172332791Y-105837291D01*
X172317026Y-105834642D01*
X172085000Y-105955783D01*
X171831000Y-105955783D01*
X171598974Y-105834642D01*
X171583209Y-105837291D01*
X171055964Y-106091268D01*
X170684461Y-106507069D01*
X170477670Y-106197585D01*
X169991489Y-105872729D01*
X169418000Y-105758655D01*
X169092790Y-105823343D01*
X167238548Y-103969102D01*
X167252791Y-103966709D01*
X167780036Y-103712732D01*
X168151539Y-103296931D01*
X168358330Y-103606415D01*
X168844511Y-103931271D01*
X169418000Y-104045345D01*
X169991489Y-103931271D01*
X170477670Y-103606415D01*
X170684461Y-103296931D01*
X171055964Y-103712732D01*
X171583209Y-103966709D01*
X171598974Y-103969358D01*
X171831000Y-103848217D01*
X171831000Y-102489000D01*
X172085000Y-102489000D01*
X172085000Y-103848217D01*
X172317026Y-103969358D01*
X172332791Y-103966709D01*
X172860036Y-103712732D01*
X173249954Y-103276320D01*
X173443184Y-102723913D01*
X173298924Y-102489000D01*
X172085000Y-102489000D01*
X171831000Y-102489000D01*
X171811000Y-102489000D01*
X171811000Y-102235000D01*
X171831000Y-102235000D01*
X171831000Y-100875783D01*
X172085000Y-100875783D01*
X172085000Y-102235000D01*
X173298924Y-102235000D01*
X173443184Y-102000087D01*
X173249954Y-101447680D01*
X172860036Y-101011268D01*
X172332791Y-100757291D01*
X172317026Y-100754642D01*
X172085000Y-100875783D01*
X171831000Y-100875783D01*
X171598974Y-100754642D01*
X171583209Y-100757291D01*
X171055964Y-101011268D01*
X170684461Y-101427069D01*
X170477670Y-101117585D01*
X169991489Y-100792729D01*
X169418000Y-100678655D01*
X168883000Y-100785073D01*
X168883000Y-98858927D01*
X169418000Y-98965345D01*
X169955069Y-98858515D01*
X171184276Y-100087723D01*
G36*
X153666090Y-91823903D02*
X154058730Y-92217229D01*
X154266612Y-92303549D01*
X154060797Y-92388590D01*
X153667471Y-92781230D01*
X153587705Y-92973327D01*
X153533497Y-92842457D01*
X153291313Y-92772992D01*
X152490705Y-93573600D01*
X153291313Y-94374208D01*
X153533497Y-94304743D01*
X153583609Y-94164282D01*
X153666090Y-94363903D01*
X154058730Y-94757229D01*
X154572000Y-94970357D01*
X155127761Y-94970842D01*
X155475000Y-94827366D01*
X155475000Y-98044000D01*
X155525524Y-98298000D01*
X155530949Y-98325272D01*
X155690277Y-98563723D01*
X155983000Y-98856447D01*
X155983000Y-99571554D01*
X155713723Y-99302277D01*
X155475272Y-99142949D01*
X155194000Y-99087000D01*
X145034000Y-99087000D01*
X144752728Y-99142949D01*
X144514277Y-99302277D01*
X143498277Y-100318277D01*
X143338949Y-100556728D01*
X143283642Y-100834774D01*
X143122791Y-100757291D01*
X143107026Y-100754642D01*
X142875000Y-100875783D01*
X142875000Y-102235000D01*
X142895000Y-102235000D01*
X142895000Y-102489000D01*
X142875000Y-102489000D01*
X142875000Y-103848217D01*
X143107026Y-103969358D01*
X143122791Y-103966709D01*
X143283000Y-103889535D01*
X143283000Y-105914465D01*
X143122791Y-105837291D01*
X143107026Y-105834642D01*
X142875000Y-105955783D01*
X142875000Y-107315000D01*
X142895000Y-107315000D01*
X142895000Y-107569000D01*
X142875000Y-107569000D01*
X142875000Y-108928217D01*
X143107026Y-109049358D01*
X143122791Y-109046709D01*
X143650036Y-108792732D01*
X144021539Y-108376931D01*
X144228330Y-108686415D01*
X144403000Y-108803126D01*
X144403000Y-111160874D01*
X144228330Y-111277585D01*
X144021539Y-111587069D01*
X143650036Y-111171268D01*
X143122791Y-110917291D01*
X143107026Y-110914642D01*
X142875000Y-111035783D01*
X142875000Y-112395000D01*
X142895000Y-112395000D01*
X142895000Y-112649000D01*
X142875000Y-112649000D01*
X142875000Y-114008217D01*
X142995363Y-114071058D01*
X142029927Y-115036494D01*
X141874439Y-115036358D01*
X141705000Y-115106369D01*
X141705000Y-114046000D01*
X141649051Y-113764728D01*
X141515779Y-113565272D01*
X141489724Y-113526277D01*
X141452798Y-113489351D01*
X141474461Y-113456931D01*
X141845964Y-113872732D01*
X142373209Y-114126709D01*
X142388974Y-114129358D01*
X142621000Y-114008217D01*
X142621000Y-112649000D01*
X142601000Y-112649000D01*
X142601000Y-112395000D01*
X142621000Y-112395000D01*
X142621000Y-111035783D01*
X142388974Y-110914642D01*
X142373209Y-110917291D01*
X141845964Y-111171268D01*
X141474461Y-111587069D01*
X141267670Y-111277585D01*
X140781489Y-110952729D01*
X140208000Y-110838655D01*
X139634511Y-110952729D01*
X139148330Y-111277585D01*
X138941539Y-111587069D01*
X138570036Y-111171268D01*
X138042791Y-110917291D01*
X138027026Y-110914642D01*
X137795000Y-111035783D01*
X137795000Y-112395000D01*
X137815000Y-112395000D01*
X137815000Y-112649000D01*
X137795000Y-112649000D01*
X137795000Y-114008217D01*
X138027026Y-114129358D01*
X138042791Y-114126709D01*
X138570036Y-113872732D01*
X138941539Y-113456931D01*
X139148330Y-113766415D01*
X139634511Y-114091271D01*
X140060574Y-114176020D01*
X140235000Y-114350447D01*
X140235000Y-115180016D01*
X139890200Y-115036843D01*
X139334439Y-115036358D01*
X138820797Y-115248590D01*
X138427471Y-115641230D01*
X138341151Y-115849112D01*
X138256110Y-115643297D01*
X137863470Y-115249971D01*
X137350200Y-115036843D01*
X136794439Y-115036358D01*
X136280797Y-115248590D01*
X135887471Y-115641230D01*
X135801151Y-115849112D01*
X135716110Y-115643297D01*
X135323470Y-115249971D01*
X135096044Y-115155536D01*
X135525787Y-114725792D01*
X135525790Y-114725790D01*
X135717633Y-114438675D01*
X135739793Y-114327272D01*
X135785001Y-114100000D01*
X135785000Y-114099995D01*
X135785000Y-112883913D01*
X136182816Y-112883913D01*
X136376046Y-113436320D01*
X136765964Y-113872732D01*
X137293209Y-114126709D01*
X137308974Y-114129358D01*
X137541000Y-114008217D01*
X137541000Y-112649000D01*
X136327076Y-112649000D01*
X136182816Y-112883913D01*
X135785000Y-112883913D01*
X135785000Y-112160087D01*
X136182816Y-112160087D01*
X136327076Y-112395000D01*
X137541000Y-112395000D01*
X137541000Y-111035783D01*
X137308974Y-110914642D01*
X137293209Y-110917291D01*
X136765964Y-111171268D01*
X136376046Y-111607680D01*
X136182816Y-112160087D01*
X135785000Y-112160087D01*
X135785000Y-107803913D01*
X136182816Y-107803913D01*
X136376046Y-108356320D01*
X136765964Y-108792732D01*
X137293209Y-109046709D01*
X137308974Y-109049358D01*
X137541000Y-108928217D01*
X137541000Y-107569000D01*
X136327076Y-107569000D01*
X136182816Y-107803913D01*
X135785000Y-107803913D01*
X135785000Y-107080087D01*
X136182816Y-107080087D01*
X136327076Y-107315000D01*
X137541000Y-107315000D01*
X137541000Y-105955783D01*
X137308974Y-105834642D01*
X137293209Y-105837291D01*
X136765964Y-106091268D01*
X136376046Y-106527680D01*
X136182816Y-107080087D01*
X135785000Y-107080087D01*
X135785000Y-103804446D01*
X136894277Y-104913724D01*
X137132728Y-105073051D01*
X137414000Y-105129000D01*
X137871554Y-105129000D01*
X139064940Y-106322387D01*
X138941539Y-106507069D01*
X138570036Y-106091268D01*
X138042791Y-105837291D01*
X138027026Y-105834642D01*
X137795000Y-105955783D01*
X137795000Y-107315000D01*
X137815000Y-107315000D01*
X137815000Y-107569000D01*
X137795000Y-107569000D01*
X137795000Y-108928217D01*
X138027026Y-109049358D01*
X138042791Y-109046709D01*
X138570036Y-108792732D01*
X138941539Y-108376931D01*
X139148330Y-108686415D01*
X139634511Y-109011271D01*
X140208000Y-109125345D01*
X140781489Y-109011271D01*
X141267670Y-108686415D01*
X141474461Y-108376931D01*
X141845964Y-108792732D01*
X142373209Y-109046709D01*
X142388974Y-109049358D01*
X142621000Y-108928217D01*
X142621000Y-107569000D01*
X142601000Y-107569000D01*
X142601000Y-107315000D01*
X142621000Y-107315000D01*
X142621000Y-105955783D01*
X142388974Y-105834642D01*
X142373209Y-105837291D01*
X141845964Y-106091268D01*
X141474461Y-106507069D01*
X141267670Y-106197585D01*
X140781489Y-105872729D01*
X140672496Y-105851049D01*
X138695723Y-103874277D01*
X138502583Y-103745225D01*
X138570036Y-103712732D01*
X138941539Y-103296931D01*
X139148330Y-103606415D01*
X139634511Y-103931271D01*
X140208000Y-104045345D01*
X140781489Y-103931271D01*
X141267670Y-103606415D01*
X141474461Y-103296931D01*
X141845964Y-103712732D01*
X142373209Y-103966709D01*
X142388974Y-103969358D01*
X142621000Y-103848217D01*
X142621000Y-102489000D01*
X142601000Y-102489000D01*
X142601000Y-102235000D01*
X142621000Y-102235000D01*
X142621000Y-100875783D01*
X142388974Y-100754642D01*
X142373209Y-100757291D01*
X141845964Y-101011268D01*
X141474461Y-101427069D01*
X141267670Y-101117585D01*
X140781489Y-100792729D01*
X140208000Y-100678655D01*
X139634511Y-100792729D01*
X139148330Y-101117585D01*
X138941539Y-101427069D01*
X138570036Y-101011268D01*
X138042791Y-100757291D01*
X138027026Y-100754642D01*
X137795000Y-100875783D01*
X137795000Y-102235000D01*
X137815000Y-102235000D01*
X137815000Y-102489000D01*
X137795000Y-102489000D01*
X137795000Y-102509000D01*
X137541000Y-102509000D01*
X137541000Y-102489000D01*
X137521000Y-102489000D01*
X137521000Y-102235000D01*
X137541000Y-102235000D01*
X137541000Y-100875783D01*
X137308974Y-100754642D01*
X137293209Y-100757291D01*
X136765964Y-101011268D01*
X136376046Y-101447680D01*
X136371000Y-101462106D01*
X136371000Y-98181894D01*
X136376046Y-98196320D01*
X136765964Y-98632732D01*
X137293209Y-98886709D01*
X137308974Y-98889358D01*
X137541000Y-98768217D01*
X137541000Y-97409000D01*
X137521000Y-97409000D01*
X137521000Y-97155000D01*
X137541000Y-97155000D01*
X137541000Y-95795783D01*
X137308974Y-95674642D01*
X137293209Y-95677291D01*
X136765964Y-95931268D01*
X136376046Y-96367680D01*
X136209740Y-96843118D01*
X136155723Y-96762276D01*
X134363901Y-94970455D01*
X134807761Y-94970842D01*
X135321403Y-94758610D01*
X135714729Y-94365970D01*
X135801049Y-94158088D01*
X135886090Y-94363903D01*
X136278730Y-94757229D01*
X136792000Y-94970357D01*
X137347761Y-94970842D01*
X137861403Y-94758610D01*
X138254729Y-94365970D01*
X138341049Y-94158088D01*
X138426090Y-94363903D01*
X138520208Y-94458185D01*
X138315081Y-94662954D01*
X138157180Y-95043223D01*
X138156821Y-95454971D01*
X138299844Y-95801115D01*
X138042791Y-95677291D01*
X138027026Y-95674642D01*
X137795000Y-95795783D01*
X137795000Y-97155000D01*
X137815000Y-97155000D01*
X137815000Y-97409000D01*
X137795000Y-97409000D01*
X137795000Y-98768217D01*
X138027026Y-98889358D01*
X138042791Y-98886709D01*
X138570036Y-98632732D01*
X138941539Y-98216931D01*
X139148330Y-98526415D01*
X139634511Y-98851271D01*
X140208000Y-98965345D01*
X140781489Y-98851271D01*
X141267670Y-98526415D01*
X141474461Y-98216931D01*
X141845964Y-98632732D01*
X142373209Y-98886709D01*
X142388974Y-98889358D01*
X142621000Y-98768217D01*
X142621000Y-97409000D01*
X142601000Y-97409000D01*
X142601000Y-97155000D01*
X142621000Y-97155000D01*
X142621000Y-95795783D01*
X142875000Y-95795783D01*
X142875000Y-97155000D01*
X142895000Y-97155000D01*
X142895000Y-97409000D01*
X142875000Y-97409000D01*
X142875000Y-98768217D01*
X143107026Y-98889358D01*
X143122791Y-98886709D01*
X143650036Y-98632732D01*
X144021539Y-98216931D01*
X144228330Y-98526415D01*
X144714511Y-98851271D01*
X145288000Y-98965345D01*
X145861489Y-98851271D01*
X146347670Y-98526415D01*
X146554461Y-98216931D01*
X146925964Y-98632732D01*
X147453209Y-98886709D01*
X147468974Y-98889358D01*
X147701000Y-98768217D01*
X147701000Y-97409000D01*
X147681000Y-97409000D01*
X147681000Y-97155000D01*
X147701000Y-97155000D01*
X147701000Y-95795783D01*
X147955000Y-95795783D01*
X147955000Y-97155000D01*
X147975000Y-97155000D01*
X147975000Y-97409000D01*
X147955000Y-97409000D01*
X147955000Y-98768217D01*
X148187026Y-98889358D01*
X148202791Y-98886709D01*
X148730036Y-98632732D01*
X148886907Y-98457155D01*
X148901238Y-98533317D01*
X149040310Y-98749441D01*
X149252510Y-98894431D01*
X149504400Y-98945440D01*
X151231600Y-98945440D01*
X151466917Y-98901162D01*
X151683041Y-98762090D01*
X151828031Y-98549890D01*
X151879040Y-98298000D01*
X151879040Y-96266000D01*
X151834762Y-96030683D01*
X151695690Y-95814559D01*
X151483490Y-95669569D01*
X151231600Y-95618560D01*
X149504400Y-95618560D01*
X149269083Y-95662838D01*
X149052959Y-95801910D01*
X148907969Y-96014110D01*
X148888768Y-96108927D01*
X148730036Y-95931268D01*
X148202791Y-95677291D01*
X148187026Y-95674642D01*
X147955000Y-95795783D01*
X147701000Y-95795783D01*
X147468974Y-95674642D01*
X147453209Y-95677291D01*
X146925964Y-95931268D01*
X146554461Y-96347069D01*
X146347670Y-96037585D01*
X145861489Y-95712729D01*
X145288000Y-95598655D01*
X144714511Y-95712729D01*
X144228330Y-96037585D01*
X144021539Y-96347069D01*
X143650036Y-95931268D01*
X143122791Y-95677291D01*
X143107026Y-95674642D01*
X142875000Y-95795783D01*
X142621000Y-95795783D01*
X142388974Y-95674642D01*
X142373209Y-95677291D01*
X141845964Y-95931268D01*
X141474461Y-96347069D01*
X141267670Y-96037585D01*
X141188971Y-95985000D01*
X141478000Y-95985000D01*
X141759272Y-95929051D01*
X141997723Y-95769723D01*
X142670823Y-95096624D01*
X142830151Y-94858172D01*
X142841766Y-94799779D01*
X142941403Y-94758610D01*
X143146557Y-94553813D01*
X143890492Y-94553813D01*
X143959957Y-94795997D01*
X144483402Y-94982744D01*
X145038468Y-94954962D01*
X145422243Y-94795997D01*
X145491708Y-94553813D01*
X144691100Y-93753205D01*
X143890492Y-94553813D01*
X143146557Y-94553813D01*
X143334729Y-94365970D01*
X143414495Y-94173873D01*
X143468703Y-94304743D01*
X143710887Y-94374208D01*
X144511495Y-93573600D01*
X143710887Y-92772992D01*
X143468703Y-92842457D01*
X143418591Y-92982918D01*
X143336110Y-92783297D01*
X142943470Y-92389971D01*
X142735588Y-92303651D01*
X142941403Y-92218610D01*
X143334729Y-91825970D01*
X143421049Y-91618088D01*
X143506090Y-91823903D01*
X143898730Y-92217229D01*
X144090827Y-92296995D01*
X143959957Y-92351203D01*
X143890492Y-92593387D01*
X144691100Y-93393995D01*
X145491708Y-92593387D01*
X145422243Y-92351203D01*
X145281782Y-92301091D01*
X145481403Y-92218610D01*
X145874729Y-91825970D01*
X145961049Y-91618088D01*
X146046090Y-91823903D01*
X146438730Y-92217229D01*
X146646612Y-92303549D01*
X146440797Y-92388590D01*
X146047471Y-92781230D01*
X145967705Y-92973327D01*
X145913497Y-92842457D01*
X145671313Y-92772992D01*
X144870705Y-93573600D01*
X145671313Y-94374208D01*
X145913497Y-94304743D01*
X145963609Y-94164282D01*
X146046090Y-94363903D01*
X146438730Y-94757229D01*
X146952000Y-94970357D01*
X147507761Y-94970842D01*
X148021403Y-94758610D01*
X148414729Y-94365970D01*
X148501049Y-94158088D01*
X148586090Y-94363903D01*
X148978730Y-94757229D01*
X149492000Y-94970357D01*
X150047761Y-94970842D01*
X150561403Y-94758610D01*
X150766557Y-94553813D01*
X151510492Y-94553813D01*
X151579957Y-94795997D01*
X152103402Y-94982744D01*
X152658468Y-94954962D01*
X153042243Y-94795997D01*
X153111708Y-94553813D01*
X152311100Y-93753205D01*
X151510492Y-94553813D01*
X150766557Y-94553813D01*
X150954729Y-94365970D01*
X151034495Y-94173873D01*
X151088703Y-94304743D01*
X151330887Y-94374208D01*
X152131495Y-93573600D01*
X151330887Y-92772992D01*
X151088703Y-92842457D01*
X151038591Y-92982918D01*
X150956110Y-92783297D01*
X150563470Y-92389971D01*
X150355588Y-92303651D01*
X150561403Y-92218610D01*
X150954729Y-91825970D01*
X151041049Y-91618088D01*
X151126090Y-91823903D01*
X151518730Y-92217229D01*
X151710827Y-92296995D01*
X151579957Y-92351203D01*
X151510492Y-92593387D01*
X152311100Y-93393995D01*
X153111708Y-92593387D01*
X153042243Y-92351203D01*
X152901782Y-92301091D01*
X153101403Y-92218610D01*
X153494729Y-91825970D01*
X153581049Y-91618088D01*
X153666090Y-91823903D01*
X153666090Y-91823903D01*
G37*
X153666090Y-91823903D02*
X154058730Y-92217229D01*
X154266612Y-92303549D01*
X154060797Y-92388590D01*
X153667471Y-92781230D01*
X153587705Y-92973327D01*
X153533497Y-92842457D01*
X153291313Y-92772992D01*
X152490705Y-93573600D01*
X153291313Y-94374208D01*
X153533497Y-94304743D01*
X153583609Y-94164282D01*
X153666090Y-94363903D01*
X154058730Y-94757229D01*
X154572000Y-94970357D01*
X155127761Y-94970842D01*
X155475000Y-94827366D01*
X155475000Y-98044000D01*
X155525524Y-98298000D01*
X155530949Y-98325272D01*
X155690277Y-98563723D01*
X155983000Y-98856447D01*
X155983000Y-99571554D01*
X155713723Y-99302277D01*
X155475272Y-99142949D01*
X155194000Y-99087000D01*
X145034000Y-99087000D01*
X144752728Y-99142949D01*
X144514277Y-99302277D01*
X143498277Y-100318277D01*
X143338949Y-100556728D01*
X143283642Y-100834774D01*
X143122791Y-100757291D01*
X143107026Y-100754642D01*
X142875000Y-100875783D01*
X142875000Y-102235000D01*
X142895000Y-102235000D01*
X142895000Y-102489000D01*
X142875000Y-102489000D01*
X142875000Y-103848217D01*
X143107026Y-103969358D01*
X143122791Y-103966709D01*
X143283000Y-103889535D01*
X143283000Y-105914465D01*
X143122791Y-105837291D01*
X143107026Y-105834642D01*
X142875000Y-105955783D01*
X142875000Y-107315000D01*
X142895000Y-107315000D01*
X142895000Y-107569000D01*
X142875000Y-107569000D01*
X142875000Y-108928217D01*
X143107026Y-109049358D01*
X143122791Y-109046709D01*
X143650036Y-108792732D01*
X144021539Y-108376931D01*
X144228330Y-108686415D01*
X144403000Y-108803126D01*
X144403000Y-111160874D01*
X144228330Y-111277585D01*
X144021539Y-111587069D01*
X143650036Y-111171268D01*
X143122791Y-110917291D01*
X143107026Y-110914642D01*
X142875000Y-111035783D01*
X142875000Y-112395000D01*
X142895000Y-112395000D01*
X142895000Y-112649000D01*
X142875000Y-112649000D01*
X142875000Y-114008217D01*
X142995363Y-114071058D01*
X142029927Y-115036494D01*
X141874439Y-115036358D01*
X141705000Y-115106369D01*
X141705000Y-114046000D01*
X141649051Y-113764728D01*
X141515779Y-113565272D01*
X141489724Y-113526277D01*
X141452798Y-113489351D01*
X141474461Y-113456931D01*
X141845964Y-113872732D01*
X142373209Y-114126709D01*
X142388974Y-114129358D01*
X142621000Y-114008217D01*
X142621000Y-112649000D01*
X142601000Y-112649000D01*
X142601000Y-112395000D01*
X142621000Y-112395000D01*
X142621000Y-111035783D01*
X142388974Y-110914642D01*
X142373209Y-110917291D01*
X141845964Y-111171268D01*
X141474461Y-111587069D01*
X141267670Y-111277585D01*
X140781489Y-110952729D01*
X140208000Y-110838655D01*
X139634511Y-110952729D01*
X139148330Y-111277585D01*
X138941539Y-111587069D01*
X138570036Y-111171268D01*
X138042791Y-110917291D01*
X138027026Y-110914642D01*
X137795000Y-111035783D01*
X137795000Y-112395000D01*
X137815000Y-112395000D01*
X137815000Y-112649000D01*
X137795000Y-112649000D01*
X137795000Y-114008217D01*
X138027026Y-114129358D01*
X138042791Y-114126709D01*
X138570036Y-113872732D01*
X138941539Y-113456931D01*
X139148330Y-113766415D01*
X139634511Y-114091271D01*
X140060574Y-114176020D01*
X140235000Y-114350447D01*
X140235000Y-115180016D01*
X139890200Y-115036843D01*
X139334439Y-115036358D01*
X138820797Y-115248590D01*
X138427471Y-115641230D01*
X138341151Y-115849112D01*
X138256110Y-115643297D01*
X137863470Y-115249971D01*
X137350200Y-115036843D01*
X136794439Y-115036358D01*
X136280797Y-115248590D01*
X135887471Y-115641230D01*
X135801151Y-115849112D01*
X135716110Y-115643297D01*
X135323470Y-115249971D01*
X135096044Y-115155536D01*
X135525787Y-114725792D01*
X135525790Y-114725790D01*
X135717633Y-114438675D01*
X135739793Y-114327272D01*
X135785001Y-114100000D01*
X135785000Y-114099995D01*
X135785000Y-112883913D01*
X136182816Y-112883913D01*
X136376046Y-113436320D01*
X136765964Y-113872732D01*
X137293209Y-114126709D01*
X137308974Y-114129358D01*
X137541000Y-114008217D01*
X137541000Y-112649000D01*
X136327076Y-112649000D01*
X136182816Y-112883913D01*
X135785000Y-112883913D01*
X135785000Y-112160087D01*
X136182816Y-112160087D01*
X136327076Y-112395000D01*
X137541000Y-112395000D01*
X137541000Y-111035783D01*
X137308974Y-110914642D01*
X137293209Y-110917291D01*
X136765964Y-111171268D01*
X136376046Y-111607680D01*
X136182816Y-112160087D01*
X135785000Y-112160087D01*
X135785000Y-107803913D01*
X136182816Y-107803913D01*
X136376046Y-108356320D01*
X136765964Y-108792732D01*
X137293209Y-109046709D01*
X137308974Y-109049358D01*
X137541000Y-108928217D01*
X137541000Y-107569000D01*
X136327076Y-107569000D01*
X136182816Y-107803913D01*
X135785000Y-107803913D01*
X135785000Y-107080087D01*
X136182816Y-107080087D01*
X136327076Y-107315000D01*
X137541000Y-107315000D01*
X137541000Y-105955783D01*
X137308974Y-105834642D01*
X137293209Y-105837291D01*
X136765964Y-106091268D01*
X136376046Y-106527680D01*
X136182816Y-107080087D01*
X135785000Y-107080087D01*
X135785000Y-103804446D01*
X136894277Y-104913724D01*
X137132728Y-105073051D01*
X137414000Y-105129000D01*
X137871554Y-105129000D01*
X139064940Y-106322387D01*
X138941539Y-106507069D01*
X138570036Y-106091268D01*
X138042791Y-105837291D01*
X138027026Y-105834642D01*
X137795000Y-105955783D01*
X137795000Y-107315000D01*
X137815000Y-107315000D01*
X137815000Y-107569000D01*
X137795000Y-107569000D01*
X137795000Y-108928217D01*
X138027026Y-109049358D01*
X138042791Y-109046709D01*
X138570036Y-108792732D01*
X138941539Y-108376931D01*
X139148330Y-108686415D01*
X139634511Y-109011271D01*
X140208000Y-109125345D01*
X140781489Y-109011271D01*
X141267670Y-108686415D01*
X141474461Y-108376931D01*
X141845964Y-108792732D01*
X142373209Y-109046709D01*
X142388974Y-109049358D01*
X142621000Y-108928217D01*
X142621000Y-107569000D01*
X142601000Y-107569000D01*
X142601000Y-107315000D01*
X142621000Y-107315000D01*
X142621000Y-105955783D01*
X142388974Y-105834642D01*
X142373209Y-105837291D01*
X141845964Y-106091268D01*
X141474461Y-106507069D01*
X141267670Y-106197585D01*
X140781489Y-105872729D01*
X140672496Y-105851049D01*
X138695723Y-103874277D01*
X138502583Y-103745225D01*
X138570036Y-103712732D01*
X138941539Y-103296931D01*
X139148330Y-103606415D01*
X139634511Y-103931271D01*
X140208000Y-104045345D01*
X140781489Y-103931271D01*
X141267670Y-103606415D01*
X141474461Y-103296931D01*
X141845964Y-103712732D01*
X142373209Y-103966709D01*
X142388974Y-103969358D01*
X142621000Y-103848217D01*
X142621000Y-102489000D01*
X142601000Y-102489000D01*
X142601000Y-102235000D01*
X142621000Y-102235000D01*
X142621000Y-100875783D01*
X142388974Y-100754642D01*
X142373209Y-100757291D01*
X141845964Y-101011268D01*
X141474461Y-101427069D01*
X141267670Y-101117585D01*
X140781489Y-100792729D01*
X140208000Y-100678655D01*
X139634511Y-100792729D01*
X139148330Y-101117585D01*
X138941539Y-101427069D01*
X138570036Y-101011268D01*
X138042791Y-100757291D01*
X138027026Y-100754642D01*
X137795000Y-100875783D01*
X137795000Y-102235000D01*
X137815000Y-102235000D01*
X137815000Y-102489000D01*
X137795000Y-102489000D01*
X137795000Y-102509000D01*
X137541000Y-102509000D01*
X137541000Y-102489000D01*
X137521000Y-102489000D01*
X137521000Y-102235000D01*
X137541000Y-102235000D01*
X137541000Y-100875783D01*
X137308974Y-100754642D01*
X137293209Y-100757291D01*
X136765964Y-101011268D01*
X136376046Y-101447680D01*
X136371000Y-101462106D01*
X136371000Y-98181894D01*
X136376046Y-98196320D01*
X136765964Y-98632732D01*
X137293209Y-98886709D01*
X137308974Y-98889358D01*
X137541000Y-98768217D01*
X137541000Y-97409000D01*
X137521000Y-97409000D01*
X137521000Y-97155000D01*
X137541000Y-97155000D01*
X137541000Y-95795783D01*
X137308974Y-95674642D01*
X137293209Y-95677291D01*
X136765964Y-95931268D01*
X136376046Y-96367680D01*
X136209740Y-96843118D01*
X136155723Y-96762276D01*
X134363901Y-94970455D01*
X134807761Y-94970842D01*
X135321403Y-94758610D01*
X135714729Y-94365970D01*
X135801049Y-94158088D01*
X135886090Y-94363903D01*
X136278730Y-94757229D01*
X136792000Y-94970357D01*
X137347761Y-94970842D01*
X137861403Y-94758610D01*
X138254729Y-94365970D01*
X138341049Y-94158088D01*
X138426090Y-94363903D01*
X138520208Y-94458185D01*
X138315081Y-94662954D01*
X138157180Y-95043223D01*
X138156821Y-95454971D01*
X138299844Y-95801115D01*
X138042791Y-95677291D01*
X138027026Y-95674642D01*
X137795000Y-95795783D01*
X137795000Y-97155000D01*
X137815000Y-97155000D01*
X137815000Y-97409000D01*
X137795000Y-97409000D01*
X137795000Y-98768217D01*
X138027026Y-98889358D01*
X138042791Y-98886709D01*
X138570036Y-98632732D01*
X138941539Y-98216931D01*
X139148330Y-98526415D01*
X139634511Y-98851271D01*
X140208000Y-98965345D01*
X140781489Y-98851271D01*
X141267670Y-98526415D01*
X141474461Y-98216931D01*
X141845964Y-98632732D01*
X142373209Y-98886709D01*
X142388974Y-98889358D01*
X142621000Y-98768217D01*
X142621000Y-97409000D01*
X142601000Y-97409000D01*
X142601000Y-97155000D01*
X142621000Y-97155000D01*
X142621000Y-95795783D01*
X142875000Y-95795783D01*
X142875000Y-97155000D01*
X142895000Y-97155000D01*
X142895000Y-97409000D01*
X142875000Y-97409000D01*
X142875000Y-98768217D01*
X143107026Y-98889358D01*
X143122791Y-98886709D01*
X143650036Y-98632732D01*
X144021539Y-98216931D01*
X144228330Y-98526415D01*
X144714511Y-98851271D01*
X145288000Y-98965345D01*
X145861489Y-98851271D01*
X146347670Y-98526415D01*
X146554461Y-98216931D01*
X146925964Y-98632732D01*
X147453209Y-98886709D01*
X147468974Y-98889358D01*
X147701000Y-98768217D01*
X147701000Y-97409000D01*
X147681000Y-97409000D01*
X147681000Y-97155000D01*
X147701000Y-97155000D01*
X147701000Y-95795783D01*
X147955000Y-95795783D01*
X147955000Y-97155000D01*
X147975000Y-97155000D01*
X147975000Y-97409000D01*
X147955000Y-97409000D01*
X147955000Y-98768217D01*
X148187026Y-98889358D01*
X148202791Y-98886709D01*
X148730036Y-98632732D01*
X148886907Y-98457155D01*
X148901238Y-98533317D01*
X149040310Y-98749441D01*
X149252510Y-98894431D01*
X149504400Y-98945440D01*
X151231600Y-98945440D01*
X151466917Y-98901162D01*
X151683041Y-98762090D01*
X151828031Y-98549890D01*
X151879040Y-98298000D01*
X151879040Y-96266000D01*
X151834762Y-96030683D01*
X151695690Y-95814559D01*
X151483490Y-95669569D01*
X151231600Y-95618560D01*
X149504400Y-95618560D01*
X149269083Y-95662838D01*
X149052959Y-95801910D01*
X148907969Y-96014110D01*
X148888768Y-96108927D01*
X148730036Y-95931268D01*
X148202791Y-95677291D01*
X148187026Y-95674642D01*
X147955000Y-95795783D01*
X147701000Y-95795783D01*
X147468974Y-95674642D01*
X147453209Y-95677291D01*
X146925964Y-95931268D01*
X146554461Y-96347069D01*
X146347670Y-96037585D01*
X145861489Y-95712729D01*
X145288000Y-95598655D01*
X144714511Y-95712729D01*
X144228330Y-96037585D01*
X144021539Y-96347069D01*
X143650036Y-95931268D01*
X143122791Y-95677291D01*
X143107026Y-95674642D01*
X142875000Y-95795783D01*
X142621000Y-95795783D01*
X142388974Y-95674642D01*
X142373209Y-95677291D01*
X141845964Y-95931268D01*
X141474461Y-96347069D01*
X141267670Y-96037585D01*
X141188971Y-95985000D01*
X141478000Y-95985000D01*
X141759272Y-95929051D01*
X141997723Y-95769723D01*
X142670823Y-95096624D01*
X142830151Y-94858172D01*
X142841766Y-94799779D01*
X142941403Y-94758610D01*
X143146557Y-94553813D01*
X143890492Y-94553813D01*
X143959957Y-94795997D01*
X144483402Y-94982744D01*
X145038468Y-94954962D01*
X145422243Y-94795997D01*
X145491708Y-94553813D01*
X144691100Y-93753205D01*
X143890492Y-94553813D01*
X143146557Y-94553813D01*
X143334729Y-94365970D01*
X143414495Y-94173873D01*
X143468703Y-94304743D01*
X143710887Y-94374208D01*
X144511495Y-93573600D01*
X143710887Y-92772992D01*
X143468703Y-92842457D01*
X143418591Y-92982918D01*
X143336110Y-92783297D01*
X142943470Y-92389971D01*
X142735588Y-92303651D01*
X142941403Y-92218610D01*
X143334729Y-91825970D01*
X143421049Y-91618088D01*
X143506090Y-91823903D01*
X143898730Y-92217229D01*
X144090827Y-92296995D01*
X143959957Y-92351203D01*
X143890492Y-92593387D01*
X144691100Y-93393995D01*
X145491708Y-92593387D01*
X145422243Y-92351203D01*
X145281782Y-92301091D01*
X145481403Y-92218610D01*
X145874729Y-91825970D01*
X145961049Y-91618088D01*
X146046090Y-91823903D01*
X146438730Y-92217229D01*
X146646612Y-92303549D01*
X146440797Y-92388590D01*
X146047471Y-92781230D01*
X145967705Y-92973327D01*
X145913497Y-92842457D01*
X145671313Y-92772992D01*
X144870705Y-93573600D01*
X145671313Y-94374208D01*
X145913497Y-94304743D01*
X145963609Y-94164282D01*
X146046090Y-94363903D01*
X146438730Y-94757229D01*
X146952000Y-94970357D01*
X147507761Y-94970842D01*
X148021403Y-94758610D01*
X148414729Y-94365970D01*
X148501049Y-94158088D01*
X148586090Y-94363903D01*
X148978730Y-94757229D01*
X149492000Y-94970357D01*
X150047761Y-94970842D01*
X150561403Y-94758610D01*
X150766557Y-94553813D01*
X151510492Y-94553813D01*
X151579957Y-94795997D01*
X152103402Y-94982744D01*
X152658468Y-94954962D01*
X153042243Y-94795997D01*
X153111708Y-94553813D01*
X152311100Y-93753205D01*
X151510492Y-94553813D01*
X150766557Y-94553813D01*
X150954729Y-94365970D01*
X151034495Y-94173873D01*
X151088703Y-94304743D01*
X151330887Y-94374208D01*
X152131495Y-93573600D01*
X151330887Y-92772992D01*
X151088703Y-92842457D01*
X151038591Y-92982918D01*
X150956110Y-92783297D01*
X150563470Y-92389971D01*
X150355588Y-92303651D01*
X150561403Y-92218610D01*
X150954729Y-91825970D01*
X151041049Y-91618088D01*
X151126090Y-91823903D01*
X151518730Y-92217229D01*
X151710827Y-92296995D01*
X151579957Y-92351203D01*
X151510492Y-92593387D01*
X152311100Y-93393995D01*
X153111708Y-92593387D01*
X153042243Y-92351203D01*
X152901782Y-92301091D01*
X153101403Y-92218610D01*
X153494729Y-91825970D01*
X153581049Y-91618088D01*
X153666090Y-91823903D01*
G36*
X158746090Y-94363903D02*
X159138730Y-94757229D01*
X159652000Y-94970357D01*
X160207761Y-94970842D01*
X160721403Y-94758610D01*
X160752680Y-94727387D01*
X160770277Y-94753723D01*
X161670998Y-95654445D01*
X161670998Y-95795782D01*
X161438974Y-95674642D01*
X161423209Y-95677291D01*
X160895964Y-95931268D01*
X160739093Y-96106845D01*
X160724762Y-96030683D01*
X160585690Y-95814559D01*
X160373490Y-95669569D01*
X160121600Y-95618560D01*
X158394400Y-95618560D01*
X158159083Y-95662838D01*
X157942959Y-95801910D01*
X157797969Y-96014110D01*
X157746960Y-96266000D01*
X157746960Y-98298000D01*
X157791238Y-98533317D01*
X157930310Y-98749441D01*
X158142510Y-98894431D01*
X158394400Y-98945440D01*
X160121600Y-98945440D01*
X160356917Y-98901162D01*
X160573041Y-98762090D01*
X160718031Y-98549890D01*
X160737232Y-98455073D01*
X160895964Y-98632732D01*
X161423209Y-98886709D01*
X161438974Y-98889358D01*
X161671000Y-98768217D01*
X161671000Y-97409000D01*
X161651000Y-97409000D01*
X161651000Y-97155000D01*
X161671000Y-97155000D01*
X161671000Y-97135000D01*
X161925000Y-97135000D01*
X161925000Y-97155000D01*
X161945000Y-97155000D01*
X161945000Y-97409000D01*
X161925000Y-97409000D01*
X161925000Y-98768217D01*
X162157026Y-98889358D01*
X162172791Y-98886709D01*
X162700036Y-98632732D01*
X163071539Y-98216931D01*
X163278330Y-98526415D01*
X163764511Y-98851271D01*
X164338000Y-98965345D01*
X164873000Y-98858927D01*
X164873000Y-100785073D01*
X164338000Y-100678655D01*
X163764511Y-100792729D01*
X163278330Y-101117585D01*
X163071539Y-101427069D01*
X162700036Y-101011268D01*
X162172791Y-100757291D01*
X162157026Y-100754642D01*
X161925000Y-100875783D01*
X161925000Y-102235000D01*
X161945000Y-102235000D01*
X161945000Y-102489000D01*
X161925000Y-102489000D01*
X161925000Y-103848217D01*
X162017856Y-103896697D01*
X160133570Y-105780984D01*
X160121600Y-105778560D01*
X158394400Y-105778560D01*
X158159083Y-105822838D01*
X157942959Y-105961910D01*
X157797969Y-106174110D01*
X157746960Y-106426000D01*
X157746960Y-107913594D01*
X157429554Y-108231000D01*
X156862440Y-108231000D01*
X156862440Y-106836000D01*
X156818162Y-106600683D01*
X156679090Y-106384559D01*
X156625000Y-106347601D01*
X156625000Y-105490757D01*
X156666441Y-105464090D01*
X156811431Y-105251890D01*
X156862440Y-105000000D01*
X156862440Y-103765007D01*
X157237724Y-103389723D01*
X157397051Y-103151272D01*
X157407846Y-103097000D01*
X157453000Y-102870000D01*
X157453000Y-101346000D01*
X157746960Y-101346000D01*
X157746960Y-103378000D01*
X157791238Y-103613317D01*
X157930310Y-103829441D01*
X158142510Y-103974431D01*
X158394400Y-104025440D01*
X160121600Y-104025440D01*
X160356917Y-103981162D01*
X160573041Y-103842090D01*
X160718031Y-103629890D01*
X160737232Y-103535073D01*
X160895964Y-103712732D01*
X161423209Y-103966709D01*
X161438974Y-103969358D01*
X161671000Y-103848217D01*
X161671000Y-102489000D01*
X161651000Y-102489000D01*
X161651000Y-102235000D01*
X161671000Y-102235000D01*
X161671000Y-100875783D01*
X161438974Y-100754642D01*
X161423209Y-100757291D01*
X160895964Y-101011268D01*
X160739093Y-101186845D01*
X160724762Y-101110683D01*
X160585690Y-100894559D01*
X160373490Y-100749569D01*
X160121600Y-100698560D01*
X158394400Y-100698560D01*
X158159083Y-100742838D01*
X157942959Y-100881910D01*
X157797969Y-101094110D01*
X157746960Y-101346000D01*
X157453000Y-101346000D01*
X157453000Y-98552000D01*
X157397051Y-98270728D01*
X157397051Y-98270727D01*
X157237723Y-98032276D01*
X156945000Y-97739554D01*
X156945000Y-94901013D01*
X157112000Y-94970357D01*
X157667761Y-94970842D01*
X158181403Y-94758610D01*
X158574729Y-94365970D01*
X158661049Y-94158088D01*
X158746090Y-94363903D01*
X158746090Y-94363903D01*
G37*
X158746090Y-94363903D02*
X159138730Y-94757229D01*
X159652000Y-94970357D01*
X160207761Y-94970842D01*
X160721403Y-94758610D01*
X160752680Y-94727387D01*
X160770277Y-94753723D01*
X161670998Y-95654445D01*
X161670998Y-95795782D01*
X161438974Y-95674642D01*
X161423209Y-95677291D01*
X160895964Y-95931268D01*
X160739093Y-96106845D01*
X160724762Y-96030683D01*
X160585690Y-95814559D01*
X160373490Y-95669569D01*
X160121600Y-95618560D01*
X158394400Y-95618560D01*
X158159083Y-95662838D01*
X157942959Y-95801910D01*
X157797969Y-96014110D01*
X157746960Y-96266000D01*
X157746960Y-98298000D01*
X157791238Y-98533317D01*
X157930310Y-98749441D01*
X158142510Y-98894431D01*
X158394400Y-98945440D01*
X160121600Y-98945440D01*
X160356917Y-98901162D01*
X160573041Y-98762090D01*
X160718031Y-98549890D01*
X160737232Y-98455073D01*
X160895964Y-98632732D01*
X161423209Y-98886709D01*
X161438974Y-98889358D01*
X161671000Y-98768217D01*
X161671000Y-97409000D01*
X161651000Y-97409000D01*
X161651000Y-97155000D01*
X161671000Y-97155000D01*
X161671000Y-97135000D01*
X161925000Y-97135000D01*
X161925000Y-97155000D01*
X161945000Y-97155000D01*
X161945000Y-97409000D01*
X161925000Y-97409000D01*
X161925000Y-98768217D01*
X162157026Y-98889358D01*
X162172791Y-98886709D01*
X162700036Y-98632732D01*
X163071539Y-98216931D01*
X163278330Y-98526415D01*
X163764511Y-98851271D01*
X164338000Y-98965345D01*
X164873000Y-98858927D01*
X164873000Y-100785073D01*
X164338000Y-100678655D01*
X163764511Y-100792729D01*
X163278330Y-101117585D01*
X163071539Y-101427069D01*
X162700036Y-101011268D01*
X162172791Y-100757291D01*
X162157026Y-100754642D01*
X161925000Y-100875783D01*
X161925000Y-102235000D01*
X161945000Y-102235000D01*
X161945000Y-102489000D01*
X161925000Y-102489000D01*
X161925000Y-103848217D01*
X162017856Y-103896697D01*
X160133570Y-105780984D01*
X160121600Y-105778560D01*
X158394400Y-105778560D01*
X158159083Y-105822838D01*
X157942959Y-105961910D01*
X157797969Y-106174110D01*
X157746960Y-106426000D01*
X157746960Y-107913594D01*
X157429554Y-108231000D01*
X156862440Y-108231000D01*
X156862440Y-106836000D01*
X156818162Y-106600683D01*
X156679090Y-106384559D01*
X156625000Y-106347601D01*
X156625000Y-105490757D01*
X156666441Y-105464090D01*
X156811431Y-105251890D01*
X156862440Y-105000000D01*
X156862440Y-103765007D01*
X157237724Y-103389723D01*
X157397051Y-103151272D01*
X157407846Y-103097000D01*
X157453000Y-102870000D01*
X157453000Y-101346000D01*
X157746960Y-101346000D01*
X157746960Y-103378000D01*
X157791238Y-103613317D01*
X157930310Y-103829441D01*
X158142510Y-103974431D01*
X158394400Y-104025440D01*
X160121600Y-104025440D01*
X160356917Y-103981162D01*
X160573041Y-103842090D01*
X160718031Y-103629890D01*
X160737232Y-103535073D01*
X160895964Y-103712732D01*
X161423209Y-103966709D01*
X161438974Y-103969358D01*
X161671000Y-103848217D01*
X161671000Y-102489000D01*
X161651000Y-102489000D01*
X161651000Y-102235000D01*
X161671000Y-102235000D01*
X161671000Y-100875783D01*
X161438974Y-100754642D01*
X161423209Y-100757291D01*
X160895964Y-101011268D01*
X160739093Y-101186845D01*
X160724762Y-101110683D01*
X160585690Y-100894559D01*
X160373490Y-100749569D01*
X160121600Y-100698560D01*
X158394400Y-100698560D01*
X158159083Y-100742838D01*
X157942959Y-100881910D01*
X157797969Y-101094110D01*
X157746960Y-101346000D01*
X157453000Y-101346000D01*
X157453000Y-98552000D01*
X157397051Y-98270728D01*
X157397051Y-98270727D01*
X157237723Y-98032276D01*
X156945000Y-97739554D01*
X156945000Y-94901013D01*
X157112000Y-94970357D01*
X157667761Y-94970842D01*
X158181403Y-94758610D01*
X158574729Y-94365970D01*
X158661049Y-94158088D01*
X158746090Y-94363903D01*
G36*
X166366090Y-94363903D02*
X166758730Y-94757229D01*
X167272000Y-94970357D01*
X167641874Y-94970680D01*
X167628277Y-94984277D01*
X167468949Y-95222728D01*
X167413000Y-95504000D01*
X167413000Y-95754465D01*
X167252791Y-95677291D01*
X167237026Y-95674642D01*
X167005000Y-95795783D01*
X167005000Y-97155000D01*
X167025000Y-97155000D01*
X167025000Y-97409000D01*
X167005000Y-97409000D01*
X167005000Y-98768217D01*
X167237026Y-98889358D01*
X167252791Y-98886709D01*
X167413000Y-98809535D01*
X167413000Y-100834465D01*
X167252791Y-100757291D01*
X167237026Y-100754642D01*
X167005000Y-100875783D01*
X167005000Y-102235000D01*
X167025000Y-102235000D01*
X167025000Y-102489000D01*
X167005000Y-102489000D01*
X167005000Y-102509000D01*
X166751000Y-102509000D01*
X166751000Y-102489000D01*
X166731000Y-102489000D01*
X166731000Y-102235000D01*
X166751000Y-102235000D01*
X166751000Y-100875783D01*
X166518974Y-100754642D01*
X166503209Y-100757291D01*
X166343000Y-100834465D01*
X166343000Y-98809535D01*
X166503209Y-98886709D01*
X166518974Y-98889358D01*
X166751000Y-98768217D01*
X166751000Y-97409000D01*
X166731000Y-97409000D01*
X166731000Y-97155000D01*
X166751000Y-97155000D01*
X166751000Y-95795783D01*
X166518974Y-95674642D01*
X166503209Y-95677291D01*
X166296252Y-95776983D01*
X166287051Y-95730728D01*
X166287051Y-95730727D01*
X166127723Y-95492276D01*
X165619723Y-94984277D01*
X165480457Y-94891222D01*
X165801403Y-94758610D01*
X166194729Y-94365970D01*
X166281049Y-94158088D01*
X166366090Y-94363903D01*
X166366090Y-94363903D01*
G37*
X166366090Y-94363903D02*
X166758730Y-94757229D01*
X167272000Y-94970357D01*
X167641874Y-94970680D01*
X167628277Y-94984277D01*
X167468949Y-95222728D01*
X167413000Y-95504000D01*
X167413000Y-95754465D01*
X167252791Y-95677291D01*
X167237026Y-95674642D01*
X167005000Y-95795783D01*
X167005000Y-97155000D01*
X167025000Y-97155000D01*
X167025000Y-97409000D01*
X167005000Y-97409000D01*
X167005000Y-98768217D01*
X167237026Y-98889358D01*
X167252791Y-98886709D01*
X167413000Y-98809535D01*
X167413000Y-100834465D01*
X167252791Y-100757291D01*
X167237026Y-100754642D01*
X167005000Y-100875783D01*
X167005000Y-102235000D01*
X167025000Y-102235000D01*
X167025000Y-102489000D01*
X167005000Y-102489000D01*
X167005000Y-102509000D01*
X166751000Y-102509000D01*
X166751000Y-102489000D01*
X166731000Y-102489000D01*
X166731000Y-102235000D01*
X166751000Y-102235000D01*
X166751000Y-100875783D01*
X166518974Y-100754642D01*
X166503209Y-100757291D01*
X166343000Y-100834465D01*
X166343000Y-98809535D01*
X166503209Y-98886709D01*
X166518974Y-98889358D01*
X166751000Y-98768217D01*
X166751000Y-97409000D01*
X166731000Y-97409000D01*
X166731000Y-97155000D01*
X166751000Y-97155000D01*
X166751000Y-95795783D01*
X166518974Y-95674642D01*
X166503209Y-95677291D01*
X166296252Y-95776983D01*
X166287051Y-95730728D01*
X166287051Y-95730727D01*
X166127723Y-95492276D01*
X165619723Y-94984277D01*
X165480457Y-94891222D01*
X165801403Y-94758610D01*
X166194729Y-94365970D01*
X166281049Y-94158088D01*
X166366090Y-94363903D01*
G36*
X169560059Y-88939727D02*
X171927697Y-90521731D01*
X172717802Y-91180152D01*
X173664511Y-92597002D01*
X174721837Y-94711654D01*
X175133000Y-96778709D01*
X175133000Y-99982801D01*
X175043779Y-99849272D01*
X175017724Y-99810277D01*
X174255723Y-99048277D01*
X174017272Y-98888949D01*
X174006011Y-98886709D01*
X173736000Y-98833000D01*
X172444289Y-98833000D01*
X172860036Y-98632732D01*
X173249954Y-98196320D01*
X173443184Y-97643913D01*
X173298924Y-97409000D01*
X172085000Y-97409000D01*
X172085000Y-97429000D01*
X171831000Y-97429000D01*
X171831000Y-97409000D01*
X171811000Y-97409000D01*
X171811000Y-97155000D01*
X171831000Y-97155000D01*
X171831000Y-95795783D01*
X172085000Y-95795783D01*
X172085000Y-97155000D01*
X173298924Y-97155000D01*
X173443184Y-96920087D01*
X173249954Y-96367680D01*
X172860036Y-95931268D01*
X172332791Y-95677291D01*
X172317026Y-95674642D01*
X172085000Y-95795783D01*
X171831000Y-95795783D01*
X171598974Y-95674642D01*
X171583209Y-95677291D01*
X171055964Y-95931268D01*
X170684461Y-96347069D01*
X170477670Y-96037585D01*
X169991489Y-95712729D01*
X169418000Y-95598655D01*
X169012041Y-95679405D01*
X169429724Y-95261723D01*
X169589051Y-95023272D01*
X169615783Y-94888881D01*
X169812000Y-94970357D01*
X170367761Y-94970842D01*
X170881403Y-94758610D01*
X171274729Y-94365970D01*
X171487857Y-93852700D01*
X171488342Y-93296939D01*
X171276110Y-92783297D01*
X170883470Y-92389971D01*
X170675588Y-92303651D01*
X170881403Y-92218610D01*
X171274729Y-91825970D01*
X171487857Y-91312700D01*
X171488342Y-90756939D01*
X171276110Y-90243297D01*
X170883470Y-89849971D01*
X170370200Y-89636843D01*
X169814439Y-89636358D01*
X169300797Y-89848590D01*
X168907471Y-90241230D01*
X168821151Y-90449112D01*
X168736110Y-90243297D01*
X168343470Y-89849971D01*
X167830200Y-89636843D01*
X167274439Y-89636358D01*
X166760797Y-89848590D01*
X166367471Y-90241230D01*
X166281151Y-90449112D01*
X166196110Y-90243297D01*
X165803470Y-89849971D01*
X165290200Y-89636843D01*
X164734439Y-89636358D01*
X164677027Y-89660080D01*
X163789946Y-88773000D01*
X168392971Y-88773000D01*
X169560059Y-88939727D01*
X169560059Y-88939727D01*
G37*
X169560059Y-88939727D02*
X171927697Y-90521731D01*
X172717802Y-91180152D01*
X173664511Y-92597002D01*
X174721837Y-94711654D01*
X175133000Y-96778709D01*
X175133000Y-99982801D01*
X175043779Y-99849272D01*
X175017724Y-99810277D01*
X174255723Y-99048277D01*
X174017272Y-98888949D01*
X174006011Y-98886709D01*
X173736000Y-98833000D01*
X172444289Y-98833000D01*
X172860036Y-98632732D01*
X173249954Y-98196320D01*
X173443184Y-97643913D01*
X173298924Y-97409000D01*
X172085000Y-97409000D01*
X172085000Y-97429000D01*
X171831000Y-97429000D01*
X171831000Y-97409000D01*
X171811000Y-97409000D01*
X171811000Y-97155000D01*
X171831000Y-97155000D01*
X171831000Y-95795783D01*
X172085000Y-95795783D01*
X172085000Y-97155000D01*
X173298924Y-97155000D01*
X173443184Y-96920087D01*
X173249954Y-96367680D01*
X172860036Y-95931268D01*
X172332791Y-95677291D01*
X172317026Y-95674642D01*
X172085000Y-95795783D01*
X171831000Y-95795783D01*
X171598974Y-95674642D01*
X171583209Y-95677291D01*
X171055964Y-95931268D01*
X170684461Y-96347069D01*
X170477670Y-96037585D01*
X169991489Y-95712729D01*
X169418000Y-95598655D01*
X169012041Y-95679405D01*
X169429724Y-95261723D01*
X169589051Y-95023272D01*
X169615783Y-94888881D01*
X169812000Y-94970357D01*
X170367761Y-94970842D01*
X170881403Y-94758610D01*
X171274729Y-94365970D01*
X171487857Y-93852700D01*
X171488342Y-93296939D01*
X171276110Y-92783297D01*
X170883470Y-92389971D01*
X170675588Y-92303651D01*
X170881403Y-92218610D01*
X171274729Y-91825970D01*
X171487857Y-91312700D01*
X171488342Y-90756939D01*
X171276110Y-90243297D01*
X170883470Y-89849971D01*
X170370200Y-89636843D01*
X169814439Y-89636358D01*
X169300797Y-89848590D01*
X168907471Y-90241230D01*
X168821151Y-90449112D01*
X168736110Y-90243297D01*
X168343470Y-89849971D01*
X167830200Y-89636843D01*
X167274439Y-89636358D01*
X166760797Y-89848590D01*
X166367471Y-90241230D01*
X166281151Y-90449112D01*
X166196110Y-90243297D01*
X165803470Y-89849971D01*
X165290200Y-89636843D01*
X164734439Y-89636358D01*
X164677027Y-89660080D01*
X163789946Y-88773000D01*
X168392971Y-88773000D01*
X169560059Y-88939727D01*
M02*
