M48
;DRILL file {KiCad 4.0.5+dfsg1-4} date Sun Nov 25 11:14:33 2018
;FORMAT={-:-/ absolute / metric / decimal}
FMAT,2
METRIC,TZ
T1C0.400
T2C0.800
T3C0.889
T4C1.016
T5C2.000
%
G90
G05
M71
T1
X129.Y-107.7
X131.318Y-94.996
X139.192Y-95.25
X146.304Y-120.65
T2
X133.Y-101.5
X133.Y-104.
X133.Y-106.
X133.Y-108.5
T3
X126.911Y-91.034
X126.911Y-93.574
X126.911Y-116.434
X126.911Y-118.974
X129.451Y-91.034
X129.451Y-93.574
X129.451Y-116.434
X129.451Y-118.974
X131.991Y-91.034
X131.991Y-93.574
X131.991Y-116.434
X131.991Y-118.974
X134.531Y-91.034
X134.531Y-93.574
X134.531Y-116.434
X134.531Y-118.974
X137.071Y-91.034
X137.071Y-93.574
X137.071Y-116.434
X137.071Y-118.974
X139.611Y-91.034
X139.611Y-93.574
X139.611Y-116.434
X139.611Y-118.974
X142.151Y-91.034
X142.151Y-93.574
X142.151Y-116.434
X142.151Y-118.974
X144.691Y-91.034
X144.691Y-93.574
X144.691Y-116.434
X144.691Y-118.974
X147.231Y-91.034
X147.231Y-93.574
X147.231Y-116.434
X147.231Y-118.974
X149.771Y-91.034
X149.771Y-93.574
X149.771Y-116.434
X149.771Y-118.974
X152.311Y-91.034
X152.311Y-93.574
X152.311Y-116.434
X152.311Y-118.974
X154.851Y-91.034
X154.851Y-93.574
X154.851Y-116.434
X154.851Y-118.974
X157.391Y-91.034
X157.391Y-93.574
X157.391Y-116.434
X157.391Y-118.974
X159.931Y-91.034
X159.931Y-93.574
X159.931Y-116.434
X159.931Y-118.974
X162.471Y-91.034
X162.471Y-93.574
X162.471Y-116.434
X162.471Y-118.974
X165.011Y-91.034
X165.011Y-93.574
X165.011Y-116.434
X165.011Y-118.974
X167.551Y-91.034
X167.551Y-93.574
X167.551Y-116.434
X167.551Y-118.974
X170.091Y-91.034
X170.091Y-93.574
X170.091Y-116.434
X170.091Y-118.974
T4
X137.668Y-97.282
X137.668Y-102.362
X137.668Y-107.442
X137.668Y-112.522
X140.208Y-97.282
X140.208Y-102.362
X140.208Y-107.442
X140.208Y-112.522
X142.748Y-97.282
X142.748Y-102.362
X142.748Y-107.442
X142.748Y-112.522
X145.288Y-97.282
X145.288Y-102.362
X145.288Y-107.442
X145.288Y-112.522
X147.828Y-97.282
X147.828Y-102.362
X147.828Y-107.442
X147.828Y-112.522
X150.368Y-97.282
X150.368Y-102.362
X150.368Y-107.442
X150.368Y-112.522
X159.258Y-97.282
X159.258Y-102.362
X159.258Y-107.442
X159.258Y-112.522
X161.798Y-97.282
X161.798Y-102.362
X161.798Y-107.442
X161.798Y-112.522
X164.338Y-97.282
X164.338Y-102.362
X164.338Y-107.442
X164.338Y-112.522
X166.878Y-97.282
X166.878Y-102.362
X166.878Y-107.442
X166.878Y-112.522
X169.418Y-97.282
X169.418Y-102.362
X169.418Y-107.442
X169.418Y-112.522
X171.958Y-97.282
X171.958Y-102.362
X171.958Y-107.442
X171.958Y-112.522
T5
X132.4Y-97.15
X132.4Y-112.85
T0
M30
