G04 #@! TF.FileFunction,Copper,L2,Bot,Signal*
%FSLAX46Y46*%
G04 Gerber Fmt 4.6, Leading zero omitted, Abs format (unit mm)*
G04 Created by KiCad (PCBNEW 4.0.5+dfsg1-4) date Sun Nov 25 11:48:41 2018*
%MOMM*%
%LPD*%
G01*
G04 APERTURE LIST*
%ADD10C,0.100000*%
%ADD11C,1.524000*%
%ADD12O,4.000000X3.000000*%
%ADD13R,1.524000X1.524000*%
%ADD14R,1.727200X2.032000*%
%ADD15O,1.727200X2.032000*%
%ADD16R,0.400000X0.600000*%
%ADD17R,1.250000X1.500000*%
%ADD18R,2.794000X1.778000*%
%ADD19C,0.800000*%
%ADD20C,0.500000*%
%ADD21C,0.200000*%
%ADD22C,0.254000*%
G04 APERTURE END LIST*
D10*
D11*
X133000000Y-101500000D03*
X133000000Y-104000000D03*
X133000000Y-106000000D03*
X133000000Y-108500000D03*
D12*
X132400000Y-97150000D03*
X132400000Y-112850000D03*
D11*
X170091100Y-116433600D03*
X170091100Y-118973600D03*
X167551100Y-116433600D03*
X167551100Y-118973600D03*
X165011100Y-116433600D03*
X165011100Y-118973600D03*
X162471100Y-116433600D03*
X162471100Y-118973600D03*
X159931100Y-116433600D03*
X159931100Y-118973600D03*
X157391100Y-116433600D03*
X157391100Y-118973600D03*
X154851100Y-116433600D03*
X154851100Y-118973600D03*
X152311100Y-116433600D03*
X152311100Y-118973600D03*
X149771100Y-116433600D03*
X149771100Y-118973600D03*
X147231100Y-116433600D03*
X147231100Y-118973600D03*
X144691100Y-116433600D03*
X144691100Y-118973600D03*
X142151100Y-116433600D03*
X142151100Y-118973600D03*
X139611100Y-116433600D03*
X139611100Y-118973600D03*
X137071100Y-116433600D03*
X137071100Y-118973600D03*
X134531100Y-116433600D03*
X134531100Y-118973600D03*
X131991100Y-116433600D03*
X131991100Y-118973600D03*
X129451100Y-116433600D03*
X129451100Y-118973600D03*
X126911100Y-116433600D03*
D13*
X126911100Y-118973600D03*
D11*
X170091100Y-91033600D03*
X170091100Y-93573600D03*
X167551100Y-91033600D03*
X167551100Y-93573600D03*
X165011100Y-91033600D03*
X165011100Y-93573600D03*
X162471100Y-91033600D03*
X162471100Y-93573600D03*
X159931100Y-91033600D03*
X159931100Y-93573600D03*
X157391100Y-91033600D03*
X157391100Y-93573600D03*
X154851100Y-91033600D03*
X154851100Y-93573600D03*
X152311100Y-91033600D03*
X152311100Y-93573600D03*
X149771100Y-91033600D03*
X149771100Y-93573600D03*
X147231100Y-91033600D03*
X147231100Y-93573600D03*
X144691100Y-91033600D03*
X144691100Y-93573600D03*
X142151100Y-91033600D03*
X142151100Y-93573600D03*
X139611100Y-91033600D03*
X139611100Y-93573600D03*
X137071100Y-91033600D03*
X137071100Y-93573600D03*
X134531100Y-91033600D03*
X134531100Y-93573600D03*
X131991100Y-91033600D03*
X131991100Y-93573600D03*
X129451100Y-91033600D03*
X129451100Y-93573600D03*
X126911100Y-91033600D03*
D13*
X126911100Y-93573600D03*
D14*
X150368000Y-97282000D03*
D15*
X147828000Y-97282000D03*
X145288000Y-97282000D03*
X142748000Y-97282000D03*
X140208000Y-97282000D03*
X137668000Y-97282000D03*
D14*
X159258000Y-97282000D03*
D15*
X161798000Y-97282000D03*
X164338000Y-97282000D03*
X166878000Y-97282000D03*
X169418000Y-97282000D03*
X171958000Y-97282000D03*
D14*
X150368000Y-102362000D03*
D15*
X147828000Y-102362000D03*
X145288000Y-102362000D03*
X142748000Y-102362000D03*
X140208000Y-102362000D03*
X137668000Y-102362000D03*
D14*
X159258000Y-102362000D03*
D15*
X161798000Y-102362000D03*
X164338000Y-102362000D03*
X166878000Y-102362000D03*
X169418000Y-102362000D03*
X171958000Y-102362000D03*
D14*
X150368000Y-107442000D03*
D15*
X147828000Y-107442000D03*
X145288000Y-107442000D03*
X142748000Y-107442000D03*
X140208000Y-107442000D03*
X137668000Y-107442000D03*
D14*
X159258000Y-107442000D03*
D15*
X161798000Y-107442000D03*
X164338000Y-107442000D03*
X166878000Y-107442000D03*
X169418000Y-107442000D03*
X171958000Y-107442000D03*
D14*
X150368000Y-112522000D03*
D15*
X147828000Y-112522000D03*
X145288000Y-112522000D03*
X142748000Y-112522000D03*
X140208000Y-112522000D03*
X137668000Y-112522000D03*
D14*
X159258000Y-112522000D03*
D15*
X161798000Y-112522000D03*
X164338000Y-112522000D03*
X166878000Y-112522000D03*
X169418000Y-112522000D03*
X171958000Y-112522000D03*
D16*
X141928000Y-99822000D03*
X141028000Y-99822000D03*
X171392000Y-99822000D03*
X170492000Y-99822000D03*
X138488000Y-99822000D03*
X139388000Y-99822000D03*
X167698000Y-99822000D03*
X168598000Y-99822000D03*
X138742000Y-104902000D03*
X139642000Y-104902000D03*
X171392000Y-104902000D03*
X170492000Y-104902000D03*
X138488000Y-109982000D03*
X139388000Y-109982000D03*
X171392000Y-109982000D03*
X170492000Y-109982000D03*
D17*
X128600000Y-103550000D03*
X128600000Y-106050000D03*
D18*
X125200000Y-103022000D03*
X125200000Y-106578000D03*
D19*
X129000000Y-107700000D03*
X131318000Y-94996000D03*
X139192000Y-95250000D03*
X146304000Y-120650000D03*
D20*
X166878000Y-112522000D02*
X166878000Y-113030000D01*
X166878000Y-113030000D02*
X168148000Y-114300000D01*
X170180000Y-114300000D02*
X171958000Y-112522000D01*
X168148000Y-114300000D02*
X170180000Y-114300000D01*
X161798000Y-102362000D02*
X164338000Y-104902000D01*
X165100000Y-104902000D02*
X166878000Y-103124000D01*
X164338000Y-104902000D02*
X165100000Y-104902000D01*
X166878000Y-103124000D02*
X166878000Y-102362000D01*
X166878000Y-102362000D02*
X166878000Y-107442000D01*
X161798000Y-112522000D02*
X161798000Y-113030000D01*
X161798000Y-113030000D02*
X160274000Y-114554000D01*
X147828000Y-114046000D02*
X147828000Y-112522000D01*
X148336000Y-114554000D02*
X147828000Y-114046000D01*
X160274000Y-114554000D02*
X148336000Y-114554000D01*
X171958000Y-97282000D02*
X171958000Y-102362000D01*
X171958000Y-102362000D02*
X171958000Y-107442000D01*
X171958000Y-107442000D02*
X171958000Y-112522000D01*
X161798000Y-112522000D02*
X161798000Y-107442000D01*
X166878000Y-107442000D02*
X166878000Y-112522000D01*
X166878000Y-97282000D02*
X166878000Y-102362000D01*
X161798000Y-102362000D02*
X161798000Y-107442000D01*
X161798000Y-97282000D02*
X161798000Y-102362000D01*
X142748000Y-107442000D02*
X142748000Y-108204000D01*
X142748000Y-108204000D02*
X144272000Y-109728000D01*
X144272000Y-109728000D02*
X145542000Y-109728000D01*
X145542000Y-109728000D02*
X147828000Y-107442000D01*
X137668000Y-112522000D02*
X137668000Y-107442000D01*
X137668000Y-102362000D02*
X137668000Y-107442000D01*
X137668000Y-97282000D02*
X137668000Y-102362000D01*
X142748000Y-97282000D02*
X142748000Y-102362000D01*
X142748000Y-102362000D02*
X142748000Y-100642000D01*
X142748000Y-100642000D02*
X141928000Y-99822000D01*
X144691100Y-93573600D02*
X144691100Y-93891100D01*
X144691100Y-93891100D02*
X146050000Y-95250000D01*
X150634700Y-95250000D02*
X152311100Y-93573600D01*
X146050000Y-95250000D02*
X150634700Y-95250000D01*
X147828000Y-97282000D02*
X147828000Y-102362000D01*
X142748000Y-97282000D02*
X142748000Y-95516700D01*
X142748000Y-95516700D02*
X144691100Y-93573600D01*
X138488000Y-99822000D02*
X138488000Y-98102000D01*
X138488000Y-98102000D02*
X137668000Y-97282000D01*
X125200000Y-106578000D02*
X123342000Y-106578000D01*
X123342000Y-106578000D02*
X122682000Y-105918000D01*
X122682000Y-105918000D02*
X122682000Y-101346000D01*
X122682000Y-101346000D02*
X124714000Y-99314000D01*
X124714000Y-99314000D02*
X135636000Y-99314000D01*
X135636000Y-99314000D02*
X137668000Y-97282000D01*
X142748000Y-107442000D02*
X142748000Y-102362000D01*
X147828000Y-107442000D02*
X147828000Y-102362000D01*
X147828000Y-112522000D02*
X147828000Y-107442000D01*
X142748000Y-112522000D02*
X142748000Y-107442000D01*
X144691100Y-116433600D02*
X144691100Y-114465100D01*
X144691100Y-114465100D02*
X142748000Y-112522000D01*
D21*
X167698000Y-99822000D02*
X167698000Y-101542000D01*
X167698000Y-101542000D02*
X166878000Y-102362000D01*
X171392000Y-99822000D02*
X171392000Y-97848000D01*
X171392000Y-97848000D02*
X171958000Y-97282000D01*
X171958000Y-107442000D02*
X171958000Y-105468000D01*
X171958000Y-105468000D02*
X171392000Y-104902000D01*
X171958000Y-112522000D02*
X171958000Y-110548000D01*
X171958000Y-110548000D02*
X171392000Y-109982000D01*
X141928000Y-99822000D02*
X141928000Y-98102000D01*
X141928000Y-98102000D02*
X142748000Y-97282000D01*
X137668000Y-102362000D02*
X137668000Y-100642000D01*
X137668000Y-100642000D02*
X138488000Y-99822000D01*
X137668000Y-107442000D02*
X137668000Y-105976000D01*
X137668000Y-105976000D02*
X138742000Y-104902000D01*
X137668000Y-112522000D02*
X137668000Y-110802000D01*
X137668000Y-110802000D02*
X138488000Y-109982000D01*
D20*
X147828000Y-97282000D02*
X147828000Y-96520000D01*
X144691100Y-93573600D02*
X144691100Y-94145100D01*
X125200000Y-106578000D02*
X124104000Y-106578000D01*
X144691100Y-116433600D02*
X144933600Y-116433600D01*
X144933600Y-116433600D02*
X146200000Y-117700000D01*
X151044700Y-117700000D02*
X152311100Y-116433600D01*
X146200000Y-117700000D02*
X151044700Y-117700000D01*
X142151100Y-118973600D02*
X144691100Y-118973600D01*
X144691100Y-118973600D02*
X144691100Y-116433600D01*
X125200000Y-106578000D02*
X124478000Y-106578000D01*
X128600000Y-106050000D02*
X128600000Y-107300000D01*
X128600000Y-107300000D02*
X129000000Y-107700000D01*
X125200000Y-106578000D02*
X128072000Y-106578000D01*
X128072000Y-106578000D02*
X128600000Y-106050000D01*
X154851100Y-93573600D02*
X154076400Y-93573600D01*
X154076400Y-93573600D02*
X150368000Y-97282000D01*
X159258000Y-102362000D02*
X159258000Y-97282000D01*
X159258000Y-107442000D02*
X159258000Y-102362000D01*
X150368000Y-112522000D02*
X159258000Y-112522000D01*
X159258000Y-112522000D02*
X159258000Y-107442000D01*
X150368000Y-107442000D02*
X150368000Y-102362000D01*
X150368000Y-112522000D02*
X150368000Y-107442000D01*
X150368000Y-97282000D02*
X150368000Y-102362000D01*
X142151100Y-116433600D02*
X142151100Y-116420900D01*
D21*
X131318000Y-94996000D02*
X131572000Y-95250000D01*
X131572000Y-95250000D02*
X139192000Y-95250000D01*
D20*
X139611100Y-118973600D02*
X139326400Y-118973600D01*
X139326400Y-118973600D02*
X137700000Y-120600000D01*
X129700000Y-109300000D02*
X133000000Y-106000000D01*
X129700000Y-113700000D02*
X129700000Y-109300000D01*
X131000000Y-115000000D02*
X129700000Y-113700000D01*
X132800000Y-115000000D02*
X131000000Y-115000000D01*
X133300000Y-115500000D02*
X132800000Y-115000000D01*
X133300000Y-120000000D02*
X133300000Y-115500000D01*
X133900000Y-120600000D02*
X133300000Y-120000000D01*
X137700000Y-120600000D02*
X133900000Y-120600000D01*
X139611100Y-118973600D02*
X139526400Y-118973600D01*
X133000000Y-106300000D02*
X133000000Y-106000000D01*
X137071100Y-118973600D02*
X137071100Y-118671100D01*
X137071100Y-118671100D02*
X135800000Y-117400000D01*
X135800000Y-117400000D02*
X135800000Y-106500000D01*
X135800000Y-106500000D02*
X133300000Y-104000000D01*
X133300000Y-104000000D02*
X133000000Y-104000000D01*
X128600000Y-103550000D02*
X130950000Y-103550000D01*
X130950000Y-103550000D02*
X133000000Y-101500000D01*
X125200000Y-103022000D02*
X128072000Y-103022000D01*
X128072000Y-103022000D02*
X128600000Y-103550000D01*
D21*
X145288000Y-97282000D02*
X145288000Y-102362000D01*
D20*
X164338000Y-97282000D02*
X164338000Y-102362000D01*
X164338000Y-112522000D02*
X164338000Y-107442000D01*
D21*
X170091100Y-116433600D02*
X172618400Y-116433600D01*
X140716000Y-90424000D02*
X140716000Y-96774000D01*
X141986000Y-89154000D02*
X140716000Y-90424000D01*
X164338000Y-89154000D02*
X141986000Y-89154000D01*
X164592000Y-89408000D02*
X164338000Y-89154000D01*
X170434000Y-89408000D02*
X164592000Y-89408000D01*
X172974000Y-91948000D02*
X170434000Y-89408000D01*
X172974000Y-93472000D02*
X172974000Y-91948000D01*
X174752000Y-95250000D02*
X172974000Y-93472000D01*
X174752000Y-114300000D02*
X174752000Y-95250000D01*
X172618400Y-116433600D02*
X174752000Y-114300000D01*
X140716000Y-96774000D02*
X140208000Y-97282000D01*
X141028000Y-99822000D02*
X141028000Y-98102000D01*
X141028000Y-98102000D02*
X140208000Y-97282000D01*
X140208000Y-102362000D02*
X140208000Y-100642000D01*
X140208000Y-100642000D02*
X139388000Y-99822000D01*
X167551100Y-118973600D02*
X167551100Y-119722900D01*
X167551100Y-119722900D02*
X166116000Y-121412000D01*
X166116000Y-121412000D02*
X142494000Y-121412000D01*
X142494000Y-121412000D02*
X140970000Y-119888000D01*
X140970000Y-119888000D02*
X140970000Y-114808000D01*
X140970000Y-114808000D02*
X141478000Y-114300000D01*
X141478000Y-114300000D02*
X141478000Y-103632000D01*
X141478000Y-103632000D02*
X140208000Y-102362000D01*
X170492000Y-99822000D02*
X170492000Y-98356000D01*
X170492000Y-98356000D02*
X169418000Y-97282000D01*
X169418000Y-112522000D02*
X169418000Y-111056000D01*
X169418000Y-111056000D02*
X170492000Y-109982000D01*
D20*
X162471100Y-118973600D02*
X162471100Y-119328900D01*
D21*
X168598000Y-99822000D02*
X168598000Y-101542000D01*
X168598000Y-101542000D02*
X169418000Y-102362000D01*
X161290000Y-117856000D02*
X161290000Y-120142000D01*
X163830000Y-92202000D02*
X170942000Y-92202000D01*
X170942000Y-92202000D02*
X173990000Y-95250000D01*
X173990000Y-95250000D02*
X173990000Y-113030000D01*
X173990000Y-113030000D02*
X171958000Y-115062000D01*
X171958000Y-115062000D02*
X161798000Y-115062000D01*
X161798000Y-115062000D02*
X161290000Y-115570000D01*
X161290000Y-115570000D02*
X161290000Y-117856000D01*
X162661600Y-91033600D02*
X163830000Y-92202000D01*
X160782000Y-120650000D02*
X146304000Y-120650000D01*
X161290000Y-120142000D02*
X160782000Y-120650000D01*
X162471100Y-91033600D02*
X162661600Y-91033600D01*
X140208000Y-112522000D02*
X140208000Y-110802000D01*
X140208000Y-110802000D02*
X139388000Y-109982000D01*
D20*
X139642000Y-111956000D02*
X140208000Y-112522000D01*
D21*
X169418000Y-107442000D02*
X169418000Y-105976000D01*
X169418000Y-105976000D02*
X170492000Y-104902000D01*
X140208000Y-107442000D02*
X140208000Y-105468000D01*
X140208000Y-105468000D02*
X139642000Y-104902000D01*
X140208000Y-107442000D02*
X140208000Y-107950000D01*
D22*
G36*
X153666090Y-91823903D02*
X154058730Y-92217229D01*
X154266612Y-92303549D01*
X154060797Y-92388590D01*
X153667471Y-92781230D01*
X153655013Y-92811233D01*
X153549708Y-92881595D01*
X153533497Y-92842457D01*
X153291313Y-92772992D01*
X152490705Y-93573600D01*
X152504848Y-93587743D01*
X152325243Y-93767348D01*
X152311100Y-93753205D01*
X151510492Y-94553813D01*
X151579957Y-94795997D01*
X151596516Y-94801905D01*
X150779860Y-95618560D01*
X149504400Y-95618560D01*
X149269083Y-95662838D01*
X149052959Y-95801910D01*
X148907969Y-96014110D01*
X148888768Y-96108927D01*
X148730036Y-95931268D01*
X148202791Y-95677291D01*
X148187026Y-95674642D01*
X147955000Y-95795783D01*
X147955000Y-97155000D01*
X147975000Y-97155000D01*
X147975000Y-97409000D01*
X147955000Y-97409000D01*
X147955000Y-98768217D01*
X148187026Y-98889358D01*
X148202791Y-98886709D01*
X148730036Y-98632732D01*
X148886907Y-98457155D01*
X148901238Y-98533317D01*
X149040310Y-98749441D01*
X149252510Y-98894431D01*
X149483000Y-98941106D01*
X149483000Y-100702587D01*
X149269083Y-100742838D01*
X149052959Y-100881910D01*
X148907969Y-101094110D01*
X148888768Y-101188927D01*
X148730036Y-101011268D01*
X148202791Y-100757291D01*
X148187026Y-100754642D01*
X147955000Y-100875783D01*
X147955000Y-102235000D01*
X147975000Y-102235000D01*
X147975000Y-102489000D01*
X147955000Y-102489000D01*
X147955000Y-103848217D01*
X148187026Y-103969358D01*
X148202791Y-103966709D01*
X148730036Y-103712732D01*
X148886907Y-103537155D01*
X148901238Y-103613317D01*
X149040310Y-103829441D01*
X149252510Y-103974431D01*
X149483000Y-104021106D01*
X149483000Y-105782587D01*
X149269083Y-105822838D01*
X149052959Y-105961910D01*
X148907969Y-106174110D01*
X148888768Y-106268927D01*
X148730036Y-106091268D01*
X148202791Y-105837291D01*
X148187026Y-105834642D01*
X147955000Y-105955783D01*
X147955000Y-107315000D01*
X147975000Y-107315000D01*
X147975000Y-107569000D01*
X147955000Y-107569000D01*
X147955000Y-108928217D01*
X148187026Y-109049358D01*
X148202791Y-109046709D01*
X148730036Y-108792732D01*
X148886907Y-108617155D01*
X148901238Y-108693317D01*
X149040310Y-108909441D01*
X149252510Y-109054431D01*
X149483000Y-109101106D01*
X149483000Y-110862587D01*
X149269083Y-110902838D01*
X149052959Y-111041910D01*
X148907969Y-111254110D01*
X148888768Y-111348927D01*
X148730036Y-111171268D01*
X148202791Y-110917291D01*
X148187026Y-110914642D01*
X147955000Y-111035783D01*
X147955000Y-112395000D01*
X147975000Y-112395000D01*
X147975000Y-112649000D01*
X147955000Y-112649000D01*
X147955000Y-114008217D01*
X148187026Y-114129358D01*
X148202791Y-114126709D01*
X148730036Y-113872732D01*
X148886907Y-113697155D01*
X148901238Y-113773317D01*
X149040310Y-113989441D01*
X149252510Y-114134431D01*
X149504400Y-114185440D01*
X151231600Y-114185440D01*
X151466917Y-114141162D01*
X151683041Y-114002090D01*
X151828031Y-113789890D01*
X151879040Y-113538000D01*
X151879040Y-113407000D01*
X157746960Y-113407000D01*
X157746960Y-113538000D01*
X157791238Y-113773317D01*
X157930310Y-113989441D01*
X158142510Y-114134431D01*
X158394400Y-114185440D01*
X160121600Y-114185440D01*
X160356917Y-114141162D01*
X160573041Y-114002090D01*
X160718031Y-113789890D01*
X160737232Y-113695073D01*
X160895964Y-113872732D01*
X161423209Y-114126709D01*
X161438974Y-114129358D01*
X161671000Y-114008217D01*
X161671000Y-112649000D01*
X161651000Y-112649000D01*
X161651000Y-112395000D01*
X161671000Y-112395000D01*
X161671000Y-111035783D01*
X161438974Y-110914642D01*
X161423209Y-110917291D01*
X160895964Y-111171268D01*
X160739093Y-111346845D01*
X160724762Y-111270683D01*
X160585690Y-111054559D01*
X160373490Y-110909569D01*
X160143000Y-110862894D01*
X160143000Y-109101413D01*
X160356917Y-109061162D01*
X160573041Y-108922090D01*
X160718031Y-108709890D01*
X160737232Y-108615073D01*
X160895964Y-108792732D01*
X161423209Y-109046709D01*
X161438974Y-109049358D01*
X161671000Y-108928217D01*
X161671000Y-107569000D01*
X161651000Y-107569000D01*
X161651000Y-107315000D01*
X161671000Y-107315000D01*
X161671000Y-105955783D01*
X161925000Y-105955783D01*
X161925000Y-107315000D01*
X161945000Y-107315000D01*
X161945000Y-107569000D01*
X161925000Y-107569000D01*
X161925000Y-108928217D01*
X162157026Y-109049358D01*
X162172791Y-109046709D01*
X162700036Y-108792732D01*
X163071539Y-108376931D01*
X163278330Y-108686415D01*
X163453000Y-108803126D01*
X163453000Y-111160874D01*
X163278330Y-111277585D01*
X163071539Y-111587069D01*
X162700036Y-111171268D01*
X162172791Y-110917291D01*
X162157026Y-110914642D01*
X161925000Y-111035783D01*
X161925000Y-112395000D01*
X161945000Y-112395000D01*
X161945000Y-112649000D01*
X161925000Y-112649000D01*
X161925000Y-114008217D01*
X162157026Y-114129358D01*
X162172791Y-114126709D01*
X162700036Y-113872732D01*
X163071539Y-113456931D01*
X163278330Y-113766415D01*
X163764511Y-114091271D01*
X164338000Y-114205345D01*
X164911489Y-114091271D01*
X165397670Y-113766415D01*
X165604461Y-113456931D01*
X165975964Y-113872732D01*
X166503209Y-114126709D01*
X166518974Y-114129358D01*
X166751000Y-114008217D01*
X166751000Y-112649000D01*
X166731000Y-112649000D01*
X166731000Y-112395000D01*
X166751000Y-112395000D01*
X166751000Y-111035783D01*
X166518974Y-110914642D01*
X166503209Y-110917291D01*
X165975964Y-111171268D01*
X165604461Y-111587069D01*
X165397670Y-111277585D01*
X165223000Y-111160874D01*
X165223000Y-108803126D01*
X165397670Y-108686415D01*
X165604461Y-108376931D01*
X165975964Y-108792732D01*
X166503209Y-109046709D01*
X166518974Y-109049358D01*
X166751000Y-108928217D01*
X166751000Y-107569000D01*
X166731000Y-107569000D01*
X166731000Y-107315000D01*
X166751000Y-107315000D01*
X166751000Y-105955783D01*
X167005000Y-105955783D01*
X167005000Y-107315000D01*
X167025000Y-107315000D01*
X167025000Y-107569000D01*
X167005000Y-107569000D01*
X167005000Y-108928217D01*
X167237026Y-109049358D01*
X167252791Y-109046709D01*
X167780036Y-108792732D01*
X168151539Y-108376931D01*
X168358330Y-108686415D01*
X168844511Y-109011271D01*
X169418000Y-109125345D01*
X169991489Y-109011271D01*
X170477670Y-108686415D01*
X170684461Y-108376931D01*
X171055964Y-108792732D01*
X171583209Y-109046709D01*
X171598974Y-109049358D01*
X171831000Y-108928217D01*
X171831000Y-107569000D01*
X171811000Y-107569000D01*
X171811000Y-107315000D01*
X171831000Y-107315000D01*
X171831000Y-105955783D01*
X171598974Y-105834642D01*
X171583209Y-105837291D01*
X171055964Y-106091268D01*
X170684461Y-106507069D01*
X170477670Y-106197585D01*
X170332716Y-106100730D01*
X170584007Y-105849440D01*
X170692000Y-105849440D01*
X170927317Y-105805162D01*
X170951406Y-105789661D01*
X171065691Y-105837000D01*
X171133250Y-105837000D01*
X171292000Y-105678250D01*
X171292000Y-105436266D01*
X171339440Y-105202000D01*
X171339440Y-105029000D01*
X171492000Y-105029000D01*
X171492000Y-105678250D01*
X171650750Y-105837000D01*
X171718309Y-105837000D01*
X171951698Y-105740327D01*
X172130327Y-105561699D01*
X172227000Y-105328310D01*
X172227000Y-105187750D01*
X172068250Y-105029000D01*
X171492000Y-105029000D01*
X171339440Y-105029000D01*
X171339440Y-104602000D01*
X171295162Y-104366683D01*
X171292000Y-104361769D01*
X171292000Y-104125750D01*
X171492000Y-104125750D01*
X171492000Y-104775000D01*
X172068250Y-104775000D01*
X172227000Y-104616250D01*
X172227000Y-104475690D01*
X172130327Y-104242301D01*
X171951698Y-104063673D01*
X171718309Y-103967000D01*
X171650750Y-103967000D01*
X171492000Y-104125750D01*
X171292000Y-104125750D01*
X171133250Y-103967000D01*
X171065691Y-103967000D01*
X170954717Y-104012967D01*
X170943890Y-104005569D01*
X170692000Y-103954560D01*
X170292000Y-103954560D01*
X170056683Y-103998838D01*
X169840559Y-104137910D01*
X169695569Y-104350110D01*
X169644560Y-104602000D01*
X169644560Y-104709993D01*
X168898277Y-105456277D01*
X168738949Y-105694728D01*
X168683000Y-105976000D01*
X168683000Y-105980647D01*
X168358330Y-106197585D01*
X168151539Y-106507069D01*
X167780036Y-106091268D01*
X167252791Y-105837291D01*
X167237026Y-105834642D01*
X167005000Y-105955783D01*
X166751000Y-105955783D01*
X166518974Y-105834642D01*
X166503209Y-105837291D01*
X165975964Y-106091268D01*
X165604461Y-106507069D01*
X165397670Y-106197585D01*
X164911489Y-105872729D01*
X164338000Y-105758655D01*
X163764511Y-105872729D01*
X163278330Y-106197585D01*
X163071539Y-106507069D01*
X162700036Y-106091268D01*
X162172791Y-105837291D01*
X162157026Y-105834642D01*
X161925000Y-105955783D01*
X161671000Y-105955783D01*
X161438974Y-105834642D01*
X161423209Y-105837291D01*
X160895964Y-106091268D01*
X160739093Y-106266845D01*
X160724762Y-106190683D01*
X160585690Y-105974559D01*
X160373490Y-105829569D01*
X160143000Y-105782894D01*
X160143000Y-104021413D01*
X160356917Y-103981162D01*
X160573041Y-103842090D01*
X160718031Y-103629890D01*
X160737232Y-103535073D01*
X160895964Y-103712732D01*
X161423209Y-103966709D01*
X161438974Y-103969358D01*
X161671000Y-103848217D01*
X161671000Y-102489000D01*
X161651000Y-102489000D01*
X161651000Y-102235000D01*
X161671000Y-102235000D01*
X161671000Y-100875783D01*
X161438974Y-100754642D01*
X161423209Y-100757291D01*
X160895964Y-101011268D01*
X160739093Y-101186845D01*
X160724762Y-101110683D01*
X160585690Y-100894559D01*
X160373490Y-100749569D01*
X160143000Y-100702894D01*
X160143000Y-98941413D01*
X160356917Y-98901162D01*
X160573041Y-98762090D01*
X160718031Y-98549890D01*
X160737232Y-98455073D01*
X160895964Y-98632732D01*
X161423209Y-98886709D01*
X161438974Y-98889358D01*
X161671000Y-98768217D01*
X161671000Y-97409000D01*
X161651000Y-97409000D01*
X161651000Y-97155000D01*
X161671000Y-97155000D01*
X161671000Y-95795783D01*
X161925000Y-95795783D01*
X161925000Y-97155000D01*
X161945000Y-97155000D01*
X161945000Y-97409000D01*
X161925000Y-97409000D01*
X161925000Y-98768217D01*
X162157026Y-98889358D01*
X162172791Y-98886709D01*
X162700036Y-98632732D01*
X163071539Y-98216931D01*
X163278330Y-98526415D01*
X163453000Y-98643126D01*
X163453000Y-101000874D01*
X163278330Y-101117585D01*
X163071539Y-101427069D01*
X162700036Y-101011268D01*
X162172791Y-100757291D01*
X162157026Y-100754642D01*
X161925000Y-100875783D01*
X161925000Y-102235000D01*
X161945000Y-102235000D01*
X161945000Y-102489000D01*
X161925000Y-102489000D01*
X161925000Y-103848217D01*
X162157026Y-103969358D01*
X162172791Y-103966709D01*
X162700036Y-103712732D01*
X163071539Y-103296931D01*
X163278330Y-103606415D01*
X163764511Y-103931271D01*
X164338000Y-104045345D01*
X164911489Y-103931271D01*
X165397670Y-103606415D01*
X165604461Y-103296931D01*
X165975964Y-103712732D01*
X166503209Y-103966709D01*
X166518974Y-103969358D01*
X166751000Y-103848217D01*
X166751000Y-102489000D01*
X166731000Y-102489000D01*
X166731000Y-102235000D01*
X166751000Y-102235000D01*
X166751000Y-100875783D01*
X167005000Y-100875783D01*
X167005000Y-102235000D01*
X167025000Y-102235000D01*
X167025000Y-102489000D01*
X167005000Y-102489000D01*
X167005000Y-103848217D01*
X167237026Y-103969358D01*
X167252791Y-103966709D01*
X167780036Y-103712732D01*
X168151539Y-103296931D01*
X168358330Y-103606415D01*
X168844511Y-103931271D01*
X169418000Y-104045345D01*
X169991489Y-103931271D01*
X170477670Y-103606415D01*
X170684461Y-103296931D01*
X171055964Y-103712732D01*
X171583209Y-103966709D01*
X171598974Y-103969358D01*
X171831000Y-103848217D01*
X171831000Y-102489000D01*
X171811000Y-102489000D01*
X171811000Y-102235000D01*
X171831000Y-102235000D01*
X171831000Y-100875783D01*
X171598974Y-100754642D01*
X171583209Y-100757291D01*
X171055964Y-101011268D01*
X170684461Y-101427069D01*
X170477670Y-101117585D01*
X169991489Y-100792729D01*
X169418000Y-100678655D01*
X169333000Y-100695563D01*
X169333000Y-100463797D01*
X169394431Y-100373890D01*
X169445440Y-100122000D01*
X169445440Y-99522000D01*
X169401162Y-99286683D01*
X169262090Y-99070559D01*
X169049890Y-98925569D01*
X168798000Y-98874560D01*
X168398000Y-98874560D01*
X168162683Y-98918838D01*
X168138594Y-98934339D01*
X168024309Y-98887000D01*
X167956750Y-98887000D01*
X167798000Y-99045750D01*
X167798000Y-99287734D01*
X167750560Y-99522000D01*
X167750560Y-100122000D01*
X167794838Y-100357317D01*
X167798000Y-100362231D01*
X167798000Y-100598250D01*
X167863000Y-100663250D01*
X167863000Y-101104125D01*
X167780036Y-101011268D01*
X167252791Y-100757291D01*
X167237026Y-100754642D01*
X167005000Y-100875783D01*
X166751000Y-100875783D01*
X166518974Y-100754642D01*
X166503209Y-100757291D01*
X165975964Y-101011268D01*
X165604461Y-101427069D01*
X165397670Y-101117585D01*
X165223000Y-101000874D01*
X165223000Y-100107750D01*
X166863000Y-100107750D01*
X166863000Y-100248310D01*
X166959673Y-100481699D01*
X167138302Y-100660327D01*
X167371691Y-100757000D01*
X167439250Y-100757000D01*
X167598000Y-100598250D01*
X167598000Y-99949000D01*
X167021750Y-99949000D01*
X166863000Y-100107750D01*
X165223000Y-100107750D01*
X165223000Y-99395690D01*
X166863000Y-99395690D01*
X166863000Y-99536250D01*
X167021750Y-99695000D01*
X167598000Y-99695000D01*
X167598000Y-99045750D01*
X167439250Y-98887000D01*
X167371691Y-98887000D01*
X167138302Y-98983673D01*
X166959673Y-99162301D01*
X166863000Y-99395690D01*
X165223000Y-99395690D01*
X165223000Y-98643126D01*
X165397670Y-98526415D01*
X165604461Y-98216931D01*
X165975964Y-98632732D01*
X166503209Y-98886709D01*
X166518974Y-98889358D01*
X166751000Y-98768217D01*
X166751000Y-97409000D01*
X166731000Y-97409000D01*
X166731000Y-97155000D01*
X166751000Y-97155000D01*
X166751000Y-95795783D01*
X167005000Y-95795783D01*
X167005000Y-97155000D01*
X167025000Y-97155000D01*
X167025000Y-97409000D01*
X167005000Y-97409000D01*
X167005000Y-98768217D01*
X167237026Y-98889358D01*
X167252791Y-98886709D01*
X167780036Y-98632732D01*
X168151539Y-98216931D01*
X168358330Y-98526415D01*
X168844511Y-98851271D01*
X169418000Y-98965345D01*
X169757000Y-98897914D01*
X169757000Y-99180203D01*
X169695569Y-99270110D01*
X169644560Y-99522000D01*
X169644560Y-100122000D01*
X169688838Y-100357317D01*
X169827910Y-100573441D01*
X170040110Y-100718431D01*
X170292000Y-100769440D01*
X170692000Y-100769440D01*
X170927317Y-100725162D01*
X170951406Y-100709661D01*
X171065691Y-100757000D01*
X171133250Y-100757000D01*
X171292000Y-100598250D01*
X171292000Y-100356266D01*
X171339440Y-100122000D01*
X171339440Y-99949000D01*
X171492000Y-99949000D01*
X171492000Y-100598250D01*
X171650750Y-100757000D01*
X171718309Y-100757000D01*
X171951698Y-100660327D01*
X172130327Y-100481699D01*
X172227000Y-100248310D01*
X172227000Y-100107750D01*
X172068250Y-99949000D01*
X171492000Y-99949000D01*
X171339440Y-99949000D01*
X171339440Y-99522000D01*
X171295162Y-99286683D01*
X171292000Y-99281769D01*
X171292000Y-99045750D01*
X171492000Y-99045750D01*
X171492000Y-99695000D01*
X172068250Y-99695000D01*
X172227000Y-99536250D01*
X172227000Y-99395690D01*
X172130327Y-99162301D01*
X171951698Y-98983673D01*
X171718309Y-98887000D01*
X171650750Y-98887000D01*
X171492000Y-99045750D01*
X171292000Y-99045750D01*
X171227000Y-98980750D01*
X171227000Y-98715121D01*
X171583209Y-98886709D01*
X171598974Y-98889358D01*
X171831000Y-98768217D01*
X171831000Y-97409000D01*
X171811000Y-97409000D01*
X171811000Y-97155000D01*
X171831000Y-97155000D01*
X171831000Y-95795783D01*
X171598974Y-95674642D01*
X171583209Y-95677291D01*
X171055964Y-95931268D01*
X170684461Y-96347069D01*
X170477670Y-96037585D01*
X169991489Y-95712729D01*
X169418000Y-95598655D01*
X168844511Y-95712729D01*
X168358330Y-96037585D01*
X168151539Y-96347069D01*
X167780036Y-95931268D01*
X167252791Y-95677291D01*
X167237026Y-95674642D01*
X167005000Y-95795783D01*
X166751000Y-95795783D01*
X166518974Y-95674642D01*
X166503209Y-95677291D01*
X165975964Y-95931268D01*
X165604461Y-96347069D01*
X165397670Y-96037585D01*
X164911489Y-95712729D01*
X164338000Y-95598655D01*
X163764511Y-95712729D01*
X163278330Y-96037585D01*
X163071539Y-96347069D01*
X162700036Y-95931268D01*
X162172791Y-95677291D01*
X162157026Y-95674642D01*
X161925000Y-95795783D01*
X161671000Y-95795783D01*
X161438974Y-95674642D01*
X161423209Y-95677291D01*
X160895964Y-95931268D01*
X160739093Y-96106845D01*
X160724762Y-96030683D01*
X160585690Y-95814559D01*
X160373490Y-95669569D01*
X160121600Y-95618560D01*
X158394400Y-95618560D01*
X158159083Y-95662838D01*
X157942959Y-95801910D01*
X157797969Y-96014110D01*
X157746960Y-96266000D01*
X157746960Y-98298000D01*
X157791238Y-98533317D01*
X157930310Y-98749441D01*
X158142510Y-98894431D01*
X158373000Y-98941106D01*
X158373000Y-100702587D01*
X158159083Y-100742838D01*
X157942959Y-100881910D01*
X157797969Y-101094110D01*
X157746960Y-101346000D01*
X157746960Y-103378000D01*
X157791238Y-103613317D01*
X157930310Y-103829441D01*
X158142510Y-103974431D01*
X158373000Y-104021106D01*
X158373000Y-105782587D01*
X158159083Y-105822838D01*
X157942959Y-105961910D01*
X157797969Y-106174110D01*
X157746960Y-106426000D01*
X157746960Y-108458000D01*
X157791238Y-108693317D01*
X157930310Y-108909441D01*
X158142510Y-109054431D01*
X158373000Y-109101106D01*
X158373000Y-110862587D01*
X158159083Y-110902838D01*
X157942959Y-111041910D01*
X157797969Y-111254110D01*
X157746960Y-111506000D01*
X157746960Y-111637000D01*
X151879040Y-111637000D01*
X151879040Y-111506000D01*
X151834762Y-111270683D01*
X151695690Y-111054559D01*
X151483490Y-110909569D01*
X151253000Y-110862894D01*
X151253000Y-109101413D01*
X151466917Y-109061162D01*
X151683041Y-108922090D01*
X151828031Y-108709890D01*
X151879040Y-108458000D01*
X151879040Y-106426000D01*
X151834762Y-106190683D01*
X151695690Y-105974559D01*
X151483490Y-105829569D01*
X151253000Y-105782894D01*
X151253000Y-104021413D01*
X151466917Y-103981162D01*
X151683041Y-103842090D01*
X151828031Y-103629890D01*
X151879040Y-103378000D01*
X151879040Y-101346000D01*
X151834762Y-101110683D01*
X151695690Y-100894559D01*
X151483490Y-100749569D01*
X151253000Y-100702894D01*
X151253000Y-98941413D01*
X151466917Y-98901162D01*
X151683041Y-98762090D01*
X151828031Y-98549890D01*
X151879040Y-98298000D01*
X151879040Y-97022540D01*
X154119229Y-94782350D01*
X154572000Y-94970357D01*
X155127761Y-94970842D01*
X155641403Y-94758610D01*
X156034729Y-94365970D01*
X156121049Y-94158088D01*
X156206090Y-94363903D01*
X156598730Y-94757229D01*
X157112000Y-94970357D01*
X157667761Y-94970842D01*
X158181403Y-94758610D01*
X158574729Y-94365970D01*
X158661049Y-94158088D01*
X158746090Y-94363903D01*
X159138730Y-94757229D01*
X159652000Y-94970357D01*
X160207761Y-94970842D01*
X160721403Y-94758610D01*
X161114729Y-94365970D01*
X161201049Y-94158088D01*
X161286090Y-94363903D01*
X161678730Y-94757229D01*
X162192000Y-94970357D01*
X162747761Y-94970842D01*
X163261403Y-94758610D01*
X163654729Y-94365970D01*
X163741049Y-94158088D01*
X163826090Y-94363903D01*
X164218730Y-94757229D01*
X164732000Y-94970357D01*
X165287761Y-94970842D01*
X165801403Y-94758610D01*
X166194729Y-94365970D01*
X166281049Y-94158088D01*
X166366090Y-94363903D01*
X166758730Y-94757229D01*
X167272000Y-94970357D01*
X167827761Y-94970842D01*
X168341403Y-94758610D01*
X168734729Y-94365970D01*
X168821049Y-94158088D01*
X168906090Y-94363903D01*
X169298730Y-94757229D01*
X169812000Y-94970357D01*
X170367761Y-94970842D01*
X170881403Y-94758610D01*
X171274729Y-94365970D01*
X171487857Y-93852700D01*
X171487914Y-93787360D01*
X173255000Y-95554447D01*
X173255000Y-96382106D01*
X173249954Y-96367680D01*
X172860036Y-95931268D01*
X172332791Y-95677291D01*
X172317026Y-95674642D01*
X172085000Y-95795783D01*
X172085000Y-97155000D01*
X172105000Y-97155000D01*
X172105000Y-97409000D01*
X172085000Y-97409000D01*
X172085000Y-98768217D01*
X172317026Y-98889358D01*
X172332791Y-98886709D01*
X172860036Y-98632732D01*
X173249954Y-98196320D01*
X173255000Y-98181894D01*
X173255000Y-101462106D01*
X173249954Y-101447680D01*
X172860036Y-101011268D01*
X172332791Y-100757291D01*
X172317026Y-100754642D01*
X172085000Y-100875783D01*
X172085000Y-102235000D01*
X172105000Y-102235000D01*
X172105000Y-102489000D01*
X172085000Y-102489000D01*
X172085000Y-103848217D01*
X172317026Y-103969358D01*
X172332791Y-103966709D01*
X172860036Y-103712732D01*
X173249954Y-103276320D01*
X173255000Y-103261894D01*
X173255000Y-106542106D01*
X173249954Y-106527680D01*
X172860036Y-106091268D01*
X172332791Y-105837291D01*
X172317026Y-105834642D01*
X172085000Y-105955783D01*
X172085000Y-107315000D01*
X172105000Y-107315000D01*
X172105000Y-107569000D01*
X172085000Y-107569000D01*
X172085000Y-108928217D01*
X172317026Y-109049358D01*
X172332791Y-109046709D01*
X172860036Y-108792732D01*
X173249954Y-108356320D01*
X173255000Y-108341894D01*
X173255000Y-111622106D01*
X173249954Y-111607680D01*
X172860036Y-111171268D01*
X172332791Y-110917291D01*
X172317026Y-110914642D01*
X172085000Y-111035783D01*
X172085000Y-112395000D01*
X172105000Y-112395000D01*
X172105000Y-112649000D01*
X172085000Y-112649000D01*
X172085000Y-112669000D01*
X171831000Y-112669000D01*
X171831000Y-112649000D01*
X171811000Y-112649000D01*
X171811000Y-112395000D01*
X171831000Y-112395000D01*
X171831000Y-111035783D01*
X171598974Y-110914642D01*
X171583209Y-110917291D01*
X171055964Y-111171268D01*
X170684461Y-111587069D01*
X170477670Y-111277585D01*
X170332716Y-111180730D01*
X170584007Y-110929440D01*
X170692000Y-110929440D01*
X170927317Y-110885162D01*
X170951406Y-110869661D01*
X171065691Y-110917000D01*
X171133250Y-110917000D01*
X171292000Y-110758250D01*
X171292000Y-110516266D01*
X171339440Y-110282000D01*
X171339440Y-110109000D01*
X171492000Y-110109000D01*
X171492000Y-110758250D01*
X171650750Y-110917000D01*
X171718309Y-110917000D01*
X171951698Y-110820327D01*
X172130327Y-110641699D01*
X172227000Y-110408310D01*
X172227000Y-110267750D01*
X172068250Y-110109000D01*
X171492000Y-110109000D01*
X171339440Y-110109000D01*
X171339440Y-109682000D01*
X171295162Y-109446683D01*
X171292000Y-109441769D01*
X171292000Y-109205750D01*
X171492000Y-109205750D01*
X171492000Y-109855000D01*
X172068250Y-109855000D01*
X172227000Y-109696250D01*
X172227000Y-109555690D01*
X172130327Y-109322301D01*
X171951698Y-109143673D01*
X171718309Y-109047000D01*
X171650750Y-109047000D01*
X171492000Y-109205750D01*
X171292000Y-109205750D01*
X171133250Y-109047000D01*
X171065691Y-109047000D01*
X170954717Y-109092967D01*
X170943890Y-109085569D01*
X170692000Y-109034560D01*
X170292000Y-109034560D01*
X170056683Y-109078838D01*
X169840559Y-109217910D01*
X169695569Y-109430110D01*
X169644560Y-109682000D01*
X169644560Y-109789993D01*
X168898277Y-110536277D01*
X168738949Y-110774728D01*
X168683000Y-111056000D01*
X168683000Y-111060647D01*
X168358330Y-111277585D01*
X168151539Y-111587069D01*
X167780036Y-111171268D01*
X167252791Y-110917291D01*
X167237026Y-110914642D01*
X167005000Y-111035783D01*
X167005000Y-112395000D01*
X167025000Y-112395000D01*
X167025000Y-112649000D01*
X167005000Y-112649000D01*
X167005000Y-114008217D01*
X167237026Y-114129358D01*
X167252791Y-114126709D01*
X167780036Y-113872732D01*
X168151539Y-113456931D01*
X168358330Y-113766415D01*
X168844511Y-114091271D01*
X169418000Y-114205345D01*
X169991489Y-114091271D01*
X170477670Y-113766415D01*
X170684461Y-113456931D01*
X171055964Y-113872732D01*
X171583209Y-114126709D01*
X171598974Y-114129358D01*
X171830998Y-114008218D01*
X171830998Y-114149556D01*
X171653554Y-114327000D01*
X161798000Y-114327000D01*
X161563394Y-114373667D01*
X161516727Y-114382949D01*
X161278276Y-114542277D01*
X160770277Y-115050277D01*
X160655660Y-115221814D01*
X160210200Y-115036843D01*
X159654439Y-115036358D01*
X159140797Y-115248590D01*
X158747471Y-115641230D01*
X158661151Y-115849112D01*
X158576110Y-115643297D01*
X158183470Y-115249971D01*
X157670200Y-115036843D01*
X157114439Y-115036358D01*
X156600797Y-115248590D01*
X156207471Y-115641230D01*
X156121151Y-115849112D01*
X156036110Y-115643297D01*
X155643470Y-115249971D01*
X155130200Y-115036843D01*
X154574439Y-115036358D01*
X154060797Y-115248590D01*
X153667471Y-115641230D01*
X153587705Y-115833327D01*
X153533497Y-115702457D01*
X153291313Y-115632992D01*
X152490705Y-116433600D01*
X153291313Y-117234208D01*
X153533497Y-117164743D01*
X153583609Y-117024282D01*
X153666090Y-117223903D01*
X154058730Y-117617229D01*
X154266612Y-117703549D01*
X154060797Y-117788590D01*
X153667471Y-118181230D01*
X153581151Y-118389112D01*
X153496110Y-118183297D01*
X153103470Y-117789971D01*
X152911373Y-117710205D01*
X153042243Y-117655997D01*
X153111708Y-117413813D01*
X152311100Y-116613205D01*
X151510492Y-117413813D01*
X151579957Y-117655997D01*
X151720418Y-117706109D01*
X151520797Y-117788590D01*
X151127471Y-118181230D01*
X151041151Y-118389112D01*
X150956110Y-118183297D01*
X150563470Y-117789971D01*
X150355588Y-117703651D01*
X150561403Y-117618610D01*
X150954729Y-117225970D01*
X151034495Y-117033873D01*
X151088703Y-117164743D01*
X151330887Y-117234208D01*
X152131495Y-116433600D01*
X151330887Y-115632992D01*
X151088703Y-115702457D01*
X151038591Y-115842918D01*
X150956110Y-115643297D01*
X150766532Y-115453387D01*
X151510492Y-115453387D01*
X152311100Y-116253995D01*
X153111708Y-115453387D01*
X153042243Y-115211203D01*
X152518798Y-115024456D01*
X151963732Y-115052238D01*
X151579957Y-115211203D01*
X151510492Y-115453387D01*
X150766532Y-115453387D01*
X150563470Y-115249971D01*
X150050200Y-115036843D01*
X149494439Y-115036358D01*
X148980797Y-115248590D01*
X148587471Y-115641230D01*
X148501151Y-115849112D01*
X148416110Y-115643297D01*
X148023470Y-115249971D01*
X147510200Y-115036843D01*
X146954439Y-115036358D01*
X146440797Y-115248590D01*
X146047471Y-115641230D01*
X145967705Y-115833327D01*
X145913497Y-115702457D01*
X145671313Y-115632992D01*
X144870705Y-116433600D01*
X145671313Y-117234208D01*
X145913497Y-117164743D01*
X145963609Y-117024282D01*
X146046090Y-117223903D01*
X146438730Y-117617229D01*
X146646612Y-117703549D01*
X146440797Y-117788590D01*
X146047471Y-118181230D01*
X145967705Y-118373327D01*
X145913497Y-118242457D01*
X145671313Y-118172992D01*
X144870705Y-118973600D01*
X144884848Y-118987743D01*
X144705243Y-119167348D01*
X144691100Y-119153205D01*
X143890492Y-119953813D01*
X143959957Y-120195997D01*
X144483402Y-120382744D01*
X145038468Y-120354962D01*
X145361366Y-120221213D01*
X145269180Y-120443223D01*
X145268976Y-120677000D01*
X142798447Y-120677000D01*
X142477460Y-120356013D01*
X142498468Y-120354962D01*
X142882243Y-120195997D01*
X142951708Y-119953813D01*
X142151100Y-119153205D01*
X142136958Y-119167348D01*
X141957353Y-118987743D01*
X141971495Y-118973600D01*
X142330705Y-118973600D01*
X143131313Y-119774208D01*
X143373497Y-119704743D01*
X143417553Y-119581256D01*
X143468703Y-119704743D01*
X143710887Y-119774208D01*
X144511495Y-118973600D01*
X143710887Y-118172992D01*
X143468703Y-118242457D01*
X143424647Y-118365944D01*
X143373497Y-118242457D01*
X143131313Y-118172992D01*
X142330705Y-118973600D01*
X141971495Y-118973600D01*
X141957353Y-118959458D01*
X142136958Y-118779853D01*
X142151100Y-118793995D01*
X142951708Y-117993387D01*
X142882243Y-117751203D01*
X142741782Y-117701091D01*
X142941403Y-117618610D01*
X143146557Y-117413813D01*
X143890492Y-117413813D01*
X143959957Y-117655997D01*
X144083444Y-117700053D01*
X143959957Y-117751203D01*
X143890492Y-117993387D01*
X144691100Y-118793995D01*
X145491708Y-117993387D01*
X145422243Y-117751203D01*
X145298756Y-117707147D01*
X145422243Y-117655997D01*
X145491708Y-117413813D01*
X144691100Y-116613205D01*
X143890492Y-117413813D01*
X143146557Y-117413813D01*
X143334729Y-117225970D01*
X143414495Y-117033873D01*
X143468703Y-117164743D01*
X143710887Y-117234208D01*
X144511495Y-116433600D01*
X143710887Y-115632992D01*
X143468703Y-115702457D01*
X143418591Y-115842918D01*
X143336110Y-115643297D01*
X143146532Y-115453387D01*
X143890492Y-115453387D01*
X144691100Y-116253995D01*
X145491708Y-115453387D01*
X145422243Y-115211203D01*
X144898798Y-115024456D01*
X144343732Y-115052238D01*
X143959957Y-115211203D01*
X143890492Y-115453387D01*
X143146532Y-115453387D01*
X142943470Y-115249971D01*
X142430200Y-115036843D01*
X141874439Y-115036358D01*
X141715357Y-115102089D01*
X141997723Y-114819724D01*
X142157051Y-114581273D01*
X142198238Y-114374211D01*
X142213000Y-114300000D01*
X142213000Y-114049535D01*
X142373209Y-114126709D01*
X142388974Y-114129358D01*
X142621000Y-114008217D01*
X142621000Y-112649000D01*
X142601000Y-112649000D01*
X142601000Y-112395000D01*
X142621000Y-112395000D01*
X142621000Y-111035783D01*
X142875000Y-111035783D01*
X142875000Y-112395000D01*
X142895000Y-112395000D01*
X142895000Y-112649000D01*
X142875000Y-112649000D01*
X142875000Y-114008217D01*
X143107026Y-114129358D01*
X143122791Y-114126709D01*
X143650036Y-113872732D01*
X144021539Y-113456931D01*
X144228330Y-113766415D01*
X144714511Y-114091271D01*
X145288000Y-114205345D01*
X145861489Y-114091271D01*
X146347670Y-113766415D01*
X146554461Y-113456931D01*
X146925964Y-113872732D01*
X147453209Y-114126709D01*
X147468974Y-114129358D01*
X147701000Y-114008217D01*
X147701000Y-112649000D01*
X147681000Y-112649000D01*
X147681000Y-112395000D01*
X147701000Y-112395000D01*
X147701000Y-111035783D01*
X147468974Y-110914642D01*
X147453209Y-110917291D01*
X146925964Y-111171268D01*
X146554461Y-111587069D01*
X146347670Y-111277585D01*
X145861489Y-110952729D01*
X145288000Y-110838655D01*
X144714511Y-110952729D01*
X144228330Y-111277585D01*
X144021539Y-111587069D01*
X143650036Y-111171268D01*
X143122791Y-110917291D01*
X143107026Y-110914642D01*
X142875000Y-111035783D01*
X142621000Y-111035783D01*
X142388974Y-110914642D01*
X142373209Y-110917291D01*
X142213000Y-110994465D01*
X142213000Y-108969535D01*
X142373209Y-109046709D01*
X142388974Y-109049358D01*
X142621000Y-108928217D01*
X142621000Y-107569000D01*
X142601000Y-107569000D01*
X142601000Y-107315000D01*
X142621000Y-107315000D01*
X142621000Y-105955783D01*
X142875000Y-105955783D01*
X142875000Y-107315000D01*
X142895000Y-107315000D01*
X142895000Y-107569000D01*
X142875000Y-107569000D01*
X142875000Y-108928217D01*
X143107026Y-109049358D01*
X143122791Y-109046709D01*
X143650036Y-108792732D01*
X144021539Y-108376931D01*
X144228330Y-108686415D01*
X144714511Y-109011271D01*
X145288000Y-109125345D01*
X145861489Y-109011271D01*
X146347670Y-108686415D01*
X146554461Y-108376931D01*
X146925964Y-108792732D01*
X147453209Y-109046709D01*
X147468974Y-109049358D01*
X147701000Y-108928217D01*
X147701000Y-107569000D01*
X147681000Y-107569000D01*
X147681000Y-107315000D01*
X147701000Y-107315000D01*
X147701000Y-105955783D01*
X147468974Y-105834642D01*
X147453209Y-105837291D01*
X146925964Y-106091268D01*
X146554461Y-106507069D01*
X146347670Y-106197585D01*
X145861489Y-105872729D01*
X145288000Y-105758655D01*
X144714511Y-105872729D01*
X144228330Y-106197585D01*
X144021539Y-106507069D01*
X143650036Y-106091268D01*
X143122791Y-105837291D01*
X143107026Y-105834642D01*
X142875000Y-105955783D01*
X142621000Y-105955783D01*
X142388974Y-105834642D01*
X142373209Y-105837291D01*
X142213000Y-105914465D01*
X142213000Y-103889535D01*
X142373209Y-103966709D01*
X142388974Y-103969358D01*
X142621000Y-103848217D01*
X142621000Y-102489000D01*
X142601000Y-102489000D01*
X142601000Y-102235000D01*
X142621000Y-102235000D01*
X142621000Y-100875783D01*
X142388974Y-100754642D01*
X142373209Y-100757291D01*
X141845964Y-101011268D01*
X141474461Y-101427069D01*
X141267670Y-101117585D01*
X140943000Y-100900647D01*
X140943000Y-100769440D01*
X141228000Y-100769440D01*
X141463317Y-100725162D01*
X141487406Y-100709661D01*
X141601691Y-100757000D01*
X141669250Y-100757000D01*
X141828000Y-100598250D01*
X141828000Y-100356266D01*
X141875440Y-100122000D01*
X141875440Y-99949000D01*
X142028000Y-99949000D01*
X142028000Y-100598250D01*
X142186750Y-100757000D01*
X142254309Y-100757000D01*
X142487698Y-100660327D01*
X142666327Y-100481699D01*
X142763000Y-100248310D01*
X142763000Y-100107750D01*
X142604250Y-99949000D01*
X142028000Y-99949000D01*
X141875440Y-99949000D01*
X141875440Y-99522000D01*
X141831162Y-99286683D01*
X141828000Y-99281769D01*
X141828000Y-99045750D01*
X142028000Y-99045750D01*
X142028000Y-99695000D01*
X142604250Y-99695000D01*
X142763000Y-99536250D01*
X142763000Y-99395690D01*
X142666327Y-99162301D01*
X142487698Y-98983673D01*
X142254309Y-98887000D01*
X142186750Y-98887000D01*
X142028000Y-99045750D01*
X141828000Y-99045750D01*
X141763000Y-98980750D01*
X141763000Y-98539875D01*
X141845964Y-98632732D01*
X142373209Y-98886709D01*
X142388974Y-98889358D01*
X142621000Y-98768217D01*
X142621000Y-97409000D01*
X142601000Y-97409000D01*
X142601000Y-97155000D01*
X142621000Y-97155000D01*
X142621000Y-95795783D01*
X142875000Y-95795783D01*
X142875000Y-97155000D01*
X142895000Y-97155000D01*
X142895000Y-97409000D01*
X142875000Y-97409000D01*
X142875000Y-98768217D01*
X143107026Y-98889358D01*
X143122791Y-98886709D01*
X143650036Y-98632732D01*
X144021539Y-98216931D01*
X144228330Y-98526415D01*
X144553000Y-98743353D01*
X144553000Y-100900647D01*
X144228330Y-101117585D01*
X144021539Y-101427069D01*
X143650036Y-101011268D01*
X143122791Y-100757291D01*
X143107026Y-100754642D01*
X142875000Y-100875783D01*
X142875000Y-102235000D01*
X142895000Y-102235000D01*
X142895000Y-102489000D01*
X142875000Y-102489000D01*
X142875000Y-103848217D01*
X143107026Y-103969358D01*
X143122791Y-103966709D01*
X143650036Y-103712732D01*
X144021539Y-103296931D01*
X144228330Y-103606415D01*
X144714511Y-103931271D01*
X145288000Y-104045345D01*
X145861489Y-103931271D01*
X146347670Y-103606415D01*
X146554461Y-103296931D01*
X146925964Y-103712732D01*
X147453209Y-103966709D01*
X147468974Y-103969358D01*
X147701000Y-103848217D01*
X147701000Y-102489000D01*
X147681000Y-102489000D01*
X147681000Y-102235000D01*
X147701000Y-102235000D01*
X147701000Y-100875783D01*
X147468974Y-100754642D01*
X147453209Y-100757291D01*
X146925964Y-101011268D01*
X146554461Y-101427069D01*
X146347670Y-101117585D01*
X146023000Y-100900647D01*
X146023000Y-98743353D01*
X146347670Y-98526415D01*
X146554461Y-98216931D01*
X146925964Y-98632732D01*
X147453209Y-98886709D01*
X147468974Y-98889358D01*
X147701000Y-98768217D01*
X147701000Y-97409000D01*
X147681000Y-97409000D01*
X147681000Y-97155000D01*
X147701000Y-97155000D01*
X147701000Y-95795783D01*
X147468974Y-95674642D01*
X147453209Y-95677291D01*
X146925964Y-95931268D01*
X146554461Y-96347069D01*
X146347670Y-96037585D01*
X145861489Y-95712729D01*
X145288000Y-95598655D01*
X144714511Y-95712729D01*
X144228330Y-96037585D01*
X144021539Y-96347069D01*
X143650036Y-95931268D01*
X143122791Y-95677291D01*
X143107026Y-95674642D01*
X142875000Y-95795783D01*
X142621000Y-95795783D01*
X142388974Y-95674642D01*
X142373209Y-95677291D01*
X141845964Y-95931268D01*
X141474461Y-96347069D01*
X141451000Y-96311958D01*
X141451000Y-94795543D01*
X141872000Y-94970357D01*
X142427761Y-94970842D01*
X142941403Y-94758610D01*
X143146557Y-94553813D01*
X143890492Y-94553813D01*
X143959957Y-94795997D01*
X144483402Y-94982744D01*
X145038468Y-94954962D01*
X145422243Y-94795997D01*
X145491708Y-94553813D01*
X144691100Y-93753205D01*
X143890492Y-94553813D01*
X143146557Y-94553813D01*
X143334729Y-94365970D01*
X143414495Y-94173873D01*
X143468703Y-94304743D01*
X143710887Y-94374208D01*
X144511495Y-93573600D01*
X143710887Y-92772992D01*
X143468703Y-92842457D01*
X143418591Y-92982918D01*
X143336110Y-92783297D01*
X142943470Y-92389971D01*
X142735588Y-92303651D01*
X142941403Y-92218610D01*
X143334729Y-91825970D01*
X143421049Y-91618088D01*
X143506090Y-91823903D01*
X143898730Y-92217229D01*
X144090827Y-92296995D01*
X143959957Y-92351203D01*
X143890492Y-92593387D01*
X144691100Y-93393995D01*
X145491708Y-92593387D01*
X145422243Y-92351203D01*
X145281782Y-92301091D01*
X145481403Y-92218610D01*
X145874729Y-91825970D01*
X145961049Y-91618088D01*
X146046090Y-91823903D01*
X146438730Y-92217229D01*
X146646612Y-92303549D01*
X146440797Y-92388590D01*
X146047471Y-92781230D01*
X145967705Y-92973327D01*
X145913497Y-92842457D01*
X145671313Y-92772992D01*
X144870705Y-93573600D01*
X145671313Y-94374208D01*
X145913497Y-94304743D01*
X145963609Y-94164282D01*
X146046090Y-94363903D01*
X146438730Y-94757229D01*
X146952000Y-94970357D01*
X147507761Y-94970842D01*
X148021403Y-94758610D01*
X148414729Y-94365970D01*
X148501049Y-94158088D01*
X148586090Y-94363903D01*
X148978730Y-94757229D01*
X149492000Y-94970357D01*
X150047761Y-94970842D01*
X150561403Y-94758610D01*
X150954729Y-94365970D01*
X151034495Y-94173873D01*
X151088703Y-94304743D01*
X151330887Y-94374208D01*
X152131495Y-93573600D01*
X151330887Y-92772992D01*
X151088703Y-92842457D01*
X151038591Y-92982918D01*
X150956110Y-92783297D01*
X150563470Y-92389971D01*
X150355588Y-92303651D01*
X150561403Y-92218610D01*
X150954729Y-91825970D01*
X151041049Y-91618088D01*
X151126090Y-91823903D01*
X151518730Y-92217229D01*
X151710827Y-92296995D01*
X151579957Y-92351203D01*
X151510492Y-92593387D01*
X152311100Y-93393995D01*
X153111708Y-92593387D01*
X153042243Y-92351203D01*
X152901782Y-92301091D01*
X153101403Y-92218610D01*
X153494729Y-91825970D01*
X153581049Y-91618088D01*
X153666090Y-91823903D01*
X153666090Y-91823903D01*
G37*
X153666090Y-91823903D02*
X154058730Y-92217229D01*
X154266612Y-92303549D01*
X154060797Y-92388590D01*
X153667471Y-92781230D01*
X153655013Y-92811233D01*
X153549708Y-92881595D01*
X153533497Y-92842457D01*
X153291313Y-92772992D01*
X152490705Y-93573600D01*
X152504848Y-93587743D01*
X152325243Y-93767348D01*
X152311100Y-93753205D01*
X151510492Y-94553813D01*
X151579957Y-94795997D01*
X151596516Y-94801905D01*
X150779860Y-95618560D01*
X149504400Y-95618560D01*
X149269083Y-95662838D01*
X149052959Y-95801910D01*
X148907969Y-96014110D01*
X148888768Y-96108927D01*
X148730036Y-95931268D01*
X148202791Y-95677291D01*
X148187026Y-95674642D01*
X147955000Y-95795783D01*
X147955000Y-97155000D01*
X147975000Y-97155000D01*
X147975000Y-97409000D01*
X147955000Y-97409000D01*
X147955000Y-98768217D01*
X148187026Y-98889358D01*
X148202791Y-98886709D01*
X148730036Y-98632732D01*
X148886907Y-98457155D01*
X148901238Y-98533317D01*
X149040310Y-98749441D01*
X149252510Y-98894431D01*
X149483000Y-98941106D01*
X149483000Y-100702587D01*
X149269083Y-100742838D01*
X149052959Y-100881910D01*
X148907969Y-101094110D01*
X148888768Y-101188927D01*
X148730036Y-101011268D01*
X148202791Y-100757291D01*
X148187026Y-100754642D01*
X147955000Y-100875783D01*
X147955000Y-102235000D01*
X147975000Y-102235000D01*
X147975000Y-102489000D01*
X147955000Y-102489000D01*
X147955000Y-103848217D01*
X148187026Y-103969358D01*
X148202791Y-103966709D01*
X148730036Y-103712732D01*
X148886907Y-103537155D01*
X148901238Y-103613317D01*
X149040310Y-103829441D01*
X149252510Y-103974431D01*
X149483000Y-104021106D01*
X149483000Y-105782587D01*
X149269083Y-105822838D01*
X149052959Y-105961910D01*
X148907969Y-106174110D01*
X148888768Y-106268927D01*
X148730036Y-106091268D01*
X148202791Y-105837291D01*
X148187026Y-105834642D01*
X147955000Y-105955783D01*
X147955000Y-107315000D01*
X147975000Y-107315000D01*
X147975000Y-107569000D01*
X147955000Y-107569000D01*
X147955000Y-108928217D01*
X148187026Y-109049358D01*
X148202791Y-109046709D01*
X148730036Y-108792732D01*
X148886907Y-108617155D01*
X148901238Y-108693317D01*
X149040310Y-108909441D01*
X149252510Y-109054431D01*
X149483000Y-109101106D01*
X149483000Y-110862587D01*
X149269083Y-110902838D01*
X149052959Y-111041910D01*
X148907969Y-111254110D01*
X148888768Y-111348927D01*
X148730036Y-111171268D01*
X148202791Y-110917291D01*
X148187026Y-110914642D01*
X147955000Y-111035783D01*
X147955000Y-112395000D01*
X147975000Y-112395000D01*
X147975000Y-112649000D01*
X147955000Y-112649000D01*
X147955000Y-114008217D01*
X148187026Y-114129358D01*
X148202791Y-114126709D01*
X148730036Y-113872732D01*
X148886907Y-113697155D01*
X148901238Y-113773317D01*
X149040310Y-113989441D01*
X149252510Y-114134431D01*
X149504400Y-114185440D01*
X151231600Y-114185440D01*
X151466917Y-114141162D01*
X151683041Y-114002090D01*
X151828031Y-113789890D01*
X151879040Y-113538000D01*
X151879040Y-113407000D01*
X157746960Y-113407000D01*
X157746960Y-113538000D01*
X157791238Y-113773317D01*
X157930310Y-113989441D01*
X158142510Y-114134431D01*
X158394400Y-114185440D01*
X160121600Y-114185440D01*
X160356917Y-114141162D01*
X160573041Y-114002090D01*
X160718031Y-113789890D01*
X160737232Y-113695073D01*
X160895964Y-113872732D01*
X161423209Y-114126709D01*
X161438974Y-114129358D01*
X161671000Y-114008217D01*
X161671000Y-112649000D01*
X161651000Y-112649000D01*
X161651000Y-112395000D01*
X161671000Y-112395000D01*
X161671000Y-111035783D01*
X161438974Y-110914642D01*
X161423209Y-110917291D01*
X160895964Y-111171268D01*
X160739093Y-111346845D01*
X160724762Y-111270683D01*
X160585690Y-111054559D01*
X160373490Y-110909569D01*
X160143000Y-110862894D01*
X160143000Y-109101413D01*
X160356917Y-109061162D01*
X160573041Y-108922090D01*
X160718031Y-108709890D01*
X160737232Y-108615073D01*
X160895964Y-108792732D01*
X161423209Y-109046709D01*
X161438974Y-109049358D01*
X161671000Y-108928217D01*
X161671000Y-107569000D01*
X161651000Y-107569000D01*
X161651000Y-107315000D01*
X161671000Y-107315000D01*
X161671000Y-105955783D01*
X161925000Y-105955783D01*
X161925000Y-107315000D01*
X161945000Y-107315000D01*
X161945000Y-107569000D01*
X161925000Y-107569000D01*
X161925000Y-108928217D01*
X162157026Y-109049358D01*
X162172791Y-109046709D01*
X162700036Y-108792732D01*
X163071539Y-108376931D01*
X163278330Y-108686415D01*
X163453000Y-108803126D01*
X163453000Y-111160874D01*
X163278330Y-111277585D01*
X163071539Y-111587069D01*
X162700036Y-111171268D01*
X162172791Y-110917291D01*
X162157026Y-110914642D01*
X161925000Y-111035783D01*
X161925000Y-112395000D01*
X161945000Y-112395000D01*
X161945000Y-112649000D01*
X161925000Y-112649000D01*
X161925000Y-114008217D01*
X162157026Y-114129358D01*
X162172791Y-114126709D01*
X162700036Y-113872732D01*
X163071539Y-113456931D01*
X163278330Y-113766415D01*
X163764511Y-114091271D01*
X164338000Y-114205345D01*
X164911489Y-114091271D01*
X165397670Y-113766415D01*
X165604461Y-113456931D01*
X165975964Y-113872732D01*
X166503209Y-114126709D01*
X166518974Y-114129358D01*
X166751000Y-114008217D01*
X166751000Y-112649000D01*
X166731000Y-112649000D01*
X166731000Y-112395000D01*
X166751000Y-112395000D01*
X166751000Y-111035783D01*
X166518974Y-110914642D01*
X166503209Y-110917291D01*
X165975964Y-111171268D01*
X165604461Y-111587069D01*
X165397670Y-111277585D01*
X165223000Y-111160874D01*
X165223000Y-108803126D01*
X165397670Y-108686415D01*
X165604461Y-108376931D01*
X165975964Y-108792732D01*
X166503209Y-109046709D01*
X166518974Y-109049358D01*
X166751000Y-108928217D01*
X166751000Y-107569000D01*
X166731000Y-107569000D01*
X166731000Y-107315000D01*
X166751000Y-107315000D01*
X166751000Y-105955783D01*
X167005000Y-105955783D01*
X167005000Y-107315000D01*
X167025000Y-107315000D01*
X167025000Y-107569000D01*
X167005000Y-107569000D01*
X167005000Y-108928217D01*
X167237026Y-109049358D01*
X167252791Y-109046709D01*
X167780036Y-108792732D01*
X168151539Y-108376931D01*
X168358330Y-108686415D01*
X168844511Y-109011271D01*
X169418000Y-109125345D01*
X169991489Y-109011271D01*
X170477670Y-108686415D01*
X170684461Y-108376931D01*
X171055964Y-108792732D01*
X171583209Y-109046709D01*
X171598974Y-109049358D01*
X171831000Y-108928217D01*
X171831000Y-107569000D01*
X171811000Y-107569000D01*
X171811000Y-107315000D01*
X171831000Y-107315000D01*
X171831000Y-105955783D01*
X171598974Y-105834642D01*
X171583209Y-105837291D01*
X171055964Y-106091268D01*
X170684461Y-106507069D01*
X170477670Y-106197585D01*
X170332716Y-106100730D01*
X170584007Y-105849440D01*
X170692000Y-105849440D01*
X170927317Y-105805162D01*
X170951406Y-105789661D01*
X171065691Y-105837000D01*
X171133250Y-105837000D01*
X171292000Y-105678250D01*
X171292000Y-105436266D01*
X171339440Y-105202000D01*
X171339440Y-105029000D01*
X171492000Y-105029000D01*
X171492000Y-105678250D01*
X171650750Y-105837000D01*
X171718309Y-105837000D01*
X171951698Y-105740327D01*
X172130327Y-105561699D01*
X172227000Y-105328310D01*
X172227000Y-105187750D01*
X172068250Y-105029000D01*
X171492000Y-105029000D01*
X171339440Y-105029000D01*
X171339440Y-104602000D01*
X171295162Y-104366683D01*
X171292000Y-104361769D01*
X171292000Y-104125750D01*
X171492000Y-104125750D01*
X171492000Y-104775000D01*
X172068250Y-104775000D01*
X172227000Y-104616250D01*
X172227000Y-104475690D01*
X172130327Y-104242301D01*
X171951698Y-104063673D01*
X171718309Y-103967000D01*
X171650750Y-103967000D01*
X171492000Y-104125750D01*
X171292000Y-104125750D01*
X171133250Y-103967000D01*
X171065691Y-103967000D01*
X170954717Y-104012967D01*
X170943890Y-104005569D01*
X170692000Y-103954560D01*
X170292000Y-103954560D01*
X170056683Y-103998838D01*
X169840559Y-104137910D01*
X169695569Y-104350110D01*
X169644560Y-104602000D01*
X169644560Y-104709993D01*
X168898277Y-105456277D01*
X168738949Y-105694728D01*
X168683000Y-105976000D01*
X168683000Y-105980647D01*
X168358330Y-106197585D01*
X168151539Y-106507069D01*
X167780036Y-106091268D01*
X167252791Y-105837291D01*
X167237026Y-105834642D01*
X167005000Y-105955783D01*
X166751000Y-105955783D01*
X166518974Y-105834642D01*
X166503209Y-105837291D01*
X165975964Y-106091268D01*
X165604461Y-106507069D01*
X165397670Y-106197585D01*
X164911489Y-105872729D01*
X164338000Y-105758655D01*
X163764511Y-105872729D01*
X163278330Y-106197585D01*
X163071539Y-106507069D01*
X162700036Y-106091268D01*
X162172791Y-105837291D01*
X162157026Y-105834642D01*
X161925000Y-105955783D01*
X161671000Y-105955783D01*
X161438974Y-105834642D01*
X161423209Y-105837291D01*
X160895964Y-106091268D01*
X160739093Y-106266845D01*
X160724762Y-106190683D01*
X160585690Y-105974559D01*
X160373490Y-105829569D01*
X160143000Y-105782894D01*
X160143000Y-104021413D01*
X160356917Y-103981162D01*
X160573041Y-103842090D01*
X160718031Y-103629890D01*
X160737232Y-103535073D01*
X160895964Y-103712732D01*
X161423209Y-103966709D01*
X161438974Y-103969358D01*
X161671000Y-103848217D01*
X161671000Y-102489000D01*
X161651000Y-102489000D01*
X161651000Y-102235000D01*
X161671000Y-102235000D01*
X161671000Y-100875783D01*
X161438974Y-100754642D01*
X161423209Y-100757291D01*
X160895964Y-101011268D01*
X160739093Y-101186845D01*
X160724762Y-101110683D01*
X160585690Y-100894559D01*
X160373490Y-100749569D01*
X160143000Y-100702894D01*
X160143000Y-98941413D01*
X160356917Y-98901162D01*
X160573041Y-98762090D01*
X160718031Y-98549890D01*
X160737232Y-98455073D01*
X160895964Y-98632732D01*
X161423209Y-98886709D01*
X161438974Y-98889358D01*
X161671000Y-98768217D01*
X161671000Y-97409000D01*
X161651000Y-97409000D01*
X161651000Y-97155000D01*
X161671000Y-97155000D01*
X161671000Y-95795783D01*
X161925000Y-95795783D01*
X161925000Y-97155000D01*
X161945000Y-97155000D01*
X161945000Y-97409000D01*
X161925000Y-97409000D01*
X161925000Y-98768217D01*
X162157026Y-98889358D01*
X162172791Y-98886709D01*
X162700036Y-98632732D01*
X163071539Y-98216931D01*
X163278330Y-98526415D01*
X163453000Y-98643126D01*
X163453000Y-101000874D01*
X163278330Y-101117585D01*
X163071539Y-101427069D01*
X162700036Y-101011268D01*
X162172791Y-100757291D01*
X162157026Y-100754642D01*
X161925000Y-100875783D01*
X161925000Y-102235000D01*
X161945000Y-102235000D01*
X161945000Y-102489000D01*
X161925000Y-102489000D01*
X161925000Y-103848217D01*
X162157026Y-103969358D01*
X162172791Y-103966709D01*
X162700036Y-103712732D01*
X163071539Y-103296931D01*
X163278330Y-103606415D01*
X163764511Y-103931271D01*
X164338000Y-104045345D01*
X164911489Y-103931271D01*
X165397670Y-103606415D01*
X165604461Y-103296931D01*
X165975964Y-103712732D01*
X166503209Y-103966709D01*
X166518974Y-103969358D01*
X166751000Y-103848217D01*
X166751000Y-102489000D01*
X166731000Y-102489000D01*
X166731000Y-102235000D01*
X166751000Y-102235000D01*
X166751000Y-100875783D01*
X167005000Y-100875783D01*
X167005000Y-102235000D01*
X167025000Y-102235000D01*
X167025000Y-102489000D01*
X167005000Y-102489000D01*
X167005000Y-103848217D01*
X167237026Y-103969358D01*
X167252791Y-103966709D01*
X167780036Y-103712732D01*
X168151539Y-103296931D01*
X168358330Y-103606415D01*
X168844511Y-103931271D01*
X169418000Y-104045345D01*
X169991489Y-103931271D01*
X170477670Y-103606415D01*
X170684461Y-103296931D01*
X171055964Y-103712732D01*
X171583209Y-103966709D01*
X171598974Y-103969358D01*
X171831000Y-103848217D01*
X171831000Y-102489000D01*
X171811000Y-102489000D01*
X171811000Y-102235000D01*
X171831000Y-102235000D01*
X171831000Y-100875783D01*
X171598974Y-100754642D01*
X171583209Y-100757291D01*
X171055964Y-101011268D01*
X170684461Y-101427069D01*
X170477670Y-101117585D01*
X169991489Y-100792729D01*
X169418000Y-100678655D01*
X169333000Y-100695563D01*
X169333000Y-100463797D01*
X169394431Y-100373890D01*
X169445440Y-100122000D01*
X169445440Y-99522000D01*
X169401162Y-99286683D01*
X169262090Y-99070559D01*
X169049890Y-98925569D01*
X168798000Y-98874560D01*
X168398000Y-98874560D01*
X168162683Y-98918838D01*
X168138594Y-98934339D01*
X168024309Y-98887000D01*
X167956750Y-98887000D01*
X167798000Y-99045750D01*
X167798000Y-99287734D01*
X167750560Y-99522000D01*
X167750560Y-100122000D01*
X167794838Y-100357317D01*
X167798000Y-100362231D01*
X167798000Y-100598250D01*
X167863000Y-100663250D01*
X167863000Y-101104125D01*
X167780036Y-101011268D01*
X167252791Y-100757291D01*
X167237026Y-100754642D01*
X167005000Y-100875783D01*
X166751000Y-100875783D01*
X166518974Y-100754642D01*
X166503209Y-100757291D01*
X165975964Y-101011268D01*
X165604461Y-101427069D01*
X165397670Y-101117585D01*
X165223000Y-101000874D01*
X165223000Y-100107750D01*
X166863000Y-100107750D01*
X166863000Y-100248310D01*
X166959673Y-100481699D01*
X167138302Y-100660327D01*
X167371691Y-100757000D01*
X167439250Y-100757000D01*
X167598000Y-100598250D01*
X167598000Y-99949000D01*
X167021750Y-99949000D01*
X166863000Y-100107750D01*
X165223000Y-100107750D01*
X165223000Y-99395690D01*
X166863000Y-99395690D01*
X166863000Y-99536250D01*
X167021750Y-99695000D01*
X167598000Y-99695000D01*
X167598000Y-99045750D01*
X167439250Y-98887000D01*
X167371691Y-98887000D01*
X167138302Y-98983673D01*
X166959673Y-99162301D01*
X166863000Y-99395690D01*
X165223000Y-99395690D01*
X165223000Y-98643126D01*
X165397670Y-98526415D01*
X165604461Y-98216931D01*
X165975964Y-98632732D01*
X166503209Y-98886709D01*
X166518974Y-98889358D01*
X166751000Y-98768217D01*
X166751000Y-97409000D01*
X166731000Y-97409000D01*
X166731000Y-97155000D01*
X166751000Y-97155000D01*
X166751000Y-95795783D01*
X167005000Y-95795783D01*
X167005000Y-97155000D01*
X167025000Y-97155000D01*
X167025000Y-97409000D01*
X167005000Y-97409000D01*
X167005000Y-98768217D01*
X167237026Y-98889358D01*
X167252791Y-98886709D01*
X167780036Y-98632732D01*
X168151539Y-98216931D01*
X168358330Y-98526415D01*
X168844511Y-98851271D01*
X169418000Y-98965345D01*
X169757000Y-98897914D01*
X169757000Y-99180203D01*
X169695569Y-99270110D01*
X169644560Y-99522000D01*
X169644560Y-100122000D01*
X169688838Y-100357317D01*
X169827910Y-100573441D01*
X170040110Y-100718431D01*
X170292000Y-100769440D01*
X170692000Y-100769440D01*
X170927317Y-100725162D01*
X170951406Y-100709661D01*
X171065691Y-100757000D01*
X171133250Y-100757000D01*
X171292000Y-100598250D01*
X171292000Y-100356266D01*
X171339440Y-100122000D01*
X171339440Y-99949000D01*
X171492000Y-99949000D01*
X171492000Y-100598250D01*
X171650750Y-100757000D01*
X171718309Y-100757000D01*
X171951698Y-100660327D01*
X172130327Y-100481699D01*
X172227000Y-100248310D01*
X172227000Y-100107750D01*
X172068250Y-99949000D01*
X171492000Y-99949000D01*
X171339440Y-99949000D01*
X171339440Y-99522000D01*
X171295162Y-99286683D01*
X171292000Y-99281769D01*
X171292000Y-99045750D01*
X171492000Y-99045750D01*
X171492000Y-99695000D01*
X172068250Y-99695000D01*
X172227000Y-99536250D01*
X172227000Y-99395690D01*
X172130327Y-99162301D01*
X171951698Y-98983673D01*
X171718309Y-98887000D01*
X171650750Y-98887000D01*
X171492000Y-99045750D01*
X171292000Y-99045750D01*
X171227000Y-98980750D01*
X171227000Y-98715121D01*
X171583209Y-98886709D01*
X171598974Y-98889358D01*
X171831000Y-98768217D01*
X171831000Y-97409000D01*
X171811000Y-97409000D01*
X171811000Y-97155000D01*
X171831000Y-97155000D01*
X171831000Y-95795783D01*
X171598974Y-95674642D01*
X171583209Y-95677291D01*
X171055964Y-95931268D01*
X170684461Y-96347069D01*
X170477670Y-96037585D01*
X169991489Y-95712729D01*
X169418000Y-95598655D01*
X168844511Y-95712729D01*
X168358330Y-96037585D01*
X168151539Y-96347069D01*
X167780036Y-95931268D01*
X167252791Y-95677291D01*
X167237026Y-95674642D01*
X167005000Y-95795783D01*
X166751000Y-95795783D01*
X166518974Y-95674642D01*
X166503209Y-95677291D01*
X165975964Y-95931268D01*
X165604461Y-96347069D01*
X165397670Y-96037585D01*
X164911489Y-95712729D01*
X164338000Y-95598655D01*
X163764511Y-95712729D01*
X163278330Y-96037585D01*
X163071539Y-96347069D01*
X162700036Y-95931268D01*
X162172791Y-95677291D01*
X162157026Y-95674642D01*
X161925000Y-95795783D01*
X161671000Y-95795783D01*
X161438974Y-95674642D01*
X161423209Y-95677291D01*
X160895964Y-95931268D01*
X160739093Y-96106845D01*
X160724762Y-96030683D01*
X160585690Y-95814559D01*
X160373490Y-95669569D01*
X160121600Y-95618560D01*
X158394400Y-95618560D01*
X158159083Y-95662838D01*
X157942959Y-95801910D01*
X157797969Y-96014110D01*
X157746960Y-96266000D01*
X157746960Y-98298000D01*
X157791238Y-98533317D01*
X157930310Y-98749441D01*
X158142510Y-98894431D01*
X158373000Y-98941106D01*
X158373000Y-100702587D01*
X158159083Y-100742838D01*
X157942959Y-100881910D01*
X157797969Y-101094110D01*
X157746960Y-101346000D01*
X157746960Y-103378000D01*
X157791238Y-103613317D01*
X157930310Y-103829441D01*
X158142510Y-103974431D01*
X158373000Y-104021106D01*
X158373000Y-105782587D01*
X158159083Y-105822838D01*
X157942959Y-105961910D01*
X157797969Y-106174110D01*
X157746960Y-106426000D01*
X157746960Y-108458000D01*
X157791238Y-108693317D01*
X157930310Y-108909441D01*
X158142510Y-109054431D01*
X158373000Y-109101106D01*
X158373000Y-110862587D01*
X158159083Y-110902838D01*
X157942959Y-111041910D01*
X157797969Y-111254110D01*
X157746960Y-111506000D01*
X157746960Y-111637000D01*
X151879040Y-111637000D01*
X151879040Y-111506000D01*
X151834762Y-111270683D01*
X151695690Y-111054559D01*
X151483490Y-110909569D01*
X151253000Y-110862894D01*
X151253000Y-109101413D01*
X151466917Y-109061162D01*
X151683041Y-108922090D01*
X151828031Y-108709890D01*
X151879040Y-108458000D01*
X151879040Y-106426000D01*
X151834762Y-106190683D01*
X151695690Y-105974559D01*
X151483490Y-105829569D01*
X151253000Y-105782894D01*
X151253000Y-104021413D01*
X151466917Y-103981162D01*
X151683041Y-103842090D01*
X151828031Y-103629890D01*
X151879040Y-103378000D01*
X151879040Y-101346000D01*
X151834762Y-101110683D01*
X151695690Y-100894559D01*
X151483490Y-100749569D01*
X151253000Y-100702894D01*
X151253000Y-98941413D01*
X151466917Y-98901162D01*
X151683041Y-98762090D01*
X151828031Y-98549890D01*
X151879040Y-98298000D01*
X151879040Y-97022540D01*
X154119229Y-94782350D01*
X154572000Y-94970357D01*
X155127761Y-94970842D01*
X155641403Y-94758610D01*
X156034729Y-94365970D01*
X156121049Y-94158088D01*
X156206090Y-94363903D01*
X156598730Y-94757229D01*
X157112000Y-94970357D01*
X157667761Y-94970842D01*
X158181403Y-94758610D01*
X158574729Y-94365970D01*
X158661049Y-94158088D01*
X158746090Y-94363903D01*
X159138730Y-94757229D01*
X159652000Y-94970357D01*
X160207761Y-94970842D01*
X160721403Y-94758610D01*
X161114729Y-94365970D01*
X161201049Y-94158088D01*
X161286090Y-94363903D01*
X161678730Y-94757229D01*
X162192000Y-94970357D01*
X162747761Y-94970842D01*
X163261403Y-94758610D01*
X163654729Y-94365970D01*
X163741049Y-94158088D01*
X163826090Y-94363903D01*
X164218730Y-94757229D01*
X164732000Y-94970357D01*
X165287761Y-94970842D01*
X165801403Y-94758610D01*
X166194729Y-94365970D01*
X166281049Y-94158088D01*
X166366090Y-94363903D01*
X166758730Y-94757229D01*
X167272000Y-94970357D01*
X167827761Y-94970842D01*
X168341403Y-94758610D01*
X168734729Y-94365970D01*
X168821049Y-94158088D01*
X168906090Y-94363903D01*
X169298730Y-94757229D01*
X169812000Y-94970357D01*
X170367761Y-94970842D01*
X170881403Y-94758610D01*
X171274729Y-94365970D01*
X171487857Y-93852700D01*
X171487914Y-93787360D01*
X173255000Y-95554447D01*
X173255000Y-96382106D01*
X173249954Y-96367680D01*
X172860036Y-95931268D01*
X172332791Y-95677291D01*
X172317026Y-95674642D01*
X172085000Y-95795783D01*
X172085000Y-97155000D01*
X172105000Y-97155000D01*
X172105000Y-97409000D01*
X172085000Y-97409000D01*
X172085000Y-98768217D01*
X172317026Y-98889358D01*
X172332791Y-98886709D01*
X172860036Y-98632732D01*
X173249954Y-98196320D01*
X173255000Y-98181894D01*
X173255000Y-101462106D01*
X173249954Y-101447680D01*
X172860036Y-101011268D01*
X172332791Y-100757291D01*
X172317026Y-100754642D01*
X172085000Y-100875783D01*
X172085000Y-102235000D01*
X172105000Y-102235000D01*
X172105000Y-102489000D01*
X172085000Y-102489000D01*
X172085000Y-103848217D01*
X172317026Y-103969358D01*
X172332791Y-103966709D01*
X172860036Y-103712732D01*
X173249954Y-103276320D01*
X173255000Y-103261894D01*
X173255000Y-106542106D01*
X173249954Y-106527680D01*
X172860036Y-106091268D01*
X172332791Y-105837291D01*
X172317026Y-105834642D01*
X172085000Y-105955783D01*
X172085000Y-107315000D01*
X172105000Y-107315000D01*
X172105000Y-107569000D01*
X172085000Y-107569000D01*
X172085000Y-108928217D01*
X172317026Y-109049358D01*
X172332791Y-109046709D01*
X172860036Y-108792732D01*
X173249954Y-108356320D01*
X173255000Y-108341894D01*
X173255000Y-111622106D01*
X173249954Y-111607680D01*
X172860036Y-111171268D01*
X172332791Y-110917291D01*
X172317026Y-110914642D01*
X172085000Y-111035783D01*
X172085000Y-112395000D01*
X172105000Y-112395000D01*
X172105000Y-112649000D01*
X172085000Y-112649000D01*
X172085000Y-112669000D01*
X171831000Y-112669000D01*
X171831000Y-112649000D01*
X171811000Y-112649000D01*
X171811000Y-112395000D01*
X171831000Y-112395000D01*
X171831000Y-111035783D01*
X171598974Y-110914642D01*
X171583209Y-110917291D01*
X171055964Y-111171268D01*
X170684461Y-111587069D01*
X170477670Y-111277585D01*
X170332716Y-111180730D01*
X170584007Y-110929440D01*
X170692000Y-110929440D01*
X170927317Y-110885162D01*
X170951406Y-110869661D01*
X171065691Y-110917000D01*
X171133250Y-110917000D01*
X171292000Y-110758250D01*
X171292000Y-110516266D01*
X171339440Y-110282000D01*
X171339440Y-110109000D01*
X171492000Y-110109000D01*
X171492000Y-110758250D01*
X171650750Y-110917000D01*
X171718309Y-110917000D01*
X171951698Y-110820327D01*
X172130327Y-110641699D01*
X172227000Y-110408310D01*
X172227000Y-110267750D01*
X172068250Y-110109000D01*
X171492000Y-110109000D01*
X171339440Y-110109000D01*
X171339440Y-109682000D01*
X171295162Y-109446683D01*
X171292000Y-109441769D01*
X171292000Y-109205750D01*
X171492000Y-109205750D01*
X171492000Y-109855000D01*
X172068250Y-109855000D01*
X172227000Y-109696250D01*
X172227000Y-109555690D01*
X172130327Y-109322301D01*
X171951698Y-109143673D01*
X171718309Y-109047000D01*
X171650750Y-109047000D01*
X171492000Y-109205750D01*
X171292000Y-109205750D01*
X171133250Y-109047000D01*
X171065691Y-109047000D01*
X170954717Y-109092967D01*
X170943890Y-109085569D01*
X170692000Y-109034560D01*
X170292000Y-109034560D01*
X170056683Y-109078838D01*
X169840559Y-109217910D01*
X169695569Y-109430110D01*
X169644560Y-109682000D01*
X169644560Y-109789993D01*
X168898277Y-110536277D01*
X168738949Y-110774728D01*
X168683000Y-111056000D01*
X168683000Y-111060647D01*
X168358330Y-111277585D01*
X168151539Y-111587069D01*
X167780036Y-111171268D01*
X167252791Y-110917291D01*
X167237026Y-110914642D01*
X167005000Y-111035783D01*
X167005000Y-112395000D01*
X167025000Y-112395000D01*
X167025000Y-112649000D01*
X167005000Y-112649000D01*
X167005000Y-114008217D01*
X167237026Y-114129358D01*
X167252791Y-114126709D01*
X167780036Y-113872732D01*
X168151539Y-113456931D01*
X168358330Y-113766415D01*
X168844511Y-114091271D01*
X169418000Y-114205345D01*
X169991489Y-114091271D01*
X170477670Y-113766415D01*
X170684461Y-113456931D01*
X171055964Y-113872732D01*
X171583209Y-114126709D01*
X171598974Y-114129358D01*
X171830998Y-114008218D01*
X171830998Y-114149556D01*
X171653554Y-114327000D01*
X161798000Y-114327000D01*
X161563394Y-114373667D01*
X161516727Y-114382949D01*
X161278276Y-114542277D01*
X160770277Y-115050277D01*
X160655660Y-115221814D01*
X160210200Y-115036843D01*
X159654439Y-115036358D01*
X159140797Y-115248590D01*
X158747471Y-115641230D01*
X158661151Y-115849112D01*
X158576110Y-115643297D01*
X158183470Y-115249971D01*
X157670200Y-115036843D01*
X157114439Y-115036358D01*
X156600797Y-115248590D01*
X156207471Y-115641230D01*
X156121151Y-115849112D01*
X156036110Y-115643297D01*
X155643470Y-115249971D01*
X155130200Y-115036843D01*
X154574439Y-115036358D01*
X154060797Y-115248590D01*
X153667471Y-115641230D01*
X153587705Y-115833327D01*
X153533497Y-115702457D01*
X153291313Y-115632992D01*
X152490705Y-116433600D01*
X153291313Y-117234208D01*
X153533497Y-117164743D01*
X153583609Y-117024282D01*
X153666090Y-117223903D01*
X154058730Y-117617229D01*
X154266612Y-117703549D01*
X154060797Y-117788590D01*
X153667471Y-118181230D01*
X153581151Y-118389112D01*
X153496110Y-118183297D01*
X153103470Y-117789971D01*
X152911373Y-117710205D01*
X153042243Y-117655997D01*
X153111708Y-117413813D01*
X152311100Y-116613205D01*
X151510492Y-117413813D01*
X151579957Y-117655997D01*
X151720418Y-117706109D01*
X151520797Y-117788590D01*
X151127471Y-118181230D01*
X151041151Y-118389112D01*
X150956110Y-118183297D01*
X150563470Y-117789971D01*
X150355588Y-117703651D01*
X150561403Y-117618610D01*
X150954729Y-117225970D01*
X151034495Y-117033873D01*
X151088703Y-117164743D01*
X151330887Y-117234208D01*
X152131495Y-116433600D01*
X151330887Y-115632992D01*
X151088703Y-115702457D01*
X151038591Y-115842918D01*
X150956110Y-115643297D01*
X150766532Y-115453387D01*
X151510492Y-115453387D01*
X152311100Y-116253995D01*
X153111708Y-115453387D01*
X153042243Y-115211203D01*
X152518798Y-115024456D01*
X151963732Y-115052238D01*
X151579957Y-115211203D01*
X151510492Y-115453387D01*
X150766532Y-115453387D01*
X150563470Y-115249971D01*
X150050200Y-115036843D01*
X149494439Y-115036358D01*
X148980797Y-115248590D01*
X148587471Y-115641230D01*
X148501151Y-115849112D01*
X148416110Y-115643297D01*
X148023470Y-115249971D01*
X147510200Y-115036843D01*
X146954439Y-115036358D01*
X146440797Y-115248590D01*
X146047471Y-115641230D01*
X145967705Y-115833327D01*
X145913497Y-115702457D01*
X145671313Y-115632992D01*
X144870705Y-116433600D01*
X145671313Y-117234208D01*
X145913497Y-117164743D01*
X145963609Y-117024282D01*
X146046090Y-117223903D01*
X146438730Y-117617229D01*
X146646612Y-117703549D01*
X146440797Y-117788590D01*
X146047471Y-118181230D01*
X145967705Y-118373327D01*
X145913497Y-118242457D01*
X145671313Y-118172992D01*
X144870705Y-118973600D01*
X144884848Y-118987743D01*
X144705243Y-119167348D01*
X144691100Y-119153205D01*
X143890492Y-119953813D01*
X143959957Y-120195997D01*
X144483402Y-120382744D01*
X145038468Y-120354962D01*
X145361366Y-120221213D01*
X145269180Y-120443223D01*
X145268976Y-120677000D01*
X142798447Y-120677000D01*
X142477460Y-120356013D01*
X142498468Y-120354962D01*
X142882243Y-120195997D01*
X142951708Y-119953813D01*
X142151100Y-119153205D01*
X142136958Y-119167348D01*
X141957353Y-118987743D01*
X141971495Y-118973600D01*
X142330705Y-118973600D01*
X143131313Y-119774208D01*
X143373497Y-119704743D01*
X143417553Y-119581256D01*
X143468703Y-119704743D01*
X143710887Y-119774208D01*
X144511495Y-118973600D01*
X143710887Y-118172992D01*
X143468703Y-118242457D01*
X143424647Y-118365944D01*
X143373497Y-118242457D01*
X143131313Y-118172992D01*
X142330705Y-118973600D01*
X141971495Y-118973600D01*
X141957353Y-118959458D01*
X142136958Y-118779853D01*
X142151100Y-118793995D01*
X142951708Y-117993387D01*
X142882243Y-117751203D01*
X142741782Y-117701091D01*
X142941403Y-117618610D01*
X143146557Y-117413813D01*
X143890492Y-117413813D01*
X143959957Y-117655997D01*
X144083444Y-117700053D01*
X143959957Y-117751203D01*
X143890492Y-117993387D01*
X144691100Y-118793995D01*
X145491708Y-117993387D01*
X145422243Y-117751203D01*
X145298756Y-117707147D01*
X145422243Y-117655997D01*
X145491708Y-117413813D01*
X144691100Y-116613205D01*
X143890492Y-117413813D01*
X143146557Y-117413813D01*
X143334729Y-117225970D01*
X143414495Y-117033873D01*
X143468703Y-117164743D01*
X143710887Y-117234208D01*
X144511495Y-116433600D01*
X143710887Y-115632992D01*
X143468703Y-115702457D01*
X143418591Y-115842918D01*
X143336110Y-115643297D01*
X143146532Y-115453387D01*
X143890492Y-115453387D01*
X144691100Y-116253995D01*
X145491708Y-115453387D01*
X145422243Y-115211203D01*
X144898798Y-115024456D01*
X144343732Y-115052238D01*
X143959957Y-115211203D01*
X143890492Y-115453387D01*
X143146532Y-115453387D01*
X142943470Y-115249971D01*
X142430200Y-115036843D01*
X141874439Y-115036358D01*
X141715357Y-115102089D01*
X141997723Y-114819724D01*
X142157051Y-114581273D01*
X142198238Y-114374211D01*
X142213000Y-114300000D01*
X142213000Y-114049535D01*
X142373209Y-114126709D01*
X142388974Y-114129358D01*
X142621000Y-114008217D01*
X142621000Y-112649000D01*
X142601000Y-112649000D01*
X142601000Y-112395000D01*
X142621000Y-112395000D01*
X142621000Y-111035783D01*
X142875000Y-111035783D01*
X142875000Y-112395000D01*
X142895000Y-112395000D01*
X142895000Y-112649000D01*
X142875000Y-112649000D01*
X142875000Y-114008217D01*
X143107026Y-114129358D01*
X143122791Y-114126709D01*
X143650036Y-113872732D01*
X144021539Y-113456931D01*
X144228330Y-113766415D01*
X144714511Y-114091271D01*
X145288000Y-114205345D01*
X145861489Y-114091271D01*
X146347670Y-113766415D01*
X146554461Y-113456931D01*
X146925964Y-113872732D01*
X147453209Y-114126709D01*
X147468974Y-114129358D01*
X147701000Y-114008217D01*
X147701000Y-112649000D01*
X147681000Y-112649000D01*
X147681000Y-112395000D01*
X147701000Y-112395000D01*
X147701000Y-111035783D01*
X147468974Y-110914642D01*
X147453209Y-110917291D01*
X146925964Y-111171268D01*
X146554461Y-111587069D01*
X146347670Y-111277585D01*
X145861489Y-110952729D01*
X145288000Y-110838655D01*
X144714511Y-110952729D01*
X144228330Y-111277585D01*
X144021539Y-111587069D01*
X143650036Y-111171268D01*
X143122791Y-110917291D01*
X143107026Y-110914642D01*
X142875000Y-111035783D01*
X142621000Y-111035783D01*
X142388974Y-110914642D01*
X142373209Y-110917291D01*
X142213000Y-110994465D01*
X142213000Y-108969535D01*
X142373209Y-109046709D01*
X142388974Y-109049358D01*
X142621000Y-108928217D01*
X142621000Y-107569000D01*
X142601000Y-107569000D01*
X142601000Y-107315000D01*
X142621000Y-107315000D01*
X142621000Y-105955783D01*
X142875000Y-105955783D01*
X142875000Y-107315000D01*
X142895000Y-107315000D01*
X142895000Y-107569000D01*
X142875000Y-107569000D01*
X142875000Y-108928217D01*
X143107026Y-109049358D01*
X143122791Y-109046709D01*
X143650036Y-108792732D01*
X144021539Y-108376931D01*
X144228330Y-108686415D01*
X144714511Y-109011271D01*
X145288000Y-109125345D01*
X145861489Y-109011271D01*
X146347670Y-108686415D01*
X146554461Y-108376931D01*
X146925964Y-108792732D01*
X147453209Y-109046709D01*
X147468974Y-109049358D01*
X147701000Y-108928217D01*
X147701000Y-107569000D01*
X147681000Y-107569000D01*
X147681000Y-107315000D01*
X147701000Y-107315000D01*
X147701000Y-105955783D01*
X147468974Y-105834642D01*
X147453209Y-105837291D01*
X146925964Y-106091268D01*
X146554461Y-106507069D01*
X146347670Y-106197585D01*
X145861489Y-105872729D01*
X145288000Y-105758655D01*
X144714511Y-105872729D01*
X144228330Y-106197585D01*
X144021539Y-106507069D01*
X143650036Y-106091268D01*
X143122791Y-105837291D01*
X143107026Y-105834642D01*
X142875000Y-105955783D01*
X142621000Y-105955783D01*
X142388974Y-105834642D01*
X142373209Y-105837291D01*
X142213000Y-105914465D01*
X142213000Y-103889535D01*
X142373209Y-103966709D01*
X142388974Y-103969358D01*
X142621000Y-103848217D01*
X142621000Y-102489000D01*
X142601000Y-102489000D01*
X142601000Y-102235000D01*
X142621000Y-102235000D01*
X142621000Y-100875783D01*
X142388974Y-100754642D01*
X142373209Y-100757291D01*
X141845964Y-101011268D01*
X141474461Y-101427069D01*
X141267670Y-101117585D01*
X140943000Y-100900647D01*
X140943000Y-100769440D01*
X141228000Y-100769440D01*
X141463317Y-100725162D01*
X141487406Y-100709661D01*
X141601691Y-100757000D01*
X141669250Y-100757000D01*
X141828000Y-100598250D01*
X141828000Y-100356266D01*
X141875440Y-100122000D01*
X141875440Y-99949000D01*
X142028000Y-99949000D01*
X142028000Y-100598250D01*
X142186750Y-100757000D01*
X142254309Y-100757000D01*
X142487698Y-100660327D01*
X142666327Y-100481699D01*
X142763000Y-100248310D01*
X142763000Y-100107750D01*
X142604250Y-99949000D01*
X142028000Y-99949000D01*
X141875440Y-99949000D01*
X141875440Y-99522000D01*
X141831162Y-99286683D01*
X141828000Y-99281769D01*
X141828000Y-99045750D01*
X142028000Y-99045750D01*
X142028000Y-99695000D01*
X142604250Y-99695000D01*
X142763000Y-99536250D01*
X142763000Y-99395690D01*
X142666327Y-99162301D01*
X142487698Y-98983673D01*
X142254309Y-98887000D01*
X142186750Y-98887000D01*
X142028000Y-99045750D01*
X141828000Y-99045750D01*
X141763000Y-98980750D01*
X141763000Y-98539875D01*
X141845964Y-98632732D01*
X142373209Y-98886709D01*
X142388974Y-98889358D01*
X142621000Y-98768217D01*
X142621000Y-97409000D01*
X142601000Y-97409000D01*
X142601000Y-97155000D01*
X142621000Y-97155000D01*
X142621000Y-95795783D01*
X142875000Y-95795783D01*
X142875000Y-97155000D01*
X142895000Y-97155000D01*
X142895000Y-97409000D01*
X142875000Y-97409000D01*
X142875000Y-98768217D01*
X143107026Y-98889358D01*
X143122791Y-98886709D01*
X143650036Y-98632732D01*
X144021539Y-98216931D01*
X144228330Y-98526415D01*
X144553000Y-98743353D01*
X144553000Y-100900647D01*
X144228330Y-101117585D01*
X144021539Y-101427069D01*
X143650036Y-101011268D01*
X143122791Y-100757291D01*
X143107026Y-100754642D01*
X142875000Y-100875783D01*
X142875000Y-102235000D01*
X142895000Y-102235000D01*
X142895000Y-102489000D01*
X142875000Y-102489000D01*
X142875000Y-103848217D01*
X143107026Y-103969358D01*
X143122791Y-103966709D01*
X143650036Y-103712732D01*
X144021539Y-103296931D01*
X144228330Y-103606415D01*
X144714511Y-103931271D01*
X145288000Y-104045345D01*
X145861489Y-103931271D01*
X146347670Y-103606415D01*
X146554461Y-103296931D01*
X146925964Y-103712732D01*
X147453209Y-103966709D01*
X147468974Y-103969358D01*
X147701000Y-103848217D01*
X147701000Y-102489000D01*
X147681000Y-102489000D01*
X147681000Y-102235000D01*
X147701000Y-102235000D01*
X147701000Y-100875783D01*
X147468974Y-100754642D01*
X147453209Y-100757291D01*
X146925964Y-101011268D01*
X146554461Y-101427069D01*
X146347670Y-101117585D01*
X146023000Y-100900647D01*
X146023000Y-98743353D01*
X146347670Y-98526415D01*
X146554461Y-98216931D01*
X146925964Y-98632732D01*
X147453209Y-98886709D01*
X147468974Y-98889358D01*
X147701000Y-98768217D01*
X147701000Y-97409000D01*
X147681000Y-97409000D01*
X147681000Y-97155000D01*
X147701000Y-97155000D01*
X147701000Y-95795783D01*
X147468974Y-95674642D01*
X147453209Y-95677291D01*
X146925964Y-95931268D01*
X146554461Y-96347069D01*
X146347670Y-96037585D01*
X145861489Y-95712729D01*
X145288000Y-95598655D01*
X144714511Y-95712729D01*
X144228330Y-96037585D01*
X144021539Y-96347069D01*
X143650036Y-95931268D01*
X143122791Y-95677291D01*
X143107026Y-95674642D01*
X142875000Y-95795783D01*
X142621000Y-95795783D01*
X142388974Y-95674642D01*
X142373209Y-95677291D01*
X141845964Y-95931268D01*
X141474461Y-96347069D01*
X141451000Y-96311958D01*
X141451000Y-94795543D01*
X141872000Y-94970357D01*
X142427761Y-94970842D01*
X142941403Y-94758610D01*
X143146557Y-94553813D01*
X143890492Y-94553813D01*
X143959957Y-94795997D01*
X144483402Y-94982744D01*
X145038468Y-94954962D01*
X145422243Y-94795997D01*
X145491708Y-94553813D01*
X144691100Y-93753205D01*
X143890492Y-94553813D01*
X143146557Y-94553813D01*
X143334729Y-94365970D01*
X143414495Y-94173873D01*
X143468703Y-94304743D01*
X143710887Y-94374208D01*
X144511495Y-93573600D01*
X143710887Y-92772992D01*
X143468703Y-92842457D01*
X143418591Y-92982918D01*
X143336110Y-92783297D01*
X142943470Y-92389971D01*
X142735588Y-92303651D01*
X142941403Y-92218610D01*
X143334729Y-91825970D01*
X143421049Y-91618088D01*
X143506090Y-91823903D01*
X143898730Y-92217229D01*
X144090827Y-92296995D01*
X143959957Y-92351203D01*
X143890492Y-92593387D01*
X144691100Y-93393995D01*
X145491708Y-92593387D01*
X145422243Y-92351203D01*
X145281782Y-92301091D01*
X145481403Y-92218610D01*
X145874729Y-91825970D01*
X145961049Y-91618088D01*
X146046090Y-91823903D01*
X146438730Y-92217229D01*
X146646612Y-92303549D01*
X146440797Y-92388590D01*
X146047471Y-92781230D01*
X145967705Y-92973327D01*
X145913497Y-92842457D01*
X145671313Y-92772992D01*
X144870705Y-93573600D01*
X145671313Y-94374208D01*
X145913497Y-94304743D01*
X145963609Y-94164282D01*
X146046090Y-94363903D01*
X146438730Y-94757229D01*
X146952000Y-94970357D01*
X147507761Y-94970842D01*
X148021403Y-94758610D01*
X148414729Y-94365970D01*
X148501049Y-94158088D01*
X148586090Y-94363903D01*
X148978730Y-94757229D01*
X149492000Y-94970357D01*
X150047761Y-94970842D01*
X150561403Y-94758610D01*
X150954729Y-94365970D01*
X151034495Y-94173873D01*
X151088703Y-94304743D01*
X151330887Y-94374208D01*
X152131495Y-93573600D01*
X151330887Y-92772992D01*
X151088703Y-92842457D01*
X151038591Y-92982918D01*
X150956110Y-92783297D01*
X150563470Y-92389971D01*
X150355588Y-92303651D01*
X150561403Y-92218610D01*
X150954729Y-91825970D01*
X151041049Y-91618088D01*
X151126090Y-91823903D01*
X151518730Y-92217229D01*
X151710827Y-92296995D01*
X151579957Y-92351203D01*
X151510492Y-92593387D01*
X152311100Y-93393995D01*
X153111708Y-92593387D01*
X153042243Y-92351203D01*
X152901782Y-92301091D01*
X153101403Y-92218610D01*
X153494729Y-91825970D01*
X153581049Y-91618088D01*
X153666090Y-91823903D01*
G36*
X125513858Y-91310261D02*
X125726090Y-91823903D01*
X126078933Y-92177363D01*
X125913783Y-92208438D01*
X125697659Y-92347510D01*
X125552669Y-92559710D01*
X125501660Y-92811600D01*
X125501660Y-94335600D01*
X125545938Y-94570917D01*
X125685010Y-94787041D01*
X125897210Y-94932031D01*
X126149100Y-94983040D01*
X127673100Y-94983040D01*
X127908417Y-94938762D01*
X128124541Y-94799690D01*
X128269531Y-94587490D01*
X128306592Y-94404476D01*
X128658730Y-94757229D01*
X129172000Y-94970357D01*
X129727761Y-94970842D01*
X130241403Y-94758610D01*
X130334468Y-94665707D01*
X130283180Y-94789223D01*
X130282821Y-95200971D01*
X130437173Y-95574532D01*
X130338704Y-95640327D01*
X129875894Y-96332971D01*
X129713377Y-97150000D01*
X129875894Y-97967029D01*
X130338704Y-98659673D01*
X131031348Y-99122483D01*
X131848377Y-99285000D01*
X132951623Y-99285000D01*
X133768652Y-99122483D01*
X134461296Y-98659673D01*
X134924106Y-97967029D01*
X134988377Y-97643913D01*
X136182816Y-97643913D01*
X136376046Y-98196320D01*
X136765964Y-98632732D01*
X137293209Y-98886709D01*
X137308974Y-98889358D01*
X137541000Y-98768217D01*
X137541000Y-97409000D01*
X136327076Y-97409000D01*
X136182816Y-97643913D01*
X134988377Y-97643913D01*
X135086623Y-97150000D01*
X134924106Y-96332971D01*
X134691599Y-95985000D01*
X136717956Y-95985000D01*
X136376046Y-96367680D01*
X136182816Y-96920087D01*
X136327076Y-97155000D01*
X137541000Y-97155000D01*
X137541000Y-97135000D01*
X137795000Y-97135000D01*
X137795000Y-97155000D01*
X137815000Y-97155000D01*
X137815000Y-97409000D01*
X137795000Y-97409000D01*
X137795000Y-98768217D01*
X138027026Y-98889358D01*
X138042791Y-98886709D01*
X138570036Y-98632732D01*
X138941539Y-98216931D01*
X139148330Y-98526415D01*
X139634511Y-98851271D01*
X140208000Y-98965345D01*
X140293000Y-98948437D01*
X140293000Y-99180203D01*
X140231569Y-99270110D01*
X140209007Y-99381523D01*
X140191162Y-99286683D01*
X140052090Y-99070559D01*
X139839890Y-98925569D01*
X139588000Y-98874560D01*
X139188000Y-98874560D01*
X138952683Y-98918838D01*
X138928594Y-98934339D01*
X138814309Y-98887000D01*
X138746750Y-98887000D01*
X138588000Y-99045750D01*
X138588000Y-99287734D01*
X138540560Y-99522000D01*
X138540560Y-100122000D01*
X138584838Y-100357317D01*
X138588000Y-100362231D01*
X138588000Y-100598250D01*
X138746750Y-100757000D01*
X138814309Y-100757000D01*
X138925283Y-100711033D01*
X138936110Y-100718431D01*
X139188000Y-100769440D01*
X139295993Y-100769440D01*
X139445545Y-100918992D01*
X139148330Y-101117585D01*
X138941539Y-101427069D01*
X138570036Y-101011268D01*
X138042791Y-100757291D01*
X138027026Y-100754642D01*
X137795000Y-100875783D01*
X137795000Y-102235000D01*
X137815000Y-102235000D01*
X137815000Y-102489000D01*
X137795000Y-102489000D01*
X137795000Y-103848217D01*
X138027026Y-103969358D01*
X138042791Y-103966709D01*
X138570036Y-103712732D01*
X138941539Y-103296931D01*
X139148330Y-103606415D01*
X139634511Y-103931271D01*
X139751593Y-103954560D01*
X139442000Y-103954560D01*
X139206683Y-103998838D01*
X139182594Y-104014339D01*
X139068309Y-103967000D01*
X139000750Y-103967000D01*
X138842000Y-104125750D01*
X138842000Y-104367734D01*
X138794560Y-104602000D01*
X138794560Y-105202000D01*
X138838838Y-105437317D01*
X138842000Y-105442231D01*
X138842000Y-105678250D01*
X139000750Y-105837000D01*
X139068309Y-105837000D01*
X139179283Y-105791033D01*
X139190110Y-105798431D01*
X139442000Y-105849440D01*
X139473000Y-105849440D01*
X139473000Y-105980647D01*
X139148330Y-106197585D01*
X138941539Y-106507069D01*
X138570036Y-106091268D01*
X138042791Y-105837291D01*
X138027026Y-105834642D01*
X137795000Y-105955783D01*
X137795000Y-107315000D01*
X137815000Y-107315000D01*
X137815000Y-107569000D01*
X137795000Y-107569000D01*
X137795000Y-108928217D01*
X138027026Y-109049358D01*
X138042791Y-109046709D01*
X138570036Y-108792732D01*
X138941539Y-108376931D01*
X139148330Y-108686415D01*
X139634511Y-109011271D01*
X140208000Y-109125345D01*
X140743000Y-109018927D01*
X140743000Y-110305140D01*
X140727723Y-110282276D01*
X140235440Y-109789994D01*
X140235440Y-109682000D01*
X140191162Y-109446683D01*
X140052090Y-109230559D01*
X139839890Y-109085569D01*
X139588000Y-109034560D01*
X139188000Y-109034560D01*
X138952683Y-109078838D01*
X138928594Y-109094339D01*
X138814309Y-109047000D01*
X138746750Y-109047000D01*
X138588000Y-109205750D01*
X138588000Y-109447734D01*
X138540560Y-109682000D01*
X138540560Y-110282000D01*
X138584838Y-110517317D01*
X138588000Y-110522231D01*
X138588000Y-110758250D01*
X138746750Y-110917000D01*
X138814309Y-110917000D01*
X138925283Y-110871033D01*
X138936110Y-110878431D01*
X139188000Y-110929440D01*
X139295993Y-110929440D01*
X139445545Y-111078992D01*
X139379303Y-111123254D01*
X139303326Y-111138367D01*
X139016210Y-111330210D01*
X138886068Y-111524983D01*
X138570036Y-111171268D01*
X138042791Y-110917291D01*
X138027026Y-110914642D01*
X137795000Y-111035783D01*
X137795000Y-112395000D01*
X137815000Y-112395000D01*
X137815000Y-112649000D01*
X137795000Y-112649000D01*
X137795000Y-114008217D01*
X138027026Y-114129358D01*
X138042791Y-114126709D01*
X138570036Y-113872732D01*
X138941539Y-113456931D01*
X139148330Y-113766415D01*
X139634511Y-114091271D01*
X140208000Y-114205345D01*
X140613959Y-114124595D01*
X140450277Y-114288277D01*
X140290949Y-114526728D01*
X140235000Y-114808000D01*
X140235000Y-115180016D01*
X139890200Y-115036843D01*
X139334439Y-115036358D01*
X138820797Y-115248590D01*
X138427471Y-115641230D01*
X138341151Y-115849112D01*
X138256110Y-115643297D01*
X137863470Y-115249971D01*
X137350200Y-115036843D01*
X136794439Y-115036358D01*
X136685000Y-115081577D01*
X136685000Y-113782114D01*
X136765964Y-113872732D01*
X137293209Y-114126709D01*
X137308974Y-114129358D01*
X137541000Y-114008217D01*
X137541000Y-112649000D01*
X137521000Y-112649000D01*
X137521000Y-112395000D01*
X137541000Y-112395000D01*
X137541000Y-111035783D01*
X137308974Y-110914642D01*
X137293209Y-110917291D01*
X136765964Y-111171268D01*
X136685000Y-111261886D01*
X136685000Y-110267750D01*
X137653000Y-110267750D01*
X137653000Y-110408310D01*
X137749673Y-110641699D01*
X137928302Y-110820327D01*
X138161691Y-110917000D01*
X138229250Y-110917000D01*
X138388000Y-110758250D01*
X138388000Y-110109000D01*
X137811750Y-110109000D01*
X137653000Y-110267750D01*
X136685000Y-110267750D01*
X136685000Y-109555690D01*
X137653000Y-109555690D01*
X137653000Y-109696250D01*
X137811750Y-109855000D01*
X138388000Y-109855000D01*
X138388000Y-109205750D01*
X138229250Y-109047000D01*
X138161691Y-109047000D01*
X137928302Y-109143673D01*
X137749673Y-109322301D01*
X137653000Y-109555690D01*
X136685000Y-109555690D01*
X136685000Y-108702114D01*
X136765964Y-108792732D01*
X137293209Y-109046709D01*
X137308974Y-109049358D01*
X137541000Y-108928217D01*
X137541000Y-107569000D01*
X137521000Y-107569000D01*
X137521000Y-107315000D01*
X137541000Y-107315000D01*
X137541000Y-105955783D01*
X137308974Y-105834642D01*
X137293209Y-105837291D01*
X136765964Y-106091268D01*
X136633245Y-106239812D01*
X136628810Y-106217516D01*
X136617633Y-106161325D01*
X136425790Y-105874210D01*
X136425787Y-105874208D01*
X135739329Y-105187750D01*
X137907000Y-105187750D01*
X137907000Y-105328310D01*
X138003673Y-105561699D01*
X138182302Y-105740327D01*
X138415691Y-105837000D01*
X138483250Y-105837000D01*
X138642000Y-105678250D01*
X138642000Y-105029000D01*
X138065750Y-105029000D01*
X137907000Y-105187750D01*
X135739329Y-105187750D01*
X135027269Y-104475690D01*
X137907000Y-104475690D01*
X137907000Y-104616250D01*
X138065750Y-104775000D01*
X138642000Y-104775000D01*
X138642000Y-104125750D01*
X138483250Y-103967000D01*
X138415691Y-103967000D01*
X138182302Y-104063673D01*
X138003673Y-104242301D01*
X137907000Y-104475690D01*
X135027269Y-104475690D01*
X134397135Y-103845556D01*
X134397242Y-103723339D01*
X134185010Y-103209697D01*
X133792370Y-102816371D01*
X133632772Y-102750100D01*
X133696149Y-102723913D01*
X136182816Y-102723913D01*
X136376046Y-103276320D01*
X136765964Y-103712732D01*
X137293209Y-103966709D01*
X137308974Y-103969358D01*
X137541000Y-103848217D01*
X137541000Y-102489000D01*
X136327076Y-102489000D01*
X136182816Y-102723913D01*
X133696149Y-102723913D01*
X133790303Y-102685010D01*
X134183629Y-102292370D01*
X134304995Y-102000087D01*
X136182816Y-102000087D01*
X136327076Y-102235000D01*
X137541000Y-102235000D01*
X137541000Y-100875783D01*
X137308974Y-100754642D01*
X137293209Y-100757291D01*
X136765964Y-101011268D01*
X136376046Y-101447680D01*
X136182816Y-102000087D01*
X134304995Y-102000087D01*
X134396757Y-101779100D01*
X134397242Y-101223339D01*
X134185010Y-100709697D01*
X133792370Y-100316371D01*
X133289955Y-100107750D01*
X137653000Y-100107750D01*
X137653000Y-100248310D01*
X137749673Y-100481699D01*
X137928302Y-100660327D01*
X138161691Y-100757000D01*
X138229250Y-100757000D01*
X138388000Y-100598250D01*
X138388000Y-99949000D01*
X137811750Y-99949000D01*
X137653000Y-100107750D01*
X133289955Y-100107750D01*
X133279100Y-100103243D01*
X132723339Y-100102758D01*
X132209697Y-100314990D01*
X131816371Y-100707630D01*
X131603243Y-101220900D01*
X131602872Y-101645548D01*
X130583420Y-102665000D01*
X129847038Y-102665000D01*
X129828162Y-102564683D01*
X129689090Y-102348559D01*
X129476890Y-102203569D01*
X129225000Y-102152560D01*
X128150229Y-102152560D01*
X128072000Y-102136999D01*
X128071995Y-102137000D01*
X127244440Y-102137000D01*
X127244440Y-102133000D01*
X127200162Y-101897683D01*
X127061090Y-101681559D01*
X126848890Y-101536569D01*
X126597000Y-101485560D01*
X123803000Y-101485560D01*
X123567683Y-101529838D01*
X123351559Y-101668910D01*
X123206569Y-101881110D01*
X123155560Y-102133000D01*
X123155560Y-103911000D01*
X123199838Y-104146317D01*
X123338910Y-104362441D01*
X123551110Y-104507431D01*
X123803000Y-104558440D01*
X126597000Y-104558440D01*
X126832317Y-104514162D01*
X127048441Y-104375090D01*
X127193431Y-104162890D01*
X127244440Y-103911000D01*
X127244440Y-103907000D01*
X127327560Y-103907000D01*
X127327560Y-104300000D01*
X127371838Y-104535317D01*
X127510910Y-104751441D01*
X127579006Y-104797969D01*
X127436673Y-104940302D01*
X127340000Y-105173691D01*
X127340000Y-105764250D01*
X127498750Y-105923000D01*
X128473000Y-105923000D01*
X128473000Y-105903000D01*
X128727000Y-105903000D01*
X128727000Y-105923000D01*
X129701250Y-105923000D01*
X129860000Y-105764250D01*
X129860000Y-105173691D01*
X129763327Y-104940302D01*
X129622090Y-104799064D01*
X129676441Y-104764090D01*
X129821431Y-104551890D01*
X129845102Y-104435000D01*
X130949995Y-104435000D01*
X130950000Y-104435001D01*
X131251186Y-104375090D01*
X131288675Y-104367633D01*
X131575790Y-104175790D01*
X131602870Y-104148710D01*
X131602758Y-104276661D01*
X131814990Y-104790303D01*
X132024342Y-105000021D01*
X131816371Y-105207630D01*
X131603243Y-105720900D01*
X131602872Y-106145548D01*
X129074210Y-108674210D01*
X128882367Y-108961325D01*
X128882367Y-108961326D01*
X128814999Y-109300000D01*
X128815000Y-109300005D01*
X128815000Y-113699995D01*
X128814999Y-113700000D01*
X128871190Y-113982484D01*
X128882367Y-114038675D01*
X128980432Y-114185440D01*
X129074210Y-114325790D01*
X129824364Y-115075943D01*
X129730200Y-115036843D01*
X129174439Y-115036358D01*
X128660797Y-115248590D01*
X128267471Y-115641230D01*
X128181151Y-115849112D01*
X128096110Y-115643297D01*
X127703470Y-115249971D01*
X127190200Y-115036843D01*
X126634439Y-115036358D01*
X126120797Y-115248590D01*
X125727471Y-115641230D01*
X125514343Y-116154500D01*
X125513858Y-116710261D01*
X125726090Y-117223903D01*
X126078933Y-117577363D01*
X125913783Y-117608438D01*
X125697659Y-117747510D01*
X125552669Y-117959710D01*
X125501660Y-118211600D01*
X125501660Y-119480054D01*
X123807255Y-117785649D01*
X122301000Y-113768970D01*
X122301000Y-106863750D01*
X123168000Y-106863750D01*
X123168000Y-107593309D01*
X123264673Y-107826698D01*
X123443301Y-108005327D01*
X123676690Y-108102000D01*
X124914250Y-108102000D01*
X125073000Y-107943250D01*
X125073000Y-106705000D01*
X125327000Y-106705000D01*
X125327000Y-107943250D01*
X125485750Y-108102000D01*
X126723310Y-108102000D01*
X126956699Y-108005327D01*
X127135327Y-107826698D01*
X127232000Y-107593309D01*
X127232000Y-106863750D01*
X127073250Y-106705000D01*
X125327000Y-106705000D01*
X125073000Y-106705000D01*
X123326750Y-106705000D01*
X123168000Y-106863750D01*
X122301000Y-106863750D01*
X122301000Y-105562691D01*
X123168000Y-105562691D01*
X123168000Y-106292250D01*
X123326750Y-106451000D01*
X125073000Y-106451000D01*
X125073000Y-105212750D01*
X125327000Y-105212750D01*
X125327000Y-106451000D01*
X127073250Y-106451000D01*
X127188500Y-106335750D01*
X127340000Y-106335750D01*
X127340000Y-106926309D01*
X127436673Y-107159698D01*
X127615301Y-107338327D01*
X127848690Y-107435000D01*
X128314250Y-107435000D01*
X128473000Y-107276250D01*
X128473000Y-106177000D01*
X128727000Y-106177000D01*
X128727000Y-107276250D01*
X128885750Y-107435000D01*
X129351310Y-107435000D01*
X129584699Y-107338327D01*
X129763327Y-107159698D01*
X129860000Y-106926309D01*
X129860000Y-106335750D01*
X129701250Y-106177000D01*
X128727000Y-106177000D01*
X128473000Y-106177000D01*
X127498750Y-106177000D01*
X127340000Y-106335750D01*
X127188500Y-106335750D01*
X127232000Y-106292250D01*
X127232000Y-105562691D01*
X127135327Y-105329302D01*
X126956699Y-105150673D01*
X126723310Y-105054000D01*
X125485750Y-105054000D01*
X125327000Y-105212750D01*
X125073000Y-105212750D01*
X124914250Y-105054000D01*
X123676690Y-105054000D01*
X123443301Y-105150673D01*
X123264673Y-105329302D01*
X123168000Y-105562691D01*
X122301000Y-105562691D01*
X122301000Y-99395690D01*
X137653000Y-99395690D01*
X137653000Y-99536250D01*
X137811750Y-99695000D01*
X138388000Y-99695000D01*
X138388000Y-99045750D01*
X138229250Y-98887000D01*
X138161691Y-98887000D01*
X137928302Y-98983673D01*
X137749673Y-99162301D01*
X137653000Y-99395690D01*
X122301000Y-99395690D01*
X122301000Y-95786389D01*
X124304001Y-91530011D01*
X125514278Y-90829324D01*
X125513858Y-91310261D01*
X125513858Y-91310261D01*
G37*
X125513858Y-91310261D02*
X125726090Y-91823903D01*
X126078933Y-92177363D01*
X125913783Y-92208438D01*
X125697659Y-92347510D01*
X125552669Y-92559710D01*
X125501660Y-92811600D01*
X125501660Y-94335600D01*
X125545938Y-94570917D01*
X125685010Y-94787041D01*
X125897210Y-94932031D01*
X126149100Y-94983040D01*
X127673100Y-94983040D01*
X127908417Y-94938762D01*
X128124541Y-94799690D01*
X128269531Y-94587490D01*
X128306592Y-94404476D01*
X128658730Y-94757229D01*
X129172000Y-94970357D01*
X129727761Y-94970842D01*
X130241403Y-94758610D01*
X130334468Y-94665707D01*
X130283180Y-94789223D01*
X130282821Y-95200971D01*
X130437173Y-95574532D01*
X130338704Y-95640327D01*
X129875894Y-96332971D01*
X129713377Y-97150000D01*
X129875894Y-97967029D01*
X130338704Y-98659673D01*
X131031348Y-99122483D01*
X131848377Y-99285000D01*
X132951623Y-99285000D01*
X133768652Y-99122483D01*
X134461296Y-98659673D01*
X134924106Y-97967029D01*
X134988377Y-97643913D01*
X136182816Y-97643913D01*
X136376046Y-98196320D01*
X136765964Y-98632732D01*
X137293209Y-98886709D01*
X137308974Y-98889358D01*
X137541000Y-98768217D01*
X137541000Y-97409000D01*
X136327076Y-97409000D01*
X136182816Y-97643913D01*
X134988377Y-97643913D01*
X135086623Y-97150000D01*
X134924106Y-96332971D01*
X134691599Y-95985000D01*
X136717956Y-95985000D01*
X136376046Y-96367680D01*
X136182816Y-96920087D01*
X136327076Y-97155000D01*
X137541000Y-97155000D01*
X137541000Y-97135000D01*
X137795000Y-97135000D01*
X137795000Y-97155000D01*
X137815000Y-97155000D01*
X137815000Y-97409000D01*
X137795000Y-97409000D01*
X137795000Y-98768217D01*
X138027026Y-98889358D01*
X138042791Y-98886709D01*
X138570036Y-98632732D01*
X138941539Y-98216931D01*
X139148330Y-98526415D01*
X139634511Y-98851271D01*
X140208000Y-98965345D01*
X140293000Y-98948437D01*
X140293000Y-99180203D01*
X140231569Y-99270110D01*
X140209007Y-99381523D01*
X140191162Y-99286683D01*
X140052090Y-99070559D01*
X139839890Y-98925569D01*
X139588000Y-98874560D01*
X139188000Y-98874560D01*
X138952683Y-98918838D01*
X138928594Y-98934339D01*
X138814309Y-98887000D01*
X138746750Y-98887000D01*
X138588000Y-99045750D01*
X138588000Y-99287734D01*
X138540560Y-99522000D01*
X138540560Y-100122000D01*
X138584838Y-100357317D01*
X138588000Y-100362231D01*
X138588000Y-100598250D01*
X138746750Y-100757000D01*
X138814309Y-100757000D01*
X138925283Y-100711033D01*
X138936110Y-100718431D01*
X139188000Y-100769440D01*
X139295993Y-100769440D01*
X139445545Y-100918992D01*
X139148330Y-101117585D01*
X138941539Y-101427069D01*
X138570036Y-101011268D01*
X138042791Y-100757291D01*
X138027026Y-100754642D01*
X137795000Y-100875783D01*
X137795000Y-102235000D01*
X137815000Y-102235000D01*
X137815000Y-102489000D01*
X137795000Y-102489000D01*
X137795000Y-103848217D01*
X138027026Y-103969358D01*
X138042791Y-103966709D01*
X138570036Y-103712732D01*
X138941539Y-103296931D01*
X139148330Y-103606415D01*
X139634511Y-103931271D01*
X139751593Y-103954560D01*
X139442000Y-103954560D01*
X139206683Y-103998838D01*
X139182594Y-104014339D01*
X139068309Y-103967000D01*
X139000750Y-103967000D01*
X138842000Y-104125750D01*
X138842000Y-104367734D01*
X138794560Y-104602000D01*
X138794560Y-105202000D01*
X138838838Y-105437317D01*
X138842000Y-105442231D01*
X138842000Y-105678250D01*
X139000750Y-105837000D01*
X139068309Y-105837000D01*
X139179283Y-105791033D01*
X139190110Y-105798431D01*
X139442000Y-105849440D01*
X139473000Y-105849440D01*
X139473000Y-105980647D01*
X139148330Y-106197585D01*
X138941539Y-106507069D01*
X138570036Y-106091268D01*
X138042791Y-105837291D01*
X138027026Y-105834642D01*
X137795000Y-105955783D01*
X137795000Y-107315000D01*
X137815000Y-107315000D01*
X137815000Y-107569000D01*
X137795000Y-107569000D01*
X137795000Y-108928217D01*
X138027026Y-109049358D01*
X138042791Y-109046709D01*
X138570036Y-108792732D01*
X138941539Y-108376931D01*
X139148330Y-108686415D01*
X139634511Y-109011271D01*
X140208000Y-109125345D01*
X140743000Y-109018927D01*
X140743000Y-110305140D01*
X140727723Y-110282276D01*
X140235440Y-109789994D01*
X140235440Y-109682000D01*
X140191162Y-109446683D01*
X140052090Y-109230559D01*
X139839890Y-109085569D01*
X139588000Y-109034560D01*
X139188000Y-109034560D01*
X138952683Y-109078838D01*
X138928594Y-109094339D01*
X138814309Y-109047000D01*
X138746750Y-109047000D01*
X138588000Y-109205750D01*
X138588000Y-109447734D01*
X138540560Y-109682000D01*
X138540560Y-110282000D01*
X138584838Y-110517317D01*
X138588000Y-110522231D01*
X138588000Y-110758250D01*
X138746750Y-110917000D01*
X138814309Y-110917000D01*
X138925283Y-110871033D01*
X138936110Y-110878431D01*
X139188000Y-110929440D01*
X139295993Y-110929440D01*
X139445545Y-111078992D01*
X139379303Y-111123254D01*
X139303326Y-111138367D01*
X139016210Y-111330210D01*
X138886068Y-111524983D01*
X138570036Y-111171268D01*
X138042791Y-110917291D01*
X138027026Y-110914642D01*
X137795000Y-111035783D01*
X137795000Y-112395000D01*
X137815000Y-112395000D01*
X137815000Y-112649000D01*
X137795000Y-112649000D01*
X137795000Y-114008217D01*
X138027026Y-114129358D01*
X138042791Y-114126709D01*
X138570036Y-113872732D01*
X138941539Y-113456931D01*
X139148330Y-113766415D01*
X139634511Y-114091271D01*
X140208000Y-114205345D01*
X140613959Y-114124595D01*
X140450277Y-114288277D01*
X140290949Y-114526728D01*
X140235000Y-114808000D01*
X140235000Y-115180016D01*
X139890200Y-115036843D01*
X139334439Y-115036358D01*
X138820797Y-115248590D01*
X138427471Y-115641230D01*
X138341151Y-115849112D01*
X138256110Y-115643297D01*
X137863470Y-115249971D01*
X137350200Y-115036843D01*
X136794439Y-115036358D01*
X136685000Y-115081577D01*
X136685000Y-113782114D01*
X136765964Y-113872732D01*
X137293209Y-114126709D01*
X137308974Y-114129358D01*
X137541000Y-114008217D01*
X137541000Y-112649000D01*
X137521000Y-112649000D01*
X137521000Y-112395000D01*
X137541000Y-112395000D01*
X137541000Y-111035783D01*
X137308974Y-110914642D01*
X137293209Y-110917291D01*
X136765964Y-111171268D01*
X136685000Y-111261886D01*
X136685000Y-110267750D01*
X137653000Y-110267750D01*
X137653000Y-110408310D01*
X137749673Y-110641699D01*
X137928302Y-110820327D01*
X138161691Y-110917000D01*
X138229250Y-110917000D01*
X138388000Y-110758250D01*
X138388000Y-110109000D01*
X137811750Y-110109000D01*
X137653000Y-110267750D01*
X136685000Y-110267750D01*
X136685000Y-109555690D01*
X137653000Y-109555690D01*
X137653000Y-109696250D01*
X137811750Y-109855000D01*
X138388000Y-109855000D01*
X138388000Y-109205750D01*
X138229250Y-109047000D01*
X138161691Y-109047000D01*
X137928302Y-109143673D01*
X137749673Y-109322301D01*
X137653000Y-109555690D01*
X136685000Y-109555690D01*
X136685000Y-108702114D01*
X136765964Y-108792732D01*
X137293209Y-109046709D01*
X137308974Y-109049358D01*
X137541000Y-108928217D01*
X137541000Y-107569000D01*
X137521000Y-107569000D01*
X137521000Y-107315000D01*
X137541000Y-107315000D01*
X137541000Y-105955783D01*
X137308974Y-105834642D01*
X137293209Y-105837291D01*
X136765964Y-106091268D01*
X136633245Y-106239812D01*
X136628810Y-106217516D01*
X136617633Y-106161325D01*
X136425790Y-105874210D01*
X136425787Y-105874208D01*
X135739329Y-105187750D01*
X137907000Y-105187750D01*
X137907000Y-105328310D01*
X138003673Y-105561699D01*
X138182302Y-105740327D01*
X138415691Y-105837000D01*
X138483250Y-105837000D01*
X138642000Y-105678250D01*
X138642000Y-105029000D01*
X138065750Y-105029000D01*
X137907000Y-105187750D01*
X135739329Y-105187750D01*
X135027269Y-104475690D01*
X137907000Y-104475690D01*
X137907000Y-104616250D01*
X138065750Y-104775000D01*
X138642000Y-104775000D01*
X138642000Y-104125750D01*
X138483250Y-103967000D01*
X138415691Y-103967000D01*
X138182302Y-104063673D01*
X138003673Y-104242301D01*
X137907000Y-104475690D01*
X135027269Y-104475690D01*
X134397135Y-103845556D01*
X134397242Y-103723339D01*
X134185010Y-103209697D01*
X133792370Y-102816371D01*
X133632772Y-102750100D01*
X133696149Y-102723913D01*
X136182816Y-102723913D01*
X136376046Y-103276320D01*
X136765964Y-103712732D01*
X137293209Y-103966709D01*
X137308974Y-103969358D01*
X137541000Y-103848217D01*
X137541000Y-102489000D01*
X136327076Y-102489000D01*
X136182816Y-102723913D01*
X133696149Y-102723913D01*
X133790303Y-102685010D01*
X134183629Y-102292370D01*
X134304995Y-102000087D01*
X136182816Y-102000087D01*
X136327076Y-102235000D01*
X137541000Y-102235000D01*
X137541000Y-100875783D01*
X137308974Y-100754642D01*
X137293209Y-100757291D01*
X136765964Y-101011268D01*
X136376046Y-101447680D01*
X136182816Y-102000087D01*
X134304995Y-102000087D01*
X134396757Y-101779100D01*
X134397242Y-101223339D01*
X134185010Y-100709697D01*
X133792370Y-100316371D01*
X133289955Y-100107750D01*
X137653000Y-100107750D01*
X137653000Y-100248310D01*
X137749673Y-100481699D01*
X137928302Y-100660327D01*
X138161691Y-100757000D01*
X138229250Y-100757000D01*
X138388000Y-100598250D01*
X138388000Y-99949000D01*
X137811750Y-99949000D01*
X137653000Y-100107750D01*
X133289955Y-100107750D01*
X133279100Y-100103243D01*
X132723339Y-100102758D01*
X132209697Y-100314990D01*
X131816371Y-100707630D01*
X131603243Y-101220900D01*
X131602872Y-101645548D01*
X130583420Y-102665000D01*
X129847038Y-102665000D01*
X129828162Y-102564683D01*
X129689090Y-102348559D01*
X129476890Y-102203569D01*
X129225000Y-102152560D01*
X128150229Y-102152560D01*
X128072000Y-102136999D01*
X128071995Y-102137000D01*
X127244440Y-102137000D01*
X127244440Y-102133000D01*
X127200162Y-101897683D01*
X127061090Y-101681559D01*
X126848890Y-101536569D01*
X126597000Y-101485560D01*
X123803000Y-101485560D01*
X123567683Y-101529838D01*
X123351559Y-101668910D01*
X123206569Y-101881110D01*
X123155560Y-102133000D01*
X123155560Y-103911000D01*
X123199838Y-104146317D01*
X123338910Y-104362441D01*
X123551110Y-104507431D01*
X123803000Y-104558440D01*
X126597000Y-104558440D01*
X126832317Y-104514162D01*
X127048441Y-104375090D01*
X127193431Y-104162890D01*
X127244440Y-103911000D01*
X127244440Y-103907000D01*
X127327560Y-103907000D01*
X127327560Y-104300000D01*
X127371838Y-104535317D01*
X127510910Y-104751441D01*
X127579006Y-104797969D01*
X127436673Y-104940302D01*
X127340000Y-105173691D01*
X127340000Y-105764250D01*
X127498750Y-105923000D01*
X128473000Y-105923000D01*
X128473000Y-105903000D01*
X128727000Y-105903000D01*
X128727000Y-105923000D01*
X129701250Y-105923000D01*
X129860000Y-105764250D01*
X129860000Y-105173691D01*
X129763327Y-104940302D01*
X129622090Y-104799064D01*
X129676441Y-104764090D01*
X129821431Y-104551890D01*
X129845102Y-104435000D01*
X130949995Y-104435000D01*
X130950000Y-104435001D01*
X131251186Y-104375090D01*
X131288675Y-104367633D01*
X131575790Y-104175790D01*
X131602870Y-104148710D01*
X131602758Y-104276661D01*
X131814990Y-104790303D01*
X132024342Y-105000021D01*
X131816371Y-105207630D01*
X131603243Y-105720900D01*
X131602872Y-106145548D01*
X129074210Y-108674210D01*
X128882367Y-108961325D01*
X128882367Y-108961326D01*
X128814999Y-109300000D01*
X128815000Y-109300005D01*
X128815000Y-113699995D01*
X128814999Y-113700000D01*
X128871190Y-113982484D01*
X128882367Y-114038675D01*
X128980432Y-114185440D01*
X129074210Y-114325790D01*
X129824364Y-115075943D01*
X129730200Y-115036843D01*
X129174439Y-115036358D01*
X128660797Y-115248590D01*
X128267471Y-115641230D01*
X128181151Y-115849112D01*
X128096110Y-115643297D01*
X127703470Y-115249971D01*
X127190200Y-115036843D01*
X126634439Y-115036358D01*
X126120797Y-115248590D01*
X125727471Y-115641230D01*
X125514343Y-116154500D01*
X125513858Y-116710261D01*
X125726090Y-117223903D01*
X126078933Y-117577363D01*
X125913783Y-117608438D01*
X125697659Y-117747510D01*
X125552669Y-117959710D01*
X125501660Y-118211600D01*
X125501660Y-119480054D01*
X123807255Y-117785649D01*
X122301000Y-113768970D01*
X122301000Y-106863750D01*
X123168000Y-106863750D01*
X123168000Y-107593309D01*
X123264673Y-107826698D01*
X123443301Y-108005327D01*
X123676690Y-108102000D01*
X124914250Y-108102000D01*
X125073000Y-107943250D01*
X125073000Y-106705000D01*
X125327000Y-106705000D01*
X125327000Y-107943250D01*
X125485750Y-108102000D01*
X126723310Y-108102000D01*
X126956699Y-108005327D01*
X127135327Y-107826698D01*
X127232000Y-107593309D01*
X127232000Y-106863750D01*
X127073250Y-106705000D01*
X125327000Y-106705000D01*
X125073000Y-106705000D01*
X123326750Y-106705000D01*
X123168000Y-106863750D01*
X122301000Y-106863750D01*
X122301000Y-105562691D01*
X123168000Y-105562691D01*
X123168000Y-106292250D01*
X123326750Y-106451000D01*
X125073000Y-106451000D01*
X125073000Y-105212750D01*
X125327000Y-105212750D01*
X125327000Y-106451000D01*
X127073250Y-106451000D01*
X127188500Y-106335750D01*
X127340000Y-106335750D01*
X127340000Y-106926309D01*
X127436673Y-107159698D01*
X127615301Y-107338327D01*
X127848690Y-107435000D01*
X128314250Y-107435000D01*
X128473000Y-107276250D01*
X128473000Y-106177000D01*
X128727000Y-106177000D01*
X128727000Y-107276250D01*
X128885750Y-107435000D01*
X129351310Y-107435000D01*
X129584699Y-107338327D01*
X129763327Y-107159698D01*
X129860000Y-106926309D01*
X129860000Y-106335750D01*
X129701250Y-106177000D01*
X128727000Y-106177000D01*
X128473000Y-106177000D01*
X127498750Y-106177000D01*
X127340000Y-106335750D01*
X127188500Y-106335750D01*
X127232000Y-106292250D01*
X127232000Y-105562691D01*
X127135327Y-105329302D01*
X126956699Y-105150673D01*
X126723310Y-105054000D01*
X125485750Y-105054000D01*
X125327000Y-105212750D01*
X125073000Y-105212750D01*
X124914250Y-105054000D01*
X123676690Y-105054000D01*
X123443301Y-105150673D01*
X123264673Y-105329302D01*
X123168000Y-105562691D01*
X122301000Y-105562691D01*
X122301000Y-99395690D01*
X137653000Y-99395690D01*
X137653000Y-99536250D01*
X137811750Y-99695000D01*
X138388000Y-99695000D01*
X138388000Y-99045750D01*
X138229250Y-98887000D01*
X138161691Y-98887000D01*
X137928302Y-98983673D01*
X137749673Y-99162301D01*
X137653000Y-99395690D01*
X122301000Y-99395690D01*
X122301000Y-95786389D01*
X124304001Y-91530011D01*
X125514278Y-90829324D01*
X125513858Y-91310261D01*
G36*
X134915000Y-106866579D02*
X134915000Y-112019343D01*
X134461296Y-111340327D01*
X133768652Y-110877517D01*
X132951623Y-110715000D01*
X131848377Y-110715000D01*
X131031348Y-110877517D01*
X130585000Y-111175757D01*
X130585000Y-109666580D01*
X130771366Y-109480213D01*
X132199392Y-109480213D01*
X132268857Y-109722397D01*
X132792302Y-109909144D01*
X133347368Y-109881362D01*
X133731143Y-109722397D01*
X133800608Y-109480213D01*
X133000000Y-108679605D01*
X132199392Y-109480213D01*
X130771366Y-109480213D01*
X131608417Y-108643162D01*
X131618638Y-108847368D01*
X131777603Y-109231143D01*
X132019787Y-109300608D01*
X132820395Y-108500000D01*
X133179605Y-108500000D01*
X133980213Y-109300608D01*
X134222397Y-109231143D01*
X134409144Y-108707698D01*
X134381362Y-108152632D01*
X134222397Y-107768857D01*
X133980213Y-107699392D01*
X133179605Y-108500000D01*
X132820395Y-108500000D01*
X132806253Y-108485858D01*
X132985858Y-108306253D01*
X133000000Y-108320395D01*
X133800608Y-107519787D01*
X133731143Y-107277603D01*
X133642633Y-107246026D01*
X133790303Y-107185010D01*
X134183629Y-106792370D01*
X134376443Y-106328022D01*
X134915000Y-106866579D01*
X134915000Y-106866579D01*
G37*
X134915000Y-106866579D02*
X134915000Y-112019343D01*
X134461296Y-111340327D01*
X133768652Y-110877517D01*
X132951623Y-110715000D01*
X131848377Y-110715000D01*
X131031348Y-110877517D01*
X130585000Y-111175757D01*
X130585000Y-109666580D01*
X130771366Y-109480213D01*
X132199392Y-109480213D01*
X132268857Y-109722397D01*
X132792302Y-109909144D01*
X133347368Y-109881362D01*
X133731143Y-109722397D01*
X133800608Y-109480213D01*
X133000000Y-108679605D01*
X132199392Y-109480213D01*
X130771366Y-109480213D01*
X131608417Y-108643162D01*
X131618638Y-108847368D01*
X131777603Y-109231143D01*
X132019787Y-109300608D01*
X132820395Y-108500000D01*
X133179605Y-108500000D01*
X133980213Y-109300608D01*
X134222397Y-109231143D01*
X134409144Y-108707698D01*
X134381362Y-108152632D01*
X134222397Y-107768857D01*
X133980213Y-107699392D01*
X133179605Y-108500000D01*
X132820395Y-108500000D01*
X132806253Y-108485858D01*
X132985858Y-108306253D01*
X133000000Y-108320395D01*
X133800608Y-107519787D01*
X133731143Y-107277603D01*
X133642633Y-107246026D01*
X133790303Y-107185010D01*
X134183629Y-106792370D01*
X134376443Y-106328022D01*
X134915000Y-106866579D01*
M02*
