G04 #@! TF.FileFunction,Soldermask,Bot*
%FSLAX46Y46*%
G04 Gerber Fmt 4.6, Leading zero omitted, Abs format (unit mm)*
G04 Created by KiCad (PCBNEW 4.0.5+dfsg1-4) date Sun Nov 25 11:48:41 2018*
%MOMM*%
%LPD*%
G01*
G04 APERTURE LIST*
%ADD10C,0.100000*%
%ADD11C,1.574800*%
%ADD12O,4.050800X3.050800*%
%ADD13R,1.574800X1.574800*%
%ADD14R,1.778000X2.082800*%
%ADD15O,1.778000X2.082800*%
%ADD16R,0.450800X0.650800*%
%ADD17R,1.300800X1.550800*%
%ADD18R,2.844800X1.828800*%
G04 APERTURE END LIST*
D10*
D11*
X133000000Y-101500000D03*
X133000000Y-104000000D03*
X133000000Y-106000000D03*
X133000000Y-108500000D03*
D12*
X132400000Y-97150000D03*
X132400000Y-112850000D03*
D11*
X170091100Y-116433600D03*
X170091100Y-118973600D03*
X167551100Y-116433600D03*
X167551100Y-118973600D03*
X165011100Y-116433600D03*
X165011100Y-118973600D03*
X162471100Y-116433600D03*
X162471100Y-118973600D03*
X159931100Y-116433600D03*
X159931100Y-118973600D03*
X157391100Y-116433600D03*
X157391100Y-118973600D03*
X154851100Y-116433600D03*
X154851100Y-118973600D03*
X152311100Y-116433600D03*
X152311100Y-118973600D03*
X149771100Y-116433600D03*
X149771100Y-118973600D03*
X147231100Y-116433600D03*
X147231100Y-118973600D03*
X144691100Y-116433600D03*
X144691100Y-118973600D03*
X142151100Y-116433600D03*
X142151100Y-118973600D03*
X139611100Y-116433600D03*
X139611100Y-118973600D03*
X137071100Y-116433600D03*
X137071100Y-118973600D03*
X134531100Y-116433600D03*
X134531100Y-118973600D03*
X131991100Y-116433600D03*
X131991100Y-118973600D03*
X129451100Y-116433600D03*
X129451100Y-118973600D03*
X126911100Y-116433600D03*
D13*
X126911100Y-118973600D03*
D11*
X170091100Y-91033600D03*
X170091100Y-93573600D03*
X167551100Y-91033600D03*
X167551100Y-93573600D03*
X165011100Y-91033600D03*
X165011100Y-93573600D03*
X162471100Y-91033600D03*
X162471100Y-93573600D03*
X159931100Y-91033600D03*
X159931100Y-93573600D03*
X157391100Y-91033600D03*
X157391100Y-93573600D03*
X154851100Y-91033600D03*
X154851100Y-93573600D03*
X152311100Y-91033600D03*
X152311100Y-93573600D03*
X149771100Y-91033600D03*
X149771100Y-93573600D03*
X147231100Y-91033600D03*
X147231100Y-93573600D03*
X144691100Y-91033600D03*
X144691100Y-93573600D03*
X142151100Y-91033600D03*
X142151100Y-93573600D03*
X139611100Y-91033600D03*
X139611100Y-93573600D03*
X137071100Y-91033600D03*
X137071100Y-93573600D03*
X134531100Y-91033600D03*
X134531100Y-93573600D03*
X131991100Y-91033600D03*
X131991100Y-93573600D03*
X129451100Y-91033600D03*
X129451100Y-93573600D03*
X126911100Y-91033600D03*
D13*
X126911100Y-93573600D03*
D14*
X150368000Y-97282000D03*
D15*
X147828000Y-97282000D03*
X145288000Y-97282000D03*
X142748000Y-97282000D03*
X140208000Y-97282000D03*
X137668000Y-97282000D03*
D14*
X159258000Y-97282000D03*
D15*
X161798000Y-97282000D03*
X164338000Y-97282000D03*
X166878000Y-97282000D03*
X169418000Y-97282000D03*
X171958000Y-97282000D03*
D14*
X150368000Y-102362000D03*
D15*
X147828000Y-102362000D03*
X145288000Y-102362000D03*
X142748000Y-102362000D03*
X140208000Y-102362000D03*
X137668000Y-102362000D03*
D14*
X159258000Y-102362000D03*
D15*
X161798000Y-102362000D03*
X164338000Y-102362000D03*
X166878000Y-102362000D03*
X169418000Y-102362000D03*
X171958000Y-102362000D03*
D14*
X150368000Y-107442000D03*
D15*
X147828000Y-107442000D03*
X145288000Y-107442000D03*
X142748000Y-107442000D03*
X140208000Y-107442000D03*
X137668000Y-107442000D03*
D14*
X159258000Y-107442000D03*
D15*
X161798000Y-107442000D03*
X164338000Y-107442000D03*
X166878000Y-107442000D03*
X169418000Y-107442000D03*
X171958000Y-107442000D03*
D14*
X150368000Y-112522000D03*
D15*
X147828000Y-112522000D03*
X145288000Y-112522000D03*
X142748000Y-112522000D03*
X140208000Y-112522000D03*
X137668000Y-112522000D03*
D14*
X159258000Y-112522000D03*
D15*
X161798000Y-112522000D03*
X164338000Y-112522000D03*
X166878000Y-112522000D03*
X169418000Y-112522000D03*
X171958000Y-112522000D03*
D16*
X141928000Y-99822000D03*
X141028000Y-99822000D03*
X171392000Y-99822000D03*
X170492000Y-99822000D03*
X138488000Y-99822000D03*
X139388000Y-99822000D03*
X167698000Y-99822000D03*
X168598000Y-99822000D03*
X138742000Y-104902000D03*
X139642000Y-104902000D03*
X171392000Y-104902000D03*
X170492000Y-104902000D03*
X138488000Y-109982000D03*
X139388000Y-109982000D03*
X171392000Y-109982000D03*
X170492000Y-109982000D03*
D17*
X128600000Y-103550000D03*
X128600000Y-106050000D03*
D18*
X125200000Y-103022000D03*
X125200000Y-106578000D03*
M02*
