G04 #@! TF.FileFunction,Legend,Top*
%FSLAX46Y46*%
G04 Gerber Fmt 4.6, Leading zero omitted, Abs format (unit mm)*
G04 Created by KiCad (PCBNEW 4.0.5+dfsg1-4) date Sun Nov 25 11:48:41 2018*
%MOMM*%
%LPD*%
G01*
G04 APERTURE LIST*
%ADD10C,0.100000*%
%ADD11C,0.250000*%
%ADD12C,0.190500*%
%ADD13C,0.150000*%
%ADD14C,0.500000*%
%ADD15C,0.097536*%
%ADD16C,0.120000*%
%ADD17C,0.254000*%
%ADD18C,0.198120*%
G04 APERTURE END LIST*
D10*
D11*
X156257143Y-106700000D02*
X156304762Y-106652381D01*
X156352381Y-106700000D01*
X156304762Y-106747619D01*
X156257143Y-106700000D01*
X156352381Y-106700000D01*
X153457143Y-105100000D02*
X153504762Y-105052381D01*
X153552381Y-105100000D01*
X153504762Y-105147619D01*
X153457143Y-105100000D01*
X153552381Y-105100000D01*
X174950381Y-103361904D02*
X174950381Y-103933333D01*
X174950381Y-103647619D02*
X173950381Y-103647619D01*
X174093238Y-103742857D01*
X174188476Y-103838095D01*
X174236095Y-103933333D01*
X173950381Y-102742857D02*
X173950381Y-102647618D01*
X173998000Y-102552380D01*
X174045619Y-102504761D01*
X174140857Y-102457142D01*
X174331333Y-102409523D01*
X174569429Y-102409523D01*
X174759905Y-102457142D01*
X174855143Y-102504761D01*
X174902762Y-102552380D01*
X174950381Y-102647618D01*
X174950381Y-102742857D01*
X174902762Y-102838095D01*
X174855143Y-102885714D01*
X174759905Y-102933333D01*
X174569429Y-102980952D01*
X174331333Y-102980952D01*
X174140857Y-102933333D01*
X174045619Y-102885714D01*
X173998000Y-102838095D01*
X173950381Y-102742857D01*
X174569429Y-101980952D02*
X174569429Y-101219047D01*
X174950381Y-100219047D02*
X174950381Y-100790476D01*
X174950381Y-100504762D02*
X173950381Y-100504762D01*
X174093238Y-100600000D01*
X174188476Y-100695238D01*
X174236095Y-100790476D01*
X174950381Y-99266666D02*
X174950381Y-99838095D01*
X174950381Y-99552381D02*
X173950381Y-99552381D01*
X174093238Y-99647619D01*
X174188476Y-99742857D01*
X174236095Y-99838095D01*
X174378952Y-97202476D02*
X174331333Y-97297714D01*
X174283714Y-97345333D01*
X174188476Y-97392952D01*
X174140857Y-97392952D01*
X174045619Y-97345333D01*
X173998000Y-97297714D01*
X173950381Y-97202476D01*
X173950381Y-97011999D01*
X173998000Y-96916761D01*
X174045619Y-96869142D01*
X174140857Y-96821523D01*
X174188476Y-96821523D01*
X174283714Y-96869142D01*
X174331333Y-96916761D01*
X174378952Y-97011999D01*
X174378952Y-97202476D01*
X174426571Y-97297714D01*
X174474190Y-97345333D01*
X174569429Y-97392952D01*
X174759905Y-97392952D01*
X174855143Y-97345333D01*
X174902762Y-97297714D01*
X174950381Y-97202476D01*
X174950381Y-97011999D01*
X174902762Y-96916761D01*
X174855143Y-96869142D01*
X174759905Y-96821523D01*
X174569429Y-96821523D01*
X174474190Y-96869142D01*
X174426571Y-96916761D01*
X174378952Y-97011999D01*
X174569429Y-96392952D02*
X174569429Y-95631047D01*
X174950381Y-95107238D02*
X174950381Y-94916762D01*
X174902762Y-94821523D01*
X174855143Y-94773904D01*
X174712286Y-94678666D01*
X174521810Y-94631047D01*
X174140857Y-94631047D01*
X174045619Y-94678666D01*
X173998000Y-94726285D01*
X173950381Y-94821523D01*
X173950381Y-95012000D01*
X173998000Y-95107238D01*
X174045619Y-95154857D01*
X174140857Y-95202476D01*
X174378952Y-95202476D01*
X174474190Y-95154857D01*
X174521810Y-95107238D01*
X174569429Y-95012000D01*
X174569429Y-94821523D01*
X174521810Y-94726285D01*
X174474190Y-94678666D01*
X174378952Y-94631047D01*
X174950381Y-109457904D02*
X174950381Y-110029333D01*
X174950381Y-109743619D02*
X173950381Y-109743619D01*
X174093238Y-109838857D01*
X174188476Y-109934095D01*
X174236095Y-110029333D01*
X174045619Y-109076952D02*
X173998000Y-109029333D01*
X173950381Y-108934095D01*
X173950381Y-108695999D01*
X173998000Y-108600761D01*
X174045619Y-108553142D01*
X174140857Y-108505523D01*
X174236095Y-108505523D01*
X174378952Y-108553142D01*
X174950381Y-109124571D01*
X174950381Y-108505523D01*
X174569429Y-108076952D02*
X174569429Y-107315047D01*
X174950381Y-106315047D02*
X174950381Y-106886476D01*
X174950381Y-106600762D02*
X173950381Y-106600762D01*
X174093238Y-106696000D01*
X174188476Y-106791238D01*
X174236095Y-106886476D01*
X173950381Y-105981714D02*
X173950381Y-105362666D01*
X174331333Y-105696000D01*
X174331333Y-105553142D01*
X174378952Y-105457904D01*
X174426571Y-105410285D01*
X174521810Y-105362666D01*
X174759905Y-105362666D01*
X174855143Y-105410285D01*
X174902762Y-105457904D01*
X174950381Y-105553142D01*
X174950381Y-105838857D01*
X174902762Y-105934095D01*
X174855143Y-105981714D01*
X174950381Y-115299904D02*
X174950381Y-115871333D01*
X174950381Y-115585619D02*
X173950381Y-115585619D01*
X174093238Y-115680857D01*
X174188476Y-115776095D01*
X174236095Y-115871333D01*
X174283714Y-114442761D02*
X174950381Y-114442761D01*
X173902762Y-114680857D02*
X174617048Y-114918952D01*
X174617048Y-114299904D01*
X174569429Y-113918952D02*
X174569429Y-113157047D01*
X174950381Y-112157047D02*
X174950381Y-112728476D01*
X174950381Y-112442762D02*
X173950381Y-112442762D01*
X174093238Y-112538000D01*
X174188476Y-112633238D01*
X174236095Y-112728476D01*
X173950381Y-111252285D02*
X173950381Y-111728476D01*
X174426571Y-111776095D01*
X174378952Y-111728476D01*
X174331333Y-111633238D01*
X174331333Y-111395142D01*
X174378952Y-111299904D01*
X174426571Y-111252285D01*
X174521810Y-111204666D01*
X174759905Y-111204666D01*
X174855143Y-111252285D01*
X174902762Y-111299904D01*
X174950381Y-111395142D01*
X174950381Y-111633238D01*
X174902762Y-111728476D01*
X174855143Y-111776095D01*
X152360381Y-113426761D02*
X152360381Y-113617238D01*
X152408000Y-113712476D01*
X152455619Y-113760095D01*
X152598476Y-113855333D01*
X152788952Y-113902952D01*
X153169905Y-113902952D01*
X153265143Y-113855333D01*
X153312762Y-113807714D01*
X153360381Y-113712476D01*
X153360381Y-113521999D01*
X153312762Y-113426761D01*
X153265143Y-113379142D01*
X153169905Y-113331523D01*
X152931810Y-113331523D01*
X152836571Y-113379142D01*
X152788952Y-113426761D01*
X152741333Y-113521999D01*
X152741333Y-113712476D01*
X152788952Y-113807714D01*
X152836571Y-113855333D01*
X152931810Y-113902952D01*
X152979429Y-112902952D02*
X152979429Y-112141047D01*
X152360381Y-111760095D02*
X152360381Y-111093428D01*
X153360381Y-111522000D01*
X152693714Y-108346761D02*
X153360381Y-108346761D01*
X152312762Y-108584857D02*
X153027048Y-108822952D01*
X153027048Y-108203904D01*
X152979429Y-107822952D02*
X152979429Y-107061047D01*
X152360381Y-106108666D02*
X152360381Y-106584857D01*
X152836571Y-106632476D01*
X152788952Y-106584857D01*
X152741333Y-106489619D01*
X152741333Y-106251523D01*
X152788952Y-106156285D01*
X152836571Y-106108666D01*
X152931810Y-106061047D01*
X153169905Y-106061047D01*
X153265143Y-106108666D01*
X153312762Y-106156285D01*
X153360381Y-106251523D01*
X153360381Y-106489619D01*
X153312762Y-106584857D01*
X153265143Y-106632476D01*
X152455619Y-103742952D02*
X152408000Y-103695333D01*
X152360381Y-103600095D01*
X152360381Y-103361999D01*
X152408000Y-103266761D01*
X152455619Y-103219142D01*
X152550857Y-103171523D01*
X152646095Y-103171523D01*
X152788952Y-103219142D01*
X153360381Y-103790571D01*
X153360381Y-103171523D01*
X152979429Y-102742952D02*
X152979429Y-101981047D01*
X152360381Y-101600095D02*
X152360381Y-100981047D01*
X152741333Y-101314381D01*
X152741333Y-101171523D01*
X152788952Y-101076285D01*
X152836571Y-101028666D01*
X152931810Y-100981047D01*
X153169905Y-100981047D01*
X153265143Y-101028666D01*
X153312762Y-101076285D01*
X153360381Y-101171523D01*
X153360381Y-101457238D01*
X153312762Y-101552476D01*
X153265143Y-101600095D01*
X152360381Y-98424857D02*
X152360381Y-98329618D01*
X152408000Y-98234380D01*
X152455619Y-98186761D01*
X152550857Y-98139142D01*
X152741333Y-98091523D01*
X152979429Y-98091523D01*
X153169905Y-98139142D01*
X153265143Y-98186761D01*
X153312762Y-98234380D01*
X153360381Y-98329618D01*
X153360381Y-98424857D01*
X153312762Y-98520095D01*
X153265143Y-98567714D01*
X153169905Y-98615333D01*
X152979429Y-98662952D01*
X152741333Y-98662952D01*
X152550857Y-98615333D01*
X152455619Y-98567714D01*
X152408000Y-98520095D01*
X152360381Y-98424857D01*
X152979429Y-97662952D02*
X152979429Y-96901047D01*
X153360381Y-95901047D02*
X153360381Y-96472476D01*
X153360381Y-96186762D02*
X152360381Y-96186762D01*
X152503238Y-96282000D01*
X152598476Y-96377238D01*
X152646095Y-96472476D01*
D12*
X140724503Y-88565571D02*
X140896860Y-88623024D01*
X140954312Y-88680476D01*
X141011764Y-88795381D01*
X141011764Y-88967738D01*
X140954312Y-89082643D01*
X140896860Y-89140095D01*
X140781955Y-89197548D01*
X140322336Y-89197548D01*
X140322336Y-87991048D01*
X140724503Y-87991048D01*
X140839407Y-88048500D01*
X140896860Y-88105952D01*
X140954312Y-88220857D01*
X140954312Y-88335762D01*
X140896860Y-88450667D01*
X140839407Y-88508119D01*
X140724503Y-88565571D01*
X140322336Y-88565571D01*
X141988455Y-89140095D02*
X141873550Y-89197548D01*
X141643741Y-89197548D01*
X141528836Y-89140095D01*
X141471384Y-89025190D01*
X141471384Y-88565571D01*
X141528836Y-88450667D01*
X141643741Y-88393214D01*
X141873550Y-88393214D01*
X141988455Y-88450667D01*
X142045907Y-88565571D01*
X142045907Y-88680476D01*
X141471384Y-88795381D01*
X143080050Y-89197548D02*
X143080050Y-88565571D01*
X143022598Y-88450667D01*
X142907693Y-88393214D01*
X142677884Y-88393214D01*
X142562979Y-88450667D01*
X143080050Y-89140095D02*
X142965146Y-89197548D01*
X142677884Y-89197548D01*
X142562979Y-89140095D01*
X142505527Y-89025190D01*
X142505527Y-88910286D01*
X142562979Y-88795381D01*
X142677884Y-88737929D01*
X142965146Y-88737929D01*
X143080050Y-88680476D01*
X144171645Y-88393214D02*
X144171645Y-89369905D01*
X144114193Y-89484810D01*
X144056741Y-89542262D01*
X143941836Y-89599714D01*
X143769479Y-89599714D01*
X143654574Y-89542262D01*
X144171645Y-89140095D02*
X144056741Y-89197548D01*
X143826931Y-89197548D01*
X143712026Y-89140095D01*
X143654574Y-89082643D01*
X143597122Y-88967738D01*
X143597122Y-88623024D01*
X143654574Y-88508119D01*
X143712026Y-88450667D01*
X143826931Y-88393214D01*
X144056741Y-88393214D01*
X144171645Y-88450667D01*
X144918526Y-89197548D02*
X144803621Y-89140095D01*
X144746169Y-89025190D01*
X144746169Y-87991048D01*
X145837764Y-89140095D02*
X145722859Y-89197548D01*
X145493050Y-89197548D01*
X145378145Y-89140095D01*
X145320693Y-89025190D01*
X145320693Y-88565571D01*
X145378145Y-88450667D01*
X145493050Y-88393214D01*
X145722859Y-88393214D01*
X145837764Y-88450667D01*
X145895216Y-88565571D01*
X145895216Y-88680476D01*
X145320693Y-88795381D01*
X146412288Y-89197548D02*
X146412288Y-87991048D01*
X146814455Y-88852833D01*
X147216621Y-87991048D01*
X147216621Y-89197548D01*
X147791145Y-89197548D02*
X147791145Y-88393214D01*
X147791145Y-87991048D02*
X147733693Y-88048500D01*
X147791145Y-88105952D01*
X147848597Y-88048500D01*
X147791145Y-87991048D01*
X147791145Y-88105952D01*
X148882740Y-89140095D02*
X148767836Y-89197548D01*
X148538026Y-89197548D01*
X148423121Y-89140095D01*
X148365669Y-89082643D01*
X148308217Y-88967738D01*
X148308217Y-88623024D01*
X148365669Y-88508119D01*
X148423121Y-88450667D01*
X148538026Y-88393214D01*
X148767836Y-88393214D01*
X148882740Y-88450667D01*
X151008478Y-89197548D02*
X150606312Y-88623024D01*
X150319050Y-89197548D02*
X150319050Y-87991048D01*
X150778669Y-87991048D01*
X150893574Y-88048500D01*
X150951026Y-88105952D01*
X151008478Y-88220857D01*
X151008478Y-88393214D01*
X150951026Y-88508119D01*
X150893574Y-88565571D01*
X150778669Y-88623024D01*
X150319050Y-88623024D01*
X151985169Y-89140095D02*
X151870264Y-89197548D01*
X151640455Y-89197548D01*
X151525550Y-89140095D01*
X151468098Y-89025190D01*
X151468098Y-88565571D01*
X151525550Y-88450667D01*
X151640455Y-88393214D01*
X151870264Y-88393214D01*
X151985169Y-88450667D01*
X152042621Y-88565571D01*
X152042621Y-88680476D01*
X151468098Y-88795381D01*
X152444788Y-88393214D02*
X152732050Y-89197548D01*
X153019312Y-88393214D01*
X155030145Y-89197548D02*
X154340717Y-89197548D01*
X154685431Y-89197548D02*
X154685431Y-87991048D01*
X154570526Y-88163405D01*
X154455621Y-88278310D01*
X154340717Y-88335762D01*
X155547217Y-89082643D02*
X155604669Y-89140095D01*
X155547217Y-89197548D01*
X155489765Y-89140095D01*
X155547217Y-89082643D01*
X155547217Y-89197548D01*
X156351550Y-87991048D02*
X156466455Y-87991048D01*
X156581360Y-88048500D01*
X156638812Y-88105952D01*
X156696265Y-88220857D01*
X156753717Y-88450667D01*
X156753717Y-88737929D01*
X156696265Y-88967738D01*
X156638812Y-89082643D01*
X156581360Y-89140095D01*
X156466455Y-89197548D01*
X156351550Y-89197548D01*
X156236646Y-89140095D01*
X156179193Y-89082643D01*
X156121741Y-88967738D01*
X156064289Y-88737929D01*
X156064289Y-88450667D01*
X156121741Y-88220857D01*
X156179193Y-88105952D01*
X156236646Y-88048500D01*
X156351550Y-87991048D01*
X133600410Y-120975971D02*
X133772767Y-121033424D01*
X133830219Y-121090876D01*
X133887671Y-121205781D01*
X133887671Y-121378138D01*
X133830219Y-121493043D01*
X133772767Y-121550495D01*
X133657862Y-121607948D01*
X133198243Y-121607948D01*
X133198243Y-120401448D01*
X133600410Y-120401448D01*
X133715314Y-120458900D01*
X133772767Y-120516352D01*
X133830219Y-120631257D01*
X133830219Y-120746162D01*
X133772767Y-120861067D01*
X133715314Y-120918519D01*
X133600410Y-120975971D01*
X133198243Y-120975971D01*
X134921814Y-121607948D02*
X134921814Y-120975971D01*
X134864362Y-120861067D01*
X134749457Y-120803614D01*
X134519648Y-120803614D01*
X134404743Y-120861067D01*
X134921814Y-121550495D02*
X134806910Y-121607948D01*
X134519648Y-121607948D01*
X134404743Y-121550495D01*
X134347291Y-121435590D01*
X134347291Y-121320686D01*
X134404743Y-121205781D01*
X134519648Y-121148329D01*
X134806910Y-121148329D01*
X134921814Y-121090876D01*
X135438886Y-121550495D02*
X135553790Y-121607948D01*
X135783600Y-121607948D01*
X135898505Y-121550495D01*
X135955957Y-121435590D01*
X135955957Y-121378138D01*
X135898505Y-121263233D01*
X135783600Y-121205781D01*
X135611243Y-121205781D01*
X135496338Y-121148329D01*
X135438886Y-121033424D01*
X135438886Y-120975971D01*
X135496338Y-120861067D01*
X135611243Y-120803614D01*
X135783600Y-120803614D01*
X135898505Y-120861067D01*
X136932647Y-121550495D02*
X136817742Y-121607948D01*
X136587933Y-121607948D01*
X136473028Y-121550495D01*
X136415576Y-121435590D01*
X136415576Y-120975971D01*
X136473028Y-120861067D01*
X136587933Y-120803614D01*
X136817742Y-120803614D01*
X136932647Y-120861067D01*
X136990099Y-120975971D01*
X136990099Y-121090876D01*
X136415576Y-121205781D01*
X138024242Y-121607948D02*
X138024242Y-120401448D01*
X138024242Y-121550495D02*
X137909338Y-121607948D01*
X137679528Y-121607948D01*
X137564623Y-121550495D01*
X137507171Y-121493043D01*
X137449719Y-121378138D01*
X137449719Y-121033424D01*
X137507171Y-120918519D01*
X137564623Y-120861067D01*
X137679528Y-120803614D01*
X137909338Y-120803614D01*
X138024242Y-120861067D01*
X139690361Y-121607948D02*
X139575456Y-121550495D01*
X139518004Y-121493043D01*
X139460552Y-121378138D01*
X139460552Y-121033424D01*
X139518004Y-120918519D01*
X139575456Y-120861067D01*
X139690361Y-120803614D01*
X139862718Y-120803614D01*
X139977623Y-120861067D01*
X140035075Y-120918519D01*
X140092528Y-121033424D01*
X140092528Y-121378138D01*
X140035075Y-121493043D01*
X139977623Y-121550495D01*
X139862718Y-121607948D01*
X139690361Y-121607948D01*
X140609599Y-120803614D02*
X140609599Y-121607948D01*
X140609599Y-120918519D02*
X140667051Y-120861067D01*
X140781956Y-120803614D01*
X140954313Y-120803614D01*
X141069218Y-120861067D01*
X141126670Y-120975971D01*
X141126670Y-121607948D01*
X142620432Y-121607948D02*
X142620432Y-120401448D01*
X142620432Y-120861067D02*
X142735337Y-120803614D01*
X142965146Y-120803614D01*
X143080051Y-120861067D01*
X143137503Y-120918519D01*
X143194956Y-121033424D01*
X143194956Y-121378138D01*
X143137503Y-121493043D01*
X143080051Y-121550495D01*
X142965146Y-121607948D01*
X142735337Y-121607948D01*
X142620432Y-121550495D01*
X144171646Y-121550495D02*
X144056741Y-121607948D01*
X143826932Y-121607948D01*
X143712027Y-121550495D01*
X143654575Y-121435590D01*
X143654575Y-120975971D01*
X143712027Y-120861067D01*
X143826932Y-120803614D01*
X144056741Y-120803614D01*
X144171646Y-120861067D01*
X144229098Y-120975971D01*
X144229098Y-121090876D01*
X143654575Y-121205781D01*
X145263241Y-121607948D02*
X145263241Y-120975971D01*
X145205789Y-120861067D01*
X145090884Y-120803614D01*
X144861075Y-120803614D01*
X144746170Y-120861067D01*
X145263241Y-121550495D02*
X145148337Y-121607948D01*
X144861075Y-121607948D01*
X144746170Y-121550495D01*
X144688718Y-121435590D01*
X144688718Y-121320686D01*
X144746170Y-121205781D01*
X144861075Y-121148329D01*
X145148337Y-121148329D01*
X145263241Y-121090876D01*
X146354836Y-120803614D02*
X146354836Y-121780305D01*
X146297384Y-121895210D01*
X146239932Y-121952662D01*
X146125027Y-122010114D01*
X145952670Y-122010114D01*
X145837765Y-121952662D01*
X146354836Y-121550495D02*
X146239932Y-121607948D01*
X146010122Y-121607948D01*
X145895217Y-121550495D01*
X145837765Y-121493043D01*
X145780313Y-121378138D01*
X145780313Y-121033424D01*
X145837765Y-120918519D01*
X145895217Y-120861067D01*
X146010122Y-120803614D01*
X146239932Y-120803614D01*
X146354836Y-120861067D01*
X147101717Y-121607948D02*
X146986812Y-121550495D01*
X146929360Y-121435590D01*
X146929360Y-120401448D01*
X148020955Y-121550495D02*
X147906050Y-121607948D01*
X147676241Y-121607948D01*
X147561336Y-121550495D01*
X147503884Y-121435590D01*
X147503884Y-120975971D01*
X147561336Y-120861067D01*
X147676241Y-120803614D01*
X147906050Y-120803614D01*
X148020955Y-120861067D01*
X148078407Y-120975971D01*
X148078407Y-121090876D01*
X147503884Y-121205781D01*
X148595479Y-121607948D02*
X148595479Y-120401448D01*
X148595479Y-120861067D02*
X148710384Y-120803614D01*
X148940193Y-120803614D01*
X149055098Y-120861067D01*
X149112550Y-120918519D01*
X149170003Y-121033424D01*
X149170003Y-121378138D01*
X149112550Y-121493043D01*
X149055098Y-121550495D01*
X148940193Y-121607948D01*
X148710384Y-121607948D01*
X148595479Y-121550495D01*
X149859431Y-121607948D02*
X149744526Y-121550495D01*
X149687074Y-121493043D01*
X149629622Y-121378138D01*
X149629622Y-121033424D01*
X149687074Y-120918519D01*
X149744526Y-120861067D01*
X149859431Y-120803614D01*
X150031788Y-120803614D01*
X150146693Y-120861067D01*
X150204145Y-120918519D01*
X150261598Y-121033424D01*
X150261598Y-121378138D01*
X150204145Y-121493043D01*
X150146693Y-121550495D01*
X150031788Y-121607948D01*
X149859431Y-121607948D01*
X151295740Y-121607948D02*
X151295740Y-120975971D01*
X151238288Y-120861067D01*
X151123383Y-120803614D01*
X150893574Y-120803614D01*
X150778669Y-120861067D01*
X151295740Y-121550495D02*
X151180836Y-121607948D01*
X150893574Y-121607948D01*
X150778669Y-121550495D01*
X150721217Y-121435590D01*
X150721217Y-121320686D01*
X150778669Y-121205781D01*
X150893574Y-121148329D01*
X151180836Y-121148329D01*
X151295740Y-121090876D01*
X151870264Y-121607948D02*
X151870264Y-120803614D01*
X151870264Y-121033424D02*
X151927716Y-120918519D01*
X151985169Y-120861067D01*
X152100073Y-120803614D01*
X152214978Y-120803614D01*
X153134216Y-121607948D02*
X153134216Y-120401448D01*
X153134216Y-121550495D02*
X153019312Y-121607948D01*
X152789502Y-121607948D01*
X152674597Y-121550495D01*
X152617145Y-121493043D01*
X152559693Y-121378138D01*
X152559693Y-121033424D01*
X152617145Y-120918519D01*
X152674597Y-120861067D01*
X152789502Y-120803614D01*
X153019312Y-120803614D01*
X153134216Y-120861067D01*
X153708740Y-121493043D02*
X153766192Y-121550495D01*
X153708740Y-121607948D01*
X153651288Y-121550495D01*
X153708740Y-121493043D01*
X153708740Y-121607948D01*
X154455621Y-121607948D02*
X154340716Y-121550495D01*
X154283264Y-121493043D01*
X154225812Y-121378138D01*
X154225812Y-121033424D01*
X154283264Y-120918519D01*
X154340716Y-120861067D01*
X154455621Y-120803614D01*
X154627978Y-120803614D01*
X154742883Y-120861067D01*
X154800335Y-120918519D01*
X154857788Y-121033424D01*
X154857788Y-121378138D01*
X154800335Y-121493043D01*
X154742883Y-121550495D01*
X154627978Y-121607948D01*
X154455621Y-121607948D01*
X155374859Y-121607948D02*
X155374859Y-120803614D01*
X155374859Y-121033424D02*
X155432311Y-120918519D01*
X155489764Y-120861067D01*
X155604668Y-120803614D01*
X155719573Y-120803614D01*
X156638811Y-120803614D02*
X156638811Y-121780305D01*
X156581359Y-121895210D01*
X156523907Y-121952662D01*
X156409002Y-122010114D01*
X156236645Y-122010114D01*
X156121740Y-121952662D01*
X156638811Y-121550495D02*
X156523907Y-121607948D01*
X156294097Y-121607948D01*
X156179192Y-121550495D01*
X156121740Y-121493043D01*
X156064288Y-121378138D01*
X156064288Y-121033424D01*
X156121740Y-120918519D01*
X156179192Y-120861067D01*
X156294097Y-120803614D01*
X156523907Y-120803614D01*
X156638811Y-120861067D01*
X158075121Y-120343995D02*
X157040978Y-121895210D01*
X158477287Y-120803614D02*
X158477287Y-122010114D01*
X158477287Y-120861067D02*
X158592192Y-120803614D01*
X158822001Y-120803614D01*
X158936906Y-120861067D01*
X158994358Y-120918519D01*
X159051811Y-121033424D01*
X159051811Y-121378138D01*
X158994358Y-121493043D01*
X158936906Y-121550495D01*
X158822001Y-121607948D01*
X158592192Y-121607948D01*
X158477287Y-121550495D01*
X159741239Y-121607948D02*
X159626334Y-121550495D01*
X159568882Y-121493043D01*
X159511430Y-121378138D01*
X159511430Y-121033424D01*
X159568882Y-120918519D01*
X159626334Y-120861067D01*
X159741239Y-120803614D01*
X159913596Y-120803614D01*
X160028501Y-120861067D01*
X160085953Y-120918519D01*
X160143406Y-121033424D01*
X160143406Y-121378138D01*
X160085953Y-121493043D01*
X160028501Y-121550495D01*
X159913596Y-121607948D01*
X159741239Y-121607948D01*
X161177548Y-121550495D02*
X161062644Y-121607948D01*
X160832834Y-121607948D01*
X160717929Y-121550495D01*
X160660477Y-121493043D01*
X160603025Y-121378138D01*
X160603025Y-121033424D01*
X160660477Y-120918519D01*
X160717929Y-120861067D01*
X160832834Y-120803614D01*
X161062644Y-120803614D01*
X161177548Y-120861067D01*
X161694620Y-121607948D02*
X161694620Y-120401448D01*
X161809525Y-121148329D02*
X162154239Y-121607948D01*
X162154239Y-120803614D02*
X161694620Y-121263233D01*
X163130929Y-121550495D02*
X163016024Y-121607948D01*
X162786215Y-121607948D01*
X162671310Y-121550495D01*
X162613858Y-121435590D01*
X162613858Y-120975971D01*
X162671310Y-120861067D01*
X162786215Y-120803614D01*
X163016024Y-120803614D01*
X163130929Y-120861067D01*
X163188381Y-120975971D01*
X163188381Y-121090876D01*
X162613858Y-121205781D01*
X163533096Y-120803614D02*
X163992715Y-120803614D01*
X163705453Y-120401448D02*
X163705453Y-121435590D01*
X163762905Y-121550495D01*
X163877810Y-121607948D01*
X163992715Y-121607948D01*
D13*
X138349300Y-115493200D02*
X138349300Y-120141400D01*
X138349300Y-94385800D02*
X138349300Y-89737600D01*
X151049300Y-115493200D02*
X151049300Y-120141400D01*
X163749300Y-115493200D02*
X163749300Y-120141400D01*
X151049300Y-94385800D02*
X151049300Y-89737600D01*
X163749300Y-94385800D02*
X163749300Y-89737600D01*
X125573100Y-113994600D02*
X126335100Y-113994600D01*
X127859100Y-113994600D02*
X128621100Y-113994600D01*
X123287100Y-113994600D02*
X124049100Y-113994600D01*
X130145100Y-113994600D02*
X130907100Y-113994600D01*
D14*
X153946703Y-115645600D02*
G75*
G03X153946703Y-115645600I-179603J0D01*
G01*
D15*
X127170617Y-120825990D02*
X126729383Y-120825990D01*
X126950000Y-120825990D02*
X126950000Y-120053830D01*
X126876461Y-120164139D01*
X126802922Y-120237678D01*
X126729383Y-120274448D01*
X126749483Y-89139370D02*
X126786253Y-89102600D01*
X126859792Y-89065830D01*
X127043639Y-89065830D01*
X127117178Y-89102600D01*
X127153948Y-89139370D01*
X127190717Y-89212909D01*
X127190717Y-89286448D01*
X127153948Y-89396756D01*
X126712714Y-89837990D01*
X127190717Y-89837990D01*
X171153909Y-90636150D02*
X171631912Y-90636150D01*
X171374526Y-90930307D01*
X171484834Y-90930307D01*
X171558373Y-90967076D01*
X171595143Y-91003846D01*
X171631912Y-91077385D01*
X171631912Y-91261232D01*
X171595143Y-91334771D01*
X171558373Y-91371541D01*
X171484834Y-91408310D01*
X171264217Y-91408310D01*
X171190678Y-91371541D01*
X171153909Y-91334771D01*
X172293763Y-90636150D02*
X172146685Y-90636150D01*
X172073146Y-90672920D01*
X172036377Y-90709690D01*
X171962838Y-90819998D01*
X171926068Y-90967076D01*
X171926068Y-91261232D01*
X171962838Y-91334771D01*
X171999607Y-91371541D01*
X172073146Y-91408310D01*
X172220224Y-91408310D01*
X172293763Y-91371541D01*
X172330533Y-91334771D01*
X172367302Y-91261232D01*
X172367302Y-91077385D01*
X172330533Y-91003846D01*
X172293763Y-90967076D01*
X172220224Y-90930307D01*
X172073146Y-90930307D01*
X171999607Y-90967076D01*
X171962838Y-91003846D01*
X171926068Y-91077385D01*
X171357109Y-118576150D02*
X171835112Y-118576150D01*
X171577726Y-118870307D01*
X171688034Y-118870307D01*
X171761573Y-118907076D01*
X171798343Y-118943846D01*
X171835112Y-119017385D01*
X171835112Y-119201232D01*
X171798343Y-119274771D01*
X171761573Y-119311541D01*
X171688034Y-119348310D01*
X171467417Y-119348310D01*
X171393878Y-119311541D01*
X171357109Y-119274771D01*
X172533733Y-118576150D02*
X172166038Y-118576150D01*
X172129268Y-118943846D01*
X172166038Y-118907076D01*
X172239577Y-118870307D01*
X172423424Y-118870307D01*
X172496963Y-118907076D01*
X172533733Y-118943846D01*
X172570502Y-119017385D01*
X172570502Y-119201232D01*
X172533733Y-119274771D01*
X172496963Y-119311541D01*
X172423424Y-119348310D01*
X172239577Y-119348310D01*
X172166038Y-119311541D01*
X172129268Y-119274771D01*
X171230109Y-93150750D02*
X171708112Y-93150750D01*
X171450726Y-93444907D01*
X171561034Y-93444907D01*
X171634573Y-93481676D01*
X171671343Y-93518446D01*
X171708112Y-93591985D01*
X171708112Y-93775832D01*
X171671343Y-93849371D01*
X171634573Y-93886141D01*
X171561034Y-93922910D01*
X171340417Y-93922910D01*
X171266878Y-93886141D01*
X171230109Y-93849371D01*
X172406733Y-93150750D02*
X172039038Y-93150750D01*
X172002268Y-93518446D01*
X172039038Y-93481676D01*
X172112577Y-93444907D01*
X172296424Y-93444907D01*
X172369963Y-93481676D01*
X172406733Y-93518446D01*
X172443502Y-93591985D01*
X172443502Y-93775832D01*
X172406733Y-93849371D01*
X172369963Y-93886141D01*
X172296424Y-93922910D01*
X172112577Y-93922910D01*
X172039038Y-93886141D01*
X172002268Y-93849371D01*
X171255509Y-116010750D02*
X171733512Y-116010750D01*
X171476126Y-116304907D01*
X171586434Y-116304907D01*
X171659973Y-116341676D01*
X171696743Y-116378446D01*
X171733512Y-116451985D01*
X171733512Y-116635832D01*
X171696743Y-116709371D01*
X171659973Y-116746141D01*
X171586434Y-116782910D01*
X171365817Y-116782910D01*
X171292278Y-116746141D01*
X171255509Y-116709371D01*
X172395363Y-116010750D02*
X172248285Y-116010750D01*
X172174746Y-116047520D01*
X172137977Y-116084290D01*
X172064438Y-116194598D01*
X172027668Y-116341676D01*
X172027668Y-116635832D01*
X172064438Y-116709371D01*
X172101207Y-116746141D01*
X172174746Y-116782910D01*
X172321824Y-116782910D01*
X172395363Y-116746141D01*
X172432133Y-116709371D01*
X172468902Y-116635832D01*
X172468902Y-116451985D01*
X172432133Y-116378446D01*
X172395363Y-116341676D01*
X172321824Y-116304907D01*
X172174746Y-116304907D01*
X172101207Y-116341676D01*
X172064438Y-116378446D01*
X172027668Y-116451985D01*
X126761688Y-114586770D02*
X126798458Y-114550000D01*
X126871997Y-114513230D01*
X127055844Y-114513230D01*
X127129383Y-114550000D01*
X127166153Y-114586770D01*
X127202922Y-114660309D01*
X127202922Y-114733848D01*
X127166153Y-114844156D01*
X126724919Y-115285390D01*
X127202922Y-115285390D01*
X127190717Y-95425990D02*
X126749483Y-95425990D01*
X126970100Y-95425990D02*
X126970100Y-94653830D01*
X126896561Y-94764139D01*
X126823022Y-94837678D01*
X126749483Y-94874448D01*
D13*
X126081100Y-95452600D02*
X126081100Y-94690600D01*
X149098000Y-98552000D02*
X136398000Y-98552000D01*
X136398000Y-98552000D02*
X136398000Y-96012000D01*
X136398000Y-96012000D02*
X149098000Y-96012000D01*
X151918000Y-98832000D02*
X150368000Y-98832000D01*
X149098000Y-98552000D02*
X149098000Y-96012000D01*
X150368000Y-95732000D02*
X151918000Y-95732000D01*
X151918000Y-95732000D02*
X151918000Y-98832000D01*
X160528000Y-96012000D02*
X173228000Y-96012000D01*
X173228000Y-96012000D02*
X173228000Y-98552000D01*
X173228000Y-98552000D02*
X160528000Y-98552000D01*
X157708000Y-95732000D02*
X159258000Y-95732000D01*
X160528000Y-96012000D02*
X160528000Y-98552000D01*
X159258000Y-98832000D02*
X157708000Y-98832000D01*
X157708000Y-98832000D02*
X157708000Y-95732000D01*
X149098000Y-103632000D02*
X136398000Y-103632000D01*
X136398000Y-103632000D02*
X136398000Y-101092000D01*
X136398000Y-101092000D02*
X149098000Y-101092000D01*
X151918000Y-103912000D02*
X150368000Y-103912000D01*
X149098000Y-103632000D02*
X149098000Y-101092000D01*
X150368000Y-100812000D02*
X151918000Y-100812000D01*
X151918000Y-100812000D02*
X151918000Y-103912000D01*
X160528000Y-101092000D02*
X173228000Y-101092000D01*
X173228000Y-101092000D02*
X173228000Y-103632000D01*
X173228000Y-103632000D02*
X160528000Y-103632000D01*
X157708000Y-100812000D02*
X159258000Y-100812000D01*
X160528000Y-101092000D02*
X160528000Y-103632000D01*
X159258000Y-103912000D02*
X157708000Y-103912000D01*
X157708000Y-103912000D02*
X157708000Y-100812000D01*
X149098000Y-108712000D02*
X136398000Y-108712000D01*
X136398000Y-108712000D02*
X136398000Y-106172000D01*
X136398000Y-106172000D02*
X149098000Y-106172000D01*
X151918000Y-108992000D02*
X150368000Y-108992000D01*
X149098000Y-108712000D02*
X149098000Y-106172000D01*
X150368000Y-105892000D02*
X151918000Y-105892000D01*
X151918000Y-105892000D02*
X151918000Y-108992000D01*
X160528000Y-106172000D02*
X173228000Y-106172000D01*
X173228000Y-106172000D02*
X173228000Y-108712000D01*
X173228000Y-108712000D02*
X160528000Y-108712000D01*
X157708000Y-105892000D02*
X159258000Y-105892000D01*
X160528000Y-106172000D02*
X160528000Y-108712000D01*
X159258000Y-108992000D02*
X157708000Y-108992000D01*
X157708000Y-108992000D02*
X157708000Y-105892000D01*
X149098000Y-113792000D02*
X136398000Y-113792000D01*
X136398000Y-113792000D02*
X136398000Y-111252000D01*
X136398000Y-111252000D02*
X149098000Y-111252000D01*
X151918000Y-114072000D02*
X150368000Y-114072000D01*
X149098000Y-113792000D02*
X149098000Y-111252000D01*
X150368000Y-110972000D02*
X151918000Y-110972000D01*
X151918000Y-110972000D02*
X151918000Y-114072000D01*
X160528000Y-111252000D02*
X173228000Y-111252000D01*
X173228000Y-111252000D02*
X173228000Y-113792000D01*
X173228000Y-113792000D02*
X160528000Y-113792000D01*
X157708000Y-110972000D02*
X159258000Y-110972000D01*
X160528000Y-111252000D02*
X160528000Y-113792000D01*
X159258000Y-114072000D02*
X157708000Y-114072000D01*
X157708000Y-114072000D02*
X157708000Y-110972000D01*
D16*
X156550000Y-103770000D02*
X156550000Y-101970000D01*
X153330000Y-101970000D02*
X153330000Y-104920000D01*
X153330000Y-108066000D02*
X153330000Y-109866000D01*
X156550000Y-109866000D02*
X156550000Y-106916000D01*
D10*
X170803100Y-116433600D02*
G75*
G03X170803100Y-116433600I-712000J0D01*
G01*
X170803100Y-118973600D02*
G75*
G03X170803100Y-118973600I-712000J0D01*
G01*
X168263100Y-116433600D02*
G75*
G03X168263100Y-116433600I-712000J0D01*
G01*
X168263100Y-118973600D02*
G75*
G03X168263100Y-118973600I-712000J0D01*
G01*
X165723100Y-116433600D02*
G75*
G03X165723100Y-116433600I-712000J0D01*
G01*
X165723100Y-118973600D02*
G75*
G03X165723100Y-118973600I-712000J0D01*
G01*
X163183100Y-116433600D02*
G75*
G03X163183100Y-116433600I-712000J0D01*
G01*
X163183100Y-118973600D02*
G75*
G03X163183100Y-118973600I-712000J0D01*
G01*
X160643100Y-116433600D02*
G75*
G03X160643100Y-116433600I-712000J0D01*
G01*
X160643100Y-118973600D02*
G75*
G03X160643100Y-118973600I-712000J0D01*
G01*
X158103100Y-116433600D02*
G75*
G03X158103100Y-116433600I-712000J0D01*
G01*
X158103100Y-118973600D02*
G75*
G03X158103100Y-118973600I-712000J0D01*
G01*
X155563100Y-116433600D02*
G75*
G03X155563100Y-116433600I-712000J0D01*
G01*
X155563100Y-118973600D02*
G75*
G03X155563100Y-118973600I-712000J0D01*
G01*
X153023100Y-116433600D02*
G75*
G03X153023100Y-116433600I-712000J0D01*
G01*
X153023100Y-118973600D02*
G75*
G03X153023100Y-118973600I-712000J0D01*
G01*
X150483100Y-116433600D02*
G75*
G03X150483100Y-116433600I-712000J0D01*
G01*
X150483100Y-118973600D02*
G75*
G03X150483100Y-118973600I-712000J0D01*
G01*
X147943100Y-116433600D02*
G75*
G03X147943100Y-116433600I-712000J0D01*
G01*
X147943100Y-118973600D02*
G75*
G03X147943100Y-118973600I-712000J0D01*
G01*
X145403100Y-116433600D02*
G75*
G03X145403100Y-116433600I-712000J0D01*
G01*
X145403100Y-118973600D02*
G75*
G03X145403100Y-118973600I-712000J0D01*
G01*
X142863100Y-116433600D02*
G75*
G03X142863100Y-116433600I-712000J0D01*
G01*
X142863100Y-118973600D02*
G75*
G03X142863100Y-118973600I-712000J0D01*
G01*
X140323100Y-116433600D02*
G75*
G03X140323100Y-116433600I-712000J0D01*
G01*
X140323100Y-118973600D02*
G75*
G03X140323100Y-118973600I-712000J0D01*
G01*
X137783100Y-116433600D02*
G75*
G03X137783100Y-116433600I-712000J0D01*
G01*
X137783100Y-118973600D02*
G75*
G03X137783100Y-118973600I-712000J0D01*
G01*
X135243100Y-116433600D02*
G75*
G03X135243100Y-116433600I-712000J0D01*
G01*
X135243100Y-118973600D02*
G75*
G03X135243100Y-118973600I-712000J0D01*
G01*
X132703100Y-116433600D02*
G75*
G03X132703100Y-116433600I-712000J0D01*
G01*
X132703100Y-118973600D02*
G75*
G03X132703100Y-118973600I-712000J0D01*
G01*
X130163100Y-116433600D02*
G75*
G03X130163100Y-116433600I-712000J0D01*
G01*
X130163100Y-118973600D02*
G75*
G03X130163100Y-118973600I-712000J0D01*
G01*
X127623100Y-116433600D02*
G75*
G03X127623100Y-116433600I-712000J0D01*
G01*
X170803100Y-91033600D02*
G75*
G03X170803100Y-91033600I-712000J0D01*
G01*
X170803100Y-93573600D02*
G75*
G03X170803100Y-93573600I-712000J0D01*
G01*
X168263100Y-91033600D02*
G75*
G03X168263100Y-91033600I-712000J0D01*
G01*
X168263100Y-93573600D02*
G75*
G03X168263100Y-93573600I-712000J0D01*
G01*
X165723100Y-91033600D02*
G75*
G03X165723100Y-91033600I-712000J0D01*
G01*
X165723100Y-93573600D02*
G75*
G03X165723100Y-93573600I-712000J0D01*
G01*
X163183100Y-91033600D02*
G75*
G03X163183100Y-91033600I-712000J0D01*
G01*
X163183100Y-93573600D02*
G75*
G03X163183100Y-93573600I-712000J0D01*
G01*
X160643100Y-91033600D02*
G75*
G03X160643100Y-91033600I-712000J0D01*
G01*
X160643100Y-93573600D02*
G75*
G03X160643100Y-93573600I-712000J0D01*
G01*
X158103100Y-91033600D02*
G75*
G03X158103100Y-91033600I-712000J0D01*
G01*
X158103100Y-93573600D02*
G75*
G03X158103100Y-93573600I-712000J0D01*
G01*
X155563100Y-91033600D02*
G75*
G03X155563100Y-91033600I-712000J0D01*
G01*
X155563100Y-93573600D02*
G75*
G03X155563100Y-93573600I-712000J0D01*
G01*
X153023100Y-91033600D02*
G75*
G03X153023100Y-91033600I-712000J0D01*
G01*
X153023100Y-93573600D02*
G75*
G03X153023100Y-93573600I-712000J0D01*
G01*
X150483100Y-91033600D02*
G75*
G03X150483100Y-91033600I-712000J0D01*
G01*
X150483100Y-93573600D02*
G75*
G03X150483100Y-93573600I-712000J0D01*
G01*
X147943100Y-91033600D02*
G75*
G03X147943100Y-91033600I-712000J0D01*
G01*
X147943100Y-93573600D02*
G75*
G03X147943100Y-93573600I-712000J0D01*
G01*
X145403100Y-91033600D02*
G75*
G03X145403100Y-91033600I-712000J0D01*
G01*
X145403100Y-93573600D02*
G75*
G03X145403100Y-93573600I-712000J0D01*
G01*
X142863100Y-91033600D02*
G75*
G03X142863100Y-91033600I-712000J0D01*
G01*
X142863100Y-93573600D02*
G75*
G03X142863100Y-93573600I-712000J0D01*
G01*
X140323100Y-91033600D02*
G75*
G03X140323100Y-91033600I-712000J0D01*
G01*
X140323100Y-93573600D02*
G75*
G03X140323100Y-93573600I-712000J0D01*
G01*
X137783100Y-91033600D02*
G75*
G03X137783100Y-91033600I-712000J0D01*
G01*
X137783100Y-93573600D02*
G75*
G03X137783100Y-93573600I-712000J0D01*
G01*
X135243100Y-91033600D02*
G75*
G03X135243100Y-91033600I-712000J0D01*
G01*
X135243100Y-93573600D02*
G75*
G03X135243100Y-93573600I-712000J0D01*
G01*
X132703100Y-91033600D02*
G75*
G03X132703100Y-91033600I-712000J0D01*
G01*
X132703100Y-93573600D02*
G75*
G03X132703100Y-93573600I-712000J0D01*
G01*
X130163100Y-91033600D02*
G75*
G03X130163100Y-91033600I-712000J0D01*
G01*
X130163100Y-93573600D02*
G75*
G03X130163100Y-93573600I-712000J0D01*
G01*
X127623100Y-91033600D02*
G75*
G03X127623100Y-91033600I-712000J0D01*
G01*
D17*
X121262619Y-113774524D02*
X121262619Y-112504524D01*
X121746428Y-112504524D01*
X121867381Y-112565000D01*
X121927857Y-112625476D01*
X121988333Y-112746429D01*
X121988333Y-112927857D01*
X121927857Y-113048810D01*
X121867381Y-113109286D01*
X121746428Y-113169762D01*
X121262619Y-113169762D01*
X123076905Y-112927857D02*
X123076905Y-113774524D01*
X122774524Y-112444048D02*
X122472143Y-113351190D01*
X123258333Y-113351190D01*
D18*
X128656654Y-121758317D02*
X128656654Y-120189867D01*
X129254159Y-120189867D01*
X129403535Y-120264555D01*
X129478224Y-120339243D01*
X129552912Y-120488619D01*
X129552912Y-120712684D01*
X129478224Y-120862060D01*
X129403535Y-120936748D01*
X129254159Y-121011436D01*
X128656654Y-121011436D01*
X131046674Y-121758317D02*
X130150416Y-121758317D01*
X130598545Y-121758317D02*
X130598545Y-120189867D01*
X130449169Y-120413931D01*
X130299793Y-120563307D01*
X130150416Y-120637995D01*
D13*
D18*
X128737934Y-89858457D02*
X128737934Y-88290007D01*
X129335439Y-88290007D01*
X129484815Y-88364695D01*
X129559504Y-88439383D01*
X129634192Y-88588759D01*
X129634192Y-88812824D01*
X129559504Y-88962200D01*
X129484815Y-89036888D01*
X129335439Y-89111576D01*
X128737934Y-89111576D01*
X130231696Y-88439383D02*
X130306384Y-88364695D01*
X130455761Y-88290007D01*
X130829201Y-88290007D01*
X130978577Y-88364695D01*
X131053265Y-88439383D01*
X131127954Y-88588759D01*
X131127954Y-88738135D01*
X131053265Y-88962200D01*
X130157008Y-89858457D01*
X131127954Y-89858457D01*
D13*
X136088381Y-98274095D02*
X135088381Y-98274095D01*
X135088381Y-97893142D01*
X135136000Y-97797904D01*
X135183619Y-97750285D01*
X135278857Y-97702666D01*
X135421714Y-97702666D01*
X135516952Y-97750285D01*
X135564571Y-97797904D01*
X135612190Y-97893142D01*
X135612190Y-98274095D01*
X135088381Y-97369333D02*
X135088381Y-96750285D01*
X135469333Y-97083619D01*
X135469333Y-96940761D01*
X135516952Y-96845523D01*
X135564571Y-96797904D01*
X135659810Y-96750285D01*
X135897905Y-96750285D01*
X135993143Y-96797904D01*
X136040762Y-96845523D01*
X136088381Y-96940761D01*
X136088381Y-97226476D01*
X136040762Y-97321714D01*
X135993143Y-97369333D01*
X157210381Y-95620095D02*
X156210381Y-95620095D01*
X156210381Y-95239142D01*
X156258000Y-95143904D01*
X156305619Y-95096285D01*
X156400857Y-95048666D01*
X156543714Y-95048666D01*
X156638952Y-95096285D01*
X156686571Y-95143904D01*
X156734190Y-95239142D01*
X156734190Y-95620095D01*
X156210381Y-94143904D02*
X156210381Y-94620095D01*
X156686571Y-94667714D01*
X156638952Y-94620095D01*
X156591333Y-94524857D01*
X156591333Y-94286761D01*
X156638952Y-94191523D01*
X156686571Y-94143904D01*
X156781810Y-94096285D01*
X157019905Y-94096285D01*
X157115143Y-94143904D01*
X157162762Y-94191523D01*
X157210381Y-94286761D01*
X157210381Y-94524857D01*
X157162762Y-94620095D01*
X157115143Y-94667714D01*
X136088381Y-102846095D02*
X135088381Y-102846095D01*
X135088381Y-102465142D01*
X135136000Y-102369904D01*
X135183619Y-102322285D01*
X135278857Y-102274666D01*
X135421714Y-102274666D01*
X135516952Y-102322285D01*
X135564571Y-102369904D01*
X135612190Y-102465142D01*
X135612190Y-102846095D01*
X135088381Y-101417523D02*
X135088381Y-101608000D01*
X135136000Y-101703238D01*
X135183619Y-101750857D01*
X135326476Y-101846095D01*
X135516952Y-101893714D01*
X135897905Y-101893714D01*
X135993143Y-101846095D01*
X136040762Y-101798476D01*
X136088381Y-101703238D01*
X136088381Y-101512761D01*
X136040762Y-101417523D01*
X135993143Y-101369904D01*
X135897905Y-101322285D01*
X135659810Y-101322285D01*
X135564571Y-101369904D01*
X135516952Y-101417523D01*
X135469333Y-101512761D01*
X135469333Y-101703238D01*
X135516952Y-101798476D01*
X135564571Y-101846095D01*
X135659810Y-101893714D01*
X157819905Y-105314381D02*
X157819905Y-104314381D01*
X158200858Y-104314381D01*
X158296096Y-104362000D01*
X158343715Y-104409619D01*
X158391334Y-104504857D01*
X158391334Y-104647714D01*
X158343715Y-104742952D01*
X158296096Y-104790571D01*
X158200858Y-104838190D01*
X157819905Y-104838190D01*
X158724667Y-104314381D02*
X159391334Y-104314381D01*
X158962762Y-105314381D01*
X135620381Y-108080095D02*
X134620381Y-108080095D01*
X134620381Y-107699142D01*
X134668000Y-107603904D01*
X134715619Y-107556285D01*
X134810857Y-107508666D01*
X134953714Y-107508666D01*
X135048952Y-107556285D01*
X135096571Y-107603904D01*
X135144190Y-107699142D01*
X135144190Y-108080095D01*
X135048952Y-106937238D02*
X135001333Y-107032476D01*
X134953714Y-107080095D01*
X134858476Y-107127714D01*
X134810857Y-107127714D01*
X134715619Y-107080095D01*
X134668000Y-107032476D01*
X134620381Y-106937238D01*
X134620381Y-106746761D01*
X134668000Y-106651523D01*
X134715619Y-106603904D01*
X134810857Y-106556285D01*
X134858476Y-106556285D01*
X134953714Y-106603904D01*
X135001333Y-106651523D01*
X135048952Y-106746761D01*
X135048952Y-106937238D01*
X135096571Y-107032476D01*
X135144190Y-107080095D01*
X135239429Y-107127714D01*
X135429905Y-107127714D01*
X135525143Y-107080095D01*
X135572762Y-107032476D01*
X135620381Y-106937238D01*
X135620381Y-106746761D01*
X135572762Y-106651523D01*
X135525143Y-106603904D01*
X135429905Y-106556285D01*
X135239429Y-106556285D01*
X135144190Y-106603904D01*
X135096571Y-106651523D01*
X135048952Y-106746761D01*
X162837905Y-109926381D02*
X162837905Y-108926381D01*
X163218858Y-108926381D01*
X163314096Y-108974000D01*
X163361715Y-109021619D01*
X163409334Y-109116857D01*
X163409334Y-109259714D01*
X163361715Y-109354952D01*
X163314096Y-109402571D01*
X163218858Y-109450190D01*
X162837905Y-109450190D01*
X163885524Y-109926381D02*
X164076000Y-109926381D01*
X164171239Y-109878762D01*
X164218858Y-109831143D01*
X164314096Y-109688286D01*
X164361715Y-109497810D01*
X164361715Y-109116857D01*
X164314096Y-109021619D01*
X164266477Y-108974000D01*
X164171239Y-108926381D01*
X163980762Y-108926381D01*
X163885524Y-108974000D01*
X163837905Y-109021619D01*
X163790286Y-109116857D01*
X163790286Y-109354952D01*
X163837905Y-109450190D01*
X163885524Y-109497810D01*
X163980762Y-109545429D01*
X164171239Y-109545429D01*
X164266477Y-109497810D01*
X164314096Y-109450190D01*
X164361715Y-109354952D01*
X136088381Y-111958286D02*
X135088381Y-111958286D01*
X135088381Y-111577333D01*
X135136000Y-111482095D01*
X135183619Y-111434476D01*
X135278857Y-111386857D01*
X135421714Y-111386857D01*
X135516952Y-111434476D01*
X135564571Y-111482095D01*
X135612190Y-111577333D01*
X135612190Y-111958286D01*
X136088381Y-110434476D02*
X136088381Y-111005905D01*
X136088381Y-110720191D02*
X135088381Y-110720191D01*
X135231238Y-110815429D01*
X135326476Y-110910667D01*
X135374095Y-111005905D01*
X135088381Y-109815429D02*
X135088381Y-109720190D01*
X135136000Y-109624952D01*
X135183619Y-109577333D01*
X135278857Y-109529714D01*
X135469333Y-109482095D01*
X135707429Y-109482095D01*
X135897905Y-109529714D01*
X135993143Y-109577333D01*
X136040762Y-109624952D01*
X136088381Y-109720190D01*
X136088381Y-109815429D01*
X136040762Y-109910667D01*
X135993143Y-109958286D01*
X135897905Y-110005905D01*
X135707429Y-110053524D01*
X135469333Y-110053524D01*
X135278857Y-110005905D01*
X135183619Y-109958286D01*
X135136000Y-109910667D01*
X135088381Y-109815429D01*
X165917714Y-110942381D02*
X165917714Y-109942381D01*
X166298667Y-109942381D01*
X166393905Y-109990000D01*
X166441524Y-110037619D01*
X166489143Y-110132857D01*
X166489143Y-110275714D01*
X166441524Y-110370952D01*
X166393905Y-110418571D01*
X166298667Y-110466190D01*
X165917714Y-110466190D01*
X167441524Y-110942381D02*
X166870095Y-110942381D01*
X167155809Y-110942381D02*
X167155809Y-109942381D01*
X167060571Y-110085238D01*
X166965333Y-110180476D01*
X166870095Y-110228095D01*
X168393905Y-110942381D02*
X167822476Y-110942381D01*
X168108190Y-110942381D02*
X168108190Y-109942381D01*
X168012952Y-110085238D01*
X167917714Y-110180476D01*
X167822476Y-110228095D01*
X153924095Y-99020381D02*
X153924095Y-99829905D01*
X153971714Y-99925143D01*
X154019333Y-99972762D01*
X154114571Y-100020381D01*
X154305048Y-100020381D01*
X154400286Y-99972762D01*
X154447905Y-99925143D01*
X154495524Y-99829905D01*
X154495524Y-99020381D01*
X155495524Y-100020381D02*
X154924095Y-100020381D01*
X155209809Y-100020381D02*
X155209809Y-99020381D01*
X155114571Y-99163238D01*
X155019333Y-99258476D01*
X154924095Y-99306095D01*
X154178095Y-108418381D02*
X154178095Y-109227905D01*
X154225714Y-109323143D01*
X154273333Y-109370762D01*
X154368571Y-109418381D01*
X154559048Y-109418381D01*
X154654286Y-109370762D01*
X154701905Y-109323143D01*
X154749524Y-109227905D01*
X154749524Y-108418381D01*
X155178095Y-108513619D02*
X155225714Y-108466000D01*
X155320952Y-108418381D01*
X155559048Y-108418381D01*
X155654286Y-108466000D01*
X155701905Y-108513619D01*
X155749524Y-108608857D01*
X155749524Y-108704095D01*
X155701905Y-108846952D01*
X155130476Y-109418381D01*
X155749524Y-109418381D01*
M02*
