G04 #@! TF.FileFunction,Soldermask,Top*
%FSLAX46Y46*%
G04 Gerber Fmt 4.6, Leading zero omitted, Abs format (unit mm)*
G04 Created by KiCad (PCBNEW 4.0.5+dfsg1-4) date Sun Nov 25 11:48:41 2018*
%MOMM*%
%LPD*%
G01*
G04 APERTURE LIST*
%ADD10C,0.100000*%
%ADD11R,2.420000X2.420000*%
%ADD12C,1.574800*%
%ADD13O,4.050800X3.050800*%
%ADD14R,1.574800X1.574800*%
%ADD15R,1.778000X2.082800*%
%ADD16O,1.778000X2.082800*%
%ADD17R,0.700800X1.610800*%
G04 APERTURE END LIST*
D10*
D11*
X127600000Y-113000000D03*
D12*
X133000000Y-101500000D03*
X133000000Y-104000000D03*
X133000000Y-106000000D03*
X133000000Y-108500000D03*
D13*
X132400000Y-97150000D03*
X132400000Y-112850000D03*
D11*
X127600000Y-97000000D03*
D12*
X170091100Y-116433600D03*
X170091100Y-118973600D03*
X167551100Y-116433600D03*
X167551100Y-118973600D03*
X165011100Y-116433600D03*
X165011100Y-118973600D03*
X162471100Y-116433600D03*
X162471100Y-118973600D03*
X159931100Y-116433600D03*
X159931100Y-118973600D03*
X157391100Y-116433600D03*
X157391100Y-118973600D03*
X154851100Y-116433600D03*
X154851100Y-118973600D03*
X152311100Y-116433600D03*
X152311100Y-118973600D03*
X149771100Y-116433600D03*
X149771100Y-118973600D03*
X147231100Y-116433600D03*
X147231100Y-118973600D03*
X144691100Y-116433600D03*
X144691100Y-118973600D03*
X142151100Y-116433600D03*
X142151100Y-118973600D03*
X139611100Y-116433600D03*
X139611100Y-118973600D03*
X137071100Y-116433600D03*
X137071100Y-118973600D03*
X134531100Y-116433600D03*
X134531100Y-118973600D03*
X131991100Y-116433600D03*
X131991100Y-118973600D03*
X129451100Y-116433600D03*
X129451100Y-118973600D03*
X126911100Y-116433600D03*
D14*
X126911100Y-118973600D03*
D12*
X170091100Y-91033600D03*
X170091100Y-93573600D03*
X167551100Y-91033600D03*
X167551100Y-93573600D03*
X165011100Y-91033600D03*
X165011100Y-93573600D03*
X162471100Y-91033600D03*
X162471100Y-93573600D03*
X159931100Y-91033600D03*
X159931100Y-93573600D03*
X157391100Y-91033600D03*
X157391100Y-93573600D03*
X154851100Y-91033600D03*
X154851100Y-93573600D03*
X152311100Y-91033600D03*
X152311100Y-93573600D03*
X149771100Y-91033600D03*
X149771100Y-93573600D03*
X147231100Y-91033600D03*
X147231100Y-93573600D03*
X144691100Y-91033600D03*
X144691100Y-93573600D03*
X142151100Y-91033600D03*
X142151100Y-93573600D03*
X139611100Y-91033600D03*
X139611100Y-93573600D03*
X137071100Y-91033600D03*
X137071100Y-93573600D03*
X134531100Y-91033600D03*
X134531100Y-93573600D03*
X131991100Y-91033600D03*
X131991100Y-93573600D03*
X129451100Y-91033600D03*
X129451100Y-93573600D03*
X126911100Y-91033600D03*
D14*
X126911100Y-93573600D03*
D15*
X150368000Y-97282000D03*
D16*
X147828000Y-97282000D03*
X145288000Y-97282000D03*
X142748000Y-97282000D03*
X140208000Y-97282000D03*
X137668000Y-97282000D03*
D15*
X159258000Y-97282000D03*
D16*
X161798000Y-97282000D03*
X164338000Y-97282000D03*
X166878000Y-97282000D03*
X169418000Y-97282000D03*
X171958000Y-97282000D03*
D15*
X150368000Y-102362000D03*
D16*
X147828000Y-102362000D03*
X145288000Y-102362000D03*
X142748000Y-102362000D03*
X140208000Y-102362000D03*
X137668000Y-102362000D03*
D15*
X159258000Y-102362000D03*
D16*
X161798000Y-102362000D03*
X164338000Y-102362000D03*
X166878000Y-102362000D03*
X169418000Y-102362000D03*
X171958000Y-102362000D03*
D15*
X150368000Y-107442000D03*
D16*
X147828000Y-107442000D03*
X145288000Y-107442000D03*
X142748000Y-107442000D03*
X140208000Y-107442000D03*
X137668000Y-107442000D03*
D15*
X159258000Y-107442000D03*
D16*
X161798000Y-107442000D03*
X164338000Y-107442000D03*
X166878000Y-107442000D03*
X169418000Y-107442000D03*
X171958000Y-107442000D03*
D15*
X150368000Y-112522000D03*
D16*
X147828000Y-112522000D03*
X145288000Y-112522000D03*
X142748000Y-112522000D03*
X140208000Y-112522000D03*
X137668000Y-112522000D03*
D15*
X159258000Y-112522000D03*
D16*
X161798000Y-112522000D03*
X164338000Y-112522000D03*
X166878000Y-112522000D03*
X169418000Y-112522000D03*
X171958000Y-112522000D03*
D17*
X153990000Y-104220000D03*
X154940000Y-104220000D03*
X155890000Y-104220000D03*
X155890000Y-101520000D03*
X153990000Y-101520000D03*
X154940000Y-101520000D03*
X155890000Y-107616000D03*
X154940000Y-107616000D03*
X153990000Y-107616000D03*
X153990000Y-110316000D03*
X155890000Y-110316000D03*
X154940000Y-110316000D03*
M02*
