%FSLAX45Y45*%
G04 Gerber Fmt 4.5, Leading zero omitted, Abs format (unit mm)*
G04 Created by KiCad (PCBNEW 4.0.5+dfsg1-4) date Sun Nov 25 11:14:34 2018*
%MOMM*%
%LPD*%
G01*
G04 APERTURE LIST*
%ADD10C,0.127000*%
%ADD11C,0.150000*%
%ADD12C,0.200000*%
%ADD13C,0.300000*%
G04 APERTURE END LIST*
D10*
D11*
X16600110Y-8750360D02*
X13100110Y-8750360D01*
X12100110Y-9750360D02*
G75*
G02X13100110Y-8750360I1000000J0D01*
G01*
X12100110Y-9750360D02*
X12100110Y-11250360D01*
X13100110Y-12250360D02*
G75*
G02X12100110Y-11250360I0J1000000D01*
G01*
X13100110Y-12250360D02*
X16600110Y-12250360D01*
X17600110Y-11250360D02*
G75*
G02X16600110Y-12250360I-1000000J0D01*
G01*
X17600110Y-11250360D02*
X17600110Y-9750360D01*
X16600110Y-8750360D02*
G75*
G02X17600110Y-9750360I0J-1000000D01*
G01*
D12*
X12880000Y-10750000D02*
X12920000Y-10790000D01*
X12920000Y-10750000D02*
X12880000Y-10790000D01*
X13111800Y-9479600D02*
X13151800Y-9519600D01*
X13151800Y-9479600D02*
X13111800Y-9519600D01*
X13899200Y-9505000D02*
X13939200Y-9545000D01*
X13939200Y-9505000D02*
X13899200Y-9545000D01*
X14610400Y-12045000D02*
X14650400Y-12085000D01*
X14650400Y-12045000D02*
X14610400Y-12085000D01*
X13340000Y-10150000D02*
G75*
G03X13340000Y-10150000I-40000J0D01*
G01*
X13340000Y-10400000D02*
G75*
G03X13340000Y-10400000I-40000J0D01*
G01*
X13340000Y-10600000D02*
G75*
G03X13340000Y-10600000I-40000J0D01*
G01*
X13340000Y-10850000D02*
G75*
G03X13340000Y-10850000I-40000J0D01*
G01*
X12691110Y-9058910D02*
X12691110Y-9147810D01*
X12646660Y-9103360D02*
X12735560Y-9103360D01*
X12691110Y-9312910D02*
X12691110Y-9401810D01*
X12646660Y-9357360D02*
X12735560Y-9357360D01*
X12691110Y-11598910D02*
X12691110Y-11687810D01*
X12646660Y-11643360D02*
X12735560Y-11643360D01*
X12691110Y-11852910D02*
X12691110Y-11941810D01*
X12646660Y-11897360D02*
X12735560Y-11897360D01*
X12945110Y-9058910D02*
X12945110Y-9147810D01*
X12900660Y-9103360D02*
X12989560Y-9103360D01*
X12945110Y-9312910D02*
X12945110Y-9401810D01*
X12900660Y-9357360D02*
X12989560Y-9357360D01*
X12945110Y-11598910D02*
X12945110Y-11687810D01*
X12900660Y-11643360D02*
X12989560Y-11643360D01*
X12945110Y-11852910D02*
X12945110Y-11941810D01*
X12900660Y-11897360D02*
X12989560Y-11897360D01*
X13199110Y-9058910D02*
X13199110Y-9147810D01*
X13154660Y-9103360D02*
X13243560Y-9103360D01*
X13199110Y-9312910D02*
X13199110Y-9401810D01*
X13154660Y-9357360D02*
X13243560Y-9357360D01*
X13199110Y-11598910D02*
X13199110Y-11687810D01*
X13154660Y-11643360D02*
X13243560Y-11643360D01*
X13199110Y-11852910D02*
X13199110Y-11941810D01*
X13154660Y-11897360D02*
X13243560Y-11897360D01*
X13453110Y-9058910D02*
X13453110Y-9147810D01*
X13408660Y-9103360D02*
X13497560Y-9103360D01*
X13453110Y-9312910D02*
X13453110Y-9401810D01*
X13408660Y-9357360D02*
X13497560Y-9357360D01*
X13453110Y-11598910D02*
X13453110Y-11687810D01*
X13408660Y-11643360D02*
X13497560Y-11643360D01*
X13453110Y-11852910D02*
X13453110Y-11941810D01*
X13408660Y-11897360D02*
X13497560Y-11897360D01*
X13707110Y-9058910D02*
X13707110Y-9147810D01*
X13662660Y-9103360D02*
X13751560Y-9103360D01*
X13707110Y-9312910D02*
X13707110Y-9401810D01*
X13662660Y-9357360D02*
X13751560Y-9357360D01*
X13707110Y-11598910D02*
X13707110Y-11687810D01*
X13662660Y-11643360D02*
X13751560Y-11643360D01*
X13707110Y-11852910D02*
X13707110Y-11941810D01*
X13662660Y-11897360D02*
X13751560Y-11897360D01*
X13961110Y-9058910D02*
X13961110Y-9147810D01*
X13916660Y-9103360D02*
X14005560Y-9103360D01*
X13961110Y-9312910D02*
X13961110Y-9401810D01*
X13916660Y-9357360D02*
X14005560Y-9357360D01*
X13961110Y-11598910D02*
X13961110Y-11687810D01*
X13916660Y-11643360D02*
X14005560Y-11643360D01*
X13961110Y-11852910D02*
X13961110Y-11941810D01*
X13916660Y-11897360D02*
X14005560Y-11897360D01*
X14215110Y-9058910D02*
X14215110Y-9147810D01*
X14170660Y-9103360D02*
X14259560Y-9103360D01*
X14215110Y-9312910D02*
X14215110Y-9401810D01*
X14170660Y-9357360D02*
X14259560Y-9357360D01*
X14215110Y-11598910D02*
X14215110Y-11687810D01*
X14170660Y-11643360D02*
X14259560Y-11643360D01*
X14215110Y-11852910D02*
X14215110Y-11941810D01*
X14170660Y-11897360D02*
X14259560Y-11897360D01*
X14469110Y-9058910D02*
X14469110Y-9147810D01*
X14424660Y-9103360D02*
X14513560Y-9103360D01*
X14469110Y-9312910D02*
X14469110Y-9401810D01*
X14424660Y-9357360D02*
X14513560Y-9357360D01*
X14469110Y-11598910D02*
X14469110Y-11687810D01*
X14424660Y-11643360D02*
X14513560Y-11643360D01*
X14469110Y-11852910D02*
X14469110Y-11941810D01*
X14424660Y-11897360D02*
X14513560Y-11897360D01*
X14723110Y-9058910D02*
X14723110Y-9147810D01*
X14678660Y-9103360D02*
X14767560Y-9103360D01*
X14723110Y-9312910D02*
X14723110Y-9401810D01*
X14678660Y-9357360D02*
X14767560Y-9357360D01*
X14723110Y-11598910D02*
X14723110Y-11687810D01*
X14678660Y-11643360D02*
X14767560Y-11643360D01*
X14723110Y-11852910D02*
X14723110Y-11941810D01*
X14678660Y-11897360D02*
X14767560Y-11897360D01*
X14977110Y-9058910D02*
X14977110Y-9147810D01*
X14932660Y-9103360D02*
X15021560Y-9103360D01*
X14977110Y-9312910D02*
X14977110Y-9401810D01*
X14932660Y-9357360D02*
X15021560Y-9357360D01*
X14977110Y-11598910D02*
X14977110Y-11687810D01*
X14932660Y-11643360D02*
X15021560Y-11643360D01*
X14977110Y-11852910D02*
X14977110Y-11941810D01*
X14932660Y-11897360D02*
X15021560Y-11897360D01*
X15231110Y-9058910D02*
X15231110Y-9147810D01*
X15186660Y-9103360D02*
X15275560Y-9103360D01*
X15231110Y-9312910D02*
X15231110Y-9401810D01*
X15186660Y-9357360D02*
X15275560Y-9357360D01*
X15231110Y-11598910D02*
X15231110Y-11687810D01*
X15186660Y-11643360D02*
X15275560Y-11643360D01*
X15231110Y-11852910D02*
X15231110Y-11941810D01*
X15186660Y-11897360D02*
X15275560Y-11897360D01*
X15485110Y-9058910D02*
X15485110Y-9147810D01*
X15440660Y-9103360D02*
X15529560Y-9103360D01*
X15485110Y-9312910D02*
X15485110Y-9401810D01*
X15440660Y-9357360D02*
X15529560Y-9357360D01*
X15485110Y-11598910D02*
X15485110Y-11687810D01*
X15440660Y-11643360D02*
X15529560Y-11643360D01*
X15485110Y-11852910D02*
X15485110Y-11941810D01*
X15440660Y-11897360D02*
X15529560Y-11897360D01*
X15739110Y-9058910D02*
X15739110Y-9147810D01*
X15694660Y-9103360D02*
X15783560Y-9103360D01*
X15739110Y-9312910D02*
X15739110Y-9401810D01*
X15694660Y-9357360D02*
X15783560Y-9357360D01*
X15739110Y-11598910D02*
X15739110Y-11687810D01*
X15694660Y-11643360D02*
X15783560Y-11643360D01*
X15739110Y-11852910D02*
X15739110Y-11941810D01*
X15694660Y-11897360D02*
X15783560Y-11897360D01*
X15993110Y-9058910D02*
X15993110Y-9147810D01*
X15948660Y-9103360D02*
X16037560Y-9103360D01*
X15993110Y-9312910D02*
X15993110Y-9401810D01*
X15948660Y-9357360D02*
X16037560Y-9357360D01*
X15993110Y-11598910D02*
X15993110Y-11687810D01*
X15948660Y-11643360D02*
X16037560Y-11643360D01*
X15993110Y-11852910D02*
X15993110Y-11941810D01*
X15948660Y-11897360D02*
X16037560Y-11897360D01*
X16247110Y-9058910D02*
X16247110Y-9147810D01*
X16202660Y-9103360D02*
X16291560Y-9103360D01*
X16247110Y-9312910D02*
X16247110Y-9401810D01*
X16202660Y-9357360D02*
X16291560Y-9357360D01*
X16247110Y-11598910D02*
X16247110Y-11687810D01*
X16202660Y-11643360D02*
X16291560Y-11643360D01*
X16247110Y-11852910D02*
X16247110Y-11941810D01*
X16202660Y-11897360D02*
X16291560Y-11897360D01*
X16501110Y-9058910D02*
X16501110Y-9147810D01*
X16456660Y-9103360D02*
X16545560Y-9103360D01*
X16501110Y-9312910D02*
X16501110Y-9401810D01*
X16456660Y-9357360D02*
X16545560Y-9357360D01*
X16501110Y-11598910D02*
X16501110Y-11687810D01*
X16456660Y-11643360D02*
X16545560Y-11643360D01*
X16501110Y-11852910D02*
X16501110Y-11941810D01*
X16456660Y-11897360D02*
X16545560Y-11897360D01*
X16755110Y-9058910D02*
X16755110Y-9147810D01*
X16710660Y-9103360D02*
X16799560Y-9103360D01*
X16755110Y-9312910D02*
X16755110Y-9401810D01*
X16710660Y-9357360D02*
X16799560Y-9357360D01*
X16755110Y-11598910D02*
X16755110Y-11687810D01*
X16710660Y-11643360D02*
X16799560Y-11643360D01*
X16755110Y-11852910D02*
X16755110Y-11941810D01*
X16710660Y-11897360D02*
X16799560Y-11897360D01*
X17009110Y-9058910D02*
X17009110Y-9147810D01*
X16964660Y-9103360D02*
X17053560Y-9103360D01*
X17009110Y-9312910D02*
X17009110Y-9401810D01*
X16964660Y-9357360D02*
X17053560Y-9357360D01*
X17009110Y-11598910D02*
X17009110Y-11687810D01*
X16964660Y-11643360D02*
X17053560Y-11643360D01*
X17009110Y-11852910D02*
X17009110Y-11941810D01*
X16964660Y-11897360D02*
X17053560Y-11897360D01*
X13802721Y-9764121D02*
X13802721Y-9692279D01*
X13730879Y-9692279D01*
X13730879Y-9764121D01*
X13802721Y-9764121D01*
X13802721Y-10272121D02*
X13802721Y-10200279D01*
X13730879Y-10200279D01*
X13730879Y-10272121D01*
X13802721Y-10272121D01*
X13802721Y-10780121D02*
X13802721Y-10708279D01*
X13730879Y-10708279D01*
X13730879Y-10780121D01*
X13802721Y-10780121D01*
X13802721Y-11288121D02*
X13802721Y-11216279D01*
X13730879Y-11216279D01*
X13730879Y-11288121D01*
X13802721Y-11288121D01*
X14056721Y-9764121D02*
X14056721Y-9692279D01*
X13984879Y-9692279D01*
X13984879Y-9764121D01*
X14056721Y-9764121D01*
X14056721Y-10272121D02*
X14056721Y-10200279D01*
X13984879Y-10200279D01*
X13984879Y-10272121D01*
X14056721Y-10272121D01*
X14056721Y-10780121D02*
X14056721Y-10708279D01*
X13984879Y-10708279D01*
X13984879Y-10780121D01*
X14056721Y-10780121D01*
X14056721Y-11288121D02*
X14056721Y-11216279D01*
X13984879Y-11216279D01*
X13984879Y-11288121D01*
X14056721Y-11288121D01*
X14310721Y-9764121D02*
X14310721Y-9692279D01*
X14238879Y-9692279D01*
X14238879Y-9764121D01*
X14310721Y-9764121D01*
X14310721Y-10272121D02*
X14310721Y-10200279D01*
X14238879Y-10200279D01*
X14238879Y-10272121D01*
X14310721Y-10272121D01*
X14310721Y-10780121D02*
X14310721Y-10708279D01*
X14238879Y-10708279D01*
X14238879Y-10780121D01*
X14310721Y-10780121D01*
X14310721Y-11288121D02*
X14310721Y-11216279D01*
X14238879Y-11216279D01*
X14238879Y-11288121D01*
X14310721Y-11288121D01*
X14564721Y-9764121D02*
X14564721Y-9692279D01*
X14492879Y-9692279D01*
X14492879Y-9764121D01*
X14564721Y-9764121D01*
X14564721Y-10272121D02*
X14564721Y-10200279D01*
X14492879Y-10200279D01*
X14492879Y-10272121D01*
X14564721Y-10272121D01*
X14564721Y-10780121D02*
X14564721Y-10708279D01*
X14492879Y-10708279D01*
X14492879Y-10780121D01*
X14564721Y-10780121D01*
X14564721Y-11288121D02*
X14564721Y-11216279D01*
X14492879Y-11216279D01*
X14492879Y-11288121D01*
X14564721Y-11288121D01*
X14818721Y-9764121D02*
X14818721Y-9692279D01*
X14746879Y-9692279D01*
X14746879Y-9764121D01*
X14818721Y-9764121D01*
X14818721Y-10272121D02*
X14818721Y-10200279D01*
X14746879Y-10200279D01*
X14746879Y-10272121D01*
X14818721Y-10272121D01*
X14818721Y-10780121D02*
X14818721Y-10708279D01*
X14746879Y-10708279D01*
X14746879Y-10780121D01*
X14818721Y-10780121D01*
X14818721Y-11288121D02*
X14818721Y-11216279D01*
X14746879Y-11216279D01*
X14746879Y-11288121D01*
X14818721Y-11288121D01*
X15072721Y-9764121D02*
X15072721Y-9692279D01*
X15000879Y-9692279D01*
X15000879Y-9764121D01*
X15072721Y-9764121D01*
X15072721Y-10272121D02*
X15072721Y-10200279D01*
X15000879Y-10200279D01*
X15000879Y-10272121D01*
X15072721Y-10272121D01*
X15072721Y-10780121D02*
X15072721Y-10708279D01*
X15000879Y-10708279D01*
X15000879Y-10780121D01*
X15072721Y-10780121D01*
X15072721Y-11288121D02*
X15072721Y-11216279D01*
X15000879Y-11216279D01*
X15000879Y-11288121D01*
X15072721Y-11288121D01*
X15961721Y-9764121D02*
X15961721Y-9692279D01*
X15889879Y-9692279D01*
X15889879Y-9764121D01*
X15961721Y-9764121D01*
X15961721Y-10272121D02*
X15961721Y-10200279D01*
X15889879Y-10200279D01*
X15889879Y-10272121D01*
X15961721Y-10272121D01*
X15961721Y-10780121D02*
X15961721Y-10708279D01*
X15889879Y-10708279D01*
X15889879Y-10780121D01*
X15961721Y-10780121D01*
X15961721Y-11288121D02*
X15961721Y-11216279D01*
X15889879Y-11216279D01*
X15889879Y-11288121D01*
X15961721Y-11288121D01*
X16215721Y-9764121D02*
X16215721Y-9692279D01*
X16143879Y-9692279D01*
X16143879Y-9764121D01*
X16215721Y-9764121D01*
X16215721Y-10272121D02*
X16215721Y-10200279D01*
X16143879Y-10200279D01*
X16143879Y-10272121D01*
X16215721Y-10272121D01*
X16215721Y-10780121D02*
X16215721Y-10708279D01*
X16143879Y-10708279D01*
X16143879Y-10780121D01*
X16215721Y-10780121D01*
X16215721Y-11288121D02*
X16215721Y-11216279D01*
X16143879Y-11216279D01*
X16143879Y-11288121D01*
X16215721Y-11288121D01*
X16469721Y-9764121D02*
X16469721Y-9692279D01*
X16397879Y-9692279D01*
X16397879Y-9764121D01*
X16469721Y-9764121D01*
X16469721Y-10272121D02*
X16469721Y-10200279D01*
X16397879Y-10200279D01*
X16397879Y-10272121D01*
X16469721Y-10272121D01*
X16469721Y-10780121D02*
X16469721Y-10708279D01*
X16397879Y-10708279D01*
X16397879Y-10780121D01*
X16469721Y-10780121D01*
X16469721Y-11288121D02*
X16469721Y-11216279D01*
X16397879Y-11216279D01*
X16397879Y-11288121D01*
X16469721Y-11288121D01*
X16723721Y-9764121D02*
X16723721Y-9692279D01*
X16651879Y-9692279D01*
X16651879Y-9764121D01*
X16723721Y-9764121D01*
X16723721Y-10272121D02*
X16723721Y-10200279D01*
X16651879Y-10200279D01*
X16651879Y-10272121D01*
X16723721Y-10272121D01*
X16723721Y-10780121D02*
X16723721Y-10708279D01*
X16651879Y-10708279D01*
X16651879Y-10780121D01*
X16723721Y-10780121D01*
X16723721Y-11288121D02*
X16723721Y-11216279D01*
X16651879Y-11216279D01*
X16651879Y-11288121D01*
X16723721Y-11288121D01*
X16977721Y-9764121D02*
X16977721Y-9692279D01*
X16905879Y-9692279D01*
X16905879Y-9764121D01*
X16977721Y-9764121D01*
X16977721Y-10272121D02*
X16977721Y-10200279D01*
X16905879Y-10200279D01*
X16905879Y-10272121D01*
X16977721Y-10272121D01*
X16977721Y-10780121D02*
X16977721Y-10708279D01*
X16905879Y-10708279D01*
X16905879Y-10780121D01*
X16977721Y-10780121D01*
X16977721Y-11288121D02*
X16977721Y-11216279D01*
X16905879Y-11216279D01*
X16905879Y-11288121D01*
X16977721Y-11288121D01*
X17231721Y-9764121D02*
X17231721Y-9692279D01*
X17159879Y-9692279D01*
X17159879Y-9764121D01*
X17231721Y-9764121D01*
X17231721Y-10272121D02*
X17231721Y-10200279D01*
X17159879Y-10200279D01*
X17159879Y-10272121D01*
X17231721Y-10272121D01*
X17231721Y-10780121D02*
X17231721Y-10708279D01*
X17159879Y-10708279D01*
X17159879Y-10780121D01*
X17231721Y-10780121D01*
X17231721Y-11288121D02*
X17231721Y-11216279D01*
X17159879Y-11216279D01*
X17159879Y-11288121D01*
X17231721Y-11288121D01*
X13240000Y-9815000D02*
X13340000Y-9715000D01*
X13240000Y-9615000D01*
X13140000Y-9715000D01*
X13240000Y-9815000D01*
X13240000Y-11385000D02*
X13340000Y-11285000D01*
X13240000Y-11185000D01*
X13140000Y-11285000D01*
X13240000Y-11385000D01*
D13*
X12364038Y-12723574D02*
X12364038Y-12423574D01*
X12435467Y-12423574D01*
X12478324Y-12437860D01*
X12506896Y-12466431D01*
X12521181Y-12495003D01*
X12535467Y-12552146D01*
X12535467Y-12595003D01*
X12521181Y-12652146D01*
X12506896Y-12680717D01*
X12478324Y-12709289D01*
X12435467Y-12723574D01*
X12364038Y-12723574D01*
X12664038Y-12723574D02*
X12664038Y-12523574D01*
X12664038Y-12580717D02*
X12678324Y-12552146D01*
X12692610Y-12537860D01*
X12721181Y-12523574D01*
X12749753Y-12523574D01*
X12849753Y-12723574D02*
X12849753Y-12523574D01*
X12849753Y-12423574D02*
X12835467Y-12437860D01*
X12849753Y-12452146D01*
X12864038Y-12437860D01*
X12849753Y-12423574D01*
X12849753Y-12452146D01*
X13035467Y-12723574D02*
X13006896Y-12709289D01*
X12992610Y-12680717D01*
X12992610Y-12423574D01*
X13192610Y-12723574D02*
X13164038Y-12709289D01*
X13149753Y-12680717D01*
X13149753Y-12423574D01*
X13535467Y-12723574D02*
X13535467Y-12423574D01*
X13635467Y-12637860D01*
X13735467Y-12423574D01*
X13735467Y-12723574D01*
X14006896Y-12723574D02*
X14006896Y-12566431D01*
X13992610Y-12537860D01*
X13964038Y-12523574D01*
X13906896Y-12523574D01*
X13878324Y-12537860D01*
X14006896Y-12709289D02*
X13978324Y-12723574D01*
X13906896Y-12723574D01*
X13878324Y-12709289D01*
X13864038Y-12680717D01*
X13864038Y-12652146D01*
X13878324Y-12623574D01*
X13906896Y-12609289D01*
X13978324Y-12609289D01*
X14006896Y-12595003D01*
X14149753Y-12523574D02*
X14149753Y-12823574D01*
X14149753Y-12537860D02*
X14178324Y-12523574D01*
X14235467Y-12523574D01*
X14264038Y-12537860D01*
X14278324Y-12552146D01*
X14292610Y-12580717D01*
X14292610Y-12666431D01*
X14278324Y-12695003D01*
X14264038Y-12709289D01*
X14235467Y-12723574D01*
X14178324Y-12723574D01*
X14149753Y-12709289D01*
X14421181Y-12695003D02*
X14435467Y-12709289D01*
X14421181Y-12723574D01*
X14406896Y-12709289D01*
X14421181Y-12695003D01*
X14421181Y-12723574D01*
X14421181Y-12537860D02*
X14435467Y-12552146D01*
X14421181Y-12566431D01*
X14406896Y-12552146D01*
X14421181Y-12537860D01*
X14421181Y-12566431D01*
X12052610Y-13197860D02*
X12092610Y-13237860D01*
X12092610Y-13197860D02*
X12052610Y-13237860D01*
X12421181Y-13053574D02*
X12449753Y-13053574D01*
X12478324Y-13067860D01*
X12492610Y-13082146D01*
X12506896Y-13110717D01*
X12521181Y-13167860D01*
X12521181Y-13239289D01*
X12506896Y-13296431D01*
X12492610Y-13325003D01*
X12478324Y-13339289D01*
X12449753Y-13353574D01*
X12421181Y-13353574D01*
X12392610Y-13339289D01*
X12378324Y-13325003D01*
X12364038Y-13296431D01*
X12349753Y-13239289D01*
X12349753Y-13167860D01*
X12364038Y-13110717D01*
X12378324Y-13082146D01*
X12392610Y-13067860D01*
X12421181Y-13053574D01*
X12649753Y-13325003D02*
X12664038Y-13339289D01*
X12649753Y-13353574D01*
X12635467Y-13339289D01*
X12649753Y-13325003D01*
X12649753Y-13353574D01*
X12921181Y-13153574D02*
X12921181Y-13353574D01*
X12849753Y-13039289D02*
X12778324Y-13253574D01*
X12964038Y-13253574D01*
X13135467Y-13053574D02*
X13164038Y-13053574D01*
X13192610Y-13067860D01*
X13206896Y-13082146D01*
X13221181Y-13110717D01*
X13235467Y-13167860D01*
X13235467Y-13239289D01*
X13221181Y-13296431D01*
X13206896Y-13325003D01*
X13192610Y-13339289D01*
X13164038Y-13353574D01*
X13135467Y-13353574D01*
X13106896Y-13339289D01*
X13092610Y-13325003D01*
X13078324Y-13296431D01*
X13064038Y-13239289D01*
X13064038Y-13167860D01*
X13078324Y-13110717D01*
X13092610Y-13082146D01*
X13106896Y-13067860D01*
X13135467Y-13053574D01*
X13364038Y-13353574D02*
X13364038Y-13153574D01*
X13364038Y-13182146D02*
X13378324Y-13167860D01*
X13406896Y-13153574D01*
X13449753Y-13153574D01*
X13478324Y-13167860D01*
X13492610Y-13196431D01*
X13492610Y-13353574D01*
X13492610Y-13196431D02*
X13506896Y-13167860D01*
X13535467Y-13153574D01*
X13578324Y-13153574D01*
X13606896Y-13167860D01*
X13621181Y-13196431D01*
X13621181Y-13353574D01*
X13764038Y-13353574D02*
X13764038Y-13153574D01*
X13764038Y-13182146D02*
X13778324Y-13167860D01*
X13806896Y-13153574D01*
X13849753Y-13153574D01*
X13878324Y-13167860D01*
X13892610Y-13196431D01*
X13892610Y-13353574D01*
X13892610Y-13196431D02*
X13906896Y-13167860D01*
X13935467Y-13153574D01*
X13978324Y-13153574D01*
X14006896Y-13167860D01*
X14021181Y-13196431D01*
X14021181Y-13353574D01*
X14606896Y-13039289D02*
X14349753Y-13425003D01*
X14992610Y-13053574D02*
X15021181Y-13053574D01*
X15049753Y-13067860D01*
X15064038Y-13082146D01*
X15078324Y-13110717D01*
X15092610Y-13167860D01*
X15092610Y-13239289D01*
X15078324Y-13296431D01*
X15064038Y-13325003D01*
X15049753Y-13339289D01*
X15021181Y-13353574D01*
X14992610Y-13353574D01*
X14964038Y-13339289D01*
X14949753Y-13325003D01*
X14935467Y-13296431D01*
X14921181Y-13239289D01*
X14921181Y-13167860D01*
X14935467Y-13110717D01*
X14949753Y-13082146D01*
X14964038Y-13067860D01*
X14992610Y-13053574D01*
X15221181Y-13325003D02*
X15235467Y-13339289D01*
X15221181Y-13353574D01*
X15206896Y-13339289D01*
X15221181Y-13325003D01*
X15221181Y-13353574D01*
X15421181Y-13053574D02*
X15449753Y-13053574D01*
X15478324Y-13067860D01*
X15492610Y-13082146D01*
X15506895Y-13110717D01*
X15521181Y-13167860D01*
X15521181Y-13239289D01*
X15506895Y-13296431D01*
X15492610Y-13325003D01*
X15478324Y-13339289D01*
X15449753Y-13353574D01*
X15421181Y-13353574D01*
X15392610Y-13339289D01*
X15378324Y-13325003D01*
X15364038Y-13296431D01*
X15349753Y-13239289D01*
X15349753Y-13167860D01*
X15364038Y-13110717D01*
X15378324Y-13082146D01*
X15392610Y-13067860D01*
X15421181Y-13053574D01*
X15806895Y-13353574D02*
X15635467Y-13353574D01*
X15721181Y-13353574D02*
X15721181Y-13053574D01*
X15692610Y-13096431D01*
X15664038Y-13125003D01*
X15635467Y-13139289D01*
X16064038Y-13053574D02*
X16006895Y-13053574D01*
X15978324Y-13067860D01*
X15964038Y-13082146D01*
X15935467Y-13125003D01*
X15921181Y-13182146D01*
X15921181Y-13296431D01*
X15935467Y-13325003D01*
X15949753Y-13339289D01*
X15978324Y-13353574D01*
X16035467Y-13353574D01*
X16064038Y-13339289D01*
X16078324Y-13325003D01*
X16092610Y-13296431D01*
X16092610Y-13225003D01*
X16078324Y-13196431D01*
X16064038Y-13182146D01*
X16035467Y-13167860D01*
X15978324Y-13167860D01*
X15949753Y-13182146D01*
X15935467Y-13196431D01*
X15921181Y-13225003D01*
X16206896Y-13053574D02*
X16206896Y-13110717D01*
X16321181Y-13053574D02*
X16321181Y-13110717D01*
X16764038Y-13467860D02*
X16749753Y-13453574D01*
X16721181Y-13410717D01*
X16706895Y-13382146D01*
X16692610Y-13339289D01*
X16678324Y-13267860D01*
X16678324Y-13210717D01*
X16692610Y-13139289D01*
X16706895Y-13096431D01*
X16721181Y-13067860D01*
X16749753Y-13025003D01*
X16764038Y-13010717D01*
X17006896Y-13153574D02*
X17006896Y-13353574D01*
X16935467Y-13039289D02*
X16864038Y-13253574D01*
X17049753Y-13253574D01*
X17392610Y-13353574D02*
X17392610Y-13053574D01*
X17521181Y-13353574D02*
X17521181Y-13196431D01*
X17506896Y-13167860D01*
X17478324Y-13153574D01*
X17435467Y-13153574D01*
X17406896Y-13167860D01*
X17392610Y-13182146D01*
X17706896Y-13353574D02*
X17678324Y-13339289D01*
X17664038Y-13325003D01*
X17649753Y-13296431D01*
X17649753Y-13210717D01*
X17664038Y-13182146D01*
X17678324Y-13167860D01*
X17706896Y-13153574D01*
X17749753Y-13153574D01*
X17778324Y-13167860D01*
X17792610Y-13182146D01*
X17806896Y-13210717D01*
X17806896Y-13296431D01*
X17792610Y-13325003D01*
X17778324Y-13339289D01*
X17749753Y-13353574D01*
X17706896Y-13353574D01*
X17978324Y-13353574D02*
X17949753Y-13339289D01*
X17935467Y-13310717D01*
X17935467Y-13053574D01*
X18206896Y-13339289D02*
X18178324Y-13353574D01*
X18121181Y-13353574D01*
X18092610Y-13339289D01*
X18078324Y-13310717D01*
X18078324Y-13196431D01*
X18092610Y-13167860D01*
X18121181Y-13153574D01*
X18178324Y-13153574D01*
X18206896Y-13167860D01*
X18221181Y-13196431D01*
X18221181Y-13225003D01*
X18078324Y-13253574D01*
X18335467Y-13339289D02*
X18364039Y-13353574D01*
X18421181Y-13353574D01*
X18449753Y-13339289D01*
X18464039Y-13310717D01*
X18464039Y-13296431D01*
X18449753Y-13267860D01*
X18421181Y-13253574D01*
X18378324Y-13253574D01*
X18349753Y-13239289D01*
X18335467Y-13210717D01*
X18335467Y-13196431D01*
X18349753Y-13167860D01*
X18378324Y-13153574D01*
X18421181Y-13153574D01*
X18449753Y-13167860D01*
X18564038Y-13467860D02*
X18578324Y-13453574D01*
X18606896Y-13410717D01*
X18621181Y-13382146D01*
X18635467Y-13339289D01*
X18649753Y-13267860D01*
X18649753Y-13210717D01*
X18635467Y-13139289D01*
X18621181Y-13096431D01*
X18606896Y-13067860D01*
X18578324Y-13025003D01*
X18564038Y-13010717D01*
X12092610Y-13613860D02*
G75*
G03X12092610Y-13613860I-40000J0D01*
G01*
X12421181Y-13449574D02*
X12449753Y-13449574D01*
X12478324Y-13463860D01*
X12492610Y-13478146D01*
X12506896Y-13506717D01*
X12521181Y-13563860D01*
X12521181Y-13635289D01*
X12506896Y-13692431D01*
X12492610Y-13721003D01*
X12478324Y-13735289D01*
X12449753Y-13749574D01*
X12421181Y-13749574D01*
X12392610Y-13735289D01*
X12378324Y-13721003D01*
X12364038Y-13692431D01*
X12349753Y-13635289D01*
X12349753Y-13563860D01*
X12364038Y-13506717D01*
X12378324Y-13478146D01*
X12392610Y-13463860D01*
X12421181Y-13449574D01*
X12649753Y-13721003D02*
X12664038Y-13735289D01*
X12649753Y-13749574D01*
X12635467Y-13735289D01*
X12649753Y-13721003D01*
X12649753Y-13749574D01*
X12835467Y-13578146D02*
X12806896Y-13563860D01*
X12792610Y-13549574D01*
X12778324Y-13521003D01*
X12778324Y-13506717D01*
X12792610Y-13478146D01*
X12806896Y-13463860D01*
X12835467Y-13449574D01*
X12892610Y-13449574D01*
X12921181Y-13463860D01*
X12935467Y-13478146D01*
X12949753Y-13506717D01*
X12949753Y-13521003D01*
X12935467Y-13549574D01*
X12921181Y-13563860D01*
X12892610Y-13578146D01*
X12835467Y-13578146D01*
X12806896Y-13592431D01*
X12792610Y-13606717D01*
X12778324Y-13635289D01*
X12778324Y-13692431D01*
X12792610Y-13721003D01*
X12806896Y-13735289D01*
X12835467Y-13749574D01*
X12892610Y-13749574D01*
X12921181Y-13735289D01*
X12935467Y-13721003D01*
X12949753Y-13692431D01*
X12949753Y-13635289D01*
X12935467Y-13606717D01*
X12921181Y-13592431D01*
X12892610Y-13578146D01*
X13135467Y-13449574D02*
X13164038Y-13449574D01*
X13192610Y-13463860D01*
X13206896Y-13478146D01*
X13221181Y-13506717D01*
X13235467Y-13563860D01*
X13235467Y-13635289D01*
X13221181Y-13692431D01*
X13206896Y-13721003D01*
X13192610Y-13735289D01*
X13164038Y-13749574D01*
X13135467Y-13749574D01*
X13106896Y-13735289D01*
X13092610Y-13721003D01*
X13078324Y-13692431D01*
X13064038Y-13635289D01*
X13064038Y-13563860D01*
X13078324Y-13506717D01*
X13092610Y-13478146D01*
X13106896Y-13463860D01*
X13135467Y-13449574D01*
X13364038Y-13749574D02*
X13364038Y-13549574D01*
X13364038Y-13578146D02*
X13378324Y-13563860D01*
X13406896Y-13549574D01*
X13449753Y-13549574D01*
X13478324Y-13563860D01*
X13492610Y-13592431D01*
X13492610Y-13749574D01*
X13492610Y-13592431D02*
X13506896Y-13563860D01*
X13535467Y-13549574D01*
X13578324Y-13549574D01*
X13606896Y-13563860D01*
X13621181Y-13592431D01*
X13621181Y-13749574D01*
X13764038Y-13749574D02*
X13764038Y-13549574D01*
X13764038Y-13578146D02*
X13778324Y-13563860D01*
X13806896Y-13549574D01*
X13849753Y-13549574D01*
X13878324Y-13563860D01*
X13892610Y-13592431D01*
X13892610Y-13749574D01*
X13892610Y-13592431D02*
X13906896Y-13563860D01*
X13935467Y-13549574D01*
X13978324Y-13549574D01*
X14006896Y-13563860D01*
X14021181Y-13592431D01*
X14021181Y-13749574D01*
X14606896Y-13435289D02*
X14349753Y-13821003D01*
X14992610Y-13449574D02*
X15021181Y-13449574D01*
X15049753Y-13463860D01*
X15064038Y-13478146D01*
X15078324Y-13506717D01*
X15092610Y-13563860D01*
X15092610Y-13635289D01*
X15078324Y-13692431D01*
X15064038Y-13721003D01*
X15049753Y-13735289D01*
X15021181Y-13749574D01*
X14992610Y-13749574D01*
X14964038Y-13735289D01*
X14949753Y-13721003D01*
X14935467Y-13692431D01*
X14921181Y-13635289D01*
X14921181Y-13563860D01*
X14935467Y-13506717D01*
X14949753Y-13478146D01*
X14964038Y-13463860D01*
X14992610Y-13449574D01*
X15221181Y-13721003D02*
X15235467Y-13735289D01*
X15221181Y-13749574D01*
X15206896Y-13735289D01*
X15221181Y-13721003D01*
X15221181Y-13749574D01*
X15421181Y-13449574D02*
X15449753Y-13449574D01*
X15478324Y-13463860D01*
X15492610Y-13478146D01*
X15506895Y-13506717D01*
X15521181Y-13563860D01*
X15521181Y-13635289D01*
X15506895Y-13692431D01*
X15492610Y-13721003D01*
X15478324Y-13735289D01*
X15449753Y-13749574D01*
X15421181Y-13749574D01*
X15392610Y-13735289D01*
X15378324Y-13721003D01*
X15364038Y-13692431D01*
X15349753Y-13635289D01*
X15349753Y-13563860D01*
X15364038Y-13506717D01*
X15378324Y-13478146D01*
X15392610Y-13463860D01*
X15421181Y-13449574D01*
X15621181Y-13449574D02*
X15806895Y-13449574D01*
X15706895Y-13563860D01*
X15749753Y-13563860D01*
X15778324Y-13578146D01*
X15792610Y-13592431D01*
X15806895Y-13621003D01*
X15806895Y-13692431D01*
X15792610Y-13721003D01*
X15778324Y-13735289D01*
X15749753Y-13749574D01*
X15664038Y-13749574D01*
X15635467Y-13735289D01*
X15621181Y-13721003D01*
X16092610Y-13749574D02*
X15921181Y-13749574D01*
X16006895Y-13749574D02*
X16006895Y-13449574D01*
X15978324Y-13492431D01*
X15949753Y-13521003D01*
X15921181Y-13535289D01*
X16206896Y-13449574D02*
X16206896Y-13506717D01*
X16321181Y-13449574D02*
X16321181Y-13506717D01*
X16764038Y-13863860D02*
X16749753Y-13849574D01*
X16721181Y-13806717D01*
X16706895Y-13778146D01*
X16692610Y-13735289D01*
X16678324Y-13663860D01*
X16678324Y-13606717D01*
X16692610Y-13535289D01*
X16706895Y-13492431D01*
X16721181Y-13463860D01*
X16749753Y-13421003D01*
X16764038Y-13406717D01*
X17006896Y-13549574D02*
X17006896Y-13749574D01*
X16935467Y-13435289D02*
X16864038Y-13649574D01*
X17049753Y-13649574D01*
X17392610Y-13749574D02*
X17392610Y-13449574D01*
X17521181Y-13749574D02*
X17521181Y-13592431D01*
X17506896Y-13563860D01*
X17478324Y-13549574D01*
X17435467Y-13549574D01*
X17406896Y-13563860D01*
X17392610Y-13578146D01*
X17706896Y-13749574D02*
X17678324Y-13735289D01*
X17664038Y-13721003D01*
X17649753Y-13692431D01*
X17649753Y-13606717D01*
X17664038Y-13578146D01*
X17678324Y-13563860D01*
X17706896Y-13549574D01*
X17749753Y-13549574D01*
X17778324Y-13563860D01*
X17792610Y-13578146D01*
X17806896Y-13606717D01*
X17806896Y-13692431D01*
X17792610Y-13721003D01*
X17778324Y-13735289D01*
X17749753Y-13749574D01*
X17706896Y-13749574D01*
X17978324Y-13749574D02*
X17949753Y-13735289D01*
X17935467Y-13706717D01*
X17935467Y-13449574D01*
X18206896Y-13735289D02*
X18178324Y-13749574D01*
X18121181Y-13749574D01*
X18092610Y-13735289D01*
X18078324Y-13706717D01*
X18078324Y-13592431D01*
X18092610Y-13563860D01*
X18121181Y-13549574D01*
X18178324Y-13549574D01*
X18206896Y-13563860D01*
X18221181Y-13592431D01*
X18221181Y-13621003D01*
X18078324Y-13649574D01*
X18335467Y-13735289D02*
X18364039Y-13749574D01*
X18421181Y-13749574D01*
X18449753Y-13735289D01*
X18464039Y-13706717D01*
X18464039Y-13692431D01*
X18449753Y-13663860D01*
X18421181Y-13649574D01*
X18378324Y-13649574D01*
X18349753Y-13635289D01*
X18335467Y-13606717D01*
X18335467Y-13592431D01*
X18349753Y-13563860D01*
X18378324Y-13549574D01*
X18421181Y-13549574D01*
X18449753Y-13563860D01*
X18564038Y-13863860D02*
X18578324Y-13849574D01*
X18606896Y-13806717D01*
X18621181Y-13778146D01*
X18635467Y-13735289D01*
X18649753Y-13663860D01*
X18649753Y-13606717D01*
X18635467Y-13535289D01*
X18621181Y-13492431D01*
X18606896Y-13463860D01*
X18578324Y-13421003D01*
X18564038Y-13406717D01*
X12048160Y-13965410D02*
X12048160Y-14054310D01*
X12003710Y-14009860D02*
X12092610Y-14009860D01*
X12421181Y-13845574D02*
X12449753Y-13845574D01*
X12478324Y-13859860D01*
X12492610Y-13874146D01*
X12506896Y-13902717D01*
X12521181Y-13959860D01*
X12521181Y-14031289D01*
X12506896Y-14088431D01*
X12492610Y-14117003D01*
X12478324Y-14131289D01*
X12449753Y-14145574D01*
X12421181Y-14145574D01*
X12392610Y-14131289D01*
X12378324Y-14117003D01*
X12364038Y-14088431D01*
X12349753Y-14031289D01*
X12349753Y-13959860D01*
X12364038Y-13902717D01*
X12378324Y-13874146D01*
X12392610Y-13859860D01*
X12421181Y-13845574D01*
X12649753Y-14117003D02*
X12664038Y-14131289D01*
X12649753Y-14145574D01*
X12635467Y-14131289D01*
X12649753Y-14117003D01*
X12649753Y-14145574D01*
X12835467Y-13974146D02*
X12806896Y-13959860D01*
X12792610Y-13945574D01*
X12778324Y-13917003D01*
X12778324Y-13902717D01*
X12792610Y-13874146D01*
X12806896Y-13859860D01*
X12835467Y-13845574D01*
X12892610Y-13845574D01*
X12921181Y-13859860D01*
X12935467Y-13874146D01*
X12949753Y-13902717D01*
X12949753Y-13917003D01*
X12935467Y-13945574D01*
X12921181Y-13959860D01*
X12892610Y-13974146D01*
X12835467Y-13974146D01*
X12806896Y-13988431D01*
X12792610Y-14002717D01*
X12778324Y-14031289D01*
X12778324Y-14088431D01*
X12792610Y-14117003D01*
X12806896Y-14131289D01*
X12835467Y-14145574D01*
X12892610Y-14145574D01*
X12921181Y-14131289D01*
X12935467Y-14117003D01*
X12949753Y-14088431D01*
X12949753Y-14031289D01*
X12935467Y-14002717D01*
X12921181Y-13988431D01*
X12892610Y-13974146D01*
X13092610Y-14145574D02*
X13149753Y-14145574D01*
X13178324Y-14131289D01*
X13192610Y-14117003D01*
X13221181Y-14074146D01*
X13235467Y-14017003D01*
X13235467Y-13902717D01*
X13221181Y-13874146D01*
X13206896Y-13859860D01*
X13178324Y-13845574D01*
X13121181Y-13845574D01*
X13092610Y-13859860D01*
X13078324Y-13874146D01*
X13064038Y-13902717D01*
X13064038Y-13974146D01*
X13078324Y-14002717D01*
X13092610Y-14017003D01*
X13121181Y-14031289D01*
X13178324Y-14031289D01*
X13206896Y-14017003D01*
X13221181Y-14002717D01*
X13235467Y-13974146D01*
X13364038Y-14145574D02*
X13364038Y-13945574D01*
X13364038Y-13974146D02*
X13378324Y-13959860D01*
X13406896Y-13945574D01*
X13449753Y-13945574D01*
X13478324Y-13959860D01*
X13492610Y-13988431D01*
X13492610Y-14145574D01*
X13492610Y-13988431D02*
X13506896Y-13959860D01*
X13535467Y-13945574D01*
X13578324Y-13945574D01*
X13606896Y-13959860D01*
X13621181Y-13988431D01*
X13621181Y-14145574D01*
X13764038Y-14145574D02*
X13764038Y-13945574D01*
X13764038Y-13974146D02*
X13778324Y-13959860D01*
X13806896Y-13945574D01*
X13849753Y-13945574D01*
X13878324Y-13959860D01*
X13892610Y-13988431D01*
X13892610Y-14145574D01*
X13892610Y-13988431D02*
X13906896Y-13959860D01*
X13935467Y-13945574D01*
X13978324Y-13945574D01*
X14006896Y-13959860D01*
X14021181Y-13988431D01*
X14021181Y-14145574D01*
X14606896Y-13831289D02*
X14349753Y-14217003D01*
X14992610Y-13845574D02*
X15021181Y-13845574D01*
X15049753Y-13859860D01*
X15064038Y-13874146D01*
X15078324Y-13902717D01*
X15092610Y-13959860D01*
X15092610Y-14031289D01*
X15078324Y-14088431D01*
X15064038Y-14117003D01*
X15049753Y-14131289D01*
X15021181Y-14145574D01*
X14992610Y-14145574D01*
X14964038Y-14131289D01*
X14949753Y-14117003D01*
X14935467Y-14088431D01*
X14921181Y-14031289D01*
X14921181Y-13959860D01*
X14935467Y-13902717D01*
X14949753Y-13874146D01*
X14964038Y-13859860D01*
X14992610Y-13845574D01*
X15221181Y-14117003D02*
X15235467Y-14131289D01*
X15221181Y-14145574D01*
X15206896Y-14131289D01*
X15221181Y-14117003D01*
X15221181Y-14145574D01*
X15421181Y-13845574D02*
X15449753Y-13845574D01*
X15478324Y-13859860D01*
X15492610Y-13874146D01*
X15506895Y-13902717D01*
X15521181Y-13959860D01*
X15521181Y-14031289D01*
X15506895Y-14088431D01*
X15492610Y-14117003D01*
X15478324Y-14131289D01*
X15449753Y-14145574D01*
X15421181Y-14145574D01*
X15392610Y-14131289D01*
X15378324Y-14117003D01*
X15364038Y-14088431D01*
X15349753Y-14031289D01*
X15349753Y-13959860D01*
X15364038Y-13902717D01*
X15378324Y-13874146D01*
X15392610Y-13859860D01*
X15421181Y-13845574D01*
X15621181Y-13845574D02*
X15806895Y-13845574D01*
X15706895Y-13959860D01*
X15749753Y-13959860D01*
X15778324Y-13974146D01*
X15792610Y-13988431D01*
X15806895Y-14017003D01*
X15806895Y-14088431D01*
X15792610Y-14117003D01*
X15778324Y-14131289D01*
X15749753Y-14145574D01*
X15664038Y-14145574D01*
X15635467Y-14131289D01*
X15621181Y-14117003D01*
X16078324Y-13845574D02*
X15935467Y-13845574D01*
X15921181Y-13988431D01*
X15935467Y-13974146D01*
X15964038Y-13959860D01*
X16035467Y-13959860D01*
X16064038Y-13974146D01*
X16078324Y-13988431D01*
X16092610Y-14017003D01*
X16092610Y-14088431D01*
X16078324Y-14117003D01*
X16064038Y-14131289D01*
X16035467Y-14145574D01*
X15964038Y-14145574D01*
X15935467Y-14131289D01*
X15921181Y-14117003D01*
X16206896Y-13845574D02*
X16206896Y-13902717D01*
X16321181Y-13845574D02*
X16321181Y-13902717D01*
X16764038Y-14259860D02*
X16749753Y-14245574D01*
X16721181Y-14202717D01*
X16706895Y-14174146D01*
X16692610Y-14131289D01*
X16678324Y-14059860D01*
X16678324Y-14002717D01*
X16692610Y-13931289D01*
X16706895Y-13888431D01*
X16721181Y-13859860D01*
X16749753Y-13817003D01*
X16764038Y-13802717D01*
X16849753Y-13845574D02*
X17049753Y-13845574D01*
X16921181Y-14145574D01*
X17149753Y-13874146D02*
X17164038Y-13859860D01*
X17192610Y-13845574D01*
X17264038Y-13845574D01*
X17292610Y-13859860D01*
X17306896Y-13874146D01*
X17321181Y-13902717D01*
X17321181Y-13931289D01*
X17306896Y-13974146D01*
X17135467Y-14145574D01*
X17321181Y-14145574D01*
X17678324Y-14145574D02*
X17678324Y-13845574D01*
X17806896Y-14145574D02*
X17806896Y-13988431D01*
X17792610Y-13959860D01*
X17764038Y-13945574D01*
X17721181Y-13945574D01*
X17692610Y-13959860D01*
X17678324Y-13974146D01*
X17992610Y-14145574D02*
X17964038Y-14131289D01*
X17949753Y-14117003D01*
X17935467Y-14088431D01*
X17935467Y-14002717D01*
X17949753Y-13974146D01*
X17964038Y-13959860D01*
X17992610Y-13945574D01*
X18035467Y-13945574D01*
X18064038Y-13959860D01*
X18078324Y-13974146D01*
X18092610Y-14002717D01*
X18092610Y-14088431D01*
X18078324Y-14117003D01*
X18064038Y-14131289D01*
X18035467Y-14145574D01*
X17992610Y-14145574D01*
X18264038Y-14145574D02*
X18235467Y-14131289D01*
X18221181Y-14102717D01*
X18221181Y-13845574D01*
X18492610Y-14131289D02*
X18464039Y-14145574D01*
X18406896Y-14145574D01*
X18378324Y-14131289D01*
X18364039Y-14102717D01*
X18364039Y-13988431D01*
X18378324Y-13959860D01*
X18406896Y-13945574D01*
X18464039Y-13945574D01*
X18492610Y-13959860D01*
X18506896Y-13988431D01*
X18506896Y-14017003D01*
X18364039Y-14045574D01*
X18621181Y-14131289D02*
X18649753Y-14145574D01*
X18706896Y-14145574D01*
X18735467Y-14131289D01*
X18749753Y-14102717D01*
X18749753Y-14088431D01*
X18735467Y-14059860D01*
X18706896Y-14045574D01*
X18664039Y-14045574D01*
X18635467Y-14031289D01*
X18621181Y-14002717D01*
X18621181Y-13988431D01*
X18635467Y-13959860D01*
X18664039Y-13945574D01*
X18706896Y-13945574D01*
X18735467Y-13959860D01*
X18849753Y-14259860D02*
X18864039Y-14245574D01*
X18892610Y-14202717D01*
X18906896Y-14174146D01*
X18921181Y-14131289D01*
X18935467Y-14059860D01*
X18935467Y-14002717D01*
X18921181Y-13931289D01*
X18906896Y-13888431D01*
X18892610Y-13859860D01*
X18864039Y-13817003D01*
X18849753Y-13802717D01*
X12077731Y-14441781D02*
X12077731Y-14369939D01*
X12005888Y-14369939D01*
X12005888Y-14441781D01*
X12077731Y-14441781D01*
X12521181Y-14541574D02*
X12349753Y-14541574D01*
X12435467Y-14541574D02*
X12435467Y-14241574D01*
X12406896Y-14284431D01*
X12378324Y-14313003D01*
X12349753Y-14327289D01*
X12649753Y-14513003D02*
X12664038Y-14527289D01*
X12649753Y-14541574D01*
X12635467Y-14527289D01*
X12649753Y-14513003D01*
X12649753Y-14541574D01*
X12849753Y-14241574D02*
X12878324Y-14241574D01*
X12906896Y-14255860D01*
X12921181Y-14270146D01*
X12935467Y-14298717D01*
X12949753Y-14355860D01*
X12949753Y-14427289D01*
X12935467Y-14484431D01*
X12921181Y-14513003D01*
X12906896Y-14527289D01*
X12878324Y-14541574D01*
X12849753Y-14541574D01*
X12821181Y-14527289D01*
X12806896Y-14513003D01*
X12792610Y-14484431D01*
X12778324Y-14427289D01*
X12778324Y-14355860D01*
X12792610Y-14298717D01*
X12806896Y-14270146D01*
X12821181Y-14255860D01*
X12849753Y-14241574D01*
X13064038Y-14270146D02*
X13078324Y-14255860D01*
X13106896Y-14241574D01*
X13178324Y-14241574D01*
X13206896Y-14255860D01*
X13221181Y-14270146D01*
X13235467Y-14298717D01*
X13235467Y-14327289D01*
X13221181Y-14370146D01*
X13049753Y-14541574D01*
X13235467Y-14541574D01*
X13364038Y-14541574D02*
X13364038Y-14341574D01*
X13364038Y-14370146D02*
X13378324Y-14355860D01*
X13406896Y-14341574D01*
X13449753Y-14341574D01*
X13478324Y-14355860D01*
X13492610Y-14384431D01*
X13492610Y-14541574D01*
X13492610Y-14384431D02*
X13506896Y-14355860D01*
X13535467Y-14341574D01*
X13578324Y-14341574D01*
X13606896Y-14355860D01*
X13621181Y-14384431D01*
X13621181Y-14541574D01*
X13764038Y-14541574D02*
X13764038Y-14341574D01*
X13764038Y-14370146D02*
X13778324Y-14355860D01*
X13806896Y-14341574D01*
X13849753Y-14341574D01*
X13878324Y-14355860D01*
X13892610Y-14384431D01*
X13892610Y-14541574D01*
X13892610Y-14384431D02*
X13906896Y-14355860D01*
X13935467Y-14341574D01*
X13978324Y-14341574D01*
X14006896Y-14355860D01*
X14021181Y-14384431D01*
X14021181Y-14541574D01*
X14606896Y-14227289D02*
X14349753Y-14613003D01*
X14992610Y-14241574D02*
X15021181Y-14241574D01*
X15049753Y-14255860D01*
X15064038Y-14270146D01*
X15078324Y-14298717D01*
X15092610Y-14355860D01*
X15092610Y-14427289D01*
X15078324Y-14484431D01*
X15064038Y-14513003D01*
X15049753Y-14527289D01*
X15021181Y-14541574D01*
X14992610Y-14541574D01*
X14964038Y-14527289D01*
X14949753Y-14513003D01*
X14935467Y-14484431D01*
X14921181Y-14427289D01*
X14921181Y-14355860D01*
X14935467Y-14298717D01*
X14949753Y-14270146D01*
X14964038Y-14255860D01*
X14992610Y-14241574D01*
X15221181Y-14513003D02*
X15235467Y-14527289D01*
X15221181Y-14541574D01*
X15206896Y-14527289D01*
X15221181Y-14513003D01*
X15221181Y-14541574D01*
X15421181Y-14241574D02*
X15449753Y-14241574D01*
X15478324Y-14255860D01*
X15492610Y-14270146D01*
X15506895Y-14298717D01*
X15521181Y-14355860D01*
X15521181Y-14427289D01*
X15506895Y-14484431D01*
X15492610Y-14513003D01*
X15478324Y-14527289D01*
X15449753Y-14541574D01*
X15421181Y-14541574D01*
X15392610Y-14527289D01*
X15378324Y-14513003D01*
X15364038Y-14484431D01*
X15349753Y-14427289D01*
X15349753Y-14355860D01*
X15364038Y-14298717D01*
X15378324Y-14270146D01*
X15392610Y-14255860D01*
X15421181Y-14241574D01*
X15778324Y-14341574D02*
X15778324Y-14541574D01*
X15706895Y-14227289D02*
X15635467Y-14441574D01*
X15821181Y-14441574D01*
X15992610Y-14241574D02*
X16021181Y-14241574D01*
X16049753Y-14255860D01*
X16064038Y-14270146D01*
X16078324Y-14298717D01*
X16092610Y-14355860D01*
X16092610Y-14427289D01*
X16078324Y-14484431D01*
X16064038Y-14513003D01*
X16049753Y-14527289D01*
X16021181Y-14541574D01*
X15992610Y-14541574D01*
X15964038Y-14527289D01*
X15949753Y-14513003D01*
X15935467Y-14484431D01*
X15921181Y-14427289D01*
X15921181Y-14355860D01*
X15935467Y-14298717D01*
X15949753Y-14270146D01*
X15964038Y-14255860D01*
X15992610Y-14241574D01*
X16206896Y-14241574D02*
X16206896Y-14298717D01*
X16321181Y-14241574D02*
X16321181Y-14298717D01*
X16764038Y-14655860D02*
X16749753Y-14641574D01*
X16721181Y-14598717D01*
X16706895Y-14570146D01*
X16692610Y-14527289D01*
X16678324Y-14455860D01*
X16678324Y-14398717D01*
X16692610Y-14327289D01*
X16706895Y-14284431D01*
X16721181Y-14255860D01*
X16749753Y-14213003D01*
X16764038Y-14198717D01*
X17006896Y-14341574D02*
X17006896Y-14541574D01*
X16935467Y-14227289D02*
X16864038Y-14441574D01*
X17049753Y-14441574D01*
X17206896Y-14370146D02*
X17178324Y-14355860D01*
X17164038Y-14341574D01*
X17149753Y-14313003D01*
X17149753Y-14298717D01*
X17164038Y-14270146D01*
X17178324Y-14255860D01*
X17206896Y-14241574D01*
X17264038Y-14241574D01*
X17292610Y-14255860D01*
X17306896Y-14270146D01*
X17321181Y-14298717D01*
X17321181Y-14313003D01*
X17306896Y-14341574D01*
X17292610Y-14355860D01*
X17264038Y-14370146D01*
X17206896Y-14370146D01*
X17178324Y-14384431D01*
X17164038Y-14398717D01*
X17149753Y-14427289D01*
X17149753Y-14484431D01*
X17164038Y-14513003D01*
X17178324Y-14527289D01*
X17206896Y-14541574D01*
X17264038Y-14541574D01*
X17292610Y-14527289D01*
X17306896Y-14513003D01*
X17321181Y-14484431D01*
X17321181Y-14427289D01*
X17306896Y-14398717D01*
X17292610Y-14384431D01*
X17264038Y-14370146D01*
X17678324Y-14541574D02*
X17678324Y-14241574D01*
X17806896Y-14541574D02*
X17806896Y-14384431D01*
X17792610Y-14355860D01*
X17764038Y-14341574D01*
X17721181Y-14341574D01*
X17692610Y-14355860D01*
X17678324Y-14370146D01*
X17992610Y-14541574D02*
X17964038Y-14527289D01*
X17949753Y-14513003D01*
X17935467Y-14484431D01*
X17935467Y-14398717D01*
X17949753Y-14370146D01*
X17964038Y-14355860D01*
X17992610Y-14341574D01*
X18035467Y-14341574D01*
X18064038Y-14355860D01*
X18078324Y-14370146D01*
X18092610Y-14398717D01*
X18092610Y-14484431D01*
X18078324Y-14513003D01*
X18064038Y-14527289D01*
X18035467Y-14541574D01*
X17992610Y-14541574D01*
X18264038Y-14541574D02*
X18235467Y-14527289D01*
X18221181Y-14498717D01*
X18221181Y-14241574D01*
X18492610Y-14527289D02*
X18464039Y-14541574D01*
X18406896Y-14541574D01*
X18378324Y-14527289D01*
X18364039Y-14498717D01*
X18364039Y-14384431D01*
X18378324Y-14355860D01*
X18406896Y-14341574D01*
X18464039Y-14341574D01*
X18492610Y-14355860D01*
X18506896Y-14384431D01*
X18506896Y-14413003D01*
X18364039Y-14441574D01*
X18621181Y-14527289D02*
X18649753Y-14541574D01*
X18706896Y-14541574D01*
X18735467Y-14527289D01*
X18749753Y-14498717D01*
X18749753Y-14484431D01*
X18735467Y-14455860D01*
X18706896Y-14441574D01*
X18664039Y-14441574D01*
X18635467Y-14427289D01*
X18621181Y-14398717D01*
X18621181Y-14384431D01*
X18635467Y-14355860D01*
X18664039Y-14341574D01*
X18706896Y-14341574D01*
X18735467Y-14355860D01*
X18849753Y-14655860D02*
X18864039Y-14641574D01*
X18892610Y-14598717D01*
X18906896Y-14570146D01*
X18921181Y-14527289D01*
X18935467Y-14455860D01*
X18935467Y-14398717D01*
X18921181Y-14327289D01*
X18906896Y-14284431D01*
X18892610Y-14255860D01*
X18864039Y-14213003D01*
X18849753Y-14198717D01*
X11992610Y-14901860D02*
X12092610Y-14801860D01*
X11992610Y-14701860D01*
X11892610Y-14801860D01*
X11992610Y-14901860D01*
X12349753Y-14666146D02*
X12364038Y-14651860D01*
X12392610Y-14637574D01*
X12464038Y-14637574D01*
X12492610Y-14651860D01*
X12506896Y-14666146D01*
X12521181Y-14694717D01*
X12521181Y-14723289D01*
X12506896Y-14766146D01*
X12335467Y-14937574D01*
X12521181Y-14937574D01*
X12649753Y-14909003D02*
X12664038Y-14923289D01*
X12649753Y-14937574D01*
X12635467Y-14923289D01*
X12649753Y-14909003D01*
X12649753Y-14937574D01*
X12849753Y-14637574D02*
X12878324Y-14637574D01*
X12906896Y-14651860D01*
X12921181Y-14666146D01*
X12935467Y-14694717D01*
X12949753Y-14751860D01*
X12949753Y-14823289D01*
X12935467Y-14880431D01*
X12921181Y-14909003D01*
X12906896Y-14923289D01*
X12878324Y-14937574D01*
X12849753Y-14937574D01*
X12821181Y-14923289D01*
X12806896Y-14909003D01*
X12792610Y-14880431D01*
X12778324Y-14823289D01*
X12778324Y-14751860D01*
X12792610Y-14694717D01*
X12806896Y-14666146D01*
X12821181Y-14651860D01*
X12849753Y-14637574D01*
X13135467Y-14637574D02*
X13164038Y-14637574D01*
X13192610Y-14651860D01*
X13206896Y-14666146D01*
X13221181Y-14694717D01*
X13235467Y-14751860D01*
X13235467Y-14823289D01*
X13221181Y-14880431D01*
X13206896Y-14909003D01*
X13192610Y-14923289D01*
X13164038Y-14937574D01*
X13135467Y-14937574D01*
X13106896Y-14923289D01*
X13092610Y-14909003D01*
X13078324Y-14880431D01*
X13064038Y-14823289D01*
X13064038Y-14751860D01*
X13078324Y-14694717D01*
X13092610Y-14666146D01*
X13106896Y-14651860D01*
X13135467Y-14637574D01*
X13364038Y-14937574D02*
X13364038Y-14737574D01*
X13364038Y-14766146D02*
X13378324Y-14751860D01*
X13406896Y-14737574D01*
X13449753Y-14737574D01*
X13478324Y-14751860D01*
X13492610Y-14780431D01*
X13492610Y-14937574D01*
X13492610Y-14780431D02*
X13506896Y-14751860D01*
X13535467Y-14737574D01*
X13578324Y-14737574D01*
X13606896Y-14751860D01*
X13621181Y-14780431D01*
X13621181Y-14937574D01*
X13764038Y-14937574D02*
X13764038Y-14737574D01*
X13764038Y-14766146D02*
X13778324Y-14751860D01*
X13806896Y-14737574D01*
X13849753Y-14737574D01*
X13878324Y-14751860D01*
X13892610Y-14780431D01*
X13892610Y-14937574D01*
X13892610Y-14780431D02*
X13906896Y-14751860D01*
X13935467Y-14737574D01*
X13978324Y-14737574D01*
X14006896Y-14751860D01*
X14021181Y-14780431D01*
X14021181Y-14937574D01*
X14606896Y-14623289D02*
X14349753Y-15009003D01*
X14992610Y-14637574D02*
X15021181Y-14637574D01*
X15049753Y-14651860D01*
X15064038Y-14666146D01*
X15078324Y-14694717D01*
X15092610Y-14751860D01*
X15092610Y-14823289D01*
X15078324Y-14880431D01*
X15064038Y-14909003D01*
X15049753Y-14923289D01*
X15021181Y-14937574D01*
X14992610Y-14937574D01*
X14964038Y-14923289D01*
X14949753Y-14909003D01*
X14935467Y-14880431D01*
X14921181Y-14823289D01*
X14921181Y-14751860D01*
X14935467Y-14694717D01*
X14949753Y-14666146D01*
X14964038Y-14651860D01*
X14992610Y-14637574D01*
X15221181Y-14909003D02*
X15235467Y-14923289D01*
X15221181Y-14937574D01*
X15206896Y-14923289D01*
X15221181Y-14909003D01*
X15221181Y-14937574D01*
X15421181Y-14637574D02*
X15449753Y-14637574D01*
X15478324Y-14651860D01*
X15492610Y-14666146D01*
X15506895Y-14694717D01*
X15521181Y-14751860D01*
X15521181Y-14823289D01*
X15506895Y-14880431D01*
X15492610Y-14909003D01*
X15478324Y-14923289D01*
X15449753Y-14937574D01*
X15421181Y-14937574D01*
X15392610Y-14923289D01*
X15378324Y-14909003D01*
X15364038Y-14880431D01*
X15349753Y-14823289D01*
X15349753Y-14751860D01*
X15364038Y-14694717D01*
X15378324Y-14666146D01*
X15392610Y-14651860D01*
X15421181Y-14637574D01*
X15621181Y-14637574D02*
X15821181Y-14637574D01*
X15692610Y-14937574D01*
X15949753Y-14937574D02*
X16006895Y-14937574D01*
X16035467Y-14923289D01*
X16049753Y-14909003D01*
X16078324Y-14866146D01*
X16092610Y-14809003D01*
X16092610Y-14694717D01*
X16078324Y-14666146D01*
X16064038Y-14651860D01*
X16035467Y-14637574D01*
X15978324Y-14637574D01*
X15949753Y-14651860D01*
X15935467Y-14666146D01*
X15921181Y-14694717D01*
X15921181Y-14766146D01*
X15935467Y-14794717D01*
X15949753Y-14809003D01*
X15978324Y-14823289D01*
X16035467Y-14823289D01*
X16064038Y-14809003D01*
X16078324Y-14794717D01*
X16092610Y-14766146D01*
X16206896Y-14637574D02*
X16206896Y-14694717D01*
X16321181Y-14637574D02*
X16321181Y-14694717D01*
X16764038Y-15051860D02*
X16749753Y-15037574D01*
X16721181Y-14994717D01*
X16706895Y-14966146D01*
X16692610Y-14923289D01*
X16678324Y-14851860D01*
X16678324Y-14794717D01*
X16692610Y-14723289D01*
X16706895Y-14680431D01*
X16721181Y-14651860D01*
X16749753Y-14609003D01*
X16764038Y-14594717D01*
X16864038Y-14666146D02*
X16878324Y-14651860D01*
X16906896Y-14637574D01*
X16978324Y-14637574D01*
X17006896Y-14651860D01*
X17021181Y-14666146D01*
X17035467Y-14694717D01*
X17035467Y-14723289D01*
X17021181Y-14766146D01*
X16849753Y-14937574D01*
X17035467Y-14937574D01*
X17392610Y-14937574D02*
X17392610Y-14637574D01*
X17521181Y-14937574D02*
X17521181Y-14780431D01*
X17506896Y-14751860D01*
X17478324Y-14737574D01*
X17435467Y-14737574D01*
X17406896Y-14751860D01*
X17392610Y-14766146D01*
X17706896Y-14937574D02*
X17678324Y-14923289D01*
X17664038Y-14909003D01*
X17649753Y-14880431D01*
X17649753Y-14794717D01*
X17664038Y-14766146D01*
X17678324Y-14751860D01*
X17706896Y-14737574D01*
X17749753Y-14737574D01*
X17778324Y-14751860D01*
X17792610Y-14766146D01*
X17806896Y-14794717D01*
X17806896Y-14880431D01*
X17792610Y-14909003D01*
X17778324Y-14923289D01*
X17749753Y-14937574D01*
X17706896Y-14937574D01*
X17978324Y-14937574D02*
X17949753Y-14923289D01*
X17935467Y-14894717D01*
X17935467Y-14637574D01*
X18206896Y-14923289D02*
X18178324Y-14937574D01*
X18121181Y-14937574D01*
X18092610Y-14923289D01*
X18078324Y-14894717D01*
X18078324Y-14780431D01*
X18092610Y-14751860D01*
X18121181Y-14737574D01*
X18178324Y-14737574D01*
X18206896Y-14751860D01*
X18221181Y-14780431D01*
X18221181Y-14809003D01*
X18078324Y-14837574D01*
X18335467Y-14923289D02*
X18364039Y-14937574D01*
X18421181Y-14937574D01*
X18449753Y-14923289D01*
X18464039Y-14894717D01*
X18464039Y-14880431D01*
X18449753Y-14851860D01*
X18421181Y-14837574D01*
X18378324Y-14837574D01*
X18349753Y-14823289D01*
X18335467Y-14794717D01*
X18335467Y-14780431D01*
X18349753Y-14751860D01*
X18378324Y-14737574D01*
X18421181Y-14737574D01*
X18449753Y-14751860D01*
X18564038Y-15051860D02*
X18578324Y-15037574D01*
X18606896Y-14994717D01*
X18621181Y-14966146D01*
X18635467Y-14923289D01*
X18649753Y-14851860D01*
X18649753Y-14794717D01*
X18635467Y-14723289D01*
X18621181Y-14680431D01*
X18606896Y-14651860D01*
X18578324Y-14609003D01*
X18564038Y-14594717D01*
M02*
