G04 (created by PCBNEW (25-Oct-2014 BZR 4029)-stable) date Sun 29 Mar 2015 05:09:11 PM EEST*
%MOIN*%
G04 Gerber Fmt 3.4, Leading zero omitted, Abs format*
%FSLAX34Y34*%
G01*
G70*
G90*
G04 APERTURE LIST*
%ADD10C,0.00590551*%
%ADD11C,0.015*%
%ADD12C,0.0001*%
%ADD13R,0.08X0.08*%
%ADD14C,0.08*%
%ADD15C,0.2*%
%ADD16R,0.085X0.085*%
%ADD17C,0.0712*%
%ADD18R,0.1X0.1*%
%ADD19C,0.1*%
G04 APERTURE END LIST*
G54D10*
G54D11*
X29174Y0D02*
X5262Y0D01*
X9200Y-21500D02*
X9250Y-21500D01*
X5066Y-21500D02*
X28651Y-21500D01*
X31250Y-15400D02*
X25950Y-15400D01*
X31250Y-21500D02*
X28500Y-21500D01*
X31250Y-21500D02*
X31250Y-15450D01*
X5250Y0D02*
X4900Y0D01*
X25200Y0D02*
X27250Y0D01*
X27250Y-21500D02*
X25250Y-21500D01*
X5000Y-21500D02*
X5250Y-21500D01*
X27250Y-21500D02*
X28500Y-21500D01*
X27250Y0D02*
X28500Y0D01*
X25950Y-8100D02*
X25950Y-15400D01*
X34000Y-8100D02*
X25950Y-8100D01*
X34000Y-7900D02*
X34000Y-8100D01*
X28400Y0D02*
X31500Y0D01*
X0Y-5000D02*
X0Y-16500D01*
X34000Y-2500D02*
X34000Y-7950D01*
X34000Y-2500D02*
G75*
G03X31500Y0I-2500J0D01*
G74*
G01*
X0Y-16500D02*
G75*
G03X5000Y-21500I5000J0D01*
G74*
G01*
X5000Y0D02*
G75*
G03X0Y-5000I0J-5000D01*
G74*
G01*
G54D12*
G36*
X13727Y-4721D02*
X13575Y-4792D01*
X13497Y-4925D01*
X13506Y-4978D01*
X13579Y-5003D01*
X13667Y-4949D01*
X13738Y-4888D01*
X13878Y-4872D01*
X13921Y-4887D01*
X13926Y-4950D01*
X13845Y-5014D01*
X13778Y-5041D01*
X13622Y-5110D01*
X13547Y-5164D01*
X13517Y-5225D01*
X13513Y-5248D01*
X13545Y-5383D01*
X13658Y-5471D01*
X13810Y-5502D01*
X13960Y-5467D01*
X14066Y-5356D01*
X14084Y-5315D01*
X14094Y-5252D01*
X14019Y-5243D01*
X13989Y-5246D01*
X13915Y-5293D01*
X13875Y-5326D01*
X13768Y-5343D01*
X13689Y-5313D01*
X13687Y-5310D01*
X13723Y-5247D01*
X13891Y-5182D01*
X13977Y-5150D01*
X14070Y-5093D01*
X14086Y-5070D01*
X14106Y-4925D01*
X14022Y-4786D01*
X13903Y-4725D01*
X13727Y-4721D01*
X13727Y-4721D01*
G37*
G36*
X14221Y-4743D02*
X14181Y-4743D01*
X14152Y-4760D01*
X14157Y-4819D01*
X14201Y-4949D01*
X14286Y-5176D01*
X14318Y-5258D01*
X14378Y-5394D01*
X14428Y-5452D01*
X14495Y-5470D01*
X14532Y-5472D01*
X14597Y-5446D01*
X14646Y-5336D01*
X14648Y-5331D01*
X14708Y-5164D01*
X14781Y-4968D01*
X14867Y-4743D01*
X14771Y-4743D01*
X14730Y-4746D01*
X14653Y-4809D01*
X14610Y-4862D01*
X14489Y-4876D01*
X14489Y-5043D01*
X14514Y-5043D01*
X14565Y-5071D01*
X14526Y-5168D01*
X14484Y-5243D01*
X14443Y-5133D01*
X14427Y-5056D01*
X14489Y-5043D01*
X14489Y-4876D01*
X14488Y-4876D01*
X14371Y-4864D01*
X14327Y-4809D01*
X14317Y-4786D01*
X14221Y-4743D01*
X14221Y-4743D01*
G37*
G36*
X11370Y-4743D02*
X11320Y-4745D01*
X11277Y-4779D01*
X11270Y-4897D01*
X11245Y-5058D01*
X11153Y-5243D01*
X11143Y-5260D01*
X11067Y-5391D01*
X11037Y-5456D01*
X11045Y-5464D01*
X11128Y-5476D01*
X11215Y-5450D01*
X11298Y-5339D01*
X11376Y-5201D01*
X11458Y-5339D01*
X11464Y-5348D01*
X11546Y-5451D01*
X11641Y-5476D01*
X11742Y-5476D01*
X11676Y-5368D01*
X11635Y-5300D01*
X11540Y-5143D01*
X11514Y-5091D01*
X11470Y-4884D01*
X11469Y-4826D01*
X11448Y-4755D01*
X11370Y-4743D01*
X11370Y-4743D01*
G37*
G36*
X10371Y-4743D02*
X10371Y-5476D01*
X10616Y-5476D01*
X10738Y-5474D01*
X10855Y-5455D01*
X10921Y-5408D01*
X10964Y-5339D01*
X10944Y-5235D01*
X10921Y-5151D01*
X10954Y-5076D01*
X11001Y-4948D01*
X10937Y-4809D01*
X10897Y-4778D01*
X10799Y-4750D01*
X10649Y-4744D01*
X10649Y-4876D01*
X10670Y-4876D01*
X10777Y-4899D01*
X10803Y-4982D01*
X10779Y-5029D01*
X10671Y-5043D01*
X10641Y-5043D01*
X10612Y-5037D01*
X10612Y-5179D01*
X10730Y-5201D01*
X10770Y-5279D01*
X10752Y-5326D01*
X10654Y-5343D01*
X10558Y-5329D01*
X10537Y-5259D01*
X10544Y-5209D01*
X10612Y-5179D01*
X10612Y-5037D01*
X10555Y-5026D01*
X10537Y-4959D01*
X10555Y-4892D01*
X10649Y-4876D01*
X10649Y-4744D01*
X10621Y-4743D01*
X10371Y-4743D01*
X10371Y-4743D01*
G37*
G36*
X6304Y-4817D02*
X5832Y-4885D01*
X5390Y-5058D01*
X5006Y-5325D01*
X4705Y-5675D01*
X4597Y-5843D01*
X4104Y-5843D01*
X4104Y-7381D01*
X4104Y-7608D01*
X4105Y-8051D01*
X4107Y-8385D01*
X4112Y-8626D01*
X4118Y-8789D01*
X4128Y-8892D01*
X4142Y-8950D01*
X4159Y-8981D01*
X4164Y-8986D01*
X4182Y-8995D01*
X4215Y-9003D01*
X4272Y-9011D01*
X4360Y-9017D01*
X4487Y-9023D01*
X4661Y-9027D01*
X4890Y-9031D01*
X5182Y-9034D01*
X5544Y-9036D01*
X5985Y-9038D01*
X6512Y-9040D01*
X7133Y-9041D01*
X7856Y-9041D01*
X8689Y-9042D01*
X9639Y-9042D01*
X10715Y-9042D01*
X11515Y-9042D01*
X12502Y-9042D01*
X13369Y-9041D01*
X14124Y-9041D01*
X14774Y-9040D01*
X15329Y-9038D01*
X15794Y-9036D01*
X16178Y-9034D01*
X16490Y-9031D01*
X16736Y-9027D01*
X16924Y-9022D01*
X17063Y-9017D01*
X17160Y-9011D01*
X17222Y-9004D01*
X17258Y-8996D01*
X17276Y-8987D01*
X17292Y-8967D01*
X17308Y-8927D01*
X17319Y-8852D01*
X17327Y-8727D01*
X17332Y-8534D01*
X17335Y-8257D01*
X17336Y-7880D01*
X17337Y-7387D01*
X17337Y-5843D01*
X14475Y-5843D01*
X14475Y-6197D01*
X14852Y-6319D01*
X15184Y-6562D01*
X15308Y-6705D01*
X15488Y-7044D01*
X15557Y-7410D01*
X15520Y-7777D01*
X15380Y-8120D01*
X15142Y-8414D01*
X14810Y-8636D01*
X14762Y-8658D01*
X14636Y-8702D01*
X14491Y-8721D01*
X14270Y-8725D01*
X14190Y-8725D01*
X13998Y-8717D01*
X13865Y-8691D01*
X13735Y-8638D01*
X13557Y-8530D01*
X13305Y-8299D01*
X13124Y-8035D01*
X13013Y-7693D01*
X13006Y-7313D01*
X13108Y-6951D01*
X13307Y-6635D01*
X13592Y-6385D01*
X13952Y-6228D01*
X14070Y-6203D01*
X14475Y-6197D01*
X14475Y-5843D01*
X11256Y-5843D01*
X11256Y-6189D01*
X11634Y-6298D01*
X11974Y-6533D01*
X11983Y-6542D01*
X12218Y-6829D01*
X12341Y-7155D01*
X12364Y-7550D01*
X12336Y-7793D01*
X12264Y-8011D01*
X12132Y-8222D01*
X11899Y-8465D01*
X11639Y-8638D01*
X11596Y-8658D01*
X11470Y-8701D01*
X11325Y-8721D01*
X11103Y-8725D01*
X11020Y-8725D01*
X10830Y-8717D01*
X10698Y-8691D01*
X10567Y-8637D01*
X10397Y-8542D01*
X10108Y-8283D01*
X9914Y-7962D01*
X9822Y-7606D01*
X9834Y-7238D01*
X9956Y-6882D01*
X10192Y-6565D01*
X10467Y-6351D01*
X10830Y-6214D01*
X10845Y-6210D01*
X11256Y-6189D01*
X11256Y-5843D01*
X8088Y-5843D01*
X7994Y-5695D01*
X7964Y-5651D01*
X7771Y-5430D01*
X7524Y-5213D01*
X7280Y-5050D01*
X7277Y-5048D01*
X7061Y-4953D01*
X6831Y-4877D01*
X6778Y-4864D01*
X6406Y-4827D01*
X6406Y-5218D01*
X6867Y-5292D01*
X7284Y-5491D01*
X7660Y-5818D01*
X7861Y-6101D01*
X8017Y-6504D01*
X8074Y-6942D01*
X8029Y-7381D01*
X7878Y-7787D01*
X7627Y-8130D01*
X7276Y-8421D01*
X6873Y-8611D01*
X6569Y-8671D01*
X6160Y-8673D01*
X5767Y-8595D01*
X5439Y-8444D01*
X5364Y-8390D01*
X5070Y-8122D01*
X4833Y-7811D01*
X4688Y-7501D01*
X4650Y-7336D01*
X4615Y-6978D01*
X4634Y-6643D01*
X4734Y-6302D01*
X4955Y-5925D01*
X5263Y-5606D01*
X5632Y-5371D01*
X6038Y-5244D01*
X6406Y-5218D01*
X6406Y-4827D01*
X6304Y-4817D01*
X6304Y-4817D01*
G37*
G36*
X17433Y-9028D02*
X17407Y-9037D01*
X17332Y-9112D01*
X17313Y-9128D01*
X17362Y-9141D01*
X17399Y-9137D01*
X17436Y-9067D01*
X17433Y-9028D01*
X17433Y-9028D01*
G37*
G36*
X4011Y-9017D02*
X4004Y-9075D01*
X4006Y-9095D01*
X4071Y-9142D01*
X4120Y-9134D01*
X4079Y-9078D01*
X4058Y-9055D01*
X4011Y-9017D01*
X4011Y-9017D01*
G37*
G36*
X6191Y-5525D02*
X5827Y-5618D01*
X5827Y-6427D01*
X6024Y-6444D01*
X6087Y-6471D01*
X6219Y-6567D01*
X6310Y-6658D01*
X6237Y-6717D01*
X6213Y-6735D01*
X6132Y-6771D01*
X6054Y-6709D01*
X5981Y-6660D01*
X5837Y-6647D01*
X5724Y-6718D01*
X5670Y-6873D01*
X5672Y-7065D01*
X5738Y-7209D01*
X5748Y-7218D01*
X5894Y-7272D01*
X6038Y-7208D01*
X6051Y-7195D01*
X6116Y-7158D01*
X6209Y-7194D01*
X6313Y-7248D01*
X6208Y-7353D01*
X6128Y-7422D01*
X6035Y-7453D01*
X5871Y-7459D01*
X5854Y-7459D01*
X5700Y-7452D01*
X5608Y-7418D01*
X5514Y-7334D01*
X5435Y-7246D01*
X5394Y-7147D01*
X5379Y-6984D01*
X5378Y-6877D01*
X5433Y-6651D01*
X5578Y-6496D01*
X5629Y-6470D01*
X5827Y-6427D01*
X5827Y-5618D01*
X5811Y-5622D01*
X5480Y-5812D01*
X5211Y-6079D01*
X5020Y-6404D01*
X4919Y-6769D01*
X4923Y-7157D01*
X5046Y-7552D01*
X5236Y-7854D01*
X5530Y-8129D01*
X5875Y-8306D01*
X6248Y-8384D01*
X6627Y-8361D01*
X6991Y-8238D01*
X7316Y-8011D01*
X7581Y-7682D01*
X7700Y-7443D01*
X7759Y-7187D01*
X7765Y-6868D01*
X7755Y-6726D01*
X7723Y-6531D01*
X7657Y-6353D01*
X7561Y-6184D01*
X7304Y-5897D01*
X6980Y-5673D01*
X6844Y-5623D01*
X6844Y-6431D01*
X7073Y-6463D01*
X7246Y-6579D01*
X7267Y-6605D01*
X7297Y-6683D01*
X7220Y-6737D01*
X7154Y-6757D01*
X7070Y-6709D01*
X7036Y-6682D01*
X6882Y-6646D01*
X6738Y-6709D01*
X6695Y-6773D01*
X6671Y-6937D01*
X6685Y-7066D01*
X6765Y-7218D01*
X6892Y-7273D01*
X7042Y-7212D01*
X7119Y-7167D01*
X7213Y-7196D01*
X7276Y-7239D01*
X7273Y-7305D01*
X7223Y-7362D01*
X7062Y-7443D01*
X6862Y-7475D01*
X6798Y-7471D01*
X6579Y-7383D01*
X6427Y-7202D01*
X6372Y-6959D01*
X6391Y-6817D01*
X6473Y-6622D01*
X6594Y-6498D01*
X6608Y-6491D01*
X6844Y-6431D01*
X6844Y-5623D01*
X6632Y-5545D01*
X6606Y-5540D01*
X6191Y-5525D01*
X6191Y-5525D01*
G37*
G36*
X14430Y-6415D02*
X14378Y-6416D01*
X14378Y-6785D01*
X14553Y-6829D01*
X14707Y-6936D01*
X14862Y-7159D01*
X14912Y-7459D01*
X14877Y-7712D01*
X14743Y-7948D01*
X14514Y-8094D01*
X14444Y-8115D01*
X14173Y-8128D01*
X13941Y-8033D01*
X13780Y-7842D01*
X13725Y-7738D01*
X13674Y-7654D01*
X13668Y-7618D01*
X13749Y-7513D01*
X13857Y-7408D01*
X13970Y-7525D01*
X14035Y-7602D01*
X14043Y-7642D01*
X14031Y-7643D01*
X14009Y-7690D01*
X14085Y-7793D01*
X14183Y-7859D01*
X14361Y-7871D01*
X14520Y-7769D01*
X14574Y-7695D01*
X14600Y-7600D01*
X14597Y-7437D01*
X14593Y-7373D01*
X14566Y-7223D01*
X14506Y-7129D01*
X14459Y-7087D01*
X14296Y-7023D01*
X14139Y-7048D01*
X14037Y-7158D01*
X14029Y-7177D01*
X13976Y-7230D01*
X13852Y-7242D01*
X13785Y-7241D01*
X13717Y-7224D01*
X13720Y-7167D01*
X13783Y-7036D01*
X13947Y-6862D01*
X13978Y-6843D01*
X14161Y-6792D01*
X14378Y-6785D01*
X14378Y-6416D01*
X14237Y-6418D01*
X13987Y-6447D01*
X13746Y-6540D01*
X13523Y-6721D01*
X13389Y-6881D01*
X13240Y-7204D01*
X13210Y-7548D01*
X13300Y-7887D01*
X13510Y-8196D01*
X13562Y-8247D01*
X13865Y-8447D01*
X14204Y-8532D01*
X14550Y-8499D01*
X14877Y-8345D01*
X14995Y-8248D01*
X15187Y-8019D01*
X15302Y-7781D01*
X15329Y-7626D01*
X15329Y-7346D01*
X15283Y-7098D01*
X15182Y-6904D01*
X14974Y-6674D01*
X14721Y-6502D01*
X14699Y-6492D01*
X14561Y-6436D01*
X14430Y-6415D01*
X14430Y-6415D01*
G37*
G36*
X10991Y-6413D02*
X10654Y-6506D01*
X10364Y-6704D01*
X10132Y-7009D01*
X10073Y-7203D01*
X10049Y-7462D01*
X10063Y-7718D01*
X10118Y-7908D01*
X10281Y-8145D01*
X10557Y-8380D01*
X10874Y-8509D01*
X11210Y-8528D01*
X11541Y-8433D01*
X11843Y-8218D01*
X11975Y-8068D01*
X12111Y-7795D01*
X12152Y-7459D01*
X12152Y-7410D01*
X12134Y-7199D01*
X12079Y-7033D01*
X11954Y-6838D01*
X11735Y-6623D01*
X11495Y-6480D01*
X11349Y-6436D01*
X11267Y-6431D01*
X11267Y-6643D01*
X11277Y-6950D01*
X11281Y-7060D01*
X11292Y-7195D01*
X11315Y-7253D01*
X11362Y-7269D01*
X11373Y-7271D01*
X11416Y-7294D01*
X11433Y-7370D01*
X11437Y-7538D01*
X11437Y-7550D01*
X11425Y-7740D01*
X11397Y-7835D01*
X11387Y-7841D01*
X11279Y-7864D01*
X11110Y-7875D01*
X11080Y-7875D01*
X11080Y-7958D01*
X11201Y-8007D01*
X11265Y-8100D01*
X11235Y-8211D01*
X11205Y-8244D01*
X11088Y-8275D01*
X10977Y-8235D01*
X10939Y-8142D01*
X10962Y-8021D01*
X10969Y-8012D01*
X11080Y-7958D01*
X11080Y-7875D01*
X10938Y-7873D01*
X10823Y-7855D01*
X10795Y-7830D01*
X10775Y-7741D01*
X10770Y-7555D01*
X10770Y-7499D01*
X10775Y-7350D01*
X10794Y-7288D01*
X10837Y-7275D01*
X10860Y-7273D01*
X10889Y-7243D01*
X10901Y-7150D01*
X10903Y-6959D01*
X10903Y-6643D01*
X11267Y-6643D01*
X11267Y-6431D01*
X10991Y-6413D01*
X10991Y-6413D01*
G37*
%LPC*%
G54D13*
X26250Y-2750D03*
G54D14*
X26250Y-3750D03*
X21250Y-2750D03*
X25250Y-3750D03*
X20250Y-2750D03*
X24250Y-3750D03*
X19250Y-2750D03*
X23250Y-3750D03*
X18250Y-2750D03*
X22250Y-3750D03*
X17250Y-2750D03*
X21250Y-3750D03*
X16250Y-2750D03*
X20250Y-3750D03*
X15250Y-2750D03*
X19250Y-3750D03*
X14250Y-2750D03*
X18250Y-3750D03*
X13250Y-2750D03*
X17250Y-3750D03*
X12250Y-2750D03*
X16250Y-3750D03*
X11250Y-2750D03*
X15250Y-3750D03*
X14250Y-3750D03*
X10250Y-2750D03*
X13250Y-3750D03*
X11250Y-3750D03*
X10250Y-3750D03*
X9250Y-3750D03*
X8250Y-3750D03*
X9250Y-2750D03*
X8250Y-2750D03*
X25250Y-2750D03*
X24250Y-2750D03*
X23250Y-2750D03*
X22250Y-2750D03*
X7250Y-2750D03*
X7250Y-3750D03*
X12250Y-3750D03*
X6250Y-2750D03*
X6250Y-3750D03*
X5250Y-2750D03*
X5250Y-3750D03*
X4250Y-2750D03*
X4250Y-3750D03*
G54D13*
X26250Y-17750D03*
G54D14*
X26250Y-18750D03*
X21250Y-17750D03*
X25250Y-18750D03*
X20250Y-17750D03*
X24250Y-18750D03*
X19250Y-17750D03*
X23250Y-18750D03*
X18250Y-17750D03*
X22250Y-18750D03*
X17250Y-17750D03*
X21250Y-18750D03*
X16250Y-17750D03*
X20250Y-18750D03*
X15250Y-17750D03*
X19250Y-18750D03*
X14250Y-17750D03*
X18250Y-18750D03*
X13250Y-17750D03*
X17250Y-18750D03*
X12250Y-17750D03*
X16250Y-18750D03*
X11250Y-17750D03*
X15250Y-18750D03*
X14250Y-18750D03*
X10250Y-17750D03*
X13250Y-18750D03*
X11250Y-18750D03*
X10250Y-18750D03*
X9250Y-18750D03*
X8250Y-18750D03*
X9250Y-17750D03*
X8250Y-17750D03*
X25250Y-17750D03*
X24250Y-17750D03*
X23250Y-17750D03*
X22250Y-17750D03*
X7250Y-17750D03*
X7250Y-18750D03*
X12250Y-18750D03*
X6250Y-17750D03*
X6250Y-18750D03*
X5250Y-17750D03*
X5250Y-18750D03*
X4250Y-17750D03*
X4250Y-18750D03*
G54D13*
X29750Y-4500D03*
G54D14*
X29750Y-5500D03*
X28750Y-4500D03*
X28750Y-5500D03*
X27750Y-4500D03*
X27750Y-5500D03*
G54D13*
X31200Y-1950D03*
G54D14*
X30200Y-1950D03*
X31200Y-950D03*
X30200Y-950D03*
G54D15*
X2250Y-2500D03*
X28250Y-1250D03*
X28250Y-20250D03*
X2250Y-19000D03*
G54D16*
X26250Y-750D03*
G54D17*
X26250Y-1750D03*
X25250Y-750D03*
X25250Y-1750D03*
X24250Y-750D03*
X24250Y-1750D03*
X23250Y-750D03*
X23250Y-1750D03*
X22250Y-750D03*
X22250Y-1750D03*
X21250Y-750D03*
X21250Y-1750D03*
X20250Y-750D03*
X20250Y-1750D03*
X19250Y-750D03*
X19250Y-1750D03*
X18250Y-750D03*
X18250Y-1750D03*
X17250Y-750D03*
X17250Y-1750D03*
X16250Y-750D03*
X16250Y-1750D03*
X15250Y-750D03*
X15250Y-1750D03*
X14250Y-750D03*
X14250Y-1750D03*
X13250Y-750D03*
X13250Y-1750D03*
X12250Y-750D03*
X12250Y-1750D03*
X11250Y-750D03*
X11250Y-1750D03*
X10250Y-750D03*
X10250Y-1750D03*
X9250Y-750D03*
X9250Y-1750D03*
X8250Y-750D03*
X8250Y-1750D03*
X7250Y-750D03*
X7250Y-1750D03*
X6250Y-750D03*
X6250Y-1750D03*
X5250Y-750D03*
X5250Y-1750D03*
X4250Y-750D03*
X4250Y-1750D03*
G54D16*
X26250Y-19750D03*
G54D17*
X26250Y-20750D03*
X25250Y-19750D03*
X25250Y-20750D03*
X24250Y-19750D03*
X24250Y-20750D03*
X23250Y-19750D03*
X23250Y-20750D03*
X22250Y-19750D03*
X22250Y-20750D03*
X21250Y-19750D03*
X21250Y-20750D03*
X20250Y-19750D03*
X20250Y-20750D03*
X19250Y-19750D03*
X19250Y-20750D03*
X18250Y-19750D03*
X18250Y-20750D03*
X17250Y-19750D03*
X17250Y-20750D03*
X16250Y-19750D03*
X16250Y-20750D03*
X15250Y-19750D03*
X15250Y-20750D03*
X14250Y-19750D03*
X14250Y-20750D03*
X13250Y-19750D03*
X13250Y-20750D03*
X12250Y-19750D03*
X12250Y-20750D03*
X11250Y-19750D03*
X11250Y-20750D03*
X10250Y-19750D03*
X10250Y-20750D03*
X9250Y-19750D03*
X9250Y-20750D03*
X8250Y-19750D03*
X8250Y-20750D03*
X7250Y-19750D03*
X7250Y-20750D03*
X6250Y-19750D03*
X6250Y-20750D03*
X5250Y-19750D03*
X5250Y-20750D03*
X4250Y-19750D03*
X4250Y-20750D03*
G54D16*
X31250Y-6500D03*
G54D17*
X31250Y-7500D03*
X30250Y-6500D03*
X30250Y-7500D03*
X29250Y-6500D03*
X29250Y-7500D03*
X28250Y-6500D03*
X28250Y-7500D03*
X27250Y-6500D03*
X27250Y-7500D03*
G54D18*
X10407Y-10639D03*
G54D19*
X10407Y-11639D03*
X9407Y-10639D03*
X9407Y-11639D03*
X8407Y-10639D03*
X8407Y-11639D03*
X7407Y-10639D03*
X7407Y-11639D03*
X6407Y-10639D03*
X6407Y-11639D03*
X5407Y-10639D03*
X5407Y-11639D03*
X4407Y-10639D03*
X4407Y-11639D03*
X3407Y-10639D03*
X3407Y-11639D03*
X2407Y-10639D03*
X2407Y-11639D03*
G54D18*
X23399Y-10639D03*
G54D19*
X23399Y-11639D03*
X22399Y-10639D03*
X22399Y-11639D03*
X21399Y-10639D03*
X21399Y-11639D03*
X20399Y-10639D03*
X20399Y-11639D03*
X19399Y-10639D03*
X19399Y-11639D03*
X18399Y-10639D03*
X18399Y-11639D03*
X17399Y-10639D03*
X17399Y-11639D03*
X16399Y-10639D03*
X16399Y-11639D03*
X15399Y-10639D03*
X15399Y-11639D03*
M02*
