G04 (created by PCBNEW (25-Oct-2014 BZR 4029)-stable) date Wed 18 Mar 2015 08:41:43 PM EET*
%MOIN*%
G04 Gerber Fmt 3.4, Leading zero omitted, Abs format*
%FSLAX34Y34*%
G01*
G70*
G90*
G04 APERTURE LIST*
%ADD10C,0.00590551*%
%ADD11C,0.012*%
%ADD12C,0.00985*%
%ADD13C,0.0099*%
%ADD14C,0.015*%
%ADD15C,0.008*%
%ADD16C,0.005*%
%ADD17C,0.0039*%
%ADD18C,0.006*%
%ADD19C,0.01*%
%ADD20C,0.0043*%
%ADD21R,0.08X0.08*%
%ADD22C,0.08*%
%ADD23R,0.065X0.04*%
%ADD24R,0.055X0.075*%
%ADD25C,0.2*%
%ADD26R,0.085X0.085*%
%ADD27C,0.0712*%
%ADD28R,0.1X0.1*%
%ADD29C,0.1*%
%ADD30R,0.075X0.055*%
G04 APERTURE END LIST*
G54D10*
G54D11*
X4231Y-16492D02*
X4202Y-16454D01*
X4145Y-16340D01*
X4117Y-16264D01*
X4088Y-16149D01*
X4059Y-15959D01*
X4059Y-15807D01*
X4088Y-15616D01*
X4117Y-15502D01*
X4145Y-15426D01*
X4202Y-15311D01*
X4231Y-15273D01*
X4459Y-16187D02*
X4459Y-15387D01*
X4459Y-15692D02*
X4517Y-15654D01*
X4631Y-15654D01*
X4688Y-15692D01*
X4717Y-15730D01*
X4745Y-15807D01*
X4745Y-16035D01*
X4717Y-16111D01*
X4688Y-16149D01*
X4631Y-16187D01*
X4517Y-16187D01*
X4459Y-16149D01*
X5259Y-16187D02*
X5259Y-15768D01*
X5231Y-15692D01*
X5174Y-15654D01*
X5059Y-15654D01*
X5002Y-15692D01*
X5259Y-16149D02*
X5202Y-16187D01*
X5059Y-16187D01*
X5002Y-16149D01*
X4974Y-16073D01*
X4974Y-15997D01*
X5002Y-15921D01*
X5059Y-15883D01*
X5202Y-15883D01*
X5259Y-15845D01*
X5517Y-16149D02*
X5574Y-16187D01*
X5688Y-16187D01*
X5745Y-16149D01*
X5774Y-16073D01*
X5774Y-16035D01*
X5745Y-15959D01*
X5688Y-15921D01*
X5602Y-15921D01*
X5545Y-15883D01*
X5517Y-15807D01*
X5517Y-15768D01*
X5545Y-15692D01*
X5602Y-15654D01*
X5688Y-15654D01*
X5745Y-15692D01*
X6259Y-16149D02*
X6202Y-16187D01*
X6088Y-16187D01*
X6031Y-16149D01*
X6002Y-16073D01*
X6002Y-15768D01*
X6031Y-15692D01*
X6088Y-15654D01*
X6202Y-15654D01*
X6259Y-15692D01*
X6288Y-15768D01*
X6288Y-15845D01*
X6002Y-15921D01*
X6802Y-16187D02*
X6802Y-15387D01*
X6802Y-16149D02*
X6745Y-16187D01*
X6631Y-16187D01*
X6574Y-16149D01*
X6545Y-16111D01*
X6517Y-16035D01*
X6517Y-15807D01*
X6545Y-15730D01*
X6574Y-15692D01*
X6631Y-15654D01*
X6745Y-15654D01*
X6802Y-15692D01*
X7631Y-16187D02*
X7574Y-16149D01*
X7545Y-16111D01*
X7517Y-16035D01*
X7517Y-15807D01*
X7545Y-15730D01*
X7574Y-15692D01*
X7631Y-15654D01*
X7717Y-15654D01*
X7774Y-15692D01*
X7802Y-15730D01*
X7831Y-15807D01*
X7831Y-16035D01*
X7802Y-16111D01*
X7774Y-16149D01*
X7717Y-16187D01*
X7631Y-16187D01*
X8088Y-15654D02*
X8088Y-16187D01*
X8088Y-15730D02*
X8117Y-15692D01*
X8174Y-15654D01*
X8259Y-15654D01*
X8317Y-15692D01*
X8345Y-15768D01*
X8345Y-16187D01*
X9002Y-15654D02*
X9231Y-15654D01*
X9088Y-15387D02*
X9088Y-16073D01*
X9117Y-16149D01*
X9174Y-16187D01*
X9231Y-16187D01*
X9431Y-16187D02*
X9431Y-15387D01*
X9688Y-16187D02*
X9688Y-15768D01*
X9659Y-15692D01*
X9602Y-15654D01*
X9517Y-15654D01*
X9459Y-15692D01*
X9431Y-15730D01*
X10202Y-16149D02*
X10145Y-16187D01*
X10031Y-16187D01*
X9974Y-16149D01*
X9945Y-16073D01*
X9945Y-15768D01*
X9974Y-15692D01*
X10031Y-15654D01*
X10145Y-15654D01*
X10202Y-15692D01*
X10231Y-15768D01*
X10231Y-15845D01*
X9945Y-15921D01*
X11145Y-15768D02*
X10945Y-15768D01*
X10945Y-16187D02*
X10945Y-15387D01*
X11231Y-15387D01*
X11545Y-16187D02*
X11488Y-16149D01*
X11459Y-16073D01*
X11459Y-15387D01*
X11717Y-15654D02*
X11859Y-16187D01*
X12002Y-15654D02*
X11859Y-16187D01*
X11802Y-16378D01*
X11774Y-16416D01*
X11717Y-16454D01*
X12231Y-16187D02*
X12231Y-15654D01*
X12231Y-15387D02*
X12202Y-15426D01*
X12231Y-15464D01*
X12259Y-15426D01*
X12231Y-15387D01*
X12231Y-15464D01*
X12517Y-15654D02*
X12517Y-16187D01*
X12517Y-15730D02*
X12545Y-15692D01*
X12602Y-15654D01*
X12688Y-15654D01*
X12745Y-15692D01*
X12774Y-15768D01*
X12774Y-16187D01*
X13317Y-15654D02*
X13317Y-16302D01*
X13288Y-16378D01*
X13259Y-16416D01*
X13202Y-16454D01*
X13117Y-16454D01*
X13059Y-16416D01*
X13317Y-16149D02*
X13259Y-16187D01*
X13145Y-16187D01*
X13088Y-16149D01*
X13059Y-16111D01*
X13031Y-16035D01*
X13031Y-15807D01*
X13059Y-15730D01*
X13088Y-15692D01*
X13145Y-15654D01*
X13259Y-15654D01*
X13317Y-15692D01*
X13802Y-15768D02*
X13888Y-15807D01*
X13917Y-15845D01*
X13945Y-15921D01*
X13945Y-16035D01*
X13917Y-16111D01*
X13888Y-16149D01*
X13831Y-16187D01*
X13602Y-16187D01*
X13602Y-15387D01*
X13802Y-15387D01*
X13859Y-15426D01*
X13888Y-15464D01*
X13917Y-15540D01*
X13917Y-15616D01*
X13888Y-15692D01*
X13859Y-15730D01*
X13802Y-15768D01*
X13602Y-15768D01*
X14288Y-16187D02*
X14231Y-16149D01*
X14202Y-16111D01*
X14174Y-16035D01*
X14174Y-15807D01*
X14202Y-15730D01*
X14231Y-15692D01*
X14288Y-15654D01*
X14374Y-15654D01*
X14431Y-15692D01*
X14459Y-15730D01*
X14488Y-15807D01*
X14488Y-16035D01*
X14459Y-16111D01*
X14431Y-16149D01*
X14374Y-16187D01*
X14288Y-16187D01*
X14745Y-15654D02*
X14745Y-16187D01*
X14745Y-15730D02*
X14774Y-15692D01*
X14831Y-15654D01*
X14917Y-15654D01*
X14974Y-15692D01*
X15002Y-15768D01*
X15002Y-16187D01*
X15517Y-16149D02*
X15459Y-16187D01*
X15345Y-16187D01*
X15288Y-16149D01*
X15259Y-16073D01*
X15259Y-15768D01*
X15288Y-15692D01*
X15345Y-15654D01*
X15459Y-15654D01*
X15517Y-15692D01*
X15545Y-15768D01*
X15545Y-15845D01*
X15259Y-15921D01*
X16259Y-16187D02*
X16259Y-15387D01*
X16488Y-15387D01*
X16545Y-15426D01*
X16574Y-15464D01*
X16602Y-15540D01*
X16602Y-15654D01*
X16574Y-15730D01*
X16545Y-15768D01*
X16488Y-15807D01*
X16259Y-15807D01*
X16859Y-16187D02*
X16859Y-15654D01*
X16859Y-15807D02*
X16888Y-15730D01*
X16917Y-15692D01*
X16974Y-15654D01*
X17031Y-15654D01*
X17317Y-16187D02*
X17259Y-16149D01*
X17231Y-16111D01*
X17202Y-16035D01*
X17202Y-15807D01*
X17231Y-15730D01*
X17259Y-15692D01*
X17317Y-15654D01*
X17402Y-15654D01*
X17459Y-15692D01*
X17488Y-15730D01*
X17517Y-15807D01*
X17517Y-16035D01*
X17488Y-16111D01*
X17459Y-16149D01*
X17402Y-16187D01*
X17317Y-16187D01*
X17688Y-15654D02*
X17917Y-15654D01*
X17774Y-15387D02*
X17774Y-16073D01*
X17802Y-16149D01*
X17859Y-16187D01*
X17917Y-16187D01*
X18202Y-16187D02*
X18145Y-16149D01*
X18117Y-16111D01*
X18088Y-16035D01*
X18088Y-15807D01*
X18117Y-15730D01*
X18145Y-15692D01*
X18202Y-15654D01*
X18288Y-15654D01*
X18345Y-15692D01*
X18374Y-15730D01*
X18402Y-15807D01*
X18402Y-16035D01*
X18374Y-16111D01*
X18345Y-16149D01*
X18288Y-16187D01*
X18202Y-16187D01*
X19459Y-16111D02*
X19431Y-16149D01*
X19345Y-16187D01*
X19288Y-16187D01*
X19202Y-16149D01*
X19145Y-16073D01*
X19117Y-15997D01*
X19088Y-15845D01*
X19088Y-15730D01*
X19117Y-15578D01*
X19145Y-15502D01*
X19202Y-15426D01*
X19288Y-15387D01*
X19345Y-15387D01*
X19431Y-15426D01*
X19459Y-15464D01*
X19974Y-16187D02*
X19974Y-15768D01*
X19945Y-15692D01*
X19888Y-15654D01*
X19774Y-15654D01*
X19717Y-15692D01*
X19974Y-16149D02*
X19917Y-16187D01*
X19774Y-16187D01*
X19717Y-16149D01*
X19688Y-16073D01*
X19688Y-15997D01*
X19717Y-15921D01*
X19774Y-15883D01*
X19917Y-15883D01*
X19974Y-15845D01*
X20259Y-15654D02*
X20259Y-16454D01*
X20259Y-15692D02*
X20317Y-15654D01*
X20431Y-15654D01*
X20488Y-15692D01*
X20517Y-15730D01*
X20545Y-15807D01*
X20545Y-16035D01*
X20517Y-16111D01*
X20488Y-16149D01*
X20431Y-16187D01*
X20317Y-16187D01*
X20259Y-16149D01*
X21031Y-16149D02*
X20974Y-16187D01*
X20859Y-16187D01*
X20802Y-16149D01*
X20774Y-16073D01*
X20774Y-15768D01*
X20802Y-15692D01*
X20859Y-15654D01*
X20974Y-15654D01*
X21031Y-15692D01*
X21059Y-15768D01*
X21059Y-15845D01*
X20774Y-15921D01*
X21259Y-16492D02*
X21288Y-16454D01*
X21345Y-16340D01*
X21374Y-16264D01*
X21402Y-16149D01*
X21431Y-15959D01*
X21431Y-15807D01*
X21402Y-15616D01*
X21374Y-15502D01*
X21345Y-15426D01*
X21288Y-15311D01*
X21259Y-15273D01*
X4428Y-6581D02*
X4428Y-5781D01*
X4656Y-5781D01*
X4713Y-5819D01*
X4742Y-5857D01*
X4770Y-5934D01*
X4770Y-6048D01*
X4742Y-6124D01*
X4713Y-6162D01*
X4656Y-6200D01*
X4428Y-6200D01*
X5370Y-6581D02*
X5170Y-6200D01*
X5028Y-6581D02*
X5028Y-5781D01*
X5256Y-5781D01*
X5313Y-5819D01*
X5342Y-5857D01*
X5370Y-5934D01*
X5370Y-6048D01*
X5342Y-6124D01*
X5313Y-6162D01*
X5256Y-6200D01*
X5028Y-6200D01*
X5628Y-5781D02*
X5628Y-6429D01*
X5656Y-6505D01*
X5685Y-6543D01*
X5742Y-6581D01*
X5856Y-6581D01*
X5913Y-6543D01*
X5942Y-6505D01*
X5970Y-6429D01*
X5970Y-5781D01*
X6256Y-6276D02*
X6713Y-6276D01*
X7113Y-5781D02*
X7228Y-5781D01*
X7285Y-5819D01*
X7342Y-5895D01*
X7370Y-6048D01*
X7370Y-6315D01*
X7342Y-6467D01*
X7285Y-6543D01*
X7228Y-6581D01*
X7113Y-6581D01*
X7056Y-6543D01*
X6999Y-6467D01*
X6970Y-6315D01*
X6970Y-6048D01*
X6999Y-5895D01*
X7056Y-5819D01*
X7113Y-5781D01*
X7542Y-5781D02*
X7742Y-6581D01*
X7942Y-5781D01*
X8085Y-5781D02*
X8485Y-5781D01*
X8228Y-6581D01*
X8970Y-5781D02*
X8856Y-5781D01*
X8799Y-5819D01*
X8770Y-5857D01*
X8713Y-5972D01*
X8685Y-6124D01*
X8685Y-6429D01*
X8713Y-6505D01*
X8742Y-6543D01*
X8799Y-6581D01*
X8913Y-6581D01*
X8970Y-6543D01*
X8999Y-6505D01*
X9028Y-6429D01*
X9028Y-6238D01*
X8999Y-6162D01*
X8970Y-6124D01*
X8913Y-6086D01*
X8799Y-6086D01*
X8742Y-6124D01*
X8713Y-6162D01*
X8685Y-6238D01*
X9228Y-5781D02*
X9628Y-5781D01*
X9370Y-6581D01*
X9970Y-5781D02*
X10028Y-5781D01*
X10085Y-5819D01*
X10113Y-5857D01*
X10142Y-5934D01*
X10170Y-6086D01*
X10170Y-6276D01*
X10142Y-6429D01*
X10113Y-6505D01*
X10085Y-6543D01*
X10028Y-6581D01*
X9970Y-6581D01*
X9913Y-6543D01*
X9885Y-6505D01*
X9856Y-6429D01*
X9828Y-6276D01*
X9828Y-6086D01*
X9856Y-5934D01*
X9885Y-5857D01*
X9913Y-5819D01*
X9970Y-5781D01*
X10428Y-6276D02*
X10885Y-6276D01*
X11513Y-6505D02*
X11485Y-6543D01*
X11399Y-6581D01*
X11342Y-6581D01*
X11256Y-6543D01*
X11199Y-6467D01*
X11170Y-6391D01*
X11142Y-6238D01*
X11142Y-6124D01*
X11170Y-5972D01*
X11199Y-5895D01*
X11256Y-5819D01*
X11342Y-5781D01*
X11399Y-5781D01*
X11485Y-5819D01*
X11513Y-5857D01*
X11742Y-6353D02*
X12028Y-6353D01*
X11685Y-6581D02*
X11885Y-5781D01*
X12085Y-6581D01*
X12285Y-6581D02*
X12285Y-5781D01*
X12513Y-5781D01*
X12570Y-5819D01*
X12599Y-5857D01*
X12628Y-5934D01*
X12628Y-6048D01*
X12599Y-6124D01*
X12570Y-6162D01*
X12513Y-6200D01*
X12285Y-6200D01*
X12885Y-6162D02*
X13085Y-6162D01*
X13170Y-6581D02*
X12885Y-6581D01*
X12885Y-5781D01*
X13170Y-5781D01*
X13799Y-5781D02*
X13999Y-6581D01*
X14199Y-5781D01*
X14713Y-6581D02*
X14370Y-6581D01*
X14542Y-6581D02*
X14542Y-5781D01*
X14485Y-5895D01*
X14428Y-5972D01*
X14370Y-6010D01*
G54D12*
X32068Y-1996D02*
X32256Y-1996D01*
X32031Y-2109D02*
X32162Y-1715D01*
X32293Y-2109D01*
X32631Y-2109D02*
X32406Y-2109D01*
X32518Y-2109D02*
X32518Y-1715D01*
X32481Y-1771D01*
X32443Y-1809D01*
X32406Y-1828D01*
G54D13*
G54D12*
X32114Y-1046D02*
X32304Y-1046D01*
X32076Y-1159D02*
X32209Y-765D01*
X32342Y-1159D01*
X32552Y-765D02*
X32590Y-765D01*
X32628Y-784D01*
X32647Y-803D01*
X32666Y-840D01*
X32685Y-915D01*
X32685Y-1009D01*
X32666Y-1084D01*
X32647Y-1121D01*
X32628Y-1140D01*
X32590Y-1159D01*
X32552Y-1159D01*
X32514Y-1140D01*
X32495Y-1121D01*
X32476Y-1084D01*
X32457Y-1009D01*
X32457Y-915D01*
X32476Y-840D01*
X32495Y-803D01*
X32514Y-784D01*
X32552Y-765D01*
G54D13*
G54D14*
X29174Y0D02*
X5262Y0D01*
X9200Y-21500D02*
X9250Y-21500D01*
X5066Y-21500D02*
X28651Y-21500D01*
X31250Y-15400D02*
X25950Y-15400D01*
X31250Y-21500D02*
X28500Y-21500D01*
X31250Y-21500D02*
X31250Y-15450D01*
X5250Y0D02*
X4900Y0D01*
X25200Y0D02*
X27250Y0D01*
X27250Y-21500D02*
X25250Y-21500D01*
X5000Y-21500D02*
X5250Y-21500D01*
X27250Y-21500D02*
X28500Y-21500D01*
X27250Y0D02*
X28500Y0D01*
X25950Y-8100D02*
X25950Y-15400D01*
X34000Y-8100D02*
X25950Y-8100D01*
X34000Y-7900D02*
X34000Y-8100D01*
X28400Y0D02*
X31500Y0D01*
X0Y-5000D02*
X0Y-16500D01*
X34000Y-2500D02*
X34000Y-7950D01*
X34000Y-2500D02*
G75*
G03X31500Y0I-2500J0D01*
G74*
G01*
X0Y-16500D02*
G75*
G03X5000Y-21500I5000J0D01*
G74*
G01*
X5000Y0D02*
G75*
G03X0Y-5000I0J-5000D01*
G74*
G01*
X3750Y-4250D02*
X3750Y-2250D01*
X3750Y-2250D02*
X6850Y-2250D01*
X6750Y-4250D02*
X3750Y-4250D01*
X6750Y-2250D02*
X26750Y-2250D01*
X6750Y-4250D02*
X26750Y-4250D01*
X26750Y-4250D02*
X26750Y-2250D01*
X3750Y-19250D02*
X3750Y-17250D01*
X3750Y-17250D02*
X6850Y-17250D01*
X6750Y-19250D02*
X3750Y-19250D01*
X6750Y-17250D02*
X26750Y-17250D01*
X6750Y-19250D02*
X26750Y-19250D01*
X26750Y-19250D02*
X26750Y-17250D01*
G54D15*
X27250Y-4000D02*
X30250Y-4000D01*
X30250Y-6000D02*
X27250Y-6000D01*
X27250Y-6000D02*
X27250Y-4000D01*
X30250Y-4000D02*
X30250Y-6000D01*
G54D16*
X32950Y-4850D02*
X33000Y-4850D01*
X33000Y-4850D02*
X33000Y-2750D01*
X31500Y-2750D02*
X31500Y-4850D01*
X31500Y-4850D02*
X32950Y-4850D01*
X32050Y-4850D02*
X32050Y-4650D01*
X32050Y-4650D02*
X32450Y-4650D01*
X32450Y-4650D02*
X32450Y-4850D01*
X31500Y-2750D02*
X33000Y-2750D01*
X30750Y-5800D02*
G75*
G03X30750Y-5800I-50J0D01*
G74*
G01*
X31150Y-5800D02*
X30750Y-5800D01*
X30750Y-5800D02*
X30750Y-5200D01*
X30750Y-5200D02*
X31150Y-5200D01*
X31550Y-5200D02*
X31950Y-5200D01*
X31950Y-5200D02*
X31950Y-5800D01*
X31950Y-5800D02*
X31550Y-5800D01*
X28900Y-3100D02*
G75*
G03X28900Y-3100I-50J0D01*
G74*
G01*
X28400Y-3100D02*
X28800Y-3100D01*
X28800Y-3100D02*
X28800Y-3700D01*
X28800Y-3700D02*
X28400Y-3700D01*
X28000Y-3700D02*
X27600Y-3700D01*
X27600Y-3700D02*
X27600Y-3100D01*
X27600Y-3100D02*
X28000Y-3100D01*
X29200Y-3700D02*
G75*
G03X29200Y-3700I-50J0D01*
G74*
G01*
X29600Y-3700D02*
X29200Y-3700D01*
X29200Y-3700D02*
X29200Y-3100D01*
X29200Y-3100D02*
X29600Y-3100D01*
X30000Y-3100D02*
X30400Y-3100D01*
X30400Y-3100D02*
X30400Y-3700D01*
X30400Y-3700D02*
X30000Y-3700D01*
X32300Y-7050D02*
G75*
G03X32300Y-7050I-50J0D01*
G74*
G01*
X32700Y-7050D02*
X32300Y-7050D01*
X32300Y-7050D02*
X32300Y-6450D01*
X32300Y-6450D02*
X32700Y-6450D01*
X33100Y-6450D02*
X33500Y-6450D01*
X33500Y-6450D02*
X33500Y-7050D01*
X33500Y-7050D02*
X33100Y-7050D01*
X32300Y-7800D02*
G75*
G03X32300Y-7800I-50J0D01*
G74*
G01*
X32700Y-7800D02*
X32300Y-7800D01*
X32300Y-7800D02*
X32300Y-7200D01*
X32300Y-7200D02*
X32700Y-7200D01*
X33100Y-7200D02*
X33500Y-7200D01*
X33500Y-7200D02*
X33500Y-7800D01*
X33500Y-7800D02*
X33100Y-7800D01*
X32300Y-6300D02*
G75*
G03X32300Y-6300I-50J0D01*
G74*
G01*
X32700Y-6300D02*
X32300Y-6300D01*
X32300Y-6300D02*
X32300Y-5700D01*
X32300Y-5700D02*
X32700Y-5700D01*
X33100Y-5700D02*
X33500Y-5700D01*
X33500Y-5700D02*
X33500Y-6300D01*
X33500Y-6300D02*
X33100Y-6300D01*
G54D11*
X29700Y-2450D02*
X29700Y-450D01*
X29700Y-450D02*
X31700Y-450D01*
X31700Y-450D02*
X31700Y-2450D01*
X31700Y-2450D02*
X29700Y-2450D01*
G54D14*
X5000Y-21500D02*
X31250Y-21500D01*
X31250Y-15400D02*
X25950Y-15400D01*
X31250Y-21500D02*
X31250Y-15400D01*
X34000Y-8100D02*
X34000Y-3000D01*
X34000Y-8100D02*
X25950Y-8100D01*
X25950Y-8100D02*
X25950Y-15400D01*
X34000Y-2500D02*
X34000Y-3000D01*
X5000Y0D02*
X31500Y0D01*
X0Y-5000D02*
X0Y-16500D01*
X5000Y0D02*
G75*
G03X0Y-5000I0J-5000D01*
G74*
G01*
X0Y-16500D02*
G75*
G03X5000Y-21500I5000J0D01*
G74*
G01*
X34000Y-2500D02*
G75*
G03X31500Y0I-2500J0D01*
G74*
G01*
X10907Y-10139D02*
X1907Y-10139D01*
X1907Y-12139D02*
X10907Y-12139D01*
X10907Y-12139D02*
X10907Y-10139D01*
X1907Y-10139D02*
X1907Y-12139D01*
X23899Y-10139D02*
X14899Y-10139D01*
X14899Y-12139D02*
X23899Y-12139D01*
X23899Y-12139D02*
X23899Y-10139D01*
X14899Y-10139D02*
X14899Y-12139D01*
G54D17*
X2263Y-14195D02*
G75*
G03X2263Y-14195I-50J0D01*
G74*
G01*
X2663Y-14195D02*
X2263Y-14195D01*
X2263Y-14195D02*
X2263Y-13595D01*
X2263Y-13595D02*
X2663Y-13595D01*
X3063Y-13595D02*
X3463Y-13595D01*
X3463Y-13595D02*
X3463Y-14195D01*
X3463Y-14195D02*
X3063Y-14195D01*
X2263Y-8683D02*
G75*
G03X2263Y-8683I-50J0D01*
G74*
G01*
X2663Y-8683D02*
X2263Y-8683D01*
X2263Y-8683D02*
X2263Y-8083D01*
X2263Y-8083D02*
X2663Y-8083D01*
X3063Y-8083D02*
X3463Y-8083D01*
X3463Y-8083D02*
X3463Y-8683D01*
X3463Y-8683D02*
X3063Y-8683D01*
X22342Y-15770D02*
G75*
G03X22342Y-15770I-50J0D01*
G74*
G01*
X22742Y-15770D02*
X22342Y-15770D01*
X22342Y-15770D02*
X22342Y-15170D01*
X22342Y-15170D02*
X22742Y-15170D01*
X23142Y-15170D02*
X23542Y-15170D01*
X23542Y-15170D02*
X23542Y-15770D01*
X23542Y-15770D02*
X23142Y-15770D01*
X22342Y-14195D02*
G75*
G03X22342Y-14195I-50J0D01*
G74*
G01*
X22742Y-14195D02*
X22342Y-14195D01*
X22342Y-14195D02*
X22342Y-13595D01*
X22342Y-13595D02*
X22742Y-13595D01*
X23142Y-13595D02*
X23542Y-13595D01*
X23542Y-13595D02*
X23542Y-14195D01*
X23542Y-14195D02*
X23142Y-14195D01*
X3563Y-7296D02*
G75*
G03X3563Y-7296I-50J0D01*
G74*
G01*
X3063Y-7296D02*
X3463Y-7296D01*
X3463Y-7296D02*
X3463Y-7896D01*
X3463Y-7896D02*
X3063Y-7896D01*
X2663Y-7896D02*
X2263Y-7896D01*
X2263Y-7896D02*
X2263Y-7296D01*
X2263Y-7296D02*
X2663Y-7296D01*
X2263Y-14983D02*
G75*
G03X2263Y-14983I-50J0D01*
G74*
G01*
X2663Y-14983D02*
X2263Y-14983D01*
X2263Y-14983D02*
X2263Y-14383D01*
X2263Y-14383D02*
X2663Y-14383D01*
X3063Y-14383D02*
X3463Y-14383D01*
X3463Y-14383D02*
X3463Y-14983D01*
X3463Y-14983D02*
X3063Y-14983D01*
X23642Y-15957D02*
G75*
G03X23642Y-15957I-50J0D01*
G74*
G01*
X23142Y-15957D02*
X23542Y-15957D01*
X23542Y-15957D02*
X23542Y-16557D01*
X23542Y-16557D02*
X23142Y-16557D01*
X22742Y-16557D02*
X22342Y-16557D01*
X22342Y-16557D02*
X22342Y-15957D01*
X22342Y-15957D02*
X22742Y-15957D01*
X22342Y-14983D02*
G75*
G03X22342Y-14983I-50J0D01*
G74*
G01*
X22742Y-14983D02*
X22342Y-14983D01*
X22342Y-14983D02*
X22342Y-14383D01*
X22342Y-14383D02*
X22742Y-14383D01*
X23142Y-14383D02*
X23542Y-14383D01*
X23542Y-14383D02*
X23542Y-14983D01*
X23542Y-14983D02*
X23142Y-14983D01*
X21905Y-6946D02*
G75*
G03X21905Y-6946I-50J0D01*
G74*
G01*
X21855Y-7396D02*
X21855Y-6996D01*
X21855Y-6996D02*
X22455Y-6996D01*
X22455Y-6996D02*
X22455Y-7396D01*
X22455Y-7796D02*
X22455Y-8196D01*
X22455Y-8196D02*
X21855Y-8196D01*
X21855Y-8196D02*
X21855Y-7796D01*
X22505Y-6671D02*
G75*
G03X22505Y-6671I-50J0D01*
G74*
G01*
X22455Y-6221D02*
X22455Y-6621D01*
X22455Y-6621D02*
X21855Y-6621D01*
X21855Y-6621D02*
X21855Y-6221D01*
X21855Y-5821D02*
X21855Y-5421D01*
X21855Y-5421D02*
X22455Y-5421D01*
X22455Y-5421D02*
X22455Y-5821D01*
X19355Y-6671D02*
G75*
G03X19355Y-6671I-50J0D01*
G74*
G01*
X19305Y-6221D02*
X19305Y-6621D01*
X19305Y-6621D02*
X18705Y-6621D01*
X18705Y-6621D02*
X18705Y-6221D01*
X18705Y-5821D02*
X18705Y-5421D01*
X18705Y-5421D02*
X19305Y-5421D01*
X19305Y-5421D02*
X19305Y-5821D01*
X18755Y-6946D02*
G75*
G03X18755Y-6946I-50J0D01*
G74*
G01*
X18705Y-7396D02*
X18705Y-6996D01*
X18705Y-6996D02*
X19305Y-6996D01*
X19305Y-6996D02*
X19305Y-7396D01*
X19305Y-7796D02*
X19305Y-8196D01*
X19305Y-8196D02*
X18705Y-8196D01*
X18705Y-8196D02*
X18705Y-7796D01*
X21717Y-6671D02*
G75*
G03X21717Y-6671I-50J0D01*
G74*
G01*
X21667Y-6221D02*
X21667Y-6621D01*
X21667Y-6621D02*
X21067Y-6621D01*
X21067Y-6621D02*
X21067Y-6221D01*
X21067Y-5821D02*
X21067Y-5421D01*
X21067Y-5421D02*
X21667Y-5421D01*
X21667Y-5421D02*
X21667Y-5821D01*
X21117Y-6946D02*
G75*
G03X21117Y-6946I-50J0D01*
G74*
G01*
X21067Y-7396D02*
X21067Y-6996D01*
X21067Y-6996D02*
X21667Y-6996D01*
X21667Y-6996D02*
X21667Y-7396D01*
X21667Y-7796D02*
X21667Y-8196D01*
X21667Y-8196D02*
X21067Y-8196D01*
X21067Y-8196D02*
X21067Y-7796D01*
X17968Y-6946D02*
G75*
G03X17968Y-6946I-50J0D01*
G74*
G01*
X17918Y-7396D02*
X17918Y-6996D01*
X17918Y-6996D02*
X18518Y-6996D01*
X18518Y-6996D02*
X18518Y-7396D01*
X18518Y-7796D02*
X18518Y-8196D01*
X18518Y-8196D02*
X17918Y-8196D01*
X17918Y-8196D02*
X17918Y-7796D01*
X18568Y-6671D02*
G75*
G03X18568Y-6671I-50J0D01*
G74*
G01*
X18518Y-6221D02*
X18518Y-6621D01*
X18518Y-6621D02*
X17918Y-6621D01*
X17918Y-6621D02*
X17918Y-6221D01*
X17918Y-5821D02*
X17918Y-5421D01*
X17918Y-5421D02*
X18518Y-5421D01*
X18518Y-5421D02*
X18518Y-5821D01*
X11275Y-10489D02*
G75*
G03X11275Y-10489I-50J0D01*
G74*
G01*
X11225Y-10939D02*
X11225Y-10539D01*
X11225Y-10539D02*
X11825Y-10539D01*
X11825Y-10539D02*
X11825Y-10939D01*
X11825Y-11339D02*
X11825Y-11739D01*
X11825Y-11739D02*
X11225Y-11739D01*
X11225Y-11739D02*
X11225Y-11339D01*
X24267Y-10489D02*
G75*
G03X24267Y-10489I-50J0D01*
G74*
G01*
X24217Y-10939D02*
X24217Y-10539D01*
X24217Y-10539D02*
X24817Y-10539D01*
X24817Y-10539D02*
X24817Y-10939D01*
X24817Y-11339D02*
X24817Y-11739D01*
X24817Y-11739D02*
X24217Y-11739D01*
X24217Y-11739D02*
X24217Y-11339D01*
X19542Y-5371D02*
G75*
G03X19542Y-5371I-50J0D01*
G74*
G01*
X19492Y-5821D02*
X19492Y-5421D01*
X19492Y-5421D02*
X20092Y-5421D01*
X20092Y-5421D02*
X20092Y-5821D01*
X20092Y-6221D02*
X20092Y-6621D01*
X20092Y-6621D02*
X19492Y-6621D01*
X19492Y-6621D02*
X19492Y-6221D01*
X22692Y-5371D02*
G75*
G03X22692Y-5371I-50J0D01*
G74*
G01*
X22642Y-5821D02*
X22642Y-5421D01*
X22642Y-5421D02*
X23242Y-5421D01*
X23242Y-5421D02*
X23242Y-5821D01*
X23242Y-6221D02*
X23242Y-6621D01*
X23242Y-6621D02*
X22642Y-6621D01*
X22642Y-6621D02*
X22642Y-6221D01*
G54D15*
X27061Y-5495D02*
X26661Y-5495D01*
X26661Y-5342D01*
X26680Y-5304D01*
X26700Y-5285D01*
X26738Y-5266D01*
X26795Y-5266D01*
X26833Y-5285D01*
X26852Y-5304D01*
X26871Y-5342D01*
X26871Y-5495D01*
X26700Y-5114D02*
X26680Y-5095D01*
X26661Y-5057D01*
X26661Y-4961D01*
X26680Y-4923D01*
X26700Y-4904D01*
X26738Y-4885D01*
X26776Y-4885D01*
X26833Y-4904D01*
X27061Y-5133D01*
X27061Y-4885D01*
G54D18*
X33132Y-2592D02*
X33496Y-2592D01*
X33539Y-2571D01*
X33560Y-2550D01*
X33582Y-2507D01*
X33582Y-2421D01*
X33560Y-2378D01*
X33539Y-2357D01*
X33496Y-2335D01*
X33132Y-2335D01*
X33175Y-2142D02*
X33153Y-2121D01*
X33132Y-2078D01*
X33132Y-1971D01*
X33153Y-1928D01*
X33175Y-1907D01*
X33217Y-1885D01*
X33260Y-1885D01*
X33325Y-1907D01*
X33582Y-2164D01*
X33582Y-1885D01*
G54D16*
X30758Y-5027D02*
X30746Y-5039D01*
X30710Y-5051D01*
X30686Y-5051D01*
X30651Y-5039D01*
X30627Y-5015D01*
X30615Y-4991D01*
X30603Y-4944D01*
X30603Y-4908D01*
X30615Y-4860D01*
X30627Y-4836D01*
X30651Y-4813D01*
X30686Y-4801D01*
X30710Y-4801D01*
X30746Y-4813D01*
X30758Y-4825D01*
X30996Y-5051D02*
X30853Y-5051D01*
X30925Y-5051D02*
X30925Y-4801D01*
X30901Y-4836D01*
X30877Y-4860D01*
X30853Y-4872D01*
X28208Y-3001D02*
X28125Y-2882D01*
X28065Y-3001D02*
X28065Y-2751D01*
X28160Y-2751D01*
X28184Y-2763D01*
X28196Y-2775D01*
X28208Y-2798D01*
X28208Y-2834D01*
X28196Y-2858D01*
X28184Y-2870D01*
X28160Y-2882D01*
X28065Y-2882D01*
X28446Y-3001D02*
X28303Y-3001D01*
X28375Y-3001D02*
X28375Y-2751D01*
X28351Y-2786D01*
X28327Y-2810D01*
X28303Y-2822D01*
X29808Y-3001D02*
X29725Y-2882D01*
X29665Y-3001D02*
X29665Y-2751D01*
X29760Y-2751D01*
X29784Y-2763D01*
X29796Y-2775D01*
X29808Y-2798D01*
X29808Y-2834D01*
X29796Y-2858D01*
X29784Y-2870D01*
X29760Y-2882D01*
X29665Y-2882D01*
X29903Y-2775D02*
X29915Y-2763D01*
X29939Y-2751D01*
X29998Y-2751D01*
X30022Y-2763D01*
X30034Y-2775D01*
X30046Y-2798D01*
X30046Y-2822D01*
X30034Y-2858D01*
X29891Y-3001D01*
X30046Y-3001D01*
X33851Y-6841D02*
X33732Y-6925D01*
X33851Y-6984D02*
X33601Y-6984D01*
X33601Y-6889D01*
X33613Y-6865D01*
X33625Y-6853D01*
X33648Y-6841D01*
X33684Y-6841D01*
X33708Y-6853D01*
X33720Y-6865D01*
X33732Y-6889D01*
X33732Y-6984D01*
X33601Y-6758D02*
X33601Y-6603D01*
X33696Y-6686D01*
X33696Y-6651D01*
X33708Y-6627D01*
X33720Y-6615D01*
X33744Y-6603D01*
X33803Y-6603D01*
X33827Y-6615D01*
X33839Y-6627D01*
X33851Y-6651D01*
X33851Y-6722D01*
X33839Y-6746D01*
X33827Y-6758D01*
X33851Y-7541D02*
X33732Y-7625D01*
X33851Y-7684D02*
X33601Y-7684D01*
X33601Y-7589D01*
X33613Y-7565D01*
X33625Y-7553D01*
X33648Y-7541D01*
X33684Y-7541D01*
X33708Y-7553D01*
X33720Y-7565D01*
X33732Y-7589D01*
X33732Y-7684D01*
X33684Y-7327D02*
X33851Y-7327D01*
X33589Y-7386D02*
X33767Y-7446D01*
X33767Y-7291D01*
X33851Y-5991D02*
X33732Y-6075D01*
X33851Y-6134D02*
X33601Y-6134D01*
X33601Y-6039D01*
X33613Y-6015D01*
X33625Y-6003D01*
X33648Y-5991D01*
X33684Y-5991D01*
X33708Y-6003D01*
X33720Y-6015D01*
X33732Y-6039D01*
X33732Y-6134D01*
X33601Y-5765D02*
X33601Y-5884D01*
X33720Y-5896D01*
X33708Y-5884D01*
X33696Y-5860D01*
X33696Y-5801D01*
X33708Y-5777D01*
X33720Y-5765D01*
X33744Y-5753D01*
X33803Y-5753D01*
X33827Y-5765D01*
X33839Y-5777D01*
X33851Y-5801D01*
X33851Y-5860D01*
X33839Y-5884D01*
X33827Y-5896D01*
G54D15*
X29161Y-2183D02*
X29447Y-2183D01*
X29504Y-2202D01*
X29542Y-2240D01*
X29561Y-2297D01*
X29561Y-2335D01*
X29561Y-1783D02*
X29561Y-2011D01*
X29561Y-1897D02*
X29161Y-1897D01*
X29219Y-1935D01*
X29257Y-1973D01*
X29276Y-2011D01*
G54D19*
X6111Y-12801D02*
X6111Y-12401D01*
X6264Y-12401D01*
X6302Y-12420D01*
X6321Y-12439D01*
X6340Y-12477D01*
X6340Y-12535D01*
X6321Y-12573D01*
X6302Y-12592D01*
X6264Y-12611D01*
X6111Y-12611D01*
X6721Y-12801D02*
X6492Y-12801D01*
X6607Y-12801D02*
X6607Y-12401D01*
X6568Y-12458D01*
X6530Y-12496D01*
X6492Y-12515D01*
X19103Y-12801D02*
X19103Y-12401D01*
X19256Y-12401D01*
X19294Y-12420D01*
X19313Y-12439D01*
X19332Y-12477D01*
X19332Y-12535D01*
X19313Y-12573D01*
X19294Y-12592D01*
X19256Y-12611D01*
X19103Y-12611D01*
X19694Y-12401D02*
X19503Y-12401D01*
X19484Y-12592D01*
X19503Y-12573D01*
X19542Y-12554D01*
X19637Y-12554D01*
X19675Y-12573D01*
X19694Y-12592D01*
X19713Y-12630D01*
X19713Y-12725D01*
X19694Y-12763D01*
X19675Y-12782D01*
X19637Y-12801D01*
X19542Y-12801D01*
X19503Y-12782D01*
X19484Y-12763D01*
G54D20*
X2830Y-13850D02*
X2765Y-13756D01*
X2718Y-13850D02*
X2718Y-13653D01*
X2793Y-13653D01*
X2812Y-13662D01*
X2821Y-13672D01*
X2830Y-13690D01*
X2830Y-13719D01*
X2821Y-13737D01*
X2812Y-13747D01*
X2793Y-13756D01*
X2718Y-13756D01*
X2896Y-13653D02*
X3027Y-13653D01*
X2943Y-13850D01*
X2830Y-8338D02*
X2765Y-8244D01*
X2718Y-8338D02*
X2718Y-8141D01*
X2793Y-8141D01*
X2812Y-8150D01*
X2821Y-8160D01*
X2830Y-8179D01*
X2830Y-8207D01*
X2821Y-8226D01*
X2812Y-8235D01*
X2793Y-8244D01*
X2718Y-8244D01*
X2999Y-8141D02*
X2962Y-8141D01*
X2943Y-8150D01*
X2934Y-8160D01*
X2915Y-8188D01*
X2905Y-8226D01*
X2905Y-8301D01*
X2915Y-8319D01*
X2924Y-8329D01*
X2943Y-8338D01*
X2981Y-8338D01*
X2999Y-8329D01*
X3009Y-8319D01*
X3018Y-8301D01*
X3018Y-8254D01*
X3009Y-8235D01*
X2999Y-8226D01*
X2981Y-8216D01*
X2943Y-8216D01*
X2924Y-8226D01*
X2915Y-8235D01*
X2905Y-8254D01*
X22909Y-15425D02*
X22844Y-15331D01*
X22797Y-15425D02*
X22797Y-15228D01*
X22872Y-15228D01*
X22890Y-15237D01*
X22900Y-15246D01*
X22909Y-15265D01*
X22909Y-15293D01*
X22900Y-15312D01*
X22890Y-15322D01*
X22872Y-15331D01*
X22797Y-15331D01*
X23022Y-15312D02*
X23003Y-15303D01*
X22994Y-15293D01*
X22984Y-15275D01*
X22984Y-15265D01*
X22994Y-15246D01*
X23003Y-15237D01*
X23022Y-15228D01*
X23059Y-15228D01*
X23078Y-15237D01*
X23087Y-15246D01*
X23097Y-15265D01*
X23097Y-15275D01*
X23087Y-15293D01*
X23078Y-15303D01*
X23059Y-15312D01*
X23022Y-15312D01*
X23003Y-15322D01*
X22994Y-15331D01*
X22984Y-15350D01*
X22984Y-15387D01*
X22994Y-15406D01*
X23003Y-15415D01*
X23022Y-15425D01*
X23059Y-15425D01*
X23078Y-15415D01*
X23087Y-15406D01*
X23097Y-15387D01*
X23097Y-15350D01*
X23087Y-15331D01*
X23078Y-15322D01*
X23059Y-15312D01*
X22909Y-13850D02*
X22844Y-13756D01*
X22797Y-13850D02*
X22797Y-13653D01*
X22872Y-13653D01*
X22890Y-13662D01*
X22900Y-13672D01*
X22909Y-13690D01*
X22909Y-13719D01*
X22900Y-13737D01*
X22890Y-13747D01*
X22872Y-13756D01*
X22797Y-13756D01*
X23003Y-13850D02*
X23041Y-13850D01*
X23059Y-13841D01*
X23069Y-13831D01*
X23087Y-13803D01*
X23097Y-13765D01*
X23097Y-13690D01*
X23087Y-13672D01*
X23078Y-13662D01*
X23059Y-13653D01*
X23022Y-13653D01*
X23003Y-13662D01*
X22994Y-13672D01*
X22984Y-13690D01*
X22984Y-13737D01*
X22994Y-13756D01*
X23003Y-13765D01*
X23022Y-13775D01*
X23059Y-13775D01*
X23078Y-13765D01*
X23087Y-13756D01*
X23097Y-13737D01*
X2737Y-7801D02*
X2671Y-7707D01*
X2624Y-7801D02*
X2624Y-7604D01*
X2699Y-7604D01*
X2718Y-7613D01*
X2727Y-7622D01*
X2737Y-7641D01*
X2737Y-7669D01*
X2727Y-7688D01*
X2718Y-7698D01*
X2699Y-7707D01*
X2624Y-7707D01*
X2924Y-7801D02*
X2812Y-7801D01*
X2868Y-7801D02*
X2868Y-7604D01*
X2849Y-7632D01*
X2830Y-7651D01*
X2812Y-7660D01*
X3046Y-7604D02*
X3065Y-7604D01*
X3084Y-7613D01*
X3093Y-7622D01*
X3102Y-7641D01*
X3112Y-7679D01*
X3112Y-7726D01*
X3102Y-7763D01*
X3093Y-7782D01*
X3084Y-7791D01*
X3065Y-7801D01*
X3046Y-7801D01*
X3027Y-7791D01*
X3018Y-7782D01*
X3009Y-7763D01*
X2999Y-7726D01*
X2999Y-7679D01*
X3009Y-7641D01*
X3018Y-7622D01*
X3027Y-7613D01*
X3046Y-7604D01*
X2737Y-14637D02*
X2671Y-14543D01*
X2624Y-14637D02*
X2624Y-14440D01*
X2699Y-14440D01*
X2718Y-14450D01*
X2727Y-14459D01*
X2737Y-14478D01*
X2737Y-14506D01*
X2727Y-14525D01*
X2718Y-14534D01*
X2699Y-14543D01*
X2624Y-14543D01*
X2924Y-14637D02*
X2812Y-14637D01*
X2868Y-14637D02*
X2868Y-14440D01*
X2849Y-14468D01*
X2830Y-14487D01*
X2812Y-14497D01*
X3112Y-14637D02*
X2999Y-14637D01*
X3056Y-14637D02*
X3056Y-14440D01*
X3037Y-14468D01*
X3018Y-14487D01*
X2999Y-14497D01*
X22815Y-16462D02*
X22750Y-16368D01*
X22703Y-16462D02*
X22703Y-16265D01*
X22778Y-16265D01*
X22797Y-16274D01*
X22806Y-16284D01*
X22815Y-16303D01*
X22815Y-16331D01*
X22806Y-16350D01*
X22797Y-16359D01*
X22778Y-16368D01*
X22703Y-16368D01*
X23003Y-16462D02*
X22890Y-16462D01*
X22947Y-16462D02*
X22947Y-16265D01*
X22928Y-16293D01*
X22909Y-16312D01*
X22890Y-16321D01*
X23078Y-16284D02*
X23087Y-16274D01*
X23106Y-16265D01*
X23153Y-16265D01*
X23172Y-16274D01*
X23181Y-16284D01*
X23191Y-16303D01*
X23191Y-16321D01*
X23181Y-16350D01*
X23069Y-16462D01*
X23191Y-16462D01*
X22815Y-14637D02*
X22750Y-14543D01*
X22703Y-14637D02*
X22703Y-14440D01*
X22778Y-14440D01*
X22797Y-14450D01*
X22806Y-14459D01*
X22815Y-14478D01*
X22815Y-14506D01*
X22806Y-14525D01*
X22797Y-14534D01*
X22778Y-14543D01*
X22703Y-14543D01*
X23003Y-14637D02*
X22890Y-14637D01*
X22947Y-14637D02*
X22947Y-14440D01*
X22928Y-14468D01*
X22909Y-14487D01*
X22890Y-14497D01*
X23069Y-14440D02*
X23191Y-14440D01*
X23125Y-14515D01*
X23153Y-14515D01*
X23172Y-14525D01*
X23181Y-14534D01*
X23191Y-14553D01*
X23191Y-14600D01*
X23181Y-14619D01*
X23172Y-14628D01*
X23153Y-14637D01*
X23097Y-14637D01*
X23078Y-14628D01*
X23069Y-14619D01*
X22359Y-7723D02*
X22266Y-7788D01*
X22359Y-7835D02*
X22162Y-7835D01*
X22162Y-7760D01*
X22172Y-7741D01*
X22181Y-7732D01*
X22200Y-7723D01*
X22228Y-7723D01*
X22247Y-7732D01*
X22256Y-7741D01*
X22266Y-7760D01*
X22266Y-7835D01*
X22181Y-7648D02*
X22172Y-7638D01*
X22162Y-7619D01*
X22162Y-7573D01*
X22172Y-7554D01*
X22181Y-7544D01*
X22200Y-7535D01*
X22219Y-7535D01*
X22247Y-7544D01*
X22359Y-7657D01*
X22359Y-7535D01*
X22359Y-7347D02*
X22359Y-7460D01*
X22359Y-7404D02*
X22162Y-7404D01*
X22190Y-7422D01*
X22209Y-7441D01*
X22219Y-7460D01*
X22109Y-6148D02*
X22016Y-6213D01*
X22109Y-6260D02*
X21912Y-6260D01*
X21912Y-6185D01*
X21922Y-6167D01*
X21931Y-6157D01*
X21950Y-6148D01*
X21978Y-6148D01*
X21997Y-6157D01*
X22006Y-6167D01*
X22016Y-6185D01*
X22016Y-6260D01*
X21931Y-6073D02*
X21922Y-6063D01*
X21912Y-6045D01*
X21912Y-5998D01*
X21922Y-5979D01*
X21931Y-5970D01*
X21950Y-5960D01*
X21969Y-5960D01*
X21997Y-5970D01*
X22109Y-6082D01*
X22109Y-5960D01*
X21912Y-5838D02*
X21912Y-5819D01*
X21922Y-5801D01*
X21931Y-5791D01*
X21950Y-5782D01*
X21987Y-5773D01*
X22034Y-5773D01*
X22072Y-5782D01*
X22091Y-5791D01*
X22100Y-5801D01*
X22109Y-5819D01*
X22109Y-5838D01*
X22100Y-5857D01*
X22091Y-5866D01*
X22072Y-5876D01*
X22034Y-5885D01*
X21987Y-5885D01*
X21950Y-5876D01*
X21931Y-5866D01*
X21922Y-5857D01*
X21912Y-5838D01*
X18960Y-6148D02*
X18866Y-6213D01*
X18960Y-6260D02*
X18763Y-6260D01*
X18763Y-6185D01*
X18772Y-6167D01*
X18782Y-6157D01*
X18800Y-6148D01*
X18828Y-6148D01*
X18847Y-6157D01*
X18857Y-6167D01*
X18866Y-6185D01*
X18866Y-6260D01*
X18960Y-5960D02*
X18960Y-6073D01*
X18960Y-6016D02*
X18763Y-6016D01*
X18791Y-6035D01*
X18810Y-6054D01*
X18819Y-6073D01*
X18847Y-5848D02*
X18838Y-5866D01*
X18828Y-5876D01*
X18810Y-5885D01*
X18800Y-5885D01*
X18782Y-5876D01*
X18772Y-5866D01*
X18763Y-5848D01*
X18763Y-5810D01*
X18772Y-5791D01*
X18782Y-5782D01*
X18800Y-5773D01*
X18810Y-5773D01*
X18828Y-5782D01*
X18838Y-5791D01*
X18847Y-5810D01*
X18847Y-5848D01*
X18857Y-5866D01*
X18866Y-5876D01*
X18885Y-5885D01*
X18922Y-5885D01*
X18941Y-5876D01*
X18950Y-5866D01*
X18960Y-5848D01*
X18960Y-5810D01*
X18950Y-5791D01*
X18941Y-5782D01*
X18922Y-5773D01*
X18885Y-5773D01*
X18866Y-5782D01*
X18857Y-5791D01*
X18847Y-5810D01*
X19210Y-7723D02*
X19116Y-7788D01*
X19210Y-7835D02*
X19013Y-7835D01*
X19013Y-7760D01*
X19022Y-7741D01*
X19032Y-7732D01*
X19050Y-7723D01*
X19078Y-7723D01*
X19097Y-7732D01*
X19107Y-7741D01*
X19116Y-7760D01*
X19116Y-7835D01*
X19210Y-7535D02*
X19210Y-7648D01*
X19210Y-7591D02*
X19013Y-7591D01*
X19041Y-7610D01*
X19060Y-7629D01*
X19069Y-7648D01*
X19210Y-7441D02*
X19210Y-7404D01*
X19200Y-7385D01*
X19191Y-7376D01*
X19163Y-7357D01*
X19125Y-7347D01*
X19050Y-7347D01*
X19032Y-7357D01*
X19022Y-7366D01*
X19013Y-7385D01*
X19013Y-7422D01*
X19022Y-7441D01*
X19032Y-7451D01*
X19050Y-7460D01*
X19097Y-7460D01*
X19116Y-7451D01*
X19125Y-7441D01*
X19135Y-7422D01*
X19135Y-7385D01*
X19125Y-7366D01*
X19116Y-7357D01*
X19097Y-7347D01*
X21322Y-6148D02*
X21228Y-6213D01*
X21322Y-6260D02*
X21125Y-6260D01*
X21125Y-6185D01*
X21134Y-6167D01*
X21144Y-6157D01*
X21162Y-6148D01*
X21191Y-6148D01*
X21209Y-6157D01*
X21219Y-6167D01*
X21228Y-6185D01*
X21228Y-6260D01*
X21322Y-5960D02*
X21322Y-6073D01*
X21322Y-6016D02*
X21125Y-6016D01*
X21153Y-6035D01*
X21172Y-6054D01*
X21181Y-6073D01*
X21125Y-5895D02*
X21125Y-5763D01*
X21322Y-5848D01*
X21572Y-7723D02*
X21478Y-7788D01*
X21572Y-7835D02*
X21375Y-7835D01*
X21375Y-7760D01*
X21384Y-7741D01*
X21394Y-7732D01*
X21412Y-7723D01*
X21441Y-7723D01*
X21459Y-7732D01*
X21469Y-7741D01*
X21478Y-7760D01*
X21478Y-7835D01*
X21572Y-7535D02*
X21572Y-7648D01*
X21572Y-7591D02*
X21375Y-7591D01*
X21403Y-7610D01*
X21422Y-7629D01*
X21431Y-7648D01*
X21375Y-7366D02*
X21375Y-7404D01*
X21384Y-7422D01*
X21394Y-7432D01*
X21422Y-7451D01*
X21459Y-7460D01*
X21534Y-7460D01*
X21553Y-7451D01*
X21563Y-7441D01*
X21572Y-7422D01*
X21572Y-7385D01*
X21563Y-7366D01*
X21553Y-7357D01*
X21534Y-7347D01*
X21488Y-7347D01*
X21469Y-7357D01*
X21459Y-7366D01*
X21450Y-7385D01*
X21450Y-7422D01*
X21459Y-7441D01*
X21469Y-7451D01*
X21488Y-7460D01*
X18422Y-7723D02*
X18329Y-7788D01*
X18422Y-7835D02*
X18225Y-7835D01*
X18225Y-7760D01*
X18235Y-7741D01*
X18244Y-7732D01*
X18263Y-7723D01*
X18291Y-7723D01*
X18310Y-7732D01*
X18319Y-7741D01*
X18329Y-7760D01*
X18329Y-7835D01*
X18422Y-7535D02*
X18422Y-7648D01*
X18422Y-7591D02*
X18225Y-7591D01*
X18253Y-7610D01*
X18272Y-7629D01*
X18282Y-7648D01*
X18291Y-7366D02*
X18422Y-7366D01*
X18216Y-7413D02*
X18357Y-7460D01*
X18357Y-7338D01*
X18172Y-6148D02*
X18079Y-6213D01*
X18172Y-6260D02*
X17975Y-6260D01*
X17975Y-6185D01*
X17985Y-6167D01*
X17994Y-6157D01*
X18013Y-6148D01*
X18041Y-6148D01*
X18060Y-6157D01*
X18069Y-6167D01*
X18079Y-6185D01*
X18079Y-6260D01*
X18172Y-5960D02*
X18172Y-6073D01*
X18172Y-6016D02*
X17975Y-6016D01*
X18003Y-6035D01*
X18022Y-6054D01*
X18032Y-6073D01*
X17975Y-5782D02*
X17975Y-5876D01*
X18069Y-5885D01*
X18060Y-5876D01*
X18050Y-5857D01*
X18050Y-5810D01*
X18060Y-5791D01*
X18069Y-5782D01*
X18088Y-5773D01*
X18135Y-5773D01*
X18154Y-5782D01*
X18163Y-5791D01*
X18172Y-5810D01*
X18172Y-5857D01*
X18163Y-5876D01*
X18154Y-5885D01*
X11711Y-11172D02*
X11720Y-11181D01*
X11729Y-11210D01*
X11729Y-11228D01*
X11720Y-11257D01*
X11701Y-11275D01*
X11683Y-11285D01*
X11645Y-11294D01*
X11617Y-11294D01*
X11579Y-11285D01*
X11561Y-11275D01*
X11542Y-11257D01*
X11532Y-11228D01*
X11532Y-11210D01*
X11542Y-11181D01*
X11551Y-11172D01*
X11551Y-11097D02*
X11542Y-11088D01*
X11532Y-11069D01*
X11532Y-11022D01*
X11542Y-11003D01*
X11551Y-10994D01*
X11570Y-10984D01*
X11589Y-10984D01*
X11617Y-10994D01*
X11729Y-11106D01*
X11729Y-10984D01*
X24703Y-11172D02*
X24712Y-11181D01*
X24722Y-11210D01*
X24722Y-11228D01*
X24712Y-11257D01*
X24693Y-11275D01*
X24675Y-11285D01*
X24637Y-11294D01*
X24609Y-11294D01*
X24571Y-11285D01*
X24553Y-11275D01*
X24534Y-11257D01*
X24525Y-11228D01*
X24525Y-11210D01*
X24534Y-11181D01*
X24543Y-11172D01*
X24525Y-11106D02*
X24525Y-10984D01*
X24600Y-11050D01*
X24600Y-11022D01*
X24609Y-11003D01*
X24618Y-10994D01*
X24637Y-10984D01*
X24684Y-10984D01*
X24703Y-10994D01*
X24712Y-11003D01*
X24722Y-11022D01*
X24722Y-11078D01*
X24712Y-11097D01*
X24703Y-11106D01*
X19997Y-6148D02*
X19903Y-6213D01*
X19997Y-6260D02*
X19800Y-6260D01*
X19800Y-6185D01*
X19810Y-6167D01*
X19819Y-6157D01*
X19838Y-6148D01*
X19866Y-6148D01*
X19885Y-6157D01*
X19894Y-6167D01*
X19903Y-6185D01*
X19903Y-6260D01*
X19819Y-6073D02*
X19810Y-6063D01*
X19800Y-6045D01*
X19800Y-5998D01*
X19810Y-5979D01*
X19819Y-5970D01*
X19838Y-5960D01*
X19856Y-5960D01*
X19885Y-5970D01*
X19997Y-6082D01*
X19997Y-5960D01*
X19800Y-5782D02*
X19800Y-5876D01*
X19894Y-5885D01*
X19885Y-5876D01*
X19875Y-5857D01*
X19875Y-5810D01*
X19885Y-5791D01*
X19894Y-5782D01*
X19913Y-5773D01*
X19960Y-5773D01*
X19978Y-5782D01*
X19988Y-5791D01*
X19997Y-5810D01*
X19997Y-5857D01*
X19988Y-5876D01*
X19978Y-5885D01*
X23147Y-6148D02*
X23053Y-6213D01*
X23147Y-6260D02*
X22950Y-6260D01*
X22950Y-6185D01*
X22959Y-6167D01*
X22969Y-6157D01*
X22987Y-6148D01*
X23015Y-6148D01*
X23034Y-6157D01*
X23044Y-6167D01*
X23053Y-6185D01*
X23053Y-6260D01*
X22969Y-6073D02*
X22959Y-6063D01*
X22950Y-6045D01*
X22950Y-5998D01*
X22959Y-5979D01*
X22969Y-5970D01*
X22987Y-5960D01*
X23006Y-5960D01*
X23034Y-5970D01*
X23147Y-6082D01*
X23147Y-5960D01*
X23015Y-5791D02*
X23147Y-5791D01*
X22940Y-5838D02*
X23081Y-5885D01*
X23081Y-5763D01*
%LPC*%
G54D21*
X26250Y-2750D03*
G54D22*
X26250Y-3750D03*
X21250Y-2750D03*
X25250Y-3750D03*
X20250Y-2750D03*
X24250Y-3750D03*
X19250Y-2750D03*
X23250Y-3750D03*
X18250Y-2750D03*
X22250Y-3750D03*
X17250Y-2750D03*
X21250Y-3750D03*
X16250Y-2750D03*
X20250Y-3750D03*
X15250Y-2750D03*
X19250Y-3750D03*
X14250Y-2750D03*
X18250Y-3750D03*
X13250Y-2750D03*
X17250Y-3750D03*
X12250Y-2750D03*
X16250Y-3750D03*
X11250Y-2750D03*
X15250Y-3750D03*
X14250Y-3750D03*
X10250Y-2750D03*
X13250Y-3750D03*
X11250Y-3750D03*
X10250Y-3750D03*
X9250Y-3750D03*
X8250Y-3750D03*
X9250Y-2750D03*
X8250Y-2750D03*
X25250Y-2750D03*
X24250Y-2750D03*
X23250Y-2750D03*
X22250Y-2750D03*
X7250Y-2750D03*
X7250Y-3750D03*
X12250Y-3750D03*
X6250Y-2750D03*
X6250Y-3750D03*
X5250Y-2750D03*
X5250Y-3750D03*
X4250Y-2750D03*
X4250Y-3750D03*
G54D21*
X26250Y-17750D03*
G54D22*
X26250Y-18750D03*
X21250Y-17750D03*
X25250Y-18750D03*
X20250Y-17750D03*
X24250Y-18750D03*
X19250Y-17750D03*
X23250Y-18750D03*
X18250Y-17750D03*
X22250Y-18750D03*
X17250Y-17750D03*
X21250Y-18750D03*
X16250Y-17750D03*
X20250Y-18750D03*
X15250Y-17750D03*
X19250Y-18750D03*
X14250Y-17750D03*
X18250Y-18750D03*
X13250Y-17750D03*
X17250Y-18750D03*
X12250Y-17750D03*
X16250Y-18750D03*
X11250Y-17750D03*
X15250Y-18750D03*
X14250Y-18750D03*
X10250Y-17750D03*
X13250Y-18750D03*
X11250Y-18750D03*
X10250Y-18750D03*
X9250Y-18750D03*
X8250Y-18750D03*
X9250Y-17750D03*
X8250Y-17750D03*
X25250Y-17750D03*
X24250Y-17750D03*
X23250Y-17750D03*
X22250Y-17750D03*
X7250Y-17750D03*
X7250Y-18750D03*
X12250Y-18750D03*
X6250Y-17750D03*
X6250Y-18750D03*
X5250Y-17750D03*
X5250Y-18750D03*
X4250Y-17750D03*
X4250Y-18750D03*
G54D21*
X29750Y-4500D03*
G54D22*
X29750Y-5500D03*
X28750Y-4500D03*
X28750Y-5500D03*
X27750Y-4500D03*
X27750Y-5500D03*
G54D23*
X31200Y-4550D03*
X33300Y-4550D03*
X31200Y-4050D03*
X31200Y-3550D03*
X31200Y-3050D03*
X33300Y-4050D03*
X33300Y-3550D03*
X33300Y-3050D03*
G54D24*
X30975Y-5500D03*
X31725Y-5500D03*
X28575Y-3400D03*
X27825Y-3400D03*
X29425Y-3400D03*
X30175Y-3400D03*
X32525Y-6750D03*
X33275Y-6750D03*
X32525Y-7500D03*
X33275Y-7500D03*
X32525Y-6000D03*
X33275Y-6000D03*
G54D21*
X31200Y-1950D03*
G54D22*
X30200Y-1950D03*
X31200Y-950D03*
X30200Y-950D03*
G54D25*
X2250Y-2500D03*
X28250Y-1250D03*
X28250Y-20250D03*
X2250Y-19000D03*
G54D26*
X26250Y-750D03*
G54D27*
X26250Y-1750D03*
X25250Y-750D03*
X25250Y-1750D03*
X24250Y-750D03*
X24250Y-1750D03*
X23250Y-750D03*
X23250Y-1750D03*
X22250Y-750D03*
X22250Y-1750D03*
X21250Y-750D03*
X21250Y-1750D03*
X20250Y-750D03*
X20250Y-1750D03*
X19250Y-750D03*
X19250Y-1750D03*
X18250Y-750D03*
X18250Y-1750D03*
X17250Y-750D03*
X17250Y-1750D03*
X16250Y-750D03*
X16250Y-1750D03*
X15250Y-750D03*
X15250Y-1750D03*
X14250Y-750D03*
X14250Y-1750D03*
X13250Y-750D03*
X13250Y-1750D03*
X12250Y-750D03*
X12250Y-1750D03*
X11250Y-750D03*
X11250Y-1750D03*
X10250Y-750D03*
X10250Y-1750D03*
X9250Y-750D03*
X9250Y-1750D03*
X8250Y-750D03*
X8250Y-1750D03*
X7250Y-750D03*
X7250Y-1750D03*
X6250Y-750D03*
X6250Y-1750D03*
X5250Y-750D03*
X5250Y-1750D03*
X4250Y-750D03*
X4250Y-1750D03*
G54D26*
X26250Y-19750D03*
G54D27*
X26250Y-20750D03*
X25250Y-19750D03*
X25250Y-20750D03*
X24250Y-19750D03*
X24250Y-20750D03*
X23250Y-19750D03*
X23250Y-20750D03*
X22250Y-19750D03*
X22250Y-20750D03*
X21250Y-19750D03*
X21250Y-20750D03*
X20250Y-19750D03*
X20250Y-20750D03*
X19250Y-19750D03*
X19250Y-20750D03*
X18250Y-19750D03*
X18250Y-20750D03*
X17250Y-19750D03*
X17250Y-20750D03*
X16250Y-19750D03*
X16250Y-20750D03*
X15250Y-19750D03*
X15250Y-20750D03*
X14250Y-19750D03*
X14250Y-20750D03*
X13250Y-19750D03*
X13250Y-20750D03*
X12250Y-19750D03*
X12250Y-20750D03*
X11250Y-19750D03*
X11250Y-20750D03*
X10250Y-19750D03*
X10250Y-20750D03*
X9250Y-19750D03*
X9250Y-20750D03*
X8250Y-19750D03*
X8250Y-20750D03*
X7250Y-19750D03*
X7250Y-20750D03*
X6250Y-19750D03*
X6250Y-20750D03*
X5250Y-19750D03*
X5250Y-20750D03*
X4250Y-19750D03*
X4250Y-20750D03*
G54D26*
X31250Y-6500D03*
G54D27*
X31250Y-7500D03*
X30250Y-6500D03*
X30250Y-7500D03*
X29250Y-6500D03*
X29250Y-7500D03*
X28250Y-6500D03*
X28250Y-7500D03*
X27250Y-6500D03*
X27250Y-7500D03*
G54D28*
X10407Y-10639D03*
G54D29*
X10407Y-11639D03*
X9407Y-10639D03*
X9407Y-11639D03*
X8407Y-10639D03*
X8407Y-11639D03*
X7407Y-10639D03*
X7407Y-11639D03*
X6407Y-10639D03*
X6407Y-11639D03*
X5407Y-10639D03*
X5407Y-11639D03*
X4407Y-10639D03*
X4407Y-11639D03*
X3407Y-10639D03*
X3407Y-11639D03*
X2407Y-10639D03*
X2407Y-11639D03*
G54D28*
X23399Y-10639D03*
G54D29*
X23399Y-11639D03*
X22399Y-10639D03*
X22399Y-11639D03*
X21399Y-10639D03*
X21399Y-11639D03*
X20399Y-10639D03*
X20399Y-11639D03*
X19399Y-10639D03*
X19399Y-11639D03*
X18399Y-10639D03*
X18399Y-11639D03*
X17399Y-10639D03*
X17399Y-11639D03*
X16399Y-10639D03*
X16399Y-11639D03*
X15399Y-10639D03*
X15399Y-11639D03*
G54D24*
X2488Y-13895D03*
X3238Y-13895D03*
X2488Y-8383D03*
X3238Y-8383D03*
X22567Y-15470D03*
X23317Y-15470D03*
X22567Y-13895D03*
X23317Y-13895D03*
X3238Y-7596D03*
X2488Y-7596D03*
X2488Y-14683D03*
X3238Y-14683D03*
X23317Y-16257D03*
X22567Y-16257D03*
X22567Y-14683D03*
X23317Y-14683D03*
G54D30*
X22155Y-7221D03*
X22155Y-7971D03*
X22155Y-6396D03*
X22155Y-5646D03*
X19005Y-6396D03*
X19005Y-5646D03*
X19005Y-7221D03*
X19005Y-7971D03*
X21367Y-6396D03*
X21367Y-5646D03*
X21367Y-7221D03*
X21367Y-7971D03*
X18218Y-7221D03*
X18218Y-7971D03*
X18218Y-6396D03*
X18218Y-5646D03*
X11525Y-10764D03*
X11525Y-11514D03*
X24517Y-10764D03*
X24517Y-11514D03*
X19792Y-5646D03*
X19792Y-6396D03*
X22942Y-5646D03*
X22942Y-6396D03*
M02*
