G04 (created by PCBNEW (25-Oct-2014 BZR 4029)-stable) date Wed 18 Mar 2015 08:41:43 PM EET*
%MOIN*%
G04 Gerber Fmt 3.4, Leading zero omitted, Abs format*
%FSLAX34Y34*%
G01*
G70*
G90*
G04 APERTURE LIST*
%ADD10C,0.00590551*%
%ADD11C,0.015*%
%ADD12R,0.08X0.08*%
%ADD13C,0.08*%
%ADD14C,0.2*%
%ADD15R,0.085X0.085*%
%ADD16C,0.0712*%
%ADD17R,0.1X0.1*%
%ADD18C,0.1*%
G04 APERTURE END LIST*
G54D10*
G54D11*
X29174Y0D02*
X5262Y0D01*
X9200Y-21500D02*
X9250Y-21500D01*
X5066Y-21500D02*
X28651Y-21500D01*
X31250Y-15400D02*
X25950Y-15400D01*
X31250Y-21500D02*
X28500Y-21500D01*
X31250Y-21500D02*
X31250Y-15450D01*
X5250Y0D02*
X4900Y0D01*
X25200Y0D02*
X27250Y0D01*
X27250Y-21500D02*
X25250Y-21500D01*
X5000Y-21500D02*
X5250Y-21500D01*
X27250Y-21500D02*
X28500Y-21500D01*
X27250Y0D02*
X28500Y0D01*
X25950Y-8100D02*
X25950Y-15400D01*
X34000Y-8100D02*
X25950Y-8100D01*
X34000Y-7900D02*
X34000Y-8100D01*
X28400Y0D02*
X31500Y0D01*
X0Y-5000D02*
X0Y-16500D01*
X34000Y-2500D02*
X34000Y-7950D01*
X34000Y-2500D02*
G75*
G03X31500Y0I-2500J0D01*
G74*
G01*
X0Y-16500D02*
G75*
G03X5000Y-21500I5000J0D01*
G74*
G01*
X5000Y0D02*
G75*
G03X0Y-5000I0J-5000D01*
G74*
G01*
G54D12*
X26250Y-2750D03*
G54D13*
X26250Y-3750D03*
X21250Y-2750D03*
X25250Y-3750D03*
X20250Y-2750D03*
X24250Y-3750D03*
X19250Y-2750D03*
X23250Y-3750D03*
X18250Y-2750D03*
X22250Y-3750D03*
X17250Y-2750D03*
X21250Y-3750D03*
X16250Y-2750D03*
X20250Y-3750D03*
X15250Y-2750D03*
X19250Y-3750D03*
X14250Y-2750D03*
X18250Y-3750D03*
X13250Y-2750D03*
X17250Y-3750D03*
X12250Y-2750D03*
X16250Y-3750D03*
X11250Y-2750D03*
X15250Y-3750D03*
X14250Y-3750D03*
X10250Y-2750D03*
X13250Y-3750D03*
X11250Y-3750D03*
X10250Y-3750D03*
X9250Y-3750D03*
X8250Y-3750D03*
X9250Y-2750D03*
X8250Y-2750D03*
X25250Y-2750D03*
X24250Y-2750D03*
X23250Y-2750D03*
X22250Y-2750D03*
X7250Y-2750D03*
X7250Y-3750D03*
X12250Y-3750D03*
X6250Y-2750D03*
X6250Y-3750D03*
X5250Y-2750D03*
X5250Y-3750D03*
X4250Y-2750D03*
X4250Y-3750D03*
G54D12*
X26250Y-17750D03*
G54D13*
X26250Y-18750D03*
X21250Y-17750D03*
X25250Y-18750D03*
X20250Y-17750D03*
X24250Y-18750D03*
X19250Y-17750D03*
X23250Y-18750D03*
X18250Y-17750D03*
X22250Y-18750D03*
X17250Y-17750D03*
X21250Y-18750D03*
X16250Y-17750D03*
X20250Y-18750D03*
X15250Y-17750D03*
X19250Y-18750D03*
X14250Y-17750D03*
X18250Y-18750D03*
X13250Y-17750D03*
X17250Y-18750D03*
X12250Y-17750D03*
X16250Y-18750D03*
X11250Y-17750D03*
X15250Y-18750D03*
X14250Y-18750D03*
X10250Y-17750D03*
X13250Y-18750D03*
X11250Y-18750D03*
X10250Y-18750D03*
X9250Y-18750D03*
X8250Y-18750D03*
X9250Y-17750D03*
X8250Y-17750D03*
X25250Y-17750D03*
X24250Y-17750D03*
X23250Y-17750D03*
X22250Y-17750D03*
X7250Y-17750D03*
X7250Y-18750D03*
X12250Y-18750D03*
X6250Y-17750D03*
X6250Y-18750D03*
X5250Y-17750D03*
X5250Y-18750D03*
X4250Y-17750D03*
X4250Y-18750D03*
G54D12*
X29750Y-4500D03*
G54D13*
X29750Y-5500D03*
X28750Y-4500D03*
X28750Y-5500D03*
X27750Y-4500D03*
X27750Y-5500D03*
G54D12*
X31200Y-1950D03*
G54D13*
X30200Y-1950D03*
X31200Y-950D03*
X30200Y-950D03*
G54D14*
X2250Y-2500D03*
X28250Y-1250D03*
X28250Y-20250D03*
X2250Y-19000D03*
G54D15*
X26250Y-750D03*
G54D16*
X26250Y-1750D03*
X25250Y-750D03*
X25250Y-1750D03*
X24250Y-750D03*
X24250Y-1750D03*
X23250Y-750D03*
X23250Y-1750D03*
X22250Y-750D03*
X22250Y-1750D03*
X21250Y-750D03*
X21250Y-1750D03*
X20250Y-750D03*
X20250Y-1750D03*
X19250Y-750D03*
X19250Y-1750D03*
X18250Y-750D03*
X18250Y-1750D03*
X17250Y-750D03*
X17250Y-1750D03*
X16250Y-750D03*
X16250Y-1750D03*
X15250Y-750D03*
X15250Y-1750D03*
X14250Y-750D03*
X14250Y-1750D03*
X13250Y-750D03*
X13250Y-1750D03*
X12250Y-750D03*
X12250Y-1750D03*
X11250Y-750D03*
X11250Y-1750D03*
X10250Y-750D03*
X10250Y-1750D03*
X9250Y-750D03*
X9250Y-1750D03*
X8250Y-750D03*
X8250Y-1750D03*
X7250Y-750D03*
X7250Y-1750D03*
X6250Y-750D03*
X6250Y-1750D03*
X5250Y-750D03*
X5250Y-1750D03*
X4250Y-750D03*
X4250Y-1750D03*
G54D15*
X26250Y-19750D03*
G54D16*
X26250Y-20750D03*
X25250Y-19750D03*
X25250Y-20750D03*
X24250Y-19750D03*
X24250Y-20750D03*
X23250Y-19750D03*
X23250Y-20750D03*
X22250Y-19750D03*
X22250Y-20750D03*
X21250Y-19750D03*
X21250Y-20750D03*
X20250Y-19750D03*
X20250Y-20750D03*
X19250Y-19750D03*
X19250Y-20750D03*
X18250Y-19750D03*
X18250Y-20750D03*
X17250Y-19750D03*
X17250Y-20750D03*
X16250Y-19750D03*
X16250Y-20750D03*
X15250Y-19750D03*
X15250Y-20750D03*
X14250Y-19750D03*
X14250Y-20750D03*
X13250Y-19750D03*
X13250Y-20750D03*
X12250Y-19750D03*
X12250Y-20750D03*
X11250Y-19750D03*
X11250Y-20750D03*
X10250Y-19750D03*
X10250Y-20750D03*
X9250Y-19750D03*
X9250Y-20750D03*
X8250Y-19750D03*
X8250Y-20750D03*
X7250Y-19750D03*
X7250Y-20750D03*
X6250Y-19750D03*
X6250Y-20750D03*
X5250Y-19750D03*
X5250Y-20750D03*
X4250Y-19750D03*
X4250Y-20750D03*
G54D15*
X31250Y-6500D03*
G54D16*
X31250Y-7500D03*
X30250Y-6500D03*
X30250Y-7500D03*
X29250Y-6500D03*
X29250Y-7500D03*
X28250Y-6500D03*
X28250Y-7500D03*
X27250Y-6500D03*
X27250Y-7500D03*
G54D17*
X10407Y-10639D03*
G54D18*
X10407Y-11639D03*
X9407Y-10639D03*
X9407Y-11639D03*
X8407Y-10639D03*
X8407Y-11639D03*
X7407Y-10639D03*
X7407Y-11639D03*
X6407Y-10639D03*
X6407Y-11639D03*
X5407Y-10639D03*
X5407Y-11639D03*
X4407Y-10639D03*
X4407Y-11639D03*
X3407Y-10639D03*
X3407Y-11639D03*
X2407Y-10639D03*
X2407Y-11639D03*
G54D17*
X23399Y-10639D03*
G54D18*
X23399Y-11639D03*
X22399Y-10639D03*
X22399Y-11639D03*
X21399Y-10639D03*
X21399Y-11639D03*
X20399Y-10639D03*
X20399Y-11639D03*
X19399Y-10639D03*
X19399Y-11639D03*
X18399Y-10639D03*
X18399Y-11639D03*
X17399Y-10639D03*
X17399Y-11639D03*
X16399Y-10639D03*
X16399Y-11639D03*
X15399Y-10639D03*
X15399Y-11639D03*
M02*
