G04 (created by PCBNEW (25-Oct-2014 BZR 4029)-stable) date Sun 29 Mar 2015 05:09:11 PM EEST*
%MOIN*%
G04 Gerber Fmt 3.4, Leading zero omitted, Abs format*
%FSLAX34Y34*%
G01*
G70*
G90*
G04 APERTURE LIST*
%ADD10C,0.00590551*%
%ADD11C,0.015*%
G04 APERTURE END LIST*
G54D10*
G54D11*
X29174Y0D02*
X5262Y0D01*
X9200Y-21500D02*
X9250Y-21500D01*
X5066Y-21500D02*
X28651Y-21500D01*
X31250Y-15400D02*
X25950Y-15400D01*
X31250Y-21500D02*
X28500Y-21500D01*
X31250Y-21500D02*
X31250Y-15450D01*
X5250Y0D02*
X4900Y0D01*
X25200Y0D02*
X27250Y0D01*
X27250Y-21500D02*
X25250Y-21500D01*
X5000Y-21500D02*
X5250Y-21500D01*
X27250Y-21500D02*
X28500Y-21500D01*
X27250Y0D02*
X28500Y0D01*
X25950Y-8100D02*
X25950Y-15400D01*
X34000Y-8100D02*
X25950Y-8100D01*
X34000Y-7900D02*
X34000Y-8100D01*
X28400Y0D02*
X31500Y0D01*
X0Y-5000D02*
X0Y-16500D01*
X34000Y-2500D02*
X34000Y-7950D01*
X34000Y-2500D02*
G75*
G03X31500Y0I-2500J0D01*
G74*
G01*
X0Y-16500D02*
G75*
G03X5000Y-21500I5000J0D01*
G74*
G01*
X5000Y0D02*
G75*
G03X0Y-5000I0J-5000D01*
G74*
G01*
M02*
