M48
METRIC,TZ
T1C0.635
T2C0.800
T3C0.813
T4C1.016
T5C3.175
%
G90
G05
T1
X2074Y-38995
X7274Y-41295
X10274Y-35495
X10474Y-21495
X10474Y-37395
X12474Y-19695
X13774Y-35995
X15374Y-36495
X17574Y-36295
X18674Y-13195
X19674Y-42195
X22174Y-42395
X23774Y-35495
X25174Y-32395
X25374Y-40995
X27774Y-35095
X30374Y-31395
X30474Y-26395
X31474Y-35395
X32274Y-24095
X32874Y-34395
X33274Y-25895
X36774Y-19995
X36774Y-36595
X37774Y-34795
X42074Y-19595
X45374Y-39695
X47974Y-38795
X50274Y-13295
X50274Y-17995
X52524Y-12295
X52874Y-18295
X57874Y-19495
X62274Y-37295
X63274Y-32095
X69088Y-8255
X77724Y-7112
X81534Y-10287
X84582Y-13208
T2
X10795Y-1905
X10795Y-4445
X10795Y-50165
X10795Y-52705
X13335Y-1905
X13335Y-4445
X13335Y-50165
X13335Y-52705
X15875Y-1905
X15875Y-4445
X15875Y-50165
X15875Y-52705
X18415Y-1905
X18415Y-4445
X18415Y-50165
X18415Y-52705
X20955Y-1905
X20955Y-4445
X20955Y-50165
X20955Y-52705
X23495Y-1905
X23495Y-4445
X23495Y-50165
X23495Y-52705
X26035Y-1905
X26035Y-4445
X26035Y-50165
X26035Y-52705
X28575Y-1905
X28575Y-4445
X28575Y-50165
X28575Y-52705
X31115Y-1905
X31115Y-4445
X31115Y-50165
X31115Y-52705
X33655Y-1905
X33655Y-4445
X33655Y-50165
X33655Y-52705
X36195Y-1905
X36195Y-4445
X36195Y-50165
X36195Y-52705
X38735Y-1905
X38735Y-4445
X38735Y-50165
X38735Y-52705
X41275Y-1905
X41275Y-4445
X41275Y-50165
X41275Y-52705
X43815Y-1905
X43815Y-4445
X43815Y-50165
X43815Y-52705
X46355Y-1905
X46355Y-4445
X46355Y-50165
X46355Y-52705
X48895Y-1905
X48895Y-4445
X48895Y-50165
X48895Y-52705
X51435Y-1905
X51435Y-4445
X51435Y-50165
X51435Y-52705
X53975Y-1905
X53975Y-4445
X53975Y-50165
X53975Y-52705
X56515Y-1905
X56515Y-4445
X56515Y-50165
X56515Y-52705
X59055Y-1905
X59055Y-4445
X59055Y-50165
X59055Y-52705
X61595Y-1905
X61595Y-4445
X61595Y-50165
X61595Y-52705
X64135Y-1905
X64135Y-4445
X64135Y-50165
X64135Y-52705
X66675Y-4445
X66675Y-52705
X69215Y-16510
X69215Y-19050
X71755Y-16510
X71755Y-19050
X74295Y-16510
X74295Y-19050
X76835Y-16510
X76835Y-19050
X79375Y-19050
T3
X6114Y-27025
X6114Y-29565
X8654Y-27025
X8654Y-29565
X11194Y-27025
X11194Y-29565
X13734Y-27025
X13734Y-29565
X16274Y-27025
X16274Y-29565
X18814Y-27025
X18814Y-29565
X21354Y-27025
X21354Y-29565
X23894Y-27025
X23894Y-29565
X26434Y-27025
X26434Y-29565
X39114Y-27025
X39114Y-29565
X41654Y-27025
X41654Y-29565
X44194Y-27025
X44194Y-29565
X46734Y-27025
X46734Y-29565
X49274Y-27025
X49274Y-29565
X51814Y-27025
X51814Y-29565
X54354Y-27025
X54354Y-29565
X56894Y-27025
X56894Y-29565
X59434Y-27025
X59434Y-29565
X66675Y-6985
X66675Y-45085
T4
X10795Y-6985
X10795Y-9525
X10795Y-45085
X10795Y-47625
X13335Y-6985
X13335Y-9525
X13335Y-45085
X13335Y-47625
X15875Y-6985
X15875Y-9525
X15875Y-45085
X15875Y-47625
X18415Y-6985
X18415Y-9525
X18415Y-45085
X18415Y-47625
X20955Y-6985
X20955Y-9525
X20955Y-45085
X20955Y-47625
X23495Y-6985
X23495Y-9525
X23495Y-45085
X23495Y-47625
X26035Y-6985
X26035Y-9525
X26035Y-45085
X26035Y-47625
X28575Y-6985
X28575Y-9525
X28575Y-45085
X28575Y-47625
X31115Y-6985
X31115Y-9525
X31115Y-45085
X31115Y-47625
X33655Y-6985
X33655Y-9525
X33655Y-45085
X33655Y-47625
X36195Y-6985
X36195Y-9525
X36195Y-45085
X36195Y-47625
X38735Y-6985
X38735Y-9525
X38735Y-45085
X38735Y-47625
X41275Y-6985
X41275Y-9525
X41275Y-45085
X41275Y-47625
X43815Y-6985
X43815Y-9525
X43815Y-45085
X43815Y-47625
X46355Y-6985
X46355Y-9525
X46355Y-45085
X46355Y-47625
X48895Y-6985
X48895Y-9525
X48895Y-45085
X48895Y-47625
X51435Y-6985
X51435Y-9525
X51435Y-45085
X51435Y-47625
X53975Y-6985
X53975Y-9525
X53975Y-45085
X53975Y-47625
X56515Y-6985
X56515Y-9525
X56515Y-45085
X56515Y-47625
X59055Y-6985
X59055Y-9525
X59055Y-45085
X59055Y-47625
X61595Y-6985
X61595Y-9525
X61595Y-45085
X61595Y-47625
X64135Y-6985
X64135Y-9525
X64135Y-45085
X64135Y-47625
X66675Y-1905
X66675Y-9525
X66675Y-47625
X66675Y-50165
X70485Y-11430
X70485Y-13970
X73025Y-11430
X73025Y-13970
X75565Y-11430
X75565Y-13970
X76708Y-2413
X76708Y-4953
X79248Y-2413
X79248Y-4953
X79375Y-16510
T5
X5715Y-6350
X5715Y-48260
X71755Y-3175
X71755Y-51435
T0
M30
