G04 #@! TF.FileFunction,Legend,Top*
%FSLAX46Y46*%
G04 Gerber Fmt 4.6, Leading zero omitted, Abs format (unit mm)*
G04 Created by KiCad (PCBNEW 4.0.5+dfsg1-4) date Sun Oct 21 12:49:45 2018*
%MOMM*%
%LPD*%
G01*
G04 APERTURE LIST*
%ADD10C,0.100000*%
%ADD11C,0.150000*%
G04 APERTURE END LIST*
D10*
D11*
X149500000Y-100900000D02*
X148500000Y-100900000D01*
X148500000Y-102600000D02*
X149500000Y-102600000D01*
X149771100Y-106273600D02*
X149771100Y-118973600D01*
X149771100Y-118973600D02*
X147231100Y-118973600D01*
X147231100Y-118973600D02*
X147231100Y-106273600D01*
X150051100Y-103453600D02*
X150051100Y-105003600D01*
X149771100Y-106273600D02*
X147231100Y-106273600D01*
X146951100Y-105003600D02*
X146951100Y-103453600D01*
X146951100Y-103453600D02*
X150051100Y-103453600D01*
X148500000Y-121600000D02*
X149500000Y-121600000D01*
X149500000Y-119900000D02*
X148500000Y-119900000D01*
X147050000Y-122550000D02*
X147050000Y-127200000D01*
X147050000Y-127230000D02*
X150790000Y-127230000D01*
X150790000Y-127200000D02*
X150790000Y-122550000D01*
X150750000Y-122550000D02*
X147050000Y-122550000D01*
X150700000Y-99950000D02*
X150700000Y-95300000D01*
X150700000Y-95270000D02*
X146960000Y-95270000D01*
X146960000Y-95300000D02*
X146960000Y-99950000D01*
X147000000Y-99950000D02*
X150700000Y-99950000D01*
X152333334Y-101857143D02*
X152285715Y-101904762D01*
X152142858Y-101952381D01*
X152047620Y-101952381D01*
X151904762Y-101904762D01*
X151809524Y-101809524D01*
X151761905Y-101714286D01*
X151714286Y-101523810D01*
X151714286Y-101380952D01*
X151761905Y-101190476D01*
X151809524Y-101095238D01*
X151904762Y-101000000D01*
X152047620Y-100952381D01*
X152142858Y-100952381D01*
X152285715Y-101000000D01*
X152333334Y-101047619D01*
X152714286Y-101047619D02*
X152761905Y-101000000D01*
X152857143Y-100952381D01*
X153095239Y-100952381D01*
X153190477Y-101000000D01*
X153238096Y-101047619D01*
X153285715Y-101142857D01*
X153285715Y-101238095D01*
X153238096Y-101380952D01*
X152666667Y-101952381D01*
X153285715Y-101952381D01*
X150761905Y-104702381D02*
X150761905Y-103702381D01*
X151142858Y-103702381D01*
X151238096Y-103750000D01*
X151285715Y-103797619D01*
X151333334Y-103892857D01*
X151333334Y-104035714D01*
X151285715Y-104130952D01*
X151238096Y-104178571D01*
X151142858Y-104226190D01*
X150761905Y-104226190D01*
X152285715Y-104702381D02*
X151714286Y-104702381D01*
X152000000Y-104702381D02*
X152000000Y-103702381D01*
X151904762Y-103845238D01*
X151809524Y-103940476D01*
X151714286Y-103988095D01*
X151833334Y-121107143D02*
X151785715Y-121154762D01*
X151642858Y-121202381D01*
X151547620Y-121202381D01*
X151404762Y-121154762D01*
X151309524Y-121059524D01*
X151261905Y-120964286D01*
X151214286Y-120773810D01*
X151214286Y-120630952D01*
X151261905Y-120440476D01*
X151309524Y-120345238D01*
X151404762Y-120250000D01*
X151547620Y-120202381D01*
X151642858Y-120202381D01*
X151785715Y-120250000D01*
X151833334Y-120297619D01*
X152785715Y-121202381D02*
X152214286Y-121202381D01*
X152500000Y-121202381D02*
X152500000Y-120202381D01*
X152404762Y-120345238D01*
X152309524Y-120440476D01*
X152214286Y-120488095D01*
X151335714Y-124342857D02*
X151335714Y-125314286D01*
X151392857Y-125428571D01*
X151450000Y-125485714D01*
X151564286Y-125542857D01*
X151792857Y-125542857D01*
X151907143Y-125485714D01*
X151964286Y-125428571D01*
X152021429Y-125314286D01*
X152021429Y-124342857D01*
X153221429Y-125542857D02*
X152535714Y-125542857D01*
X152878572Y-125542857D02*
X152878572Y-124342857D01*
X152764286Y-124514286D01*
X152650000Y-124628571D01*
X152535714Y-124685714D01*
X147835714Y-93592857D02*
X147835714Y-94564286D01*
X147892857Y-94678571D01*
X147950000Y-94735714D01*
X148064286Y-94792857D01*
X148292857Y-94792857D01*
X148407143Y-94735714D01*
X148464286Y-94678571D01*
X148521429Y-94564286D01*
X148521429Y-93592857D01*
X149035714Y-93707143D02*
X149092857Y-93650000D01*
X149207143Y-93592857D01*
X149492857Y-93592857D01*
X149607143Y-93650000D01*
X149664286Y-93707143D01*
X149721429Y-93821429D01*
X149721429Y-93935714D01*
X149664286Y-94107143D01*
X148978572Y-94792857D01*
X149721429Y-94792857D01*
M02*
