G04 #@! TF.FileFunction,Copper,L1,Top,Signal*
%FSLAX46Y46*%
G04 Gerber Fmt 4.6, Leading zero omitted, Abs format (unit mm)*
G04 Created by KiCad (PCBNEW 4.0.5+dfsg1-4) date Sun Oct 21 12:49:45 2018*
%MOMM*%
%LPD*%
G01*
G04 APERTURE LIST*
%ADD10C,0.100000*%
%ADD11R,1.500000X1.250000*%
%ADD12R,2.032000X1.727200*%
%ADD13O,2.032000X1.727200*%
%ADD14C,1.000000*%
%ADD15C,1.000000*%
%ADD16C,0.600000*%
%ADD17C,0.400000*%
%ADD18C,0.254000*%
G04 APERTURE END LIST*
D10*
D11*
X147750000Y-101750000D03*
X150250000Y-101750000D03*
D12*
X148501100Y-105003600D03*
D13*
X148501100Y-107543600D03*
X148501100Y-110083600D03*
X148501100Y-112623600D03*
X148501100Y-115163600D03*
X148501100Y-117703600D03*
D11*
X150250000Y-120750000D03*
X147750000Y-120750000D03*
D14*
X147750000Y-123250000D03*
X147750000Y-124900000D03*
X147750000Y-126550000D03*
D15*
X150160711Y-123179289D02*
X150019289Y-123320711D01*
D14*
X150090000Y-124900000D03*
X150090000Y-126550000D03*
X150000000Y-99250000D03*
X150000000Y-97600000D03*
X150000000Y-95950000D03*
D15*
X147589289Y-99320711D02*
X147730711Y-99179289D01*
D14*
X147660000Y-97600000D03*
X147660000Y-95950000D03*
D16*
X146000000Y-118250000D03*
X146000000Y-119250000D03*
X146000000Y-120500000D03*
X146000000Y-121750000D03*
X146250000Y-123000000D03*
X150750000Y-119250000D03*
X151500000Y-100000000D03*
X151500000Y-99000000D03*
X151500000Y-97750000D03*
X151500000Y-96500000D03*
X151250000Y-104750000D03*
X151250000Y-103500000D03*
X152000000Y-127250000D03*
X151750000Y-128000000D03*
X150750000Y-128000000D03*
X149250000Y-128000000D03*
X147500000Y-128000000D03*
X146250000Y-128000000D03*
X146250000Y-127000000D03*
D17*
X146000000Y-118250000D02*
X146000000Y-118000000D01*
X146000000Y-120500000D02*
X146000000Y-119250000D01*
X146000000Y-122750000D02*
X146000000Y-121750000D01*
X146250000Y-123000000D02*
X146000000Y-122750000D01*
X150250000Y-120750000D02*
X150250000Y-119750000D01*
X150250000Y-119750000D02*
X150750000Y-119250000D01*
X147750000Y-101750000D02*
X147750000Y-104252500D01*
X147750000Y-104252500D02*
X148501100Y-105003600D01*
X147660000Y-99250000D02*
X147660000Y-101660000D01*
X147660000Y-101660000D02*
X147750000Y-101750000D01*
X147750000Y-124900000D02*
X148440000Y-124900000D01*
X148440000Y-124900000D02*
X150250000Y-123090000D01*
X150250000Y-123090000D02*
X150250000Y-120750000D01*
X149840000Y-120910000D02*
X150000000Y-120750000D01*
X150500000Y-121250000D02*
X150000000Y-120750000D01*
X150000000Y-95950000D02*
X150950000Y-95950000D01*
X151500000Y-97750000D02*
X151500000Y-99000000D01*
X150950000Y-95950000D02*
X151500000Y-96500000D01*
X150250000Y-101750000D02*
X150250000Y-102500000D01*
X150250000Y-102500000D02*
X151250000Y-103500000D01*
X147750000Y-126550000D02*
X146700000Y-126550000D01*
X152000000Y-127750000D02*
X152000000Y-127250000D01*
X151750000Y-128000000D02*
X152000000Y-127750000D01*
X149250000Y-128000000D02*
X150750000Y-128000000D01*
X146250000Y-128000000D02*
X147500000Y-128000000D01*
X146700000Y-126550000D02*
X146250000Y-127000000D01*
X150250000Y-101750000D02*
X150250000Y-106750000D01*
X150250000Y-106750000D02*
X149456400Y-107543600D01*
X149456400Y-107543600D02*
X148501100Y-107543600D01*
X150000000Y-95950000D02*
X150000000Y-97600000D01*
X150000000Y-97600000D02*
X150000000Y-99250000D01*
X150000000Y-99250000D02*
X150250000Y-99500000D01*
X150250000Y-99500000D02*
X150250000Y-101750000D01*
X147750000Y-120750000D02*
X147750000Y-118454700D01*
X147750000Y-118454700D02*
X148501100Y-117703600D01*
X147750000Y-123250000D02*
X147750000Y-120750000D01*
X147750000Y-126550000D02*
X147300000Y-126550000D01*
X147300000Y-126550000D02*
X146500000Y-125750000D01*
X146500000Y-125750000D02*
X146500000Y-124500000D01*
X146500000Y-124500000D02*
X147750000Y-123250000D01*
X148501100Y-107543600D02*
X149206400Y-107543600D01*
X148501100Y-117703600D02*
X149296400Y-117703600D01*
X148501100Y-117703600D02*
X149203600Y-117703600D01*
X147660000Y-95950000D02*
X147660000Y-95090000D01*
X152750000Y-108400672D02*
X151100287Y-110050385D01*
X152750000Y-95250000D02*
X152750000Y-108400672D01*
X151500000Y-94000000D02*
X152750000Y-95250000D01*
X148750000Y-94000000D02*
X151500000Y-94000000D01*
X147660000Y-95090000D02*
X148750000Y-94000000D01*
X150090000Y-126550000D02*
X150700000Y-126550000D01*
X151100287Y-110050385D02*
X148501100Y-110083600D01*
X152750000Y-111750000D02*
X151100287Y-110050385D01*
X152750000Y-124500000D02*
X152750000Y-111750000D01*
X150700000Y-126550000D02*
X152750000Y-124500000D01*
X147726400Y-110083600D02*
X148501100Y-110083600D01*
X147660000Y-97600000D02*
X146150000Y-97600000D01*
X146913600Y-115163600D02*
X148501100Y-115163600D01*
X145500000Y-113750000D02*
X146913600Y-115163600D01*
X145500000Y-98250000D02*
X145500000Y-113750000D01*
X146150000Y-97600000D02*
X145500000Y-98250000D01*
X148501100Y-115163600D02*
X147913600Y-115163600D01*
X150090000Y-124900000D02*
X150600000Y-124900000D01*
X150413600Y-115163600D02*
X148501100Y-115163600D01*
X151750000Y-116500000D02*
X150413600Y-115163600D01*
X151750000Y-123750000D02*
X151750000Y-116500000D01*
X150600000Y-124900000D02*
X151750000Y-123750000D01*
X148501100Y-115163600D02*
X147586400Y-115163600D01*
D18*
G36*
X146323166Y-115754034D02*
X146594059Y-115935039D01*
X146913600Y-115998600D01*
X147106565Y-115998600D01*
X147256685Y-116223270D01*
X147566169Y-116430061D01*
X147150368Y-116801564D01*
X146896391Y-117328809D01*
X146893742Y-117344574D01*
X147014883Y-117576600D01*
X148374100Y-117576600D01*
X148374100Y-117556600D01*
X148628100Y-117556600D01*
X148628100Y-117576600D01*
X149987317Y-117576600D01*
X150108458Y-117344574D01*
X150105809Y-117328809D01*
X149851832Y-116801564D01*
X149436031Y-116430061D01*
X149745515Y-116223270D01*
X149895635Y-115998600D01*
X150067732Y-115998600D01*
X150915000Y-116845868D01*
X150915000Y-118315143D01*
X150564833Y-118314838D01*
X150221057Y-118456883D01*
X149957808Y-118719673D01*
X149857222Y-118961910D01*
X149659566Y-119159566D01*
X149478561Y-119430459D01*
X149467994Y-119483582D01*
X149264683Y-119521838D01*
X149048559Y-119660910D01*
X149002031Y-119729006D01*
X148859698Y-119586673D01*
X148626309Y-119490000D01*
X148035750Y-119490000D01*
X147877000Y-119648750D01*
X147877000Y-120623000D01*
X147897000Y-120623000D01*
X147897000Y-120877000D01*
X147877000Y-120877000D01*
X147877000Y-121851250D01*
X148035750Y-122010000D01*
X148626309Y-122010000D01*
X148859698Y-121913327D01*
X149000936Y-121772090D01*
X149035910Y-121826441D01*
X149248110Y-121971431D01*
X149415000Y-122005227D01*
X149415000Y-122333057D01*
X149375253Y-122359615D01*
X149199615Y-122535253D01*
X148953578Y-122903474D01*
X148878570Y-123280562D01*
X148639644Y-123519488D01*
X148116190Y-123436582D01*
X147943749Y-123264141D01*
X147764141Y-123443749D01*
X147836444Y-123516052D01*
X147797008Y-123765040D01*
X147539878Y-123764816D01*
X147604696Y-123355569D01*
X146751950Y-123220507D01*
X146599754Y-123377001D01*
X146735913Y-123807513D01*
X146964935Y-124079963D01*
X146788355Y-124256235D01*
X146615197Y-124673244D01*
X146614803Y-125124775D01*
X146787233Y-125542086D01*
X147106235Y-125861645D01*
X147337124Y-125957519D01*
X147750000Y-126370395D01*
X148162951Y-125957444D01*
X148392086Y-125862767D01*
X148540003Y-125715108D01*
X148759541Y-125671439D01*
X149030434Y-125490434D01*
X149083829Y-125437039D01*
X149127233Y-125542086D01*
X149309867Y-125725039D01*
X149128355Y-125906235D01*
X148955197Y-126323244D01*
X148954803Y-126774775D01*
X149127233Y-127192086D01*
X149446235Y-127511645D01*
X149863244Y-127684803D01*
X150314775Y-127685197D01*
X150732086Y-127512767D01*
X150899910Y-127345235D01*
X151019541Y-127321439D01*
X151290434Y-127140434D01*
X152815000Y-125615868D01*
X152815000Y-128565000D01*
X145375692Y-128565000D01*
X145367005Y-127340104D01*
X147139501Y-127340104D01*
X147176648Y-127555217D01*
X147604972Y-127698112D01*
X148055375Y-127666217D01*
X148323352Y-127555217D01*
X148360499Y-127340104D01*
X147750000Y-126729605D01*
X147139501Y-127340104D01*
X145367005Y-127340104D01*
X145360373Y-126404972D01*
X146601888Y-126404972D01*
X146633783Y-126855375D01*
X146744783Y-127123352D01*
X146959896Y-127160499D01*
X147570395Y-126550000D01*
X147929605Y-126550000D01*
X148540104Y-127160499D01*
X148755217Y-127123352D01*
X148898112Y-126695028D01*
X148866217Y-126244625D01*
X148755217Y-125976648D01*
X148540104Y-125939501D01*
X147929605Y-126550000D01*
X147570395Y-126550000D01*
X146959896Y-125939501D01*
X146744783Y-125976648D01*
X146601888Y-126404972D01*
X145360373Y-126404972D01*
X145337249Y-123144431D01*
X147895304Y-123144431D01*
X148748050Y-123279493D01*
X148900246Y-123122999D01*
X148764087Y-122692487D01*
X148473544Y-122346851D01*
X148226230Y-122195297D01*
X148030365Y-122291684D01*
X147895304Y-123144431D01*
X145337249Y-123144431D01*
X145334620Y-122773770D01*
X146695297Y-122773770D01*
X146791684Y-122969635D01*
X147644431Y-123104696D01*
X147779493Y-122251950D01*
X147622999Y-122099754D01*
X147192487Y-122235913D01*
X146846851Y-122526456D01*
X146695297Y-122773770D01*
X145334620Y-122773770D01*
X145322293Y-121035750D01*
X146365000Y-121035750D01*
X146365000Y-121501310D01*
X146461673Y-121734699D01*
X146640302Y-121913327D01*
X146873691Y-122010000D01*
X147464250Y-122010000D01*
X147623000Y-121851250D01*
X147623000Y-120877000D01*
X146523750Y-120877000D01*
X146365000Y-121035750D01*
X145322293Y-121035750D01*
X145314938Y-119998690D01*
X146365000Y-119998690D01*
X146365000Y-120464250D01*
X146523750Y-120623000D01*
X147623000Y-120623000D01*
X147623000Y-119648750D01*
X147464250Y-119490000D01*
X146873691Y-119490000D01*
X146640302Y-119586673D01*
X146461673Y-119765301D01*
X146365000Y-119998690D01*
X145314938Y-119998690D01*
X145301207Y-118062626D01*
X146893742Y-118062626D01*
X146896391Y-118078391D01*
X147150368Y-118605636D01*
X147586780Y-118995554D01*
X148139187Y-119188784D01*
X148374100Y-119044524D01*
X148374100Y-117830600D01*
X148628100Y-117830600D01*
X148628100Y-119044524D01*
X148863013Y-119188784D01*
X149415420Y-118995554D01*
X149851832Y-118605636D01*
X150105809Y-118078391D01*
X150108458Y-118062626D01*
X149987317Y-117830600D01*
X148628100Y-117830600D01*
X148374100Y-117830600D01*
X147014883Y-117830600D01*
X146893742Y-118062626D01*
X145301207Y-118062626D01*
X145277417Y-114708285D01*
X146323166Y-115754034D01*
X146323166Y-115754034D01*
G37*
X146323166Y-115754034D02*
X146594059Y-115935039D01*
X146913600Y-115998600D01*
X147106565Y-115998600D01*
X147256685Y-116223270D01*
X147566169Y-116430061D01*
X147150368Y-116801564D01*
X146896391Y-117328809D01*
X146893742Y-117344574D01*
X147014883Y-117576600D01*
X148374100Y-117576600D01*
X148374100Y-117556600D01*
X148628100Y-117556600D01*
X148628100Y-117576600D01*
X149987317Y-117576600D01*
X150108458Y-117344574D01*
X150105809Y-117328809D01*
X149851832Y-116801564D01*
X149436031Y-116430061D01*
X149745515Y-116223270D01*
X149895635Y-115998600D01*
X150067732Y-115998600D01*
X150915000Y-116845868D01*
X150915000Y-118315143D01*
X150564833Y-118314838D01*
X150221057Y-118456883D01*
X149957808Y-118719673D01*
X149857222Y-118961910D01*
X149659566Y-119159566D01*
X149478561Y-119430459D01*
X149467994Y-119483582D01*
X149264683Y-119521838D01*
X149048559Y-119660910D01*
X149002031Y-119729006D01*
X148859698Y-119586673D01*
X148626309Y-119490000D01*
X148035750Y-119490000D01*
X147877000Y-119648750D01*
X147877000Y-120623000D01*
X147897000Y-120623000D01*
X147897000Y-120877000D01*
X147877000Y-120877000D01*
X147877000Y-121851250D01*
X148035750Y-122010000D01*
X148626309Y-122010000D01*
X148859698Y-121913327D01*
X149000936Y-121772090D01*
X149035910Y-121826441D01*
X149248110Y-121971431D01*
X149415000Y-122005227D01*
X149415000Y-122333057D01*
X149375253Y-122359615D01*
X149199615Y-122535253D01*
X148953578Y-122903474D01*
X148878570Y-123280562D01*
X148639644Y-123519488D01*
X148116190Y-123436582D01*
X147943749Y-123264141D01*
X147764141Y-123443749D01*
X147836444Y-123516052D01*
X147797008Y-123765040D01*
X147539878Y-123764816D01*
X147604696Y-123355569D01*
X146751950Y-123220507D01*
X146599754Y-123377001D01*
X146735913Y-123807513D01*
X146964935Y-124079963D01*
X146788355Y-124256235D01*
X146615197Y-124673244D01*
X146614803Y-125124775D01*
X146787233Y-125542086D01*
X147106235Y-125861645D01*
X147337124Y-125957519D01*
X147750000Y-126370395D01*
X148162951Y-125957444D01*
X148392086Y-125862767D01*
X148540003Y-125715108D01*
X148759541Y-125671439D01*
X149030434Y-125490434D01*
X149083829Y-125437039D01*
X149127233Y-125542086D01*
X149309867Y-125725039D01*
X149128355Y-125906235D01*
X148955197Y-126323244D01*
X148954803Y-126774775D01*
X149127233Y-127192086D01*
X149446235Y-127511645D01*
X149863244Y-127684803D01*
X150314775Y-127685197D01*
X150732086Y-127512767D01*
X150899910Y-127345235D01*
X151019541Y-127321439D01*
X151290434Y-127140434D01*
X152815000Y-125615868D01*
X152815000Y-128565000D01*
X145375692Y-128565000D01*
X145367005Y-127340104D01*
X147139501Y-127340104D01*
X147176648Y-127555217D01*
X147604972Y-127698112D01*
X148055375Y-127666217D01*
X148323352Y-127555217D01*
X148360499Y-127340104D01*
X147750000Y-126729605D01*
X147139501Y-127340104D01*
X145367005Y-127340104D01*
X145360373Y-126404972D01*
X146601888Y-126404972D01*
X146633783Y-126855375D01*
X146744783Y-127123352D01*
X146959896Y-127160499D01*
X147570395Y-126550000D01*
X147929605Y-126550000D01*
X148540104Y-127160499D01*
X148755217Y-127123352D01*
X148898112Y-126695028D01*
X148866217Y-126244625D01*
X148755217Y-125976648D01*
X148540104Y-125939501D01*
X147929605Y-126550000D01*
X147570395Y-126550000D01*
X146959896Y-125939501D01*
X146744783Y-125976648D01*
X146601888Y-126404972D01*
X145360373Y-126404972D01*
X145337249Y-123144431D01*
X147895304Y-123144431D01*
X148748050Y-123279493D01*
X148900246Y-123122999D01*
X148764087Y-122692487D01*
X148473544Y-122346851D01*
X148226230Y-122195297D01*
X148030365Y-122291684D01*
X147895304Y-123144431D01*
X145337249Y-123144431D01*
X145334620Y-122773770D01*
X146695297Y-122773770D01*
X146791684Y-122969635D01*
X147644431Y-123104696D01*
X147779493Y-122251950D01*
X147622999Y-122099754D01*
X147192487Y-122235913D01*
X146846851Y-122526456D01*
X146695297Y-122773770D01*
X145334620Y-122773770D01*
X145322293Y-121035750D01*
X146365000Y-121035750D01*
X146365000Y-121501310D01*
X146461673Y-121734699D01*
X146640302Y-121913327D01*
X146873691Y-122010000D01*
X147464250Y-122010000D01*
X147623000Y-121851250D01*
X147623000Y-120877000D01*
X146523750Y-120877000D01*
X146365000Y-121035750D01*
X145322293Y-121035750D01*
X145314938Y-119998690D01*
X146365000Y-119998690D01*
X146365000Y-120464250D01*
X146523750Y-120623000D01*
X147623000Y-120623000D01*
X147623000Y-119648750D01*
X147464250Y-119490000D01*
X146873691Y-119490000D01*
X146640302Y-119586673D01*
X146461673Y-119765301D01*
X146365000Y-119998690D01*
X145314938Y-119998690D01*
X145301207Y-118062626D01*
X146893742Y-118062626D01*
X146896391Y-118078391D01*
X147150368Y-118605636D01*
X147586780Y-118995554D01*
X148139187Y-119188784D01*
X148374100Y-119044524D01*
X148374100Y-117830600D01*
X148628100Y-117830600D01*
X148628100Y-119044524D01*
X148863013Y-119188784D01*
X149415420Y-118995554D01*
X149851832Y-118605636D01*
X150105809Y-118078391D01*
X150108458Y-118062626D01*
X149987317Y-117830600D01*
X148628100Y-117830600D01*
X148374100Y-117830600D01*
X147014883Y-117830600D01*
X146893742Y-118062626D01*
X145301207Y-118062626D01*
X145277417Y-114708285D01*
X146323166Y-115754034D01*
G36*
X149426648Y-94944783D02*
X149389501Y-95159896D01*
X150000000Y-95770395D01*
X150610499Y-95159896D01*
X150573352Y-94944783D01*
X150244280Y-94835000D01*
X151154132Y-94835000D01*
X151915000Y-95595868D01*
X151915000Y-108054803D01*
X150750011Y-109219793D01*
X149883783Y-109230862D01*
X149745515Y-109023930D01*
X149436031Y-108817139D01*
X149851832Y-108445636D01*
X150105809Y-107918391D01*
X150108458Y-107902626D01*
X149987317Y-107670600D01*
X148628100Y-107670600D01*
X148628100Y-107690600D01*
X148374100Y-107690600D01*
X148374100Y-107670600D01*
X147014883Y-107670600D01*
X146893742Y-107902626D01*
X146896391Y-107918391D01*
X147150368Y-108445636D01*
X147566169Y-108817139D01*
X147256685Y-109023930D01*
X146931829Y-109510111D01*
X146817755Y-110083600D01*
X146931829Y-110657089D01*
X147256685Y-111143270D01*
X147566169Y-111350061D01*
X147150368Y-111721564D01*
X146896391Y-112248809D01*
X146893742Y-112264574D01*
X147014883Y-112496600D01*
X148374100Y-112496600D01*
X148374100Y-112476600D01*
X148628100Y-112476600D01*
X148628100Y-112496600D01*
X149987317Y-112496600D01*
X150108458Y-112264574D01*
X150105809Y-112248809D01*
X149851832Y-111721564D01*
X149436031Y-111350061D01*
X149745515Y-111143270D01*
X149907599Y-110900695D01*
X150751501Y-110889910D01*
X151915000Y-112088603D01*
X151915000Y-115484132D01*
X151004034Y-114573166D01*
X150926619Y-114521439D01*
X150733141Y-114392161D01*
X150413600Y-114328600D01*
X149895635Y-114328600D01*
X149745515Y-114103930D01*
X149436031Y-113897139D01*
X149851832Y-113525636D01*
X150105809Y-112998391D01*
X150108458Y-112982626D01*
X149987317Y-112750600D01*
X148628100Y-112750600D01*
X148628100Y-112770600D01*
X148374100Y-112770600D01*
X148374100Y-112750600D01*
X147014883Y-112750600D01*
X146893742Y-112982626D01*
X146896391Y-112998391D01*
X147150368Y-113525636D01*
X147566169Y-113897139D01*
X147256685Y-114103930D01*
X147167809Y-114236941D01*
X146335000Y-113404132D01*
X146335000Y-98595868D01*
X146495868Y-98435000D01*
X146869868Y-98435000D01*
X146769615Y-98535253D01*
X146523578Y-98903474D01*
X146437181Y-99337819D01*
X146523578Y-99772164D01*
X146769615Y-100140385D01*
X146825000Y-100177392D01*
X146825000Y-100510489D01*
X146764683Y-100521838D01*
X146548559Y-100660910D01*
X146403569Y-100873110D01*
X146352560Y-101125000D01*
X146352560Y-102375000D01*
X146396838Y-102610317D01*
X146535910Y-102826441D01*
X146748110Y-102971431D01*
X146915000Y-103005227D01*
X146915000Y-103849573D01*
X146888669Y-103888110D01*
X146837660Y-104140000D01*
X146837660Y-105867200D01*
X146881938Y-106102517D01*
X147021010Y-106318641D01*
X147233210Y-106463631D01*
X147328027Y-106482832D01*
X147150368Y-106641564D01*
X146896391Y-107168809D01*
X146893742Y-107184574D01*
X147014883Y-107416600D01*
X148374100Y-107416600D01*
X148374100Y-107396600D01*
X148628100Y-107396600D01*
X148628100Y-107416600D01*
X149987317Y-107416600D01*
X150108458Y-107184574D01*
X150105809Y-107168809D01*
X149851832Y-106641564D01*
X149676255Y-106484693D01*
X149752417Y-106470362D01*
X149968541Y-106331290D01*
X150113531Y-106119090D01*
X150164540Y-105867200D01*
X150164540Y-104140000D01*
X150120262Y-103904683D01*
X149981190Y-103688559D01*
X149768990Y-103543569D01*
X149517100Y-103492560D01*
X148585000Y-103492560D01*
X148585000Y-103006446D01*
X148735317Y-102978162D01*
X148951441Y-102839090D01*
X148997969Y-102770994D01*
X149140302Y-102913327D01*
X149373691Y-103010000D01*
X149964250Y-103010000D01*
X150123000Y-102851250D01*
X150123000Y-101877000D01*
X150377000Y-101877000D01*
X150377000Y-102851250D01*
X150535750Y-103010000D01*
X151126309Y-103010000D01*
X151359698Y-102913327D01*
X151538327Y-102734699D01*
X151635000Y-102501310D01*
X151635000Y-102035750D01*
X151476250Y-101877000D01*
X150377000Y-101877000D01*
X150123000Y-101877000D01*
X150103000Y-101877000D01*
X150103000Y-101623000D01*
X150123000Y-101623000D01*
X150123000Y-100648750D01*
X150377000Y-100648750D01*
X150377000Y-101623000D01*
X151476250Y-101623000D01*
X151635000Y-101464250D01*
X151635000Y-100998690D01*
X151538327Y-100765301D01*
X151359698Y-100586673D01*
X151126309Y-100490000D01*
X150535750Y-100490000D01*
X150377000Y-100648750D01*
X150123000Y-100648750D01*
X149964250Y-100490000D01*
X149373691Y-100490000D01*
X149140302Y-100586673D01*
X148999064Y-100727910D01*
X148964090Y-100673559D01*
X148751890Y-100528569D01*
X148500000Y-100477560D01*
X148495000Y-100477560D01*
X148495000Y-100020132D01*
X148550385Y-99964747D01*
X148796423Y-99596526D01*
X148840088Y-99377001D01*
X148849754Y-99377001D01*
X148985913Y-99807513D01*
X149276456Y-100153149D01*
X149523770Y-100304703D01*
X149638892Y-100248050D01*
X149970507Y-100248050D01*
X150127001Y-100400246D01*
X150557513Y-100264087D01*
X150903149Y-99973544D01*
X151054703Y-99726230D01*
X150958316Y-99530365D01*
X150105569Y-99395304D01*
X149970507Y-100248050D01*
X149638892Y-100248050D01*
X149719635Y-100208316D01*
X149854696Y-99355569D01*
X149001950Y-99220507D01*
X148849754Y-99377001D01*
X148840088Y-99377001D01*
X148882819Y-99162181D01*
X148805560Y-98773770D01*
X148945297Y-98773770D01*
X149041684Y-98969635D01*
X149894431Y-99104696D01*
X149951997Y-98741241D01*
X150212080Y-98722824D01*
X150145304Y-99144431D01*
X150998050Y-99279493D01*
X151150246Y-99122999D01*
X151014087Y-98692487D01*
X150723544Y-98346851D01*
X150476230Y-98195297D01*
X150435658Y-98215263D01*
X150000000Y-97779605D01*
X149590506Y-98189099D01*
X149442487Y-98235913D01*
X149096851Y-98526456D01*
X148945297Y-98773770D01*
X148805560Y-98773770D01*
X148796423Y-98727835D01*
X148550385Y-98359615D01*
X148523553Y-98341686D01*
X148621645Y-98243765D01*
X148794803Y-97826756D01*
X148795127Y-97454972D01*
X148851888Y-97454972D01*
X148883783Y-97905375D01*
X148994783Y-98173352D01*
X149209896Y-98210499D01*
X149820395Y-97600000D01*
X150179605Y-97600000D01*
X150790104Y-98210499D01*
X151005217Y-98173352D01*
X151148112Y-97745028D01*
X151116217Y-97294625D01*
X151005217Y-97026648D01*
X150790104Y-96989501D01*
X150179605Y-97600000D01*
X149820395Y-97600000D01*
X149209896Y-96989501D01*
X148994783Y-97026648D01*
X148851888Y-97454972D01*
X148795127Y-97454972D01*
X148795197Y-97375225D01*
X148622767Y-96957914D01*
X148440133Y-96774961D01*
X148475050Y-96740104D01*
X149389501Y-96740104D01*
X149395527Y-96775000D01*
X149389501Y-96809896D01*
X149404069Y-96824464D01*
X149426648Y-96955217D01*
X149588977Y-97009372D01*
X150000000Y-97420395D01*
X150388687Y-97031708D01*
X150573352Y-96955217D01*
X150595931Y-96824464D01*
X150610499Y-96809896D01*
X150604473Y-96775000D01*
X150610499Y-96740104D01*
X150595931Y-96725536D01*
X150573352Y-96594783D01*
X150411023Y-96540628D01*
X150000000Y-96129605D01*
X149611313Y-96518292D01*
X149426648Y-96594783D01*
X149404069Y-96725536D01*
X149389501Y-96740104D01*
X148475050Y-96740104D01*
X148621645Y-96593765D01*
X148794803Y-96176756D01*
X148795127Y-95804972D01*
X148851888Y-95804972D01*
X148883783Y-96255375D01*
X148994783Y-96523352D01*
X149209896Y-96560499D01*
X149820395Y-95950000D01*
X150179605Y-95950000D01*
X150790104Y-96560499D01*
X151005217Y-96523352D01*
X151148112Y-96095028D01*
X151116217Y-95644625D01*
X151005217Y-95376648D01*
X150790104Y-95339501D01*
X150179605Y-95950000D01*
X149820395Y-95950000D01*
X149209896Y-95339501D01*
X148994783Y-95376648D01*
X148851888Y-95804972D01*
X148795127Y-95804972D01*
X148795197Y-95725225D01*
X148622822Y-95308046D01*
X149095868Y-94835000D01*
X149691687Y-94835000D01*
X149426648Y-94944783D01*
X149426648Y-94944783D01*
G37*
X149426648Y-94944783D02*
X149389501Y-95159896D01*
X150000000Y-95770395D01*
X150610499Y-95159896D01*
X150573352Y-94944783D01*
X150244280Y-94835000D01*
X151154132Y-94835000D01*
X151915000Y-95595868D01*
X151915000Y-108054803D01*
X150750011Y-109219793D01*
X149883783Y-109230862D01*
X149745515Y-109023930D01*
X149436031Y-108817139D01*
X149851832Y-108445636D01*
X150105809Y-107918391D01*
X150108458Y-107902626D01*
X149987317Y-107670600D01*
X148628100Y-107670600D01*
X148628100Y-107690600D01*
X148374100Y-107690600D01*
X148374100Y-107670600D01*
X147014883Y-107670600D01*
X146893742Y-107902626D01*
X146896391Y-107918391D01*
X147150368Y-108445636D01*
X147566169Y-108817139D01*
X147256685Y-109023930D01*
X146931829Y-109510111D01*
X146817755Y-110083600D01*
X146931829Y-110657089D01*
X147256685Y-111143270D01*
X147566169Y-111350061D01*
X147150368Y-111721564D01*
X146896391Y-112248809D01*
X146893742Y-112264574D01*
X147014883Y-112496600D01*
X148374100Y-112496600D01*
X148374100Y-112476600D01*
X148628100Y-112476600D01*
X148628100Y-112496600D01*
X149987317Y-112496600D01*
X150108458Y-112264574D01*
X150105809Y-112248809D01*
X149851832Y-111721564D01*
X149436031Y-111350061D01*
X149745515Y-111143270D01*
X149907599Y-110900695D01*
X150751501Y-110889910D01*
X151915000Y-112088603D01*
X151915000Y-115484132D01*
X151004034Y-114573166D01*
X150926619Y-114521439D01*
X150733141Y-114392161D01*
X150413600Y-114328600D01*
X149895635Y-114328600D01*
X149745515Y-114103930D01*
X149436031Y-113897139D01*
X149851832Y-113525636D01*
X150105809Y-112998391D01*
X150108458Y-112982626D01*
X149987317Y-112750600D01*
X148628100Y-112750600D01*
X148628100Y-112770600D01*
X148374100Y-112770600D01*
X148374100Y-112750600D01*
X147014883Y-112750600D01*
X146893742Y-112982626D01*
X146896391Y-112998391D01*
X147150368Y-113525636D01*
X147566169Y-113897139D01*
X147256685Y-114103930D01*
X147167809Y-114236941D01*
X146335000Y-113404132D01*
X146335000Y-98595868D01*
X146495868Y-98435000D01*
X146869868Y-98435000D01*
X146769615Y-98535253D01*
X146523578Y-98903474D01*
X146437181Y-99337819D01*
X146523578Y-99772164D01*
X146769615Y-100140385D01*
X146825000Y-100177392D01*
X146825000Y-100510489D01*
X146764683Y-100521838D01*
X146548559Y-100660910D01*
X146403569Y-100873110D01*
X146352560Y-101125000D01*
X146352560Y-102375000D01*
X146396838Y-102610317D01*
X146535910Y-102826441D01*
X146748110Y-102971431D01*
X146915000Y-103005227D01*
X146915000Y-103849573D01*
X146888669Y-103888110D01*
X146837660Y-104140000D01*
X146837660Y-105867200D01*
X146881938Y-106102517D01*
X147021010Y-106318641D01*
X147233210Y-106463631D01*
X147328027Y-106482832D01*
X147150368Y-106641564D01*
X146896391Y-107168809D01*
X146893742Y-107184574D01*
X147014883Y-107416600D01*
X148374100Y-107416600D01*
X148374100Y-107396600D01*
X148628100Y-107396600D01*
X148628100Y-107416600D01*
X149987317Y-107416600D01*
X150108458Y-107184574D01*
X150105809Y-107168809D01*
X149851832Y-106641564D01*
X149676255Y-106484693D01*
X149752417Y-106470362D01*
X149968541Y-106331290D01*
X150113531Y-106119090D01*
X150164540Y-105867200D01*
X150164540Y-104140000D01*
X150120262Y-103904683D01*
X149981190Y-103688559D01*
X149768990Y-103543569D01*
X149517100Y-103492560D01*
X148585000Y-103492560D01*
X148585000Y-103006446D01*
X148735317Y-102978162D01*
X148951441Y-102839090D01*
X148997969Y-102770994D01*
X149140302Y-102913327D01*
X149373691Y-103010000D01*
X149964250Y-103010000D01*
X150123000Y-102851250D01*
X150123000Y-101877000D01*
X150377000Y-101877000D01*
X150377000Y-102851250D01*
X150535750Y-103010000D01*
X151126309Y-103010000D01*
X151359698Y-102913327D01*
X151538327Y-102734699D01*
X151635000Y-102501310D01*
X151635000Y-102035750D01*
X151476250Y-101877000D01*
X150377000Y-101877000D01*
X150123000Y-101877000D01*
X150103000Y-101877000D01*
X150103000Y-101623000D01*
X150123000Y-101623000D01*
X150123000Y-100648750D01*
X150377000Y-100648750D01*
X150377000Y-101623000D01*
X151476250Y-101623000D01*
X151635000Y-101464250D01*
X151635000Y-100998690D01*
X151538327Y-100765301D01*
X151359698Y-100586673D01*
X151126309Y-100490000D01*
X150535750Y-100490000D01*
X150377000Y-100648750D01*
X150123000Y-100648750D01*
X149964250Y-100490000D01*
X149373691Y-100490000D01*
X149140302Y-100586673D01*
X148999064Y-100727910D01*
X148964090Y-100673559D01*
X148751890Y-100528569D01*
X148500000Y-100477560D01*
X148495000Y-100477560D01*
X148495000Y-100020132D01*
X148550385Y-99964747D01*
X148796423Y-99596526D01*
X148840088Y-99377001D01*
X148849754Y-99377001D01*
X148985913Y-99807513D01*
X149276456Y-100153149D01*
X149523770Y-100304703D01*
X149638892Y-100248050D01*
X149970507Y-100248050D01*
X150127001Y-100400246D01*
X150557513Y-100264087D01*
X150903149Y-99973544D01*
X151054703Y-99726230D01*
X150958316Y-99530365D01*
X150105569Y-99395304D01*
X149970507Y-100248050D01*
X149638892Y-100248050D01*
X149719635Y-100208316D01*
X149854696Y-99355569D01*
X149001950Y-99220507D01*
X148849754Y-99377001D01*
X148840088Y-99377001D01*
X148882819Y-99162181D01*
X148805560Y-98773770D01*
X148945297Y-98773770D01*
X149041684Y-98969635D01*
X149894431Y-99104696D01*
X149951997Y-98741241D01*
X150212080Y-98722824D01*
X150145304Y-99144431D01*
X150998050Y-99279493D01*
X151150246Y-99122999D01*
X151014087Y-98692487D01*
X150723544Y-98346851D01*
X150476230Y-98195297D01*
X150435658Y-98215263D01*
X150000000Y-97779605D01*
X149590506Y-98189099D01*
X149442487Y-98235913D01*
X149096851Y-98526456D01*
X148945297Y-98773770D01*
X148805560Y-98773770D01*
X148796423Y-98727835D01*
X148550385Y-98359615D01*
X148523553Y-98341686D01*
X148621645Y-98243765D01*
X148794803Y-97826756D01*
X148795127Y-97454972D01*
X148851888Y-97454972D01*
X148883783Y-97905375D01*
X148994783Y-98173352D01*
X149209896Y-98210499D01*
X149820395Y-97600000D01*
X150179605Y-97600000D01*
X150790104Y-98210499D01*
X151005217Y-98173352D01*
X151148112Y-97745028D01*
X151116217Y-97294625D01*
X151005217Y-97026648D01*
X150790104Y-96989501D01*
X150179605Y-97600000D01*
X149820395Y-97600000D01*
X149209896Y-96989501D01*
X148994783Y-97026648D01*
X148851888Y-97454972D01*
X148795127Y-97454972D01*
X148795197Y-97375225D01*
X148622767Y-96957914D01*
X148440133Y-96774961D01*
X148475050Y-96740104D01*
X149389501Y-96740104D01*
X149395527Y-96775000D01*
X149389501Y-96809896D01*
X149404069Y-96824464D01*
X149426648Y-96955217D01*
X149588977Y-97009372D01*
X150000000Y-97420395D01*
X150388687Y-97031708D01*
X150573352Y-96955217D01*
X150595931Y-96824464D01*
X150610499Y-96809896D01*
X150604473Y-96775000D01*
X150610499Y-96740104D01*
X150595931Y-96725536D01*
X150573352Y-96594783D01*
X150411023Y-96540628D01*
X150000000Y-96129605D01*
X149611313Y-96518292D01*
X149426648Y-96594783D01*
X149404069Y-96725536D01*
X149389501Y-96740104D01*
X148475050Y-96740104D01*
X148621645Y-96593765D01*
X148794803Y-96176756D01*
X148795127Y-95804972D01*
X148851888Y-95804972D01*
X148883783Y-96255375D01*
X148994783Y-96523352D01*
X149209896Y-96560499D01*
X149820395Y-95950000D01*
X150179605Y-95950000D01*
X150790104Y-96560499D01*
X151005217Y-96523352D01*
X151148112Y-96095028D01*
X151116217Y-95644625D01*
X151005217Y-95376648D01*
X150790104Y-95339501D01*
X150179605Y-95950000D01*
X149820395Y-95950000D01*
X149209896Y-95339501D01*
X148994783Y-95376648D01*
X148851888Y-95804972D01*
X148795127Y-95804972D01*
X148795197Y-95725225D01*
X148622822Y-95308046D01*
X149095868Y-94835000D01*
X149691687Y-94835000D01*
X149426648Y-94944783D01*
M02*
