M48
;DRILL file {KiCad 4.0.5+dfsg1-4} date Sun Oct 21 12:44:02 2018
;FORMAT={-:-/ absolute / inch / decimal}
FMAT,2
INCH,TZ
T1C0.016
T2C0.040
%
G90
G05
M72
T1
X5.748Y-4.6555
X5.748Y-4.6949
X5.748Y-4.7441
X5.748Y-4.7933
X5.7579Y-4.8425
X5.7579Y-5.
X5.7579Y-5.0394
X5.8071Y-5.0394
X5.876Y-5.0394
X5.935Y-4.6949
X5.935Y-5.0394
X5.9547Y-4.0748
X5.9547Y-4.124
X5.9646Y-3.7992
X5.9646Y-3.8484
X5.9646Y-3.8976
X5.9646Y-3.937
X5.9744Y-5.0394
X5.9843Y-5.0098
T2
X5.8465Y-4.134
X5.8465Y-4.234
X5.8465Y-4.334
X5.8465Y-4.434
X5.8465Y-4.534
X5.8465Y-4.634
T0
M30
